<svg width="65" height="65" viewBox="0 0 65 65" fill="none" xmlns="http://www.w3.org/2000/svg">
<g clip-path="url(#clip0_78_16)">
<path d="M65 32.5C65 14.5488 50.4512 0 32.5 0C14.5488 0 0 14.5488 0 32.5C0 47.7344 10.499 60.5312 24.6543 64.0479V42.4277H17.9512V32.5H24.6543V28.2217C24.6543 17.1641 29.6563 12.0352 40.5234 12.0352C42.5801 12.0352 46.1348 12.4414 47.5947 12.8477V21.8359C46.833 21.7598 45.5 21.709 43.8369 21.709C38.5049 21.709 36.4482 23.7275 36.4482 28.9707V32.5H47.0615L45.2334 42.4277H36.4355V64.7588C52.5332 62.8164 65 49.1182 65 32.5Z" fill="#4B5C49"/>
</g>
<defs>
<clipPath id="clip0_78_16">
<rect width="65" height="65" fill="white"/>
</clipPath>
</defs>
</svg>
