<svg width="65" height="75" viewBox="0 0 65 75" fill="none" xmlns="http://www.w3.org/2000/svg">
<g clip-path="url(#clip0_78_18)">
<path d="M32.5145 20.4576C23.2868 20.4576 15.8438 27.9006 15.8438 37.1283C15.8438 46.356 23.2868 53.7991 32.5145 53.7991C41.7422 53.7991 49.1853 46.356 49.1853 37.1283C49.1853 27.9006 41.7422 20.4576 32.5145 20.4576ZM32.5145 47.9665C26.5514 47.9665 21.6764 43.106 21.6764 37.1283C21.6764 31.1506 26.5368 26.2901 32.5145 26.2901C38.4922 26.2901 43.3527 31.1506 43.3527 37.1283C43.3527 43.106 38.4777 47.9665 32.5145 47.9665ZM53.7556 19.7756C53.7556 21.9375 52.0145 23.664 49.8672 23.664C47.7054 23.664 45.9788 21.923 45.9788 19.7756C45.9788 17.6283 47.7199 15.8872 49.8672 15.8872C52.0145 15.8872 53.7556 17.6283 53.7556 19.7756ZM64.7969 23.7221C64.5502 18.5134 63.3605 13.8995 59.5447 10.0982C55.7433 6.29684 51.1295 5.10711 45.9208 4.84595C40.5525 4.54126 24.4621 4.54126 19.0938 4.84595C13.8996 5.0926 9.28573 6.28233 5.46988 10.0837C1.65404 13.885 0.478812 18.4988 0.217651 23.7076C-0.0870361 29.0759 -0.0870361 45.1663 0.217651 50.5346C0.464303 55.7433 1.65404 60.3571 5.46988 64.1584C9.28573 67.9598 13.8851 69.1495 19.0938 69.4107C24.4621 69.7154 40.5525 69.7154 45.9208 69.4107C51.1295 69.164 55.7433 67.9743 59.5447 64.1584C63.346 60.3571 64.5357 55.7433 64.7969 50.5346C65.1016 45.1663 65.1016 29.0904 64.7969 23.7221ZM57.8616 56.2946C56.7299 59.1384 54.5391 61.3292 51.6808 62.4754C47.4007 64.173 37.2444 63.7812 32.5145 63.7812C27.7846 63.7812 17.6139 64.1584 13.3482 62.4754C10.5045 61.3437 8.31363 59.1529 7.16743 56.2946C5.46988 52.0145 5.86162 41.8582 5.86162 37.1283C5.86162 32.3984 5.48439 22.2276 7.16743 17.962C8.29912 15.1183 10.49 12.9274 13.3482 11.7812C17.6284 10.0837 27.7846 10.4754 32.5145 10.4754C37.2444 10.4754 47.4152 10.0982 51.6808 11.7812C54.5246 12.9129 56.7154 15.1038 57.8616 17.962C59.5592 22.2422 59.1674 32.3984 59.1674 37.1283C59.1674 41.8582 59.5592 52.029 57.8616 56.2946Z" fill="#4B5C49"/>
</g>
<defs>
<clipPath id="clip0_78_18">
<rect width="65" height="74.2857" fill="white"/>
</clipPath>
</defs>
</svg>
