<svg width="425" height="646" viewBox="0 0 425 646" fill="none" xmlns="http://www.w3.org/2000/svg">
<path fill-rule="evenodd" clip-rule="evenodd" d="M110.868 123.17C110.756 123.256 110.598 123.23 110.515 123.114C110.436 122.997 110.46 122.835 110.57 122.754C110.681 122.652 111.827 122.403 113.71 122.235C114.938 122.127 116.483 122.065 118.24 122.003C128.581 121.638 146.149 121.607 148.458 121.685C158.901 122.152 168.661 120.064 177.885 117.033C193.401 111.935 207.397 104.047 220.115 99.7446C220.494 99.6124 220.905 99.8211 221.034 100.211C221.162 100.601 220.959 101.025 220.58 101.157C207.922 105.725 194.112 114.101 178.602 119.323C169.152 122.505 159.079 124.467 148.355 123.929L110.868 123.17Z" fill="#4B5C49"/>
<path fill-rule="evenodd" clip-rule="evenodd" d="M296.628 400.192C296.57 400.237 296.488 400.226 296.444 400.166C296.4 400.106 296.411 400.021 296.469 399.976C296.89 399.645 297.18 399.592 297.371 399.639C297.59 399.692 297.752 399.886 297.83 400.242C298.02 401.111 297.556 402.921 297.53 403.738C297.471 405.478 297.224 407.143 296.879 408.788C296.775 409.285 296.668 409.78 296.539 410.271C296.036 412.185 295.365 414.059 294.772 416.003C293.12 421.331 291.076 426.638 288.705 431.789C286.338 436.932 283.644 441.917 280.817 446.674C270.387 464.117 261.552 478.411 249.215 489.389C241.099 496.609 231.477 502.399 218.873 506.696C218.734 506.745 218.577 506.667 218.529 506.52C218.482 506.374 218.56 506.214 218.699 506.166C231.148 501.757 240.633 495.914 248.595 488.656C260.719 477.6 269.305 463.273 279.451 445.815C282.218 441.087 284.81 436.114 287.161 431.03C289.511 425.949 291.625 420.753 293.309 415.511C293.935 413.589 294.571 411.718 295.172 409.846C295.323 409.377 295.484 408.914 295.628 408.444C296.102 406.899 296.49 405.329 296.7 403.667C296.793 402.948 297.262 401.487 297.328 400.558C297.338 400.429 297.329 400.312 297.33 400.209C297.33 400.083 297.384 399.983 297.329 399.92C297.216 399.794 296.992 399.907 296.628 400.192Z" fill="#4B5C49"/>
<path fill-rule="evenodd" clip-rule="evenodd" d="M293.268 250.93C293.019 250.992 292.768 250.833 292.707 250.572C292.647 250.315 292.801 250.057 293.05 249.995C294.224 249.658 295.419 249.452 296.628 249.308C299.336 248.984 302.102 248.975 304.804 248.385C311.685 247.035 318.286 245.497 325.019 244.553C329.522 243.921 334.084 243.563 338.816 243.657C347.124 243.896 357.654 247.811 367.183 253.564C376.636 259.274 385.093 266.771 389.507 274.023C392.755 279.402 396.069 286.612 398.693 293.958C401.412 301.569 403.39 309.323 403.761 315.34C403.775 315.536 403.632 315.707 403.442 315.721C403.252 315.735 403.086 315.586 403.073 315.394C402.59 309.455 400.489 301.828 397.646 294.368C394.906 287.181 391.474 280.149 388.152 274.919C383.754 267.942 375.384 260.865 366.141 255.427C356.898 249.99 346.769 246.186 338.761 246.011C334.146 245.868 329.694 246.191 325.292 246.738C318.579 247.566 311.979 248.928 305.109 250.124C301.93 250.606 298.714 250.326 295.562 250.602C294.793 250.674 294.028 250.769 293.268 250.93Z" fill="#4B5C49"/>
<path fill-rule="evenodd" clip-rule="evenodd" d="M300.979 258.52C300.859 258.562 300.725 258.504 300.671 258.383C300.585 258.272 300.611 258.089 300.92 257.97C301.026 257.932 301.262 257.904 301.592 257.862C301.843 257.833 302.114 257.781 302.421 257.78C303.302 257.782 304.247 257.977 304.301 257.985C305.429 258.143 306.536 258.353 307.627 258.648C309.228 259.087 310.782 259.688 312.366 260.22C315.694 261.347 318.71 262.899 321.57 264.696C325.807 267.359 329.696 270.571 333.791 273.705C336.935 276.148 340.045 278.782 343.016 281.569C345.986 284.36 348.817 287.304 351.477 290.302C353.157 292.205 354.857 294.134 356.614 295.992C357.773 297.219 358.95 298.419 360.187 299.541C363.21 302.291 366.413 304.958 369.731 307.464C373.05 309.969 376.477 312.315 379.994 314.361C381.12 315.013 382.324 315.502 383.566 315.908C386.532 316.882 389.71 317.379 392.605 318.279C392.742 318.315 392.825 318.464 392.788 318.606C392.751 318.747 392.609 318.829 392.472 318.793C389.514 318.076 386.292 317.802 383.263 316.999C381.919 316.642 380.617 316.171 379.388 315.539C375.721 313.649 372.114 311.465 368.638 309.072C365.164 306.678 361.828 304.074 358.659 301.4C357.332 300.28 356.053 299.087 354.818 297.847C352.99 296.012 351.254 294.068 349.522 292.166C346.887 289.256 344.063 286.423 341.148 283.693C338.232 280.96 335.228 278.335 332.164 275.916C328.196 272.738 324.429 269.491 320.319 266.76C317.642 264.979 314.824 263.416 311.689 262.248L304.01 259.461C303.96 259.447 303.091 259.304 302.3 259.048C301.845 258.899 301.466 258.692 301.186 258.597C301.093 258.563 300.99 258.525 300.979 258.52Z" fill="#4B5C49"/>
<path fill-rule="evenodd" clip-rule="evenodd" d="M297.922 313.367C297.853 313.247 297.894 313.087 298.014 313.016C298.133 312.941 298.288 312.984 298.357 313.108C298.693 313.416 299.108 313.565 299.567 313.897C299.802 314.065 300.014 314.291 300.27 314.49C301.138 315.165 302.248 315.797 303.487 316.476C305.038 317.328 306.797 318.206 308.663 319.051C315.005 321.91 322.427 324.474 325.696 325.858C330.654 328.129 335.027 330.089 338.959 332.087C343.701 334.498 347.832 336.927 351.669 339.808C358.531 344.962 364.439 351.572 371.199 362.313C371.403 362.619 371.328 363.038 371.032 363.248C370.735 363.458 370.329 363.38 370.125 363.074C363.016 352.999 356.922 346.938 350.041 342.224C346.217 339.607 342.145 337.427 337.517 335.189C333.577 333.281 329.252 331.311 324.319 329.086C320.626 327.284 311.438 323.743 304.872 319.864C302.288 318.335 300.124 316.74 298.777 315.255C298.685 315.154 298.579 315.066 298.512 314.953C298.239 314.496 298.231 314.072 298.071 313.65C298.032 313.546 297.967 313.462 297.922 313.367Z" fill="#4B5C49"/>
<path fill-rule="evenodd" clip-rule="evenodd" d="M319.894 315.775C319.873 315.815 319.84 315.85 319.796 315.872C319.694 315.921 319.572 315.872 319.525 315.766C319.468 315.658 319.587 315.382 320.042 315.21C320.758 314.941 322.371 314.528 324.423 314.319C326.63 314.09 329.322 314.126 331.846 314.445C337.396 315.179 342.731 316.508 347.931 318.294C353.12 320.075 358.168 322.314 363.18 324.79C371.312 328.969 379.258 334.308 386.119 340.831C392.972 347.346 398.736 355.028 402.665 363.728C404.591 367.996 406.188 372.421 407.587 376.926C409.668 383.629 411.33 390.496 413.206 397.207C413.265 397.406 413.157 397.616 412.965 397.677C412.772 397.737 412.568 397.626 412.509 397.427C410.416 390.798 408.492 384.022 406.232 377.395C404.732 372.996 403.091 368.662 401.103 364.499C397.11 356.126 391.304 348.84 384.561 342.597C377.785 336.321 370.051 331.095 362.095 327.061C357.226 324.493 352.309 322.191 347.259 320.279C342.218 318.372 337.047 316.849 331.636 315.933C330.067 315.663 328.426 315.529 326.883 315.49C326.211 315.472 325.559 315.49 324.938 315.486C322.933 315.471 321.272 315.486 320.4 315.631C320.145 315.675 319.963 315.803 319.894 315.775Z" fill="#4B5C49"/>
<path fill-rule="evenodd" clip-rule="evenodd" d="M320.672 333.8C320.668 333.806 320.662 333.808 320.657 333.813C320.559 333.869 320.434 333.838 320.377 333.739C319.96 333.089 319.749 332.67 319.641 332.466C319.476 332.154 319.651 331.986 319.709 331.918C319.775 331.847 319.912 331.833 320.126 331.911C320.276 331.968 320.593 332.215 321.012 332.623C321.439 333.039 321.969 333.645 322.554 334.343C324.92 337.174 328.134 341.553 328.151 341.572C331.693 345.918 334.966 350.143 338.602 354.104C340.97 356.685 343.485 359.163 346.384 361.441C350.988 365.08 355.947 368.545 361.061 371.738C366.179 374.933 371.454 377.856 376.732 380.332C383.818 383.703 391.25 386.466 398.371 389.825C403.166 392.087 407.818 394.616 412.134 397.77C412.365 397.934 412.423 398.262 412.264 398.5C412.104 398.738 411.786 398.798 411.555 398.633C408.316 396.374 404.897 394.466 401.376 392.757C393.123 388.75 384.321 385.832 375.973 382.079C370.601 379.629 365.212 376.752 360.008 373.547C354.809 370.344 349.796 366.815 345.127 363.135C342.145 360.769 339.53 358.227 337.125 355.524C333.522 351.473 330.375 347.087 326.92 342.613C326.904 342.589 323.758 338.144 321.61 335.122C321.264 334.633 320.946 334.19 320.672 333.8ZM319.867 332.545C319.833 332.506 319.804 332.49 319.782 332.518C319.73 332.58 319.789 332.57 319.867 332.545Z" fill="#4B5C49"/>
<path fill-rule="evenodd" clip-rule="evenodd" d="M307.451 359.517C307.413 359.423 307.447 359.312 307.534 359.257C307.63 359.198 307.736 359.189 307.817 359.332C307.824 359.346 307.82 359.386 307.846 359.439C307.874 359.492 307.941 359.453 308.013 359.623C308.053 359.717 308.016 359.867 308.016 360.041C308.022 361.432 307.992 364.842 307.98 365.331C307.935 366.616 307.788 367.905 307.549 369.185C307.196 371.078 306.645 372.939 306.065 374.739C304.74 378.609 303.058 382.339 301.169 385.97C298.369 391.354 295.123 396.521 292.053 401.672C287.539 409.06 283.308 416.594 278.779 423.947C276.831 427.109 274.824 430.238 272.723 433.309C268.416 439.586 264.427 444.17 260.85 449.416C258.554 452.785 256.43 456.43 254.5 460.989C252.878 464.729 250.839 468.293 249.153 471.996C248.434 473.569 247.782 475.165 247.26 476.814C247.181 477.079 246.905 477.229 246.65 477.146C246.394 477.064 246.246 476.783 246.329 476.517C246.805 474.807 247.416 473.145 248.096 471.507C249.659 467.759 251.59 464.144 253.091 460.364C255.002 455.663 257.131 451.896 259.435 448.407C262.936 443.109 266.853 438.462 271.064 432.12C273.112 429.047 275.054 425.919 276.947 422.761C281.387 415.351 285.536 407.772 289.965 400.331C293.066 395.251 296.317 390.145 299.177 384.845C301.069 381.342 302.796 377.758 304.162 374.021C304.707 372.609 305.215 371.15 305.646 369.669C306.074 368.199 306.432 366.714 306.616 365.213C306.682 364.732 307.078 361.372 307.234 360C307.254 359.827 307.234 359.675 307.282 359.589C307.34 359.488 307.364 359.453 307.42 359.495C307.431 359.503 307.441 359.51 307.451 359.517Z" fill="#4B5C49"/>
<path fill-rule="evenodd" clip-rule="evenodd" d="M316.969 439.08C316.862 439.114 316.748 439.051 316.715 438.941C316.682 438.829 316.742 438.712 316.85 438.678C317.061 438.557 317.386 438.74 317.683 439.13C318.049 439.612 318.344 440.444 318.415 440.559C319.063 441.686 319.682 442.817 320.234 443.988C320.79 445.167 321.269 446.382 321.69 447.635C322.599 450.299 323.461 452.937 324.167 455.608C324.884 458.321 325.461 461.052 325.923 463.802C326.842 469.267 327.26 474.815 327.254 480.537C327.225 488.717 326.047 496.711 324.189 504.549C321.416 516.249 317.09 527.602 312.413 538.59C308.624 547.618 303.946 556.297 299.935 565.259C298.23 569.074 296.641 572.942 295.306 576.911C294.112 580.415 293.391 583.969 292.843 587.549C292.012 592.993 291.627 598.508 291.084 604.078C291.059 604.402 290.782 604.643 290.466 604.617C290.15 604.59 289.919 604.303 289.944 603.979C290.298 598.359 290.422 592.784 291.158 587.29C291.657 583.59 292.45 579.934 293.667 576.319C295.036 572.3 296.655 568.384 298.399 564.523C302.439 555.589 307.16 546.945 310.982 537.946C315.56 527.024 319.878 515.765 322.483 504.13C324.208 496.428 325.16 488.562 325.031 480.55C324.956 474.962 324.366 469.57 323.494 464.229C323.054 461.533 322.532 458.853 321.967 456.161C321.407 453.493 320.837 450.814 320.151 448.122C319.896 447.143 319.592 446.19 319.262 445.247C318.759 443.812 318.196 442.409 317.57 441.015L316.969 439.08Z" fill="#4B5C49"/>
<path fill-rule="evenodd" clip-rule="evenodd" d="M299.55 454.361C299.656 454.302 299.787 454.344 299.844 454.452C299.901 454.561 299.862 454.697 299.756 454.756C299.193 455.117 298.817 455.887 298.492 456.801C297.785 458.795 297.449 461.496 297.113 462.791C296.226 465.971 295.482 469.202 294.8 472.454C293.779 477.34 292.92 482.271 292.061 487.158C291.271 491.533 290.604 495.921 289.969 500.31C288.484 510.584 287.263 520.889 285.849 531.198C284.262 541.852 283.139 552.772 282.877 563.696C282.611 574.623 283.205 585.552 285.089 596.227C285.131 596.464 284.984 596.692 284.755 596.738C284.525 596.784 284.305 596.628 284.259 596.392C282.122 585.683 281.265 574.686 281.298 563.672C281.328 552.661 282.249 541.637 283.632 530.868C284.864 522.031 285.891 513.188 287.177 504.38C288.035 498.493 289.02 492.626 290.176 486.777C291.171 481.895 292.144 476.968 293.317 472.098C294.101 468.838 294.976 465.608 295.979 462.431C296.409 461.151 296.894 458.431 297.797 456.498C298.27 455.486 298.856 454.691 299.55 454.361Z" fill="#4B5C49"/>
<path fill-rule="evenodd" clip-rule="evenodd" d="M288.201 389.456C288.222 389.342 288.329 389.267 288.44 389.289C288.55 389.311 288.623 389.421 288.602 389.535C288.629 389.984 288.277 390.416 287.745 390.78C287.176 391.17 286.385 391.359 286.011 391.513C285.555 391.691 285.131 391.904 284.71 392.118C282.898 393.041 281.321 394.221 279.487 395.175C276.783 396.558 274.227 398.546 271.745 400.717C268.005 403.985 264.481 407.733 261.389 411.083C259.701 412.901 258.04 414.928 256.449 417.018C254.85 419.121 253.327 421.288 251.933 423.37C249.74 426.745 247.134 429.888 244.791 433.192C243.826 434.555 242.898 435.943 242.084 437.399C240.495 440.135 239.131 442.958 237.828 445.799C236.949 447.719 236.068 449.633 235.278 451.593C233.293 456.513 231.646 461.572 230.017 466.677C228.97 470.116 227.826 473.503 226.998 476.972C226.457 479.253 226.052 481.568 225.903 483.954C225.625 488.519 223.65 493.199 223.064 497.874C222.816 499.833 222.798 501.79 223.322 503.755C223.37 503.915 223.279 504.086 223.127 504.134C222.972 504.183 222.807 504.093 222.76 503.933C222.086 501.902 221.947 499.84 222.121 497.769C222.512 493.106 224.462 488.424 224.635 483.886C224.722 481.414 225.08 479.008 225.576 476.632C226.311 473.109 227.361 469.654 228.321 466.151C229.953 459.845 231.68 453.623 233.864 447.551C234.305 446.324 234.738 445.096 235.234 443.89C236.394 441.086 237.765 438.368 239.265 435.69C240.165 434.138 241.17 432.653 242.241 431.216C244.643 427.998 247.356 424.996 249.64 421.725C251.076 419.603 252.64 417.397 254.284 415.256C255.939 413.099 257.671 411.007 259.427 409.133C262.621 405.746 266.186 401.862 270.118 398.668C272.83 396.465 275.716 394.608 278.663 393.325C280.315 392.61 281.762 391.659 283.369 390.959C284.085 390.648 284.828 390.394 285.621 390.203C285.965 390.121 286.622 389.966 287.215 389.823C287.446 389.767 287.658 389.773 287.84 389.694C287.998 389.625 288.142 389.585 288.201 389.456Z" fill="#4B5C49"/>
<path fill-rule="evenodd" clip-rule="evenodd" d="M0.125312 99.6964C0.0322313 99.5878 0.044608 99.425 0.149783 99.3291C0.256076 99.2369 0.413894 99.2499 0.506966 99.3584C1.17341 100.059 1.85522 100.73 2.52679 101.421C5.2068 104.191 7.93671 106.87 10.8291 109.36C16.2087 113.999 22.0198 118.1 28.351 121.552C38.2536 126.957 49.3453 130.87 61.6057 133.264C70.0577 134.993 78.8376 136.747 87.5146 138.55C93.3545 139.766 99.146 141.009 104.76 142.255C126.743 147.109 149.736 153.04 171.409 161.751C185.957 167.599 199.913 174.696 212.555 183.588C227.244 194 238.394 205.044 248.099 217.402C257.757 229.699 265.99 243.3 274.687 259.033C278.711 266.308 282.862 273.321 286.662 280.578C289.199 285.421 291.581 290.376 293.662 295.585C304.37 322.293 309.824 351.288 311.968 380.861C312.284 385.222 312.532 389.596 312.686 393.977C314.093 434.128 309.883 474.761 306.031 511.628C306.021 511.757 305.908 511.853 305.783 511.84C305.653 511.828 305.562 511.712 305.576 511.581C308.633 474.729 311.595 434.133 309.723 394.103C309.52 389.756 309.286 385.415 308.984 381.085C306.937 351.799 301.887 323.031 291.478 296.509C289.451 291.363 287.13 286.472 284.654 281.69C280.895 274.431 276.778 267.416 272.794 260.141C264.218 244.487 256.161 230.889 246.555 218.692C236.959 206.509 225.822 195.733 211.256 185.554C198.762 176.753 184.973 169.712 170.585 163.939C149.026 155.284 126.134 149.458 104.264 144.673L61.1288 135.76C48.6857 133.106 37.4441 128.948 27.4598 123.255C21.0864 119.62 15.1884 115.404 9.87757 110.492C7.03853 107.869 4.33204 105.078 1.8778 102.032C1.26666 101.272 0.700263 100.485 0.125312 99.6964Z" fill="#4B5C49"/>
<path fill-rule="evenodd" clip-rule="evenodd" d="M78.2493 138.597C78.2589 138.656 78.2723 138.715 78.2894 138.772C78.328 138.902 78.4282 139.021 78.5156 139.165C78.595 139.282 78.5704 139.444 78.4522 139.524C78.3387 139.605 78.1838 139.575 78.1044 139.458C78.0178 139.33 77.9621 139.198 77.8799 139.098C77.4065 138.528 77.2577 138.178 77.2704 137.894C77.2958 137.38 77.8959 137.028 78.9012 137.329C79.4307 137.488 80.1497 137.929 80.9975 138.627C82.8294 140.127 85.2342 142.979 87.4752 147.297C88.7928 149.941 89.955 152.363 90.8729 154.753C91.5549 156.528 92.1088 158.28 92.537 160.06C93.5461 164.282 93.8558 168.645 93.4801 173.919C93.0223 180.891 92.3241 187.764 91.7262 194.592C90.8183 204.968 90.066 215.24 89.9452 225.551C89.8695 232.378 90.1475 239.222 90.849 246.142C91.3053 250.63 91.9152 255.158 92.834 259.73C92.8948 260.016 92.7203 260.301 92.4431 260.364C92.1633 260.431 91.8868 260.251 91.8249 259.961C90.7457 255.381 89.918 250.843 89.3695 246.317C88.5232 239.347 88.2959 232.428 88.3401 225.536C88.4079 215.183 89.2676 204.877 89.9893 194.447C90.4607 187.629 90.8415 180.752 91.0712 173.789C91.1763 169.88 90.8726 166.531 90.2289 163.36C89.9128 161.821 89.4912 160.336 89.0406 158.836C88.0529 155.544 86.8015 152.209 85.1419 148.456C84.0051 145.835 82.7327 143.778 81.5976 142.197C80.5206 140.701 79.5833 139.634 78.8367 139.059C78.626 138.896 78.3897 138.674 78.2493 138.597ZM78.2493 138.597C78.1815 138.56 78.1374 138.561 78.1251 138.615C78.1082 138.708 78.1752 138.674 78.2493 138.597ZM78.2493 138.597C78.3662 138.472 78.4991 138.238 78.3615 138.197C78.2555 138.168 78.2201 138.376 78.2493 138.597Z" fill="#4B5C49"/>
<path fill-rule="evenodd" clip-rule="evenodd" d="M92.8474 180.031C92.8123 180.008 92.7799 179.981 92.76 179.941C92.7352 179.899 92.9631 179.426 93.2324 179.704C93.2888 179.758 93.3403 179.863 93.4587 179.934C93.6726 180.067 93.9304 179.994 94.253 180.193C95.4988 180.962 96.9706 182.98 97.5142 183.745C98.4065 185.015 99.1255 186.355 99.734 187.76C100.605 189.776 101.248 191.894 102.158 193.906C104.146 198.42 105.372 203.167 106.149 208.01C107.299 215.198 107.448 222.606 107.479 229.804C107.863 255.087 99.2975 278.184 100.254 302.124C100.453 307.166 101.107 312.236 102.308 317.388C103.418 322.155 104.99 327.001 107.246 331.929C107.434 332.329 107.27 332.812 106.885 333.001C106.496 333.194 106.03 333.028 105.842 332.628C103.442 327.628 101.691 322.709 100.524 317.834C99.2598 312.564 98.6732 307.352 98.4996 302.193C97.6963 278.209 106.461 255.141 106.264 229.82C106.131 222.7 105.922 215.365 104.641 208.282C103.798 203.61 102.478 199.052 100.444 194.736C99.3736 192.377 98.5863 189.908 97.5625 187.543C97.1449 186.575 96.705 185.615 96.1464 184.704C95.6848 183.943 93.9564 182.369 93.3088 181.119C93.1326 180.785 93.2159 180.521 93.0936 180.3C93.0301 180.182 92.931 180.122 92.8795 180.071C92.8676 180.058 92.8556 180.045 92.8474 180.031Z" fill="#4B5C49"/>
<path fill-rule="evenodd" clip-rule="evenodd" d="M82.7691 185.611C82.686 185.495 82.7106 185.332 82.824 185.25C82.9363 185.165 83.0938 185.19 83.1769 185.306C83.9313 186.18 83.7967 187.335 83.1747 188.526C82.0999 190.593 79.3991 192.696 78.6935 193.688C76.5195 196.65 74.6702 200.62 73.29 204.765C71.9174 208.895 71.0211 213.208 70.7891 216.882C70.4162 222.192 70.3919 227.326 70.6342 232.321C71.0165 240.224 72.1691 247.774 74.0791 255.119C77.2149 267.169 82.3657 278.679 89.7368 290.106C89.969 290.451 89.8822 290.921 89.5519 291.159C89.2168 291.395 88.7616 291.309 88.5294 290.964C80.6561 279.579 74.8922 268.079 71.4759 255.862C69.3761 248.356 68.16 240.578 67.821 232.453C67.612 227.339 67.7922 222.089 68.2779 216.667C68.6539 212.811 69.7347 208.313 71.3412 204.03C72.944 199.748 75.0517 195.679 77.4436 192.674C78.2116 191.742 80.9137 189.793 82.245 187.921C82.8163 187.118 83.182 186.358 82.7691 185.611Z" fill="#4B5C49"/>
<path fill-rule="evenodd" clip-rule="evenodd" d="M42.1187 128.031C42.3572 128.002 42.709 127.945 43.0284 127.861C43.513 127.733 44.0332 127.493 44.6492 127.303C45.8318 126.934 47.2176 126.579 48.5339 126.155C51.1479 125.313 53.5112 124.445 53.7697 124.346C57.5057 122.999 61.0904 121.36 64.7115 119.79C67.1491 118.736 69.6062 117.734 72.0577 116.712C74.7083 115.612 77.3703 114.549 80.0608 113.528C96.7625 107.29 107.179 104.425 118.011 104.118C128.445 103.819 139.267 105.899 156.535 109.654C156.871 109.72 157.092 110.055 157.029 110.401C156.962 110.748 156.637 110.977 156.302 110.911C139.147 107.839 128.413 106.163 118.13 106.819C107.582 107.496 97.534 110.658 81.4518 117.29C76.1389 119.412 71.0016 121.892 65.6916 123.942C62.1042 125.326 58.4369 126.455 54.6987 127.469C54.2808 127.576 48.7415 129.154 44.9593 129.475C43.5287 129.597 42.3739 129.502 41.7619 129.311C41.2874 129.159 41.0078 128.955 40.9279 128.7C40.8438 128.417 40.8315 127.94 41.422 127.474C41.5953 127.294 41.8796 127.296 42.0496 127.472C42.2004 127.625 42.2208 127.857 42.1187 128.031Z" fill="#4B5C49"/>
<path fill-rule="evenodd" clip-rule="evenodd" d="M77.6726 112.501C77.7176 112.57 77.7315 112.658 77.7027 112.738C77.653 112.871 77.508 112.942 77.3793 112.89C76.9122 112.846 76.8346 112.544 76.7973 112.351C76.7559 112.13 76.9472 111.806 77.3975 111.467C78.2404 110.841 80.3356 110.23 81.1381 109.604C83.3261 108.052 85.5189 106.556 87.6719 104.981C89.0857 103.945 90.4807 102.873 91.8392 101.733C95.7314 98.5131 99.7723 95.957 104.036 93.8909C110.326 90.8459 117.077 88.843 124.368 86.9701C130.002 85.533 135.796 85.4376 141.562 86.1165C150.082 87.1209 158.54 89.8089 166.319 92.2054C176.456 95.3457 185.472 97.8115 194.608 99.0016C198.398 99.4976 202.208 99.7448 206.131 99.7849C211.594 99.84 217.278 99.4744 223.435 98.4157C223.936 98.316 224.421 98.6602 224.515 99.1741C224.61 99.6918 224.281 100.193 223.779 100.289C215.282 102.104 207.624 102.733 200.196 102.329C188.815 101.71 178.009 98.7559 165.534 94.9163C157.906 92.5553 149.612 89.8992 141.252 88.9027C135.808 88.2561 130.335 88.3128 125.01 89.6605C119.096 91.1486 113.561 92.7715 108.305 94.9047C102.993 97.0593 97.9667 99.7343 93.1639 103.489C91.7239 104.6 90.2526 105.633 88.7588 106.632C86.5392 108.119 84.2847 109.53 82.0312 110.999C81.6422 111.23 81.0422 111.474 80.384 111.686C79.5025 111.965 78.5373 112.261 77.925 112.45C77.8424 112.472 77.7512 112.493 77.6726 112.501Z" fill="#4B5C49"/>
<path fill-rule="evenodd" clip-rule="evenodd" d="M136.533 150.229C136.505 150.242 136.478 150.246 136.446 150.248C136.306 150.254 136.191 150.14 136.186 150C135.954 149.793 136.305 149.828 136.393 149.675C136.444 149.588 136.476 149.653 136.842 149.713C137.003 149.737 137.213 149.859 137.486 150.082C138.281 150.722 139.285 152.165 139.603 152.524C140.855 154.01 142.23 155.39 143.513 156.867C144.398 157.883 145.23 158.95 145.992 160.064C148.165 163.282 150.083 166.653 151.696 170.178C154.099 175.435 155.87 180.993 157.48 186.555C158.77 191.026 159.3 195.747 159.455 200.573C159.801 211.364 158.254 222.681 159.572 232.789C160.58 240.548 159.91 247.638 159.515 254.373C159.331 257.47 159.189 260.492 159.36 263.478C159.503 265.975 159.85 268.449 160.528 270.919C160.594 271.141 160.474 271.375 160.259 271.443C160.044 271.511 159.817 271.386 159.751 271.165C158.543 267.407 158.081 263.606 157.985 259.702C157.777 251.46 159.142 242.771 157.682 233.068C156.176 222.928 157.514 211.522 156.978 200.678C156.752 196.092 156.181 191.61 154.88 187.376C153.505 182.864 151.929 178.399 150.142 174.039C148.364 169.713 146.379 165.477 143.89 161.514C143.396 160.708 142.851 159.94 142.295 159.175C140.946 157.322 139.503 155.537 138.198 153.671C137.936 153.268 136.913 151.873 136.461 150.954C136.329 150.686 136.399 150.321 136.267 150.355C136.176 150.375 136.35 150.224 136.365 150.261C136.42 150.394 136.47 150.303 136.533 150.229ZM136.617 150.169C136.625 150.17 136.633 150.168 136.641 150.169C136.673 150.168 136.667 150.149 136.658 150.118C136.648 150.138 136.633 150.155 136.617 150.169Z" fill="#4B5C49"/>
<path fill-rule="evenodd" clip-rule="evenodd" d="M158.96 196.853C158.824 196.846 158.718 196.721 158.725 196.581C158.731 196.437 158.852 196.327 158.988 196.334C159.814 196.278 160.747 196.853 161.626 197.792C163.209 199.487 164.525 202.345 165.132 203.5C166.286 205.677 167.444 207.77 168.455 209.917C169.496 212.135 170.406 214.389 171.186 216.698C172.209 219.74 172.956 222.904 173.433 226.29C174.922 236.444 175.385 247.055 174.924 257.624C174.459 268.169 173.073 278.68 170.601 288.634C170.01 291.02 169.303 293.367 168.528 295.694C166.373 302.136 163.726 308.425 161.435 314.818C160.455 317.544 159.518 320.278 158.762 323.075C158.673 323.43 158.323 323.641 157.983 323.547C157.639 323.455 157.436 323.097 157.525 322.743C158.073 320.35 158.719 317.988 159.472 315.656C162.453 306.448 166.67 297.632 168.974 288.203C171.378 278.362 172.79 267.978 173.119 257.551C173.441 247.126 172.68 236.671 171.004 226.694C170.447 223.487 169.57 220.528 168.585 217.637C167.821 215.398 166.957 213.217 166.085 211.005C165.218 208.816 164.379 206.593 163.463 204.32C163 203.17 161.896 200.429 160.69 198.569C160.125 197.702 159.614 196.981 158.96 196.853Z" fill="#4B5C49"/>
<path fill-rule="evenodd" clip-rule="evenodd" d="M154.339 190.256C154.339 190.119 154.447 190.005 154.58 190.005C154.719 190.007 154.825 190.12 154.826 190.257C154.925 190.945 154.89 191.617 154.705 192.302C154.538 192.928 154.217 193.523 153.875 194.128C152.902 195.857 151.49 197.553 150.38 199.2C149.918 199.882 149.507 200.542 149.263 201.221C148.377 203.692 147.778 206.294 147.293 208.939C146.549 212.962 146.107 217.086 145.639 221.031C145.386 223.08 145.238 225.155 145.145 227.241C144.928 232.176 145.022 237.176 144.887 242.061C144.747 245.579 144.658 249.082 144.584 252.576C144.472 257.837 144.424 263.07 144.666 268.308C144.933 274.081 145.502 279.847 146.549 285.638C147.551 291.116 148.869 296.022 150.398 300.765C152.744 308.039 155.568 314.928 158.361 322.913C158.438 323.115 158.338 323.339 158.145 323.412C157.95 323.491 157.733 323.388 157.66 323.185C154.648 315.269 151.669 308.442 149.097 301.23C147.402 296.473 145.882 291.555 144.674 286.037C143.051 278.719 142.162 271.411 141.748 264.058C141.334 256.73 141.404 249.366 141.556 241.938C141.715 237.745 141.689 233.463 141.862 229.211C141.98 226.313 142.196 223.431 142.6 220.594C143.191 216.603 143.723 212.412 144.648 208.357C145.276 205.592 146.089 202.893 147.163 200.346C147.517 199.507 148.044 198.663 148.71 197.863C149.959 196.356 151.641 194.955 152.812 193.39C153.174 192.903 153.466 192.401 153.722 191.898C153.999 191.359 154.247 190.846 154.339 190.256Z" fill="#4B5C49"/>
<path fill-rule="evenodd" clip-rule="evenodd" d="M180.407 167.751C180.298 167.836 180.137 167.811 180.055 167.699C179.972 167.583 179.993 167.422 180.105 167.336C180.922 166.447 182.21 165.844 183.78 165.54C186.846 164.948 190.729 165.577 192.802 165.671C195.684 165.889 198.694 165.724 201.737 165.44C206.341 165.006 211.004 164.244 215.329 163.605C223.22 162.671 230.876 160.633 238.67 159.304C242.063 158.725 245.48 158.277 248.951 158.104C257.313 157.662 266.159 158.693 274.769 160.823C283.317 162.935 291.64 166.126 298.977 170.213C300.619 171.12 302.195 172.211 303.733 173.393C307.22 176.075 310.507 179.235 313.918 181.774C314.15 181.947 314.203 182.277 314.038 182.514C313.873 182.75 313.553 182.805 313.323 182.635C309.885 180.126 306.57 176.996 303.052 174.344C301.552 173.217 300.013 172.173 298.413 171.311C291.12 167.402 282.883 164.322 274.413 162.441C265.953 160.56 257.268 159.875 249.111 160.563C245.745 160.852 242.445 161.414 239.169 162.098C231.366 163.727 223.722 166.054 215.806 167.288C211.405 167.842 206.66 168.584 201.979 168.838C198.75 169.018 195.554 168.953 192.521 168.552C190.804 168.267 187.838 167.586 185.115 167.397C184.276 167.34 183.471 167.347 182.727 167.378C181.829 167.411 181.056 167.429 180.407 167.751Z" fill="#4B5C49"/>
<path fill-rule="evenodd" clip-rule="evenodd" d="M218.049 161.775C219.564 161.363 222.061 160.541 222.43 160.35C223.677 159.792 224.88 159.132 226.061 158.421C228.872 156.73 231.543 154.736 234.297 153.017C236.558 151.622 238.788 150.189 241.045 148.82C246.402 145.572 251.815 142.524 257.45 139.995C262.815 137.59 268.4 135.692 274.399 134.654C287.791 132.283 300.091 136.488 311.168 143.905C319.03 149.169 326.304 156.019 332.847 163.317C339.693 170.955 345.742 179.062 351.022 186.132C351.227 186.402 351.181 186.793 350.918 187.005C350.656 187.218 350.276 187.171 350.071 186.901C344.703 179.955 338.502 172.038 331.616 164.501C325.105 157.376 317.983 150.574 310.216 145.422C299.512 138.322 287.636 134.306 274.741 136.669C268.927 137.754 263.531 139.688 258.345 142.084C252.81 144.635 247.541 147.763 242.228 150.917C239.959 152.265 237.669 153.591 235.373 154.927C232.557 156.548 229.812 158.444 226.939 160.037C225.675 160.737 224.389 161.382 223.06 161.919C222.546 162.094 218.526 162.858 217.293 162.825C216.425 162.803 215.882 162.159 217.701 161.58C217.828 161.523 217.977 161.585 218.032 161.714C218.041 161.736 218.046 161.755 218.049 161.775Z" fill="#4B5C49"/>
<path fill-rule="evenodd" clip-rule="evenodd" d="M233.129 161.61C233.11 161.616 233.091 161.622 233.07 161.625C233.027 161.626 232.988 161.622 232.95 161.604C232.992 161.604 233.05 161.594 233.105 161.585C233.025 161.509 232.96 161.488 232.914 161.545C232.904 161.556 232.899 161.566 232.898 161.575C232.841 161.53 232.803 161.467 232.796 161.39C232.602 161.183 232.709 161.066 232.717 160.963C232.739 160.68 233.046 160.617 233.423 160.823C233.774 161.018 234.67 162.558 235.258 162.953L242.008 167.18C245.434 169.271 248.895 171.18 252.413 172.97C255.932 174.764 259.507 176.436 263.174 178.02C269.703 180.929 276.473 183.009 283.294 184.914C293.63 187.799 304.101 190.223 314.203 193.75C318.431 195.229 322.591 196.904 326.642 198.919C326.86 199.021 326.955 199.292 326.852 199.517C326.751 199.746 326.489 199.841 326.27 199.734C322.215 197.829 318.062 196.261 313.842 194.897C303.684 191.617 293.146 189.603 282.798 186.856C275.861 185.013 269.02 182.817 262.401 179.874C258.732 178.194 255.153 176.436 251.642 174.539C248.132 172.642 244.691 170.61 241.287 168.407C239.728 167.399 238.116 166.407 236.577 165.325C235.911 164.858 235.264 164.369 234.628 163.867C234.17 163.502 233.506 162.01 233.129 161.61ZM232.95 161.604C232.914 161.603 232.892 161.598 232.898 161.575C232.914 161.587 232.932 161.598 232.95 161.604ZM233.202 161.571C233.212 161.567 233.222 161.569 233.228 161.567C233.344 161.572 233.413 161.295 233.413 161.295C233.413 161.295 233.336 161.278 233.296 161.34C233.306 161.433 233.267 161.517 233.202 161.571Z" fill="#4B5C49"/>
<path fill-rule="evenodd" clip-rule="evenodd" d="M231.895 201.482C231.886 201.343 231.989 201.218 232.126 201.204C232.265 201.194 232.387 201.302 232.398 201.445C232.497 201.769 232.651 202.05 232.79 202.378C233.076 203.057 233.424 203.746 233.831 204.462C235.205 206.871 237.11 209.409 237.99 211.627C239.659 216.351 240.797 221.139 241.413 226.007C242.026 230.856 242.119 235.773 241.916 240.758C241.627 247.819 241.123 255.024 240.395 262.207C239.669 269.389 238.72 276.546 237.467 283.502C234.935 297.652 231.883 311.498 230.328 325.557C229.306 334.852 228.921 344.248 229.843 353.899C229.867 354.113 229.717 354.306 229.509 354.326C229.301 354.35 229.113 354.196 229.09 353.982C228.012 344.271 228.221 334.802 229.146 325.424C230.54 311.316 233.543 297.427 235.969 283.222C237.146 276.295 238.042 269.176 238.669 262.033C239.294 254.882 239.648 247.709 239.813 240.682C239.928 235.825 239.683 231.044 239.074 226.324C238.466 221.62 237.496 216.968 235.938 212.38C235.18 209.822 232.857 206.848 232.093 203.982C231.86 203.107 231.818 202.28 231.895 201.482Z" fill="#4B5C49"/>
<path fill-rule="evenodd" clip-rule="evenodd" d="M240.281 250.824C240.269 250.631 240.411 250.465 240.598 250.457C240.784 250.444 240.943 250.59 240.955 250.783C241.013 251.488 240.502 252.46 239.718 253.473C238.301 255.313 236.008 257.338 235.273 258.072C231.41 261.784 227.485 265.315 224.089 269.332C221.87 271.952 219.884 274.782 218.295 278.006C215.586 283.461 213.132 289.81 211.141 296.464C209.886 300.661 208.813 304.981 208.052 309.301C206.726 316.816 206.298 324.322 207.387 331.115C208.08 335.692 209.347 340.154 210.914 344.534C213.285 351.169 216.318 357.603 219.044 363.946C219.163 364.209 219.05 364.525 218.795 364.647C218.54 364.77 218.235 364.657 218.115 364.39C215.159 358.12 211.904 351.756 209.296 345.183C207.531 340.736 206.065 336.19 205.187 331.509C203.634 322.806 204.317 312.886 206.541 303.269C208.744 293.734 212.454 284.522 216.431 276.986C218.209 273.673 220.38 270.783 222.788 268.12C226.349 264.181 230.418 260.739 234.438 257.119C235.11 256.534 237.021 255.078 238.493 253.576C239.482 252.565 240.303 251.566 240.281 250.824Z" fill="#4B5C49"/>
<path fill-rule="evenodd" clip-rule="evenodd" d="M239.837 253.126C239.789 252.995 239.856 252.844 239.986 252.795C240.116 252.745 240.261 252.812 240.309 252.948C240.465 253.191 240.69 253.379 240.903 253.646C241.603 254.521 242.488 255.583 243.286 256.602C243.774 257.222 244.191 257.855 244.47 258.465C245.881 261.565 247.206 264.997 248.324 268.499C249.445 272.012 250.355 275.592 250.97 278.964C252.686 289.042 251.757 300.378 249.319 311.718C245.739 328.352 238.924 344.992 232.628 357.647C232.521 357.861 232.271 357.944 232.065 357.838C231.859 357.731 231.777 357.469 231.88 357.256C238.007 344.609 244.598 327.989 247.995 311.421C250.28 300.267 251.123 289.138 249.351 279.266C248.796 275.947 247.943 272.428 246.908 268.963C245.873 265.498 244.655 262.082 243.333 258.996C242.737 257.549 241.124 256.031 240.322 254.537C240.059 254.051 239.916 253.574 239.837 253.126Z" fill="#4B5C49"/>
<path fill-rule="evenodd" clip-rule="evenodd" d="M264.413 241.833C264.375 241.875 264.365 241.886 264.413 241.833V241.833ZM264.413 241.833C264.431 241.815 264.455 241.791 264.483 241.761C264.411 241.746 264.346 241.704 264.307 241.632C264.168 241.526 264.31 241.414 264.334 241.327C264.345 241.29 264.437 241.257 264.677 241.248C264.776 241.242 264.953 241.211 265.246 241.29C266.428 241.61 268.98 243.192 269.667 243.46C271.112 244.078 272.584 244.633 274.075 245.128C275.567 245.622 277.076 246.057 278.596 246.45L305.837 253.682C323.572 258.344 342.597 263.325 358.249 273.086C368.787 279.657 377.79 288.386 383.88 300.556C384.012 300.816 383.917 301.134 383.668 301.267C383.42 301.404 383.111 301.305 382.979 301.046C376.793 289.236 367.797 280.881 357.372 274.609C341.735 265.199 322.868 260.481 305.259 256.093C301.611 255.151 297.967 254.187 294.342 253.145C288.915 251.582 283.526 249.885 278.118 248.265C276.579 247.798 275.053 247.29 273.545 246.721C272.034 246.153 270.544 245.532 269.084 244.844C268.715 244.668 267.783 244.168 266.857 243.582C266.058 243.078 265.218 242.586 264.786 242.188C264.586 242.004 264.535 241.715 264.47 241.777C264.446 241.802 264.427 241.82 264.413 241.833Z" fill="#4B5C49"/>
</svg>
