<svg width="326" height="572" viewBox="0 0 326 572" fill="none" xmlns="http://www.w3.org/2000/svg">
<path fill-rule="evenodd" clip-rule="evenodd" d="M226.777 514.988C226.909 514.94 227.052 515.012 227.099 515.148C227.141 515.284 227.072 515.431 226.944 515.475C226.808 515.539 225.642 515.431 223.794 515.024C222.589 514.756 221.094 514.348 219.397 513.876C209.406 511.102 192.601 505.826 190.416 505.054C180.565 501.453 170.64 500.501 160.959 500.613C144.674 500.801 129.048 504.115 115.665 504.387C115.265 504.399 114.931 504.075 114.92 503.663C114.908 503.251 115.222 502.908 115.622 502.896C129.023 502.352 144.61 498.514 160.924 498.207C170.864 498.019 181.053 499.186 191.152 502.94L226.777 514.988Z" fill="#4B5C49"/>
<path fill-rule="evenodd" clip-rule="evenodd" d="M127.985 194.027C128.053 194.001 128.129 194.037 128.154 194.107C128.179 194.178 128.144 194.256 128.076 194.282C127.579 194.47 127.287 194.434 127.117 194.332C126.923 194.214 126.824 193.98 126.851 193.616C126.916 192.728 127.874 191.138 128.132 190.364C128.683 188.718 129.393 187.202 130.191 185.733C130.432 185.29 130.674 184.848 130.938 184.418C131.963 182.739 133.138 181.15 134.258 179.471C137.353 174.876 140.816 170.42 144.549 166.211C148.275 162.01 152.269 158.057 156.325 154.362C171.26 140.837 183.772 129.839 198.691 123.069C208.504 118.618 219.351 115.988 232.623 115.687C232.77 115.682 232.898 115.804 232.902 115.959C232.906 116.113 232.786 116.242 232.638 116.246C219.482 116.701 208.752 119.423 199.075 123.958C184.338 130.865 172.054 141.97 157.387 155.597C153.397 159.281 149.503 163.252 145.809 167.404C142.117 171.551 138.618 175.88 135.517 180.384C134.371 182.032 133.231 183.629 132.123 185.237C131.846 185.64 131.56 186.034 131.289 186.44C130.396 187.773 129.579 189.158 128.904 190.683C128.612 191.342 127.748 192.597 127.42 193.465C127.374 193.587 127.349 193.701 127.319 193.798C127.283 193.919 127.203 193.998 127.238 194.075C127.31 194.23 127.557 194.189 127.985 194.027Z" fill="#4B5C49"/>
<path fill-rule="evenodd" clip-rule="evenodd" d="M88.7347 337.747C88.9912 337.763 89.186 337.991 89.1701 338.259C89.1543 338.523 88.9335 338.723 88.6774 338.707C87.459 338.675 86.2585 338.511 85.0611 338.283C82.3803 337.775 79.7332 336.948 76.9816 336.696C70.0197 335.908 63.2709 335.385 56.565 334.253C52.0794 333.498 47.6162 332.463 43.1193 330.944C35.2436 328.205 26.2901 321.282 18.8169 312.903C11.4033 304.589 5.45058 294.867 3.29357 286.6C1.71842 280.476 0.600792 272.582 0.182018 264.767C-0.251864 256.668 0.0627035 248.657 1.41975 242.793C1.46197 242.601 1.64714 242.481 1.8327 242.525C2.01827 242.569 2.1345 242.761 2.09228 242.949C0.865008 248.773 0.703834 256.7 1.30004 264.691C1.87454 272.39 3.15566 280.149 4.84393 286.153C7.0637 294.152 13.0528 303.446 20.3424 311.436C27.6328 319.427 36.2346 326.123 43.8411 328.709C48.2132 330.24 52.5609 331.275 56.9257 332.083C63.5796 333.318 70.2765 334.01 77.1857 334.941C80.362 335.441 83.3569 336.68 86.4487 337.367C87.2041 337.531 87.9634 337.671 88.7347 337.747Z" fill="#4B5C49"/>
<path fill-rule="evenodd" clip-rule="evenodd" d="M83.5219 328.161C83.649 328.157 83.761 328.253 83.778 328.385C83.8284 328.517 83.7517 328.685 83.4224 328.705C83.3096 328.709 83.0764 328.665 82.7487 328.605C82.5012 328.557 82.2269 328.525 81.9329 328.433C81.0918 328.165 80.2434 327.694 80.1938 327.67C79.1599 327.178 78.1616 326.642 77.2031 326.031C75.7965 325.127 74.4825 324.084 73.1188 323.097C70.2579 321.014 67.8158 318.62 65.5929 316.037C62.2993 312.212 59.4953 307.967 56.4713 303.733C54.1601 300.447 51.9361 296.99 49.8887 293.428C47.8429 289.862 45.9741 286.193 44.2839 282.523C43.2193 280.197 42.1424 277.838 40.991 275.532C40.2325 274.009 39.4484 272.506 38.5849 271.059C36.4775 267.517 34.1732 263.999 31.7144 260.601C29.2537 257.204 26.6442 253.926 23.8635 250.908C22.9733 249.944 21.9614 249.113 20.8891 248.349C18.33 246.523 15.4334 245.087 12.9215 243.353C12.8007 243.277 12.7639 243.109 12.8394 242.985C12.9149 242.861 13.0742 242.825 13.195 242.901C15.8192 244.48 18.8219 245.715 21.4888 247.398C22.6723 248.145 23.7833 248.989 24.7785 249.964C27.7467 252.878 30.574 256.056 33.216 259.394C35.8573 262.732 38.3056 266.23 40.5749 269.743C41.5244 271.214 42.4085 272.741 43.2363 274.3C44.4617 276.607 45.5685 278.989 46.6834 281.332C48.3744 284.91 50.2691 288.471 52.2789 291.961C54.2891 295.455 56.4144 298.872 58.6558 302.11C61.545 306.348 64.2231 310.589 67.3761 314.442C69.4285 316.953 71.6781 319.299 74.343 321.362L80.8923 326.347C80.9357 326.375 81.7256 326.774 82.4097 327.258C82.8022 327.538 83.1059 327.85 83.3457 328.026C83.4251 328.085 83.5134 328.153 83.5219 328.161Z" fill="#4B5C49"/>
<path fill-rule="evenodd" clip-rule="evenodd" d="M102.048 276.647C102.079 276.783 101.995 276.923 101.86 276.955C101.724 276.991 101.589 276.903 101.558 276.763C101.325 276.367 100.97 276.099 100.626 275.644C100.449 275.412 100.31 275.132 100.123 274.864C99.4846 273.957 98.6036 273.017 97.6115 271.994C96.3711 270.711 94.9396 269.34 93.3955 267.969C88.1451 263.32 81.779 258.627 79.0471 256.316C74.9531 252.647 71.3298 249.453 68.1385 246.355C64.2909 242.617 61.0325 239.047 58.1836 235.134C53.0893 228.133 49.3216 220.029 45.9144 207.719C45.8063 207.364 45.9973 206.987 46.3402 206.875C46.6834 206.764 47.0499 206.961 47.1576 207.315C51.0881 219.095 55.1902 226.73 60.4282 233.315C63.339 236.973 66.6125 240.287 70.4001 243.824C73.6248 246.838 77.1985 250.028 81.282 253.646C84.2998 256.484 92.0772 262.644 97.2516 268.336C99.2874 270.579 100.902 272.757 101.768 274.584C101.827 274.708 101.903 274.824 101.935 274.952C102.066 275.472 101.953 275.879 101.986 276.331C101.993 276.443 102.032 276.543 102.048 276.647Z" fill="#4B5C49"/>
<path fill-rule="evenodd" clip-rule="evenodd" d="M81.7264 267.709C81.7574 267.677 81.7992 267.653 81.8473 267.645C81.9588 267.629 82.0615 267.713 82.0766 267.829C82.0998 267.949 81.9081 268.176 81.4242 268.204C80.6626 268.244 79.003 268.152 76.982 267.733C74.8067 267.285 72.243 266.438 69.9209 265.37C64.8236 262.992 60.1012 260.11 55.6373 256.832C51.1826 253.562 46.9933 249.896 42.9063 246.015C36.3206 239.563 30.242 232.059 25.5382 223.751C20.8395 215.452 17.5145 206.366 16.2326 196.862C15.6062 192.199 15.3377 187.486 15.2819 182.756C15.1986 175.719 15.5632 168.652 15.679 161.669C15.679 161.462 15.8425 161.293 16.0436 161.293C16.245 161.293 16.4081 161.462 16.4081 161.669C16.5239 168.639 16.4348 175.699 16.7103 182.718C16.8935 187.376 17.2294 192.016 17.9457 196.596C19.3817 205.807 22.8598 214.527 27.5298 222.532C32.2235 230.579 38.1309 237.912 44.5899 244.172C48.5138 248.098 52.5602 251.783 56.844 255.137C61.122 258.483 65.6324 261.501 70.5446 264.011C71.9679 264.743 73.4989 265.366 74.9632 265.87C75.6005 266.09 76.2292 266.27 76.8216 266.462C78.7341 267.081 80.3267 267.569 81.2011 267.693C81.4579 267.729 81.6687 267.661 81.7264 267.709Z" fill="#4B5C49"/>
<path fill-rule="evenodd" clip-rule="evenodd" d="M86.1098 250.24C86.116 250.236 86.1221 250.236 86.1283 250.232C86.238 250.208 86.348 250.276 86.3743 250.388C86.5886 251.136 86.6715 251.599 86.716 251.827C86.785 252.175 86.5708 252.283 86.4952 252.331C86.4115 252.379 86.2771 252.351 86.0947 252.211C85.9672 252.111 85.7344 251.779 85.4504 251.263C85.1602 250.736 84.8259 249.996 84.4656 249.153C83.0087 245.731 81.1813 240.574 81.1708 240.55C79.0208 235.326 77.0931 230.298 74.7444 225.412C73.2141 222.23 71.515 219.101 69.3913 216.048C66.0249 211.178 62.2695 206.367 58.2878 201.77C54.3035 197.169 50.0917 192.781 45.7505 188.82C39.9346 183.457 33.6146 178.57 27.7622 173.208C23.8217 169.597 20.0934 165.774 16.864 161.455C16.6897 161.228 16.7277 160.897 16.9481 160.718C17.1685 160.538 17.4889 160.577 17.6629 160.804C20.1174 163.943 22.8439 166.799 25.7234 169.497C32.4737 175.821 40.0589 181.269 46.9728 187.378C51.4119 191.344 55.7457 195.722 59.8091 200.358C63.869 204.99 67.6577 209.878 71.0742 214.808C73.2529 217.97 75.0299 221.19 76.5597 224.501C78.8519 229.462 80.613 234.606 82.6433 239.927C82.6526 239.955 84.3952 245.155 85.5899 248.693C85.7816 249.265 85.9587 249.784 86.1098 250.24ZM86.5231 251.683C86.5444 251.731 86.5676 251.755 86.5963 251.735C86.6637 251.691 86.6049 251.683 86.5231 251.683Z" fill="#4B5C49"/>
<path fill-rule="evenodd" clip-rule="evenodd" d="M106.067 229.646C106.076 229.748 106.012 229.844 105.913 229.869C105.805 229.897 105.701 229.874 105.664 229.712C105.661 229.697 105.677 229.66 105.666 229.601C105.655 229.542 105.579 229.559 105.559 229.375C105.548 229.273 105.626 229.141 105.675 228.975C106.065 227.643 107.064 224.392 107.215 223.928C107.623 222.712 108.13 221.525 108.723 220.373C109.599 218.67 110.655 217.057 111.722 215.512C114.09 212.212 116.759 209.154 119.598 206.253C123.807 201.951 128.38 197.991 132.78 193.994C139.198 188.294 145.386 182.369 151.808 176.707C154.571 174.272 157.379 171.886 160.261 169.585C166.165 164.885 171.283 161.707 176.195 157.772C179.348 155.244 182.417 152.401 185.558 148.625C188.173 145.54 191.137 142.748 193.802 139.717C194.937 138.43 196.014 137.101 196.983 135.682C197.134 135.453 197.44 135.393 197.661 135.549C197.881 135.705 197.943 136.018 197.788 136.247C196.847 137.738 195.789 139.143 194.674 140.504C192.113 143.615 189.239 146.488 186.728 149.648C183.563 153.566 180.456 156.524 177.26 159.164C172.406 163.172 167.339 166.432 161.509 171.223C158.677 173.542 155.93 175.946 153.222 178.394C146.869 184.137 140.746 190.13 134.395 195.906C129.986 199.827 125.425 203.727 121.182 207.93C118.377 210.707 115.706 213.612 113.337 216.773C112.415 217.958 111.514 219.2 110.68 220.486C109.853 221.762 109.088 223.073 108.485 224.453C108.285 224.893 106.951 227.985 106.411 229.25C106.343 229.409 106.319 229.561 106.248 229.628C106.164 229.708 106.131 229.734 106.09 229.676C106.082 229.666 106.074 229.656 106.067 229.646Z" fill="#4B5C49"/>
<path fill-rule="evenodd" clip-rule="evenodd" d="M119.6 150.703C119.713 150.703 119.804 150.798 119.804 150.914C119.804 151.03 119.713 151.124 119.6 151.124C119.364 151.176 119.106 150.902 118.933 150.44C118.719 149.869 118.674 148.984 118.639 148.853C118.34 147.579 118.07 146.311 117.876 145.025C117.68 143.729 117.567 142.424 117.521 141.098C117.41 138.277 117.336 135.494 117.421 132.727C117.508 129.917 117.733 127.131 118.073 124.363C118.749 118.86 119.928 113.43 121.562 107.961C123.916 100.149 127.317 92.8622 131.323 85.9291C137.302 75.5811 144.668 66.0341 152.266 56.9404C158.456 49.4533 165.398 42.569 171.783 35.2125C174.498 32.0798 177.117 28.8615 179.523 25.4705C181.661 22.4804 183.362 19.3009 184.904 16.0438C187.247 11.0899 189.184 5.93322 191.288 0.772184C191.404 0.469581 191.737 0.322477 192.032 0.443199C192.326 0.56432 192.466 0.908492 192.349 1.21109C190.412 6.47726 188.708 11.7694 186.442 16.8001C184.911 20.1871 183.114 23.4426 180.921 26.5314C178.469 29.9604 175.808 33.2155 173.042 36.3802C166.638 43.701 159.665 50.5398 153.451 57.9885C145.966 67.0478 138.635 76.508 132.834 86.8457C128.994 93.6885 125.847 100.921 123.69 108.62C122.173 113.986 121.203 119.319 120.517 124.689C120.171 127.399 119.907 130.119 119.681 132.863C119.458 135.583 119.241 138.316 119.131 141.098C119.096 142.111 119.115 143.113 119.163 144.115C119.236 145.638 119.375 147.15 119.576 148.671L119.6 150.703Z" fill="#4B5C49"/>
<path fill-rule="evenodd" clip-rule="evenodd" d="M140.602 141.355C140.484 141.379 140.37 141.3 140.347 141.179C140.323 141.057 140.4 140.939 140.517 140.915C141.158 140.74 141.737 140.117 142.307 139.341C143.551 137.649 144.64 135.168 145.33 134.032C147.082 131.259 148.713 128.395 150.29 125.492C152.657 121.129 154.88 116.674 157.093 112.26C159.091 108.317 160.978 104.323 162.834 100.319C167.176 90.9439 171.275 81.4608 175.56 72.0318C180.108 62.3245 184.288 52.2239 187.646 41.8586C191.009 31.4922 193.55 20.8639 194.786 10.0885C194.813 9.84947 195.018 9.67558 195.251 9.70117C195.483 9.72675 195.65 9.94181 195.627 10.1812C194.623 21.0662 192.314 31.8383 189.149 42.3587C185.988 52.8774 181.971 63.1388 177.586 73.0163C173.894 81.0935 170.396 89.2374 166.661 97.2701C164.166 102.639 161.555 107.951 158.785 113.194C156.446 117.561 154.113 121.978 151.607 126.28C149.93 129.159 148.175 131.984 146.312 134.719C145.537 135.812 144.299 138.266 142.886 139.842C142.146 140.666 141.36 141.249 140.602 141.355Z" fill="#4B5C49"/>
<path fill-rule="evenodd" clip-rule="evenodd" d="M132.988 206.837C132.935 206.94 132.812 206.979 132.712 206.925C132.613 206.87 132.575 206.743 132.627 206.64C132.728 206.202 133.188 205.896 133.8 205.708C134.456 205.507 135.266 205.566 135.667 205.532C136.153 205.499 136.62 205.424 137.083 205.346C139.078 205.011 140.921 204.359 142.946 204.001C145.924 203.495 148.934 202.367 151.925 201.041C156.43 199.046 160.866 196.527 164.775 194.258C166.905 193.03 169.071 191.594 171.186 190.076C173.313 188.548 175.385 186.936 177.311 185.367C180.367 182.802 183.753 180.585 186.934 178.133C188.243 177.122 189.525 176.076 190.718 174.929C193.016 172.793 195.123 170.506 197.176 168.184C198.563 166.613 199.95 165.05 201.263 163.415C204.56 159.31 207.574 154.971 210.584 150.582C212.564 147.611 214.621 144.718 216.399 141.651C217.565 139.634 218.611 137.543 219.432 135.306C220.997 131.026 224.216 127.149 226.107 122.856C226.901 121.058 227.474 119.192 227.533 117.155C227.533 116.987 227.668 116.851 227.827 116.851C227.99 116.851 228.121 116.987 228.121 117.155C228.187 119.3 227.734 121.313 226.979 123.241C225.278 127.581 222.082 131.469 220.625 135.755C219.839 138.092 218.812 140.284 217.662 142.406C215.957 145.551 213.97 148.538 212.056 151.597C208.701 157.134 205.281 162.56 201.465 167.706C200.694 168.746 199.931 169.789 199.113 170.792C197.207 173.123 195.123 175.308 192.927 177.415C191.625 178.626 190.242 179.743 188.809 180.793C185.597 183.144 182.149 185.194 179.035 187.632C177.059 189.227 174.936 190.864 172.755 192.415C170.558 193.977 168.308 195.453 166.096 196.715C162.078 198.988 157.565 201.625 152.897 203.492C149.678 204.779 146.39 205.682 143.207 206.019C141.425 206.204 139.771 206.675 138.035 206.859C137.262 206.94 136.48 206.958 135.667 206.902C135.314 206.876 134.643 206.826 134.034 206.784C133.798 206.768 133.597 206.698 133.401 206.719C133.23 206.737 133.081 206.731 132.988 206.837Z" fill="#4B5C49"/>
<path fill-rule="evenodd" clip-rule="evenodd" d="M325.977 570.879C326.036 571.011 325.977 571.163 325.85 571.223C325.722 571.279 325.574 571.219 325.516 571.087C325.079 570.216 324.618 569.368 324.172 568.505C322.398 565.047 320.55 561.661 318.493 558.407C314.669 552.347 310.28 546.671 305.209 541.458C297.279 533.3 287.788 526.208 276.747 520.216C269.158 516.011 261.263 511.682 253.48 507.337C248.243 504.411 243.059 501.473 238.046 498.586C218.409 487.306 198.114 474.69 179.871 459.816C167.626 449.83 156.302 438.829 146.745 426.509C135.663 412.119 128.145 398.192 122.382 383.445C116.646 368.771 112.644 353.281 108.805 335.613C107.027 327.442 105.054 319.483 103.485 311.396C102.438 306 101.57 300.543 101.062 294.935C98.4227 266.166 101.457 236.797 107.82 207.876C108.758 203.611 109.766 199.354 110.865 195.119C120.941 156.307 136.526 118.73 150.697 84.6464C150.743 84.5257 150.879 84.4681 150.995 84.5185C151.115 84.5689 151.169 84.7075 151.119 84.8283C137.712 119.138 123.332 157.056 113.734 195.893C112.691 200.11 111.679 204.332 110.737 208.563C104.362 237.181 101.006 266.21 103.414 294.711C103.887 300.244 104.714 305.62 105.722 310.941C107.25 319.015 109.191 326.966 110.931 335.125C114.677 352.681 118.511 368.115 124.225 382.678C129.934 397.224 137.516 410.892 148.547 425.022C157.987 437.21 169.168 448.107 181.281 457.973C199.431 472.759 219.661 485.243 239.209 496.424L277.913 517.974C289.055 524.27 298.62 531.641 306.546 540.099C311.605 545.5 316.045 551.312 319.725 557.612C321.693 560.978 323.486 564.464 324.966 568.117C325.334 569.029 325.652 569.952 325.977 570.879Z" fill="#4B5C49"/>
<path fill-rule="evenodd" clip-rule="evenodd" d="M262.352 510.091C262.359 510.031 262.363 509.971 262.363 509.911C262.363 509.775 262.301 509.631 262.259 509.467C262.216 509.331 262.286 509.184 262.421 509.144C262.553 509.1 262.693 509.176 262.735 509.311C262.782 509.459 262.797 509.603 262.848 509.723C263.138 510.411 263.181 510.791 263.088 511.058C262.917 511.542 262.243 511.698 261.368 511.106C260.907 510.795 260.345 510.155 259.733 509.231C258.408 507.245 256.92 503.791 256.006 498.986C255.499 496.06 255.076 493.394 254.879 490.832C254.732 488.929 254.701 487.086 254.798 485.255C255.034 480.914 255.979 476.649 257.839 471.72C260.26 465.192 262.882 458.832 265.397 452.484C269.216 442.839 272.858 433.245 275.907 423.423C277.921 416.92 279.602 410.292 280.9 403.464C281.741 399.035 282.446 394.522 282.868 389.873C282.891 389.581 283.139 389.362 283.422 389.386C283.709 389.406 283.922 389.661 283.899 389.957C283.627 394.662 283.128 399.251 282.365 403.744C281.191 410.664 279.44 417.347 277.437 423.923C274.427 433.801 270.673 443.394 267.016 453.148C264.626 459.524 262.305 465.984 260.105 472.571C258.892 476.277 258.23 479.571 257.943 482.797C257.808 484.364 257.788 485.911 257.792 487.482C257.8 490.927 258.048 494.493 258.567 498.582C258.908 501.433 259.539 503.783 260.175 505.638C260.779 507.393 261.372 508.696 261.922 509.471C262.077 509.691 262.239 509.975 262.352 510.091ZM262.352 510.091C262.406 510.147 262.449 510.159 262.476 510.111C262.518 510.027 262.445 510.039 262.352 510.091ZM262.352 510.091C262.204 510.175 262.011 510.359 262.131 510.439C262.224 510.499 262.317 510.311 262.352 510.091Z" fill="#4B5C49"/>
<path fill-rule="evenodd" clip-rule="evenodd" d="M260.182 466.068C260.209 466.1 260.233 466.136 260.24 466.18C260.252 466.228 259.899 466.611 259.721 466.263C259.683 466.196 259.663 466.08 259.57 465.976C259.404 465.784 259.136 465.776 258.884 465.488C257.912 464.377 257.079 462.002 256.777 461.107C256.285 459.624 255.979 458.125 255.797 456.598C255.537 454.407 255.526 452.189 255.227 449.99C254.612 445.073 254.79 440.164 255.425 435.3C256.37 428.08 258.334 420.953 260.353 414.061C267.179 389.773 281.938 370.278 287.834 347.101C289.078 342.22 289.895 337.176 290.213 331.887C290.508 326.994 290.384 321.886 289.628 316.493C289.562 316.053 289.857 315.642 290.279 315.578C290.705 315.51 291.104 315.809 291.17 316.249C292.042 321.754 292.317 326.986 292.045 331.999C291.755 337.419 290.833 342.58 289.531 347.565C283.476 370.738 268.535 390.145 261.519 414.413C259.621 421.261 257.734 428.336 256.944 435.496C256.421 440.216 256.386 444.973 257.102 449.714C257.455 452.293 257.505 454.891 257.811 457.461C257.935 458.513 258.083 459.564 258.358 460.603C258.582 461.471 259.787 463.497 260.051 464.888C260.124 465.26 259.969 465.488 260.023 465.736C260.051 465.868 260.128 465.956 260.163 466.02C260.171 466.036 260.178 466.052 260.182 466.068Z" fill="#4B5C49"/>
<path fill-rule="evenodd" clip-rule="evenodd" d="M271.405 463.777C271.452 463.913 271.382 464.061 271.25 464.105C271.118 464.153 270.975 464.081 270.929 463.945C270.456 462.882 270.913 461.818 271.847 460.867C273.462 459.216 276.643 458.021 277.6 457.285C280.521 455.111 283.418 451.873 285.917 448.327C288.404 444.793 290.488 440.94 291.755 437.498C293.622 432.533 295.106 427.633 296.295 422.784C298.178 415.113 299.224 407.546 299.487 399.947C299.917 387.479 298.267 374.919 294.471 361.768C294.347 361.368 294.564 360.944 294.947 360.816C295.334 360.692 295.745 360.912 295.869 361.312C300.158 374.575 302.397 387.311 302.188 400.023C302.06 407.834 301.01 415.636 299.022 423.507C297.767 428.46 296.102 433.425 294.095 438.462C292.638 442.035 290.325 446.009 287.571 449.618C284.821 453.228 281.648 456.482 278.506 458.632C277.507 459.292 274.369 460.339 272.563 461.726C271.789 462.322 271.223 462.938 271.405 463.777Z" fill="#4B5C49"/>
<path fill-rule="evenodd" clip-rule="evenodd" d="M293.889 531.105C293.653 531.061 293.301 531.009 292.971 530.993C292.472 530.969 291.906 531.041 291.263 531.037C290.027 531.033 288.602 530.953 287.222 530.961C284.484 530.977 281.977 531.093 281.702 531.109C277.747 531.269 273.853 531.753 269.945 532.161C267.314 532.432 264.68 532.648 262.046 532.884C259.198 533.136 256.351 533.348 253.488 533.512C235.745 534.431 224.972 534.023 214.528 531.045C204.467 528.179 194.712 522.923 179.271 514.116C178.969 513.952 178.853 513.565 179.011 513.253C179.174 512.941 179.55 512.821 179.852 512.985C195.379 521.104 205.164 525.949 215.182 528.427C225.46 530.965 235.966 530.977 253.228 529.494C258.912 529.071 264.529 528.251 270.189 527.895C274.012 527.655 277.84 527.683 281.702 527.843C282.132 527.867 287.877 528.031 291.584 528.867C292.987 529.182 294.064 529.622 294.595 529.99C295.005 530.278 295.214 530.558 295.218 530.825C295.218 531.121 295.094 531.581 294.397 531.849C294.18 531.969 293.909 531.881 293.796 531.661C293.696 531.469 293.742 531.241 293.889 531.105Z" fill="#4B5C49"/>
<path fill-rule="evenodd" clip-rule="evenodd" d="M255.479 535.215C255.456 535.135 255.468 535.047 255.518 534.979C255.603 534.867 255.762 534.843 255.871 534.931C256.304 535.115 256.293 535.426 256.273 535.622C256.25 535.846 255.975 536.098 255.448 536.286C254.464 536.63 252.287 536.582 251.342 536.937C248.808 537.761 246.286 538.528 243.78 539.384C242.133 539.947 240.495 540.551 238.872 541.231C234.234 543.133 229.644 544.357 224.98 545.044C218.099 546.055 211.076 545.932 203.572 545.52C197.777 545.192 192.21 543.533 186.891 541.143C179.031 537.609 171.709 532.484 164.953 527.843C156.155 521.779 148.237 516.699 139.84 512.801C136.358 511.182 132.785 509.795 129.046 508.572C123.839 506.869 118.301 505.502 112.113 504.654C111.606 504.598 111.24 504.123 111.296 503.603C111.352 503.079 111.81 502.7 112.317 502.76C120.957 503.591 128.457 505.302 135.444 507.932C146.149 511.962 155.64 518.05 166.475 525.489C173.096 530.05 180.27 535.095 187.98 538.572C193 540.835 198.249 542.434 203.723 542.754C209.801 543.117 215.554 543.237 221.187 542.786C226.878 542.33 232.445 541.291 238.105 539.152C239.797 538.524 241.498 537.981 243.21 537.477C245.756 536.726 248.312 536.058 250.885 535.334C251.322 535.231 251.966 535.179 252.655 535.175C253.577 535.175 254.584 535.183 255.224 535.187C255.309 535.191 255.402 535.199 255.479 535.215Z" fill="#4B5C49"/>
<path fill-rule="evenodd" clip-rule="evenodd" d="M209.937 481.366C209.968 481.362 209.995 481.366 210.026 481.374C210.162 481.41 210.239 481.554 210.204 481.689C210.367 481.957 210.042 481.817 209.914 481.937C209.84 482.005 209.829 481.933 209.495 481.765C209.348 481.693 209.182 481.514 208.984 481.218C208.407 480.366 207.857 478.683 207.655 478.244C206.881 476.445 205.959 474.71 205.153 472.911C204.595 471.672 204.103 470.401 203.692 469.106C202.53 465.372 201.655 461.571 201.116 457.713C200.314 451.961 200.202 446.113 200.244 440.308C200.283 435.643 201.12 430.97 202.344 426.31C205.083 415.888 209.782 405.535 211.398 395.474C212.641 387.751 215.299 381.175 217.592 374.855C218.65 371.949 219.645 369.103 220.331 366.197C220.904 363.766 221.276 361.296 221.33 358.73C221.33 358.498 221.512 358.31 221.737 358.31C221.962 358.31 222.144 358.498 222.144 358.73C222.229 362.687 221.59 366.46 220.571 370.222C218.425 378.165 214.648 386.06 213.284 395.777C211.839 405.927 207.314 416.428 204.742 426.957C203.654 431.41 202.925 435.867 202.964 440.308C202.995 445.037 203.231 449.782 203.7 454.491C204.169 459.164 204.862 463.813 206.114 468.354C206.358 469.273 206.66 470.173 206.974 471.072C207.737 473.251 208.608 475.394 209.325 477.572C209.461 478.036 210.042 479.679 210.212 480.694C210.262 480.99 210.092 481.318 210.228 481.326C210.321 481.334 210.111 481.426 210.108 481.386C210.092 481.242 210.018 481.314 209.937 481.366ZM209.84 481.398C209.832 481.394 209.825 481.394 209.817 481.39C209.786 481.382 209.786 481.402 209.786 481.434C209.802 481.418 209.821 481.406 209.84 481.398Z" fill="#4B5C49"/>
<path fill-rule="evenodd" clip-rule="evenodd" d="M201.759 430.015C201.887 430.063 201.953 430.215 201.906 430.347C201.86 430.483 201.713 430.551 201.585 430.503C200.779 430.307 200.051 429.475 199.477 428.312C198.447 426.214 198.001 423.084 197.75 421.796C197.265 419.366 196.754 417.016 196.398 414.657C196.033 412.223 195.805 409.792 195.716 407.35C195.603 404.132 195.789 400.882 196.297 397.5C197.761 387.343 200.337 377.058 203.785 367.092C207.229 357.151 211.545 347.521 216.74 338.751C217.983 336.648 219.328 334.617 220.73 332.627C224.623 327.118 228.943 321.906 232.952 316.485C234.665 314.175 236.338 311.844 237.857 309.398C238.043 309.086 238.438 308.99 238.736 309.182C239.038 309.374 239.131 309.777 238.945 310.089C237.74 312.212 236.45 314.274 235.067 316.277C229.597 324.18 223.058 331.335 218.173 339.654C213.075 348.336 208.771 357.838 205.49 367.708C202.216 377.577 199.969 387.803 198.734 397.848C198.354 401.082 198.35 404.176 198.47 407.238C198.563 409.608 198.768 411.955 198.974 414.333C199.179 416.688 199.35 419.066 199.578 421.517C199.694 422.756 199.969 425.71 200.593 427.853C200.888 428.852 201.17 429.695 201.759 430.015Z" fill="#4B5C49"/>
<path fill-rule="evenodd" clip-rule="evenodd" d="M204.3 437.718C204.262 437.85 204.126 437.926 203.998 437.886C203.867 437.842 203.797 437.702 203.836 437.57C203.936 436.883 204.161 436.251 204.533 435.651C204.87 435.104 205.346 434.632 205.846 434.156C207.268 432.797 209.1 431.602 210.631 430.363C211.266 429.851 211.847 429.344 212.273 428.768C213.823 426.673 215.136 424.367 216.352 421.984C218.208 418.363 219.804 414.553 221.373 410.924C222.198 409.041 222.93 407.102 223.612 405.135C225.224 400.482 226.556 395.673 228.075 391.045C229.21 387.723 230.291 384.401 231.356 381.083C232.96 376.086 234.494 371.097 235.753 366.017C237.14 360.416 238.236 354.732 238.883 348.88C239.484 343.34 239.619 338.251 239.507 333.254C239.333 325.591 238.593 318.152 238.194 309.673C238.178 309.458 238.337 309.274 238.542 309.262C238.752 309.246 238.93 309.41 238.941 309.626C239.569 318.104 240.475 325.531 240.882 333.202C241.15 338.263 241.204 343.424 240.789 349.064C240.259 356.551 239.03 363.806 237.334 370.962C235.645 378.093 233.483 385.112 231.224 392.168C229.88 396.129 228.687 400.23 227.312 404.244C226.374 406.978 225.348 409.668 224.154 412.259C222.454 415.896 220.753 419.742 218.715 423.339C217.329 425.794 215.783 428.128 214.032 430.239C213.455 430.934 212.711 431.582 211.847 432.146C210.224 433.209 208.217 434.04 206.652 435.184C206.168 435.539 205.746 435.931 205.358 436.335C204.94 436.767 204.556 437.182 204.3 437.718Z" fill="#4B5C49"/>
<path fill-rule="evenodd" clip-rule="evenodd" d="M172.976 451.361C173.104 451.313 173.251 451.385 173.297 451.517C173.344 451.653 173.278 451.801 173.146 451.849C172.112 452.452 170.709 452.64 169.121 452.456C166.022 452.097 162.489 450.322 160.533 449.606C157.84 448.527 154.915 447.776 151.925 447.128C147.4 446.153 142.725 445.473 138.408 444.777C130.598 443.286 122.698 442.923 114.869 441.839C111.46 441.368 108.066 440.764 104.698 439.881C96.5776 437.778 88.414 434.12 80.7873 429.483C73.2157 424.882 66.1666 419.318 60.3143 413.194C59.0025 411.831 57.8059 410.312 56.672 408.717C54.1008 405.099 51.8578 401.086 49.3181 397.628C49.1465 397.392 49.1891 397.061 49.4141 396.885C49.6388 396.709 49.9608 396.753 50.1328 396.985C52.7058 400.422 54.9849 404.416 57.5932 408.013C58.7066 409.544 59.8816 411.007 61.1662 412.315C67.0263 418.255 74.0254 423.687 81.5881 428.044C89.1419 432.398 97.2501 435.675 105.245 437.482C108.545 438.222 111.86 438.681 115.186 439.017C123.11 439.817 131.081 439.901 139 441.112C143.365 441.911 148.113 442.635 152.661 443.806C155.799 444.61 158.836 445.637 161.621 446.936C163.182 447.728 165.824 449.275 168.373 450.278C169.16 450.586 169.931 450.822 170.651 451.017C171.519 451.257 172.263 451.473 172.976 451.361Z" fill="#4B5C49"/>
<path fill-rule="evenodd" clip-rule="evenodd" d="M135.287 445.705C133.721 445.641 131.1 445.673 130.693 445.745C129.342 445.901 128.004 446.169 126.673 446.492C123.504 447.26 120.383 448.359 117.261 449.171C114.703 449.822 112.163 450.518 109.616 451.145C103.57 452.632 97.5275 453.912 91.4206 454.627C85.6073 455.307 79.7274 455.435 73.6972 454.615C60.2182 452.836 49.6547 445.101 41.175 434.664C35.1561 427.257 30.1498 418.511 25.9706 409.556C21.5976 400.187 18.1211 390.609 15.0847 382.254C14.965 381.934 15.1208 381.575 15.4318 381.451C15.7429 381.327 16.0927 381.487 16.2124 381.806C19.3686 390.069 23.0446 399.511 27.4837 408.797C31.6827 417.575 36.5561 426.23 42.5162 433.501C50.7301 443.522 60.9419 450.949 73.9432 452.584C79.8107 453.304 85.5194 453.084 91.1594 452.361C97.1765 451.593 103.104 450.194 109.081 448.783C111.634 448.179 114.201 447.604 116.776 447.02C119.93 446.32 123.093 445.337 126.293 444.682C127.701 444.394 129.114 444.166 130.537 444.054C131.078 444.042 135.139 444.526 136.308 444.929C137.132 445.213 137.467 445.993 135.565 445.997C135.427 446.013 135.302 445.909 135.286 445.769C135.284 445.745 135.284 445.725 135.287 445.705Z" fill="#4B5C49"/>
<path fill-rule="evenodd" clip-rule="evenodd" d="M120.822 441.308C120.842 441.308 120.862 441.308 120.883 441.312C120.924 441.324 120.961 441.34 120.992 441.368C120.952 441.356 120.893 441.348 120.839 441.34C120.893 441.436 120.949 441.476 121.009 441.436C121.022 441.428 121.03 441.42 121.034 441.412C121.075 441.472 121.093 441.544 121.078 441.619C121.205 441.875 121.069 441.955 121.032 442.051C120.931 442.315 120.619 442.283 120.317 441.971C120.037 441.679 119.618 439.937 119.169 439.381L113.918 433.301C111.237 430.267 108.472 427.397 105.618 424.623C102.763 421.844 99.8204 419.166 96.7654 416.544C91.3512 411.791 85.4697 407.758 79.4903 403.876C70.4291 397.996 61.1084 392.515 52.4529 386.092C48.8315 383.401 45.331 380.543 42.0308 377.393C41.8514 377.229 41.8378 376.942 42.0002 376.758C42.1621 376.57 42.4395 376.558 42.6188 376.726C45.9535 379.772 49.478 382.526 53.1242 385.104C61.903 391.308 71.405 396.417 80.5173 402.169C86.6253 406.027 92.5416 410.192 98.0318 415.005C101.062 417.719 103.984 420.481 106.8 423.355C109.617 426.23 112.328 429.212 114.957 432.346C116.16 433.781 117.419 435.216 118.582 436.715C119.087 437.362 119.566 438.026 120.031 438.697C120.365 439.185 120.576 440.812 120.822 441.308ZM120.992 441.368C121.026 441.38 121.046 441.392 121.034 441.412C121.022 441.396 121.007 441.38 120.992 441.368ZM120.742 441.324C120.731 441.324 120.722 441.32 120.715 441.32C120.606 441.28 120.462 441.524 120.462 441.524C120.462 441.524 120.53 441.564 120.586 441.516C120.603 441.424 120.664 441.356 120.742 441.324Z" fill="#4B5C49"/>
<path fill-rule="evenodd" clip-rule="evenodd" d="M133.345 403.56C133.315 403.696 133.18 403.784 133.045 403.756C132.909 403.724 132.824 403.584 132.854 403.444C132.851 403.105 132.784 402.789 132.745 402.433C132.664 401.698 132.528 400.934 132.341 400.127C131.714 397.408 130.614 394.406 130.405 392.02C130.152 386.999 130.426 382.078 131.222 377.237C132.015 372.417 133.325 367.688 134.938 362.983C137.223 356.319 139.755 349.583 142.493 342.936C145.231 336.288 148.175 329.732 151.351 323.46C157.798 310.697 164.655 298.381 170.14 285.409C173.762 276.831 176.803 267.965 178.667 258.459C178.705 258.247 178.903 258.107 179.108 258.151C179.314 258.191 179.449 258.395 179.41 258.607C177.679 268.216 174.785 277.207 171.232 285.893C165.886 298.96 159.064 311.332 152.703 324.18C149.608 330.448 146.726 336.984 144.095 343.623C141.462 350.271 139.084 357.023 136.926 363.69C135.435 368.299 134.309 372.944 133.549 377.641C132.791 382.322 132.396 387.063 132.58 391.92C132.577 394.594 133.952 398.14 133.867 401.11C133.841 402.017 133.646 402.821 133.345 403.56Z" fill="#4B5C49"/>
<path fill-rule="evenodd" clip-rule="evenodd" d="M139.365 353.853C139.321 354.041 139.138 354.157 138.957 354.109C138.776 354.065 138.665 353.877 138.709 353.689C138.853 352.997 139.619 352.222 140.656 351.49C142.535 350.159 145.303 348.916 146.214 348.436C150.964 346.054 155.721 343.863 160.11 341.049C162.977 339.214 165.681 337.108 168.118 334.505C172.259 330.108 176.412 324.78 180.208 319.019C182.602 315.386 184.857 311.58 186.813 307.679C190.219 300.895 192.764 293.848 193.655 287.024C194.294 282.439 194.352 277.79 194.1 273.129C193.721 266.07 192.652 259.002 191.85 252.115C191.811 251.827 192.008 251.559 192.287 251.519C192.566 251.479 192.826 251.679 192.865 251.971C193.907 258.859 195.208 265.926 195.832 272.997C196.254 277.782 196.363 282.571 195.871 287.312C194.879 296.102 191.404 305.38 186.542 313.903C181.723 322.353 175.556 330.04 169.609 336.044C166.967 338.675 164.069 340.781 161.009 342.6C156.484 345.29 151.615 347.353 146.741 349.599C145.932 349.955 143.692 350.771 141.857 351.762C140.624 352.43 139.554 353.137 139.365 353.853Z" fill="#4B5C49"/>
<path fill-rule="evenodd" clip-rule="evenodd" d="M140.444 351.786C140.452 351.926 140.345 352.05 140.207 352.058C140.068 352.066 139.95 351.958 139.942 351.814C139.862 351.534 139.7 351.286 139.573 350.967C139.152 349.919 138.609 348.636 138.135 347.421C137.845 346.681 137.626 345.95 137.533 345.282C137.066 341.892 136.775 338.211 136.703 334.525C136.63 330.828 136.779 327.13 137.151 323.72C138.377 313.567 142.49 303.01 148.047 292.904C156.202 278.082 167.452 264.231 177.071 254.034C177.233 253.862 177.497 253.858 177.663 254.022C177.83 254.186 177.834 254.461 177.675 254.633C168.219 264.875 157.189 278.774 149.228 293.588C143.87 303.561 139.898 313.947 138.784 323.92C138.371 327.262 138.185 330.884 138.188 334.509C138.193 338.135 138.386 341.769 138.771 345.118C138.93 346.681 140.04 348.62 140.382 350.291C140.494 350.835 140.496 351.334 140.444 351.786Z" fill="#4B5C49"/>
<path fill-rule="evenodd" clip-rule="evenodd" d="M113.735 355.16C113.783 355.132 113.796 355.124 113.735 355.16V355.16ZM113.735 355.16C113.712 355.172 113.682 355.188 113.648 355.208C113.712 355.244 113.762 355.304 113.779 355.384C113.882 355.528 113.714 355.592 113.666 355.668C113.646 355.7 113.548 355.703 113.316 355.64C113.219 355.616 113.042 355.592 112.784 355.428C111.744 354.764 109.755 352.482 109.174 352.018C107.969 350.991 106.719 350.015 105.434 349.092C104.149 348.168 102.829 347.297 101.489 346.462L77.5014 331.319C61.8712 321.506 45.0993 310.997 32.9119 296.938C24.7065 287.472 18.5821 276.407 16.2217 262.932C16.169 262.644 16.3507 262.368 16.6266 262.316C16.9028 262.26 17.1697 262.448 17.2224 262.736C19.7769 275.895 26.0011 286.601 34.1833 295.747C46.4564 309.466 63.1531 319.675 78.7399 329.189C81.9592 331.191 85.1695 333.214 88.3384 335.305C93.0821 338.439 97.7521 341.689 102.461 344.871C103.8 345.782 105.114 346.729 106.394 347.729C107.677 348.728 108.926 349.771 110.125 350.871C110.428 351.15 111.177 351.91 111.896 352.749C112.516 353.473 113.179 354.196 113.479 354.708C113.618 354.944 113.585 355.236 113.664 355.196C113.694 355.18 113.717 355.168 113.735 355.16Z" fill="#4B5C49"/>
</svg>
