<svg width="487" height="622" viewBox="0 0 487 622" fill="none" xmlns="http://www.w3.org/2000/svg">
<g opacity="0.5">
<path fill-rule="evenodd" clip-rule="evenodd" d="M245.432 542.346C245.572 542.337 245.689 542.444 245.695 542.583C245.697 542.721 245.589 542.84 245.454 542.846C245.306 542.868 244.218 542.448 242.56 541.56C241.48 540.98 240.161 540.19 238.667 539.285C229.867 533.957 215.237 524.428 213.359 523.109C204.927 517.049 195.675 513.439 186.357 510.886C170.683 506.591 154.757 505.39 141.843 501.97C141.456 501.871 141.227 501.478 141.332 501.091C141.437 500.704 141.836 500.47 142.223 500.569C155.232 503.74 171.268 504.443 187.004 508.634C196.592 511.187 206.036 515.071 214.663 521.341L245.432 542.346Z" fill="#B5BDA6"/>
<path fill-rule="evenodd" clip-rule="evenodd" d="M241.357 216.157C241.43 216.152 241.492 216.206 241.496 216.279C241.5 216.351 241.445 216.414 241.372 216.42C240.842 216.459 240.572 216.345 240.438 216.203C240.285 216.04 240.256 215.795 240.385 215.463C240.698 214.653 242.067 213.434 242.532 212.784C243.527 211.402 244.636 210.184 245.816 209.035C246.173 208.687 246.53 208.343 246.904 208.014C248.362 206.731 249.938 205.573 251.487 204.316C255.754 200.883 260.336 197.682 265.105 194.785C269.867 191.892 274.815 189.306 279.75 186.976C297.897 178.472 313.008 171.659 329.231 169.446C339.902 167.991 351.05 168.518 363.867 171.88C364.009 171.916 364.097 172.065 364.057 172.21C364.017 172.355 363.866 172.442 363.723 172.406C350.975 169.219 339.912 168.809 329.348 170.379C313.26 172.771 298.339 179.746 280.419 188.418C275.551 190.756 270.694 193.388 265.977 196.242C261.263 199.093 256.684 202.166 252.436 205.511C250.872 206.733 249.327 207.908 247.81 209.103C247.43 209.402 247.045 209.691 246.67 209.994C245.437 210.992 244.261 212.058 243.183 213.294C242.716 213.827 241.533 214.76 240.973 215.479C240.895 215.579 240.838 215.679 240.783 215.761C240.714 215.864 240.615 215.916 240.627 215.997C240.652 216.161 240.9 216.191 241.357 216.157Z" fill="#B5BDA6"/>
<path fill-rule="evenodd" clip-rule="evenodd" d="M163.096 339.303C163.337 339.388 163.46 339.654 163.369 339.899C163.279 340.14 163.011 340.266 162.77 340.181C161.61 339.817 160.505 339.335 159.421 338.794C156.993 337.585 154.687 336.087 152.119 335.097C145.663 332.452 139.337 330.112 133.224 327.217C129.135 325.282 125.146 323.092 121.262 320.443C114.481 315.73 107.849 306.821 103.047 296.962C98.2852 287.18 95.3221 276.487 95.5888 268.192C95.8082 262.054 96.9669 254.39 98.7734 246.994C100.646 239.328 103.211 231.95 106.17 226.858C106.264 226.691 106.476 226.63 106.641 226.722C106.807 226.814 106.864 227.024 106.771 227.188C103.948 232.278 101.553 239.62 99.8673 247.23C98.243 254.561 97.2795 262.143 97.2025 268.201C97.0716 276.263 100.191 286.567 104.925 296.014C109.661 305.461 116.02 314.061 122.586 318.559C126.347 321.185 130.225 323.343 134.184 325.294C140.217 328.271 146.446 330.754 152.811 333.518C155.716 334.855 158.239 336.832 161.01 338.321C161.689 338.681 162.378 339.02 163.096 339.303Z" fill="#B5BDA6"/>
<path fill-rule="evenodd" clip-rule="evenodd" d="M160.804 328.94C160.927 328.971 161.008 329.091 160.987 329.219C160.998 329.356 160.877 329.491 160.555 329.419C160.446 329.392 160.235 329.287 159.937 329.141C159.713 329.028 159.459 328.923 159.203 328.757C158.472 328.277 157.791 327.604 157.751 327.568C156.898 326.826 156.091 326.053 155.345 325.22C154.251 323.992 153.285 322.66 152.256 321.365C150.1 318.639 148.434 315.738 147.032 312.722C144.953 308.253 143.463 303.528 141.758 298.753C140.47 295.057 139.313 291.224 138.356 287.344C137.401 283.46 136.645 279.527 136.061 275.644C135.697 273.184 135.33 270.691 134.878 268.226C134.58 266.598 134.253 264.983 133.834 263.397C132.813 259.519 131.596 255.608 130.198 251.767C128.797 247.926 127.221 244.155 125.406 240.58C124.824 239.438 124.088 238.385 123.276 237.379C121.337 234.975 118.964 232.843 117.045 230.537C116.95 230.433 116.962 230.266 117.07 230.171C117.177 230.077 117.34 230.087 117.435 230.191C119.506 232.382 122.037 234.357 124.12 236.658C125.044 237.679 125.871 238.77 126.55 239.952C128.574 243.482 130.388 247.219 131.979 251.055C133.57 254.89 134.93 258.821 136.114 262.718C136.609 264.349 137.026 266.015 137.379 267.695C137.903 270.18 138.292 272.704 138.699 275.193C139.31 278.99 140.121 282.829 141.063 286.633C142.004 290.44 143.077 294.208 144.312 297.84C145.887 302.582 147.257 307.269 149.193 311.725C150.452 314.627 151.947 317.431 153.921 320.085L158.795 326.527C158.828 326.565 159.473 327.154 159.993 327.793C160.29 328.161 160.493 328.535 160.674 328.765C160.733 328.843 160.798 328.93 160.804 328.94Z" fill="#B5BDA6"/>
<path fill-rule="evenodd" clip-rule="evenodd" d="M193.132 286.024C193.123 286.159 193.003 286.266 192.864 286.259C192.724 286.255 192.619 286.136 192.629 285.997C192.517 285.564 192.252 285.217 192.051 284.698C191.947 284.434 191.893 284.135 191.789 283.834C191.433 282.813 190.853 281.696 190.19 280.47C189.363 278.934 188.377 277.264 187.284 275.562C183.561 269.789 178.78 263.669 176.813 260.766C173.922 256.223 171.349 252.252 169.163 248.49C166.528 243.951 164.412 239.73 162.784 235.302C159.876 227.38 158.552 218.795 158.762 206.388C158.758 206.029 159.048 205.729 159.409 205.719C159.769 205.71 160.065 205.994 160.068 206.353C160.51 218.409 162.288 226.649 165.452 234.223C167.21 238.43 169.414 242.417 172.048 246.753C174.289 250.446 176.816 254.4 179.711 258.891C181.804 262.364 187.524 270.239 190.879 276.963C192.198 279.612 193.131 282.085 193.446 284.025C193.467 284.156 193.507 284.285 193.502 284.413C193.481 284.933 193.258 285.282 193.161 285.712C193.137 285.819 193.145 285.922 193.132 286.024Z" fill="#B5BDA6"/>
<path fill-rule="evenodd" clip-rule="evenodd" d="M176.164 272.117C176.202 272.096 176.249 272.085 176.298 272.091C176.409 272.106 176.484 272.213 176.466 272.325C176.454 272.443 176.206 272.603 175.734 272.496C174.992 272.324 173.426 271.783 171.606 270.837C169.646 269.823 167.426 268.33 165.5 266.698C161.282 263.082 157.567 259.101 154.211 254.821C150.862 250.551 147.879 245.986 145.055 241.247C140.561 233.428 136.85 224.767 134.686 215.734C132.524 206.712 131.901 197.333 133.357 188.125C134.074 183.608 135.148 179.143 136.431 174.721C138.34 168.14 140.686 161.656 142.77 155.18C142.829 154.987 143.033 154.875 143.226 154.93C143.42 154.986 143.528 155.187 143.47 155.38C141.611 161.907 139.531 168.461 137.812 175.077C136.672 179.468 135.683 183.883 135.076 188.348C133.851 197.325 134.723 206.404 136.941 215.146C139.169 223.932 142.764 232.386 147.191 239.992C149.846 244.727 152.686 249.272 155.847 253.573C159.006 257.865 162.48 261.915 166.482 265.602C167.641 266.675 168.933 267.676 170.196 268.547C170.745 268.927 171.297 269.267 171.811 269.609C173.471 270.711 174.86 271.603 175.664 271.958C175.9 272.062 176.122 272.057 176.164 272.117Z" fill="#B5BDA6"/>
<path fill-rule="evenodd" clip-rule="evenodd" d="M185.304 257.043C185.311 257.041 185.317 257.043 185.324 257.041C185.436 257.048 185.523 257.142 185.516 257.253C185.51 258.009 185.459 258.464 185.437 258.688C185.405 259.031 185.169 259.073 185.083 259.097C184.989 259.118 184.868 259.056 184.733 258.875C184.639 258.747 184.509 258.374 184.383 257.815C184.253 257.244 184.142 256.463 184.034 255.578C183.604 251.99 183.308 246.684 183.304 246.658C182.718 241.2 182.29 235.985 181.417 230.789C180.849 227.403 180.103 224.021 178.929 220.593C177.075 215.131 174.832 209.618 172.312 204.241C169.79 198.861 166.99 193.616 163.945 188.733C159.881 182.14 155.2 175.852 151.101 169.249C148.341 164.803 145.845 160.217 143.968 155.306C143.865 155.047 143.994 154.749 144.257 154.642C144.519 154.535 144.815 154.66 144.918 154.919C146.385 158.517 148.194 161.927 150.194 165.231C154.882 172.977 160.619 180.135 165.524 187.726C168.662 192.639 171.582 197.909 174.17 203.344C176.756 208.774 179.009 214.369 180.893 219.9C182.09 223.444 182.884 226.933 183.416 230.438C184.213 235.69 184.449 240.967 184.893 246.481C184.894 246.51 185.096 251.834 185.243 255.459C185.265 256.044 185.288 256.577 185.304 257.043ZM185.293 258.501C185.3 258.552 185.315 258.58 185.348 258.57C185.426 258.547 185.371 258.523 185.293 258.501Z" fill="#B5BDA6"/>
<path fill-rule="evenodd" clip-rule="evenodd" d="M210.267 243.331C210.247 243.428 210.159 243.5 210.056 243.497C209.945 243.493 209.852 243.443 209.862 243.282C209.863 243.267 209.889 243.237 209.896 243.179C209.902 243.121 209.824 243.116 209.857 242.939C209.875 242.841 209.987 242.74 210.081 242.598C210.831 241.464 212.708 238.709 212.984 238.318C213.719 237.297 214.541 236.33 215.435 235.42C216.757 234.073 218.226 232.86 219.686 231.713C222.89 229.288 226.314 227.171 229.857 225.247C235.11 222.394 240.616 219.959 245.966 217.442C253.733 213.892 261.343 210.07 269.103 206.557C272.441 205.046 275.809 203.594 279.224 202.241C286.216 199.482 292.023 197.925 297.847 195.607C301.586 194.117 305.332 192.31 309.413 189.654C312.793 187.497 316.424 185.709 319.838 183.616C321.29 182.728 322.699 181.786 324.029 180.73C324.238 180.557 324.549 180.585 324.717 180.791C324.884 180.997 324.855 181.306 324.642 181.477C323.318 182.608 321.906 183.627 320.452 184.588C317.116 186.785 313.547 188.673 310.246 190.928C306.103 193.71 302.287 195.614 298.475 197.197C292.686 199.599 286.904 201.246 279.958 204.11C276.586 205.493 273.272 206.98 269.983 208.517C262.266 212.125 254.699 216.029 246.975 219.668C241.637 222.11 236.16 224.493 230.903 227.244C227.427 229.063 224.044 231.036 220.879 233.332C219.659 234.183 218.444 235.092 217.281 236.062C216.127 237.024 215.022 238.036 214.055 239.155C213.738 239.511 211.584 242.026 210.709 243.056C210.599 243.186 210.533 243.321 210.446 243.364C210.343 243.415 210.304 243.43 210.28 243.365C210.276 243.354 210.271 243.342 210.267 243.331Z" fill="#B5BDA6"/>
<path fill-rule="evenodd" clip-rule="evenodd" d="M245.555 173.487C245.664 173.518 245.724 173.63 245.691 173.738C245.659 173.847 245.545 173.909 245.437 173.878C245.195 173.862 245.025 173.536 244.99 173.058C244.946 172.467 245.153 171.631 245.156 171.499C245.229 170.229 245.329 168.974 245.505 167.723C245.683 166.461 245.944 165.213 246.275 163.966C246.965 161.306 247.681 158.693 248.544 156.138C249.421 153.543 250.424 151.01 251.533 148.523C253.737 143.582 256.402 138.846 259.514 134.197C263.98 127.565 269.301 121.708 275.103 116.347C283.763 108.346 293.526 101.472 303.383 95.0838C311.437 89.8065 320.042 85.2971 328.244 80.1947C331.735 78.021 335.156 75.7409 338.422 73.2415C341.318 71.0423 343.848 68.5464 346.247 65.9347C349.895 61.9618 353.21 57.6885 356.686 53.4568C356.883 53.2068 357.245 53.1611 357.493 53.3544C357.741 53.5481 357.778 53.9071 357.581 54.1572C354.234 58.5325 351.104 62.9959 347.509 67.0615C345.084 69.7975 342.44 72.3376 339.464 74.6139C336.142 77.136 332.67 79.4386 329.122 81.6283C320.911 86.6922 312.29 91.1506 304.224 96.3858C294.485 102.773 284.78 109.576 276.294 117.616C270.677 122.938 265.614 128.814 261.37 135.395C258.398 139.979 255.96 144.682 253.785 149.498C252.687 151.928 251.666 154.39 250.674 156.885C249.691 159.358 248.71 161.845 247.819 164.407C247.499 165.342 247.235 166.281 246.998 167.227C246.637 168.667 246.343 170.114 246.106 171.587L245.555 173.487Z" fill="#B5BDA6"/>
<path fill-rule="evenodd" clip-rule="evenodd" d="M268.343 170.54C268.223 170.53 268.136 170.425 268.147 170.306C268.159 170.186 268.266 170.097 268.386 170.107C269.05 170.12 269.781 169.699 270.547 169.132C272.218 167.896 273.964 165.884 274.947 165.014C277.412 162.912 279.785 160.69 282.118 158.418C285.622 155.002 289.013 151.461 292.382 147.956C295.414 144.83 298.352 141.627 301.264 138.404C308.078 130.861 314.69 123.15 321.464 115.54C328.569 107.743 335.433 99.4783 341.584 90.7418C347.739 82.0053 353.179 72.7993 357.41 63.098C357.503 62.8827 357.749 62.777 357.965 62.8647C358.181 62.9523 358.28 63.1984 358.19 63.4151C354.152 73.2823 348.893 82.6862 342.884 91.6203C336.88 100.554 330.127 109.013 323.129 117.013C317.305 123.526 311.649 130.155 305.797 136.614C301.886 140.933 297.881 145.166 293.742 149.291C290.264 152.718 286.779 156.193 283.159 159.514C280.736 161.737 278.255 163.886 275.695 165.924C274.642 166.73 272.762 168.677 270.961 169.757C270.018 170.322 269.099 170.65 268.343 170.54Z" fill="#B5BDA6"/>
<path fill-rule="evenodd" clip-rule="evenodd" d="M242.536 229.467C242.457 229.548 242.327 229.55 242.247 229.473C242.167 229.395 242.166 229.266 242.246 229.184C242.467 228.804 242.994 228.645 243.634 228.638C244.32 228.631 245.08 228.908 245.475 228.986C245.951 229.089 246.419 229.147 246.886 229.201C248.894 229.437 250.847 229.335 252.89 229.557C255.89 229.904 259.095 229.678 262.339 229.264C267.224 228.641 272.191 227.511 276.582 226.47C278.973 225.911 281.456 225.167 283.914 224.333C286.385 223.493 288.829 222.56 291.119 221.626C294.776 220.076 298.65 218.939 302.394 217.528C303.936 216.945 305.462 216.321 306.93 215.58C309.737 214.221 312.405 212.668 315.031 211.068C316.805 209.985 318.577 208.909 320.299 207.746C324.621 204.826 328.738 201.61 332.866 198.347C335.604 196.121 338.395 193.99 340.967 191.621C342.656 190.061 344.25 188.4 345.67 186.541C348.38 182.982 352.564 180.253 355.59 176.772C356.86 175.314 357.937 173.733 358.569 171.851C358.616 171.695 358.785 171.605 358.937 171.649C359.093 171.694 359.181 171.856 359.134 172.013C358.591 174.029 357.587 175.781 356.318 177.37C353.46 180.947 349.296 183.693 346.687 187.286C345.273 189.248 343.669 191.009 341.965 192.67C339.441 195.134 336.691 197.371 333.991 199.696C329.208 203.934 324.394 208.052 319.279 211.8C318.246 212.557 317.219 213.32 316.152 214.03C313.665 215.679 311.048 217.142 308.346 218.503C306.755 219.274 305.113 219.935 303.441 220.52C299.696 221.83 295.809 222.794 292.133 224.211C289.787 225.154 287.288 226.097 284.758 226.943C282.209 227.796 279.633 228.554 277.155 229.122C272.659 230.138 267.585 231.356 262.579 231.814C259.127 232.13 255.718 232.069 252.57 231.509C250.808 231.192 249.088 231.178 247.371 230.872C246.607 230.736 245.851 230.538 245.088 230.262C244.757 230.142 244.127 229.91 243.555 229.705C243.333 229.625 243.16 229.505 242.966 229.47C242.796 229.44 242.656 229.394 242.536 229.467Z" fill="#B5BDA6"/>
<path fill-rule="evenodd" clip-rule="evenodd" d="M324.796 621.654C324.815 621.793 324.716 621.918 324.577 621.939C324.438 621.956 324.314 621.86 324.296 621.721C324.122 620.789 323.919 619.873 323.736 618.946C323.011 615.237 322.195 611.575 321.141 607.978C319.186 601.282 316.579 594.788 313.188 588.539C307.886 578.76 300.786 569.547 291.888 560.933C285.796 554.932 279.446 548.731 273.208 542.546C269.011 538.382 264.869 534.221 260.876 530.156C245.227 514.255 229.323 496.929 216.027 478.062C207.102 465.396 199.348 452.037 193.662 437.934C187.097 421.483 183.821 406.443 182.459 391.12C181.104 375.872 181.642 360.34 182.951 342.823C183.555 334.721 183.911 326.763 184.691 318.798C185.211 313.482 185.921 308.159 187.018 302.794C192.615 275.262 203.825 248.729 218.1 223.527C220.206 219.81 222.375 216.12 224.626 212.476C245.258 179.076 270.826 148.339 294.05 120.47C294.128 120.37 294.275 120.354 294.372 120.432C294.473 120.512 294.486 120.656 294.403 120.755C271.848 149.045 247.34 180.431 227.159 213.984C224.967 217.628 222.804 221.283 220.704 224.968C206.503 249.884 195.081 276.012 189.337 303.231C188.228 308.516 187.502 313.753 186.965 318.987C186.15 326.93 185.765 334.872 185.128 342.952C183.761 360.339 183.078 375.773 184.444 390.911C185.81 406.032 189.222 420.848 195.81 437.043C201.422 450.991 209.068 464.214 217.9 476.731C231.132 495.491 247.01 512.676 262.602 528.46L293.64 559.164C302.549 568.088 309.641 577.582 314.854 587.639C318.181 594.06 320.797 600.695 322.548 607.575C323.484 611.252 324.22 614.992 324.607 618.803C324.703 619.753 324.746 620.7 324.796 621.654Z" fill="#B5BDA6"/>
<path fill-rule="evenodd" clip-rule="evenodd" d="M280.94 547.547C280.965 547.494 280.985 547.439 281.002 547.383C281.041 547.256 281.022 547.105 281.027 546.941C281.025 546.802 281.133 546.684 281.275 546.684C281.414 546.679 281.526 546.788 281.528 546.926C281.531 547.077 281.505 547.215 281.52 547.341C281.604 548.061 281.538 548.427 281.373 548.651C281.073 549.055 280.382 549.015 279.709 548.223C279.355 547.806 278.997 547.056 278.671 546.028C277.961 543.813 277.51 540.186 277.991 535.458C278.331 532.592 278.679 529.992 279.214 527.55C279.61 525.737 280.101 524.011 280.711 522.332C282.165 518.351 284.277 514.637 287.453 510.554C291.62 505.136 295.933 499.93 300.138 494.705C306.528 486.766 312.732 478.826 318.432 470.511C322.202 465.003 325.687 459.289 328.861 453.283C330.919 449.387 332.871 445.375 334.59 441.159C334.694 440.894 334.994 440.757 335.259 440.857C335.528 440.954 335.66 441.251 335.554 441.52C333.965 445.83 332.189 449.969 330.187 453.946C327.106 460.071 323.538 465.819 319.758 471.396C314.08 479.774 307.768 487.683 301.504 495.768C297.41 501.053 293.359 506.435 289.386 511.97C287.176 515.09 285.61 517.977 284.424 520.904C283.851 522.327 283.395 523.763 282.955 525.228C281.989 528.441 281.219 531.832 280.561 535.785C280.083 538.534 280.025 540.898 280.11 542.8C280.194 544.601 280.394 545.978 280.703 546.852C280.789 547.099 280.865 547.408 280.94 547.547ZM280.94 547.547C280.976 547.614 281.014 547.637 281.053 547.6C281.118 547.533 281.044 547.524 280.94 547.547ZM280.94 547.547C280.775 547.585 280.537 547.703 280.63 547.811C280.702 547.892 280.845 547.743 280.94 547.547Z" fill="#B5BDA6"/>
<path fill-rule="evenodd" clip-rule="evenodd" d="M291.298 505.931C291.315 505.968 291.328 506.008 291.323 506.051C291.32 506.099 290.874 506.36 290.801 505.987C290.783 505.913 290.797 505.799 290.737 505.677C290.632 505.453 290.378 505.372 290.217 505.034C289.599 503.732 289.471 501.291 289.434 500.374C289.381 498.857 289.511 497.376 289.768 495.903C290.138 493.791 290.753 491.72 291.088 489.59C291.887 484.839 293.445 480.314 295.429 475.955C298.376 469.488 302.274 463.386 306.157 457.518C319.568 436.76 339.234 422.645 351.439 402.667C354.011 398.461 356.221 393.984 358.02 389.144C359.685 384.665 361.009 379.871 361.808 374.639C361.87 374.211 362.268 373.908 362.691 373.964C363.119 374.018 363.417 374.407 363.356 374.835C362.637 380.203 361.422 385.154 359.746 389.751C357.936 394.722 355.593 399.277 352.936 403.565C340.58 423.496 320.763 437.478 307.176 458.166C303.42 464.025 299.611 470.1 296.83 476.555C294.995 480.81 293.617 485.233 292.965 489.847C292.575 492.346 291.889 494.781 291.456 497.26C291.278 498.274 291.122 499.294 291.092 500.338C291.063 501.208 291.646 503.427 291.505 504.796C291.471 505.162 291.258 505.332 291.24 505.578C291.229 505.708 291.278 505.812 291.293 505.881C291.296 505.898 291.299 505.915 291.298 505.931Z" fill="#B5BDA6"/>
<path fill-rule="evenodd" clip-rule="evenodd" d="M302.711 506.877C302.717 507.016 302.609 507.135 302.47 507.14C302.33 507.148 302.213 507.042 302.207 506.902C302.054 505.782 302.793 504.917 303.957 504.286C305.973 503.191 309.362 502.951 310.487 502.528C313.904 501.303 317.598 499.082 320.997 496.464C324.381 493.854 327.469 490.835 329.657 487.976C332.851 483.862 335.659 479.703 338.17 475.511C342.144 468.88 345.285 462.116 347.685 455.107C351.621 443.608 353.586 431.451 353.661 418.155C353.655 417.748 353.983 417.413 354.387 417.399C354.793 417.39 355.125 417.708 355.131 418.114C355.497 431.65 354.046 444.132 350.254 455.919C347.924 463.162 344.712 470.145 340.582 476.934C337.978 481.204 334.978 485.373 331.629 489.516C329.222 492.446 325.881 495.513 322.219 498.121C318.561 500.729 314.598 502.89 310.976 504.032C309.831 504.372 306.525 504.487 304.402 505.284C303.49 505.626 302.774 506.045 302.711 506.877Z" fill="#B5BDA6"/>
<path fill-rule="evenodd" clip-rule="evenodd" d="M305.255 575.785C305.041 575.679 304.717 575.534 304.406 575.429C303.933 575.269 303.37 575.181 302.755 575.001C301.57 574.658 300.225 574.192 298.9 573.821C296.268 573.084 293.831 572.504 293.563 572.443C289.724 571.507 285.852 570.889 281.988 570.196C279.388 569.727 276.8 569.205 274.206 568.702C271.404 568.155 268.612 567.571 265.82 566.938C248.54 562.925 238.321 559.588 229.144 553.946C220.303 548.514 212.431 540.938 200.108 528.494C199.864 528.259 199.862 527.865 200.103 527.618C200.347 527.373 200.741 527.364 200.985 527.6C213.585 539.426 221.602 546.627 230.512 551.686C239.654 556.872 249.728 559.767 266.706 563.123C272.277 564.288 277.897 565.067 283.427 566.289C287.162 567.115 290.826 568.191 294.486 569.4C294.891 569.541 300.356 571.27 303.676 573.066C304.932 573.745 305.841 574.451 306.246 574.939C306.559 575.32 306.681 575.638 306.609 575.889C306.525 576.164 306.276 576.559 305.532 576.617C305.29 576.669 305.054 576.513 305.009 576.277C304.966 576.071 305.075 575.871 305.255 575.785Z" fill="#B5BDA6"/>
<path fill-rule="evenodd" clip-rule="evenodd" d="M267.249 569.071C267.249 568.99 267.285 568.912 267.353 568.862C267.466 568.781 267.625 568.802 267.704 568.914C268.068 569.205 267.969 569.492 267.895 569.669C267.81 569.871 267.475 570.03 266.916 570.061C265.875 570.111 263.8 569.469 262.793 569.541C260.13 569.613 257.494 569.636 254.848 569.745C253.109 569.818 251.367 569.931 249.618 570.119C244.632 570.619 239.883 570.499 235.214 569.859C228.329 568.913 221.627 566.87 214.545 564.426C209.078 562.53 204.207 559.456 199.78 555.769C193.239 550.319 187.664 543.534 182.494 537.355C175.768 529.29 169.608 522.382 162.655 516.446C159.772 513.982 156.737 511.709 153.496 509.542C148.982 506.526 144.056 503.732 138.36 501.244C137.889 501.053 137.672 500.509 137.873 500.041C138.075 499.568 138.621 499.34 139.091 499.535C147.144 502.681 153.855 506.334 159.814 510.703C168.945 517.395 176.328 525.673 184.62 535.579C189.682 541.646 195.139 548.316 201.551 553.673C205.728 557.159 210.311 560.09 215.472 561.89C221.199 563.898 226.684 565.588 232.215 566.713C237.802 567.851 243.436 568.41 249.469 567.971C251.271 567.851 253.056 567.811 254.841 567.812C257.494 567.81 260.136 567.89 262.808 567.922C263.257 567.945 263.888 568.073 264.551 568.259C265.435 568.512 266.399 568.796 267.011 568.975C267.092 569.002 267.179 569.035 267.249 569.071Z" fill="#B5BDA6"/>
<path fill-rule="evenodd" clip-rule="evenodd" d="M238.778 506.394C238.809 506.399 238.834 506.41 238.861 506.426C238.981 506.497 239.015 506.652 238.943 506.769C239.023 507.064 238.751 506.844 238.594 506.921C238.505 506.964 238.514 506.893 238.242 506.646C238.121 506.538 238.012 506.325 237.906 505.995C237.593 505.043 237.541 503.324 237.472 502.859C237.237 500.97 236.842 499.1 236.578 497.203C236.393 495.895 236.28 494.576 236.252 493.256C236.192 489.458 236.427 485.676 237 481.934C237.856 476.353 239.401 470.873 241.082 465.477C242.437 461.14 244.56 457.016 247.051 453.009C252.623 444.05 260.056 435.693 264.449 426.761C267.824 419.906 272.231 414.508 276.217 409.248C278.053 406.831 279.812 404.452 281.291 401.932C282.528 399.825 283.582 397.625 284.36 395.249C284.425 395.033 284.653 394.908 284.868 394.969C285.084 395.031 285.205 395.256 285.14 395.472C284.103 399.183 282.424 402.524 280.384 405.749C276.081 412.561 270.227 418.881 266.173 427.562C261.919 436.622 254.611 445.165 249.169 454.27C246.866 458.121 244.908 462.074 243.69 466.223C242.384 470.638 241.27 475.124 240.389 479.641C239.518 484.124 238.87 488.646 238.787 493.221C238.761 494.144 238.797 495.065 238.844 495.99C238.96 498.229 239.191 500.465 239.263 502.691C239.262 503.161 239.355 504.851 239.232 505.844C239.196 506.133 238.94 506.392 239.068 506.437C239.155 506.47 238.928 506.498 238.936 506.46C238.962 506.321 238.871 506.368 238.778 506.394ZM238.676 506.397C238.67 506.392 238.662 506.39 238.656 506.384C238.629 506.368 238.623 506.386 238.614 506.416C238.633 506.406 238.655 506.4 238.676 506.397Z" fill="#B5BDA6"/>
<path fill-rule="evenodd" clip-rule="evenodd" d="M245.443 456.301C245.552 456.381 245.572 456.54 245.491 456.651C245.408 456.764 245.247 456.787 245.138 456.708C244.421 456.304 243.957 455.329 243.736 454.088C243.34 451.85 243.797 448.811 243.919 447.542C244.142 445.145 244.315 442.814 244.64 440.519C244.978 438.15 245.446 435.823 246.05 433.523C246.852 430.493 247.949 427.516 249.391 424.504C253.666 415.442 259.043 406.565 265.166 398.225C271.279 389.907 278.14 382.118 285.601 375.372C287.388 373.754 289.251 372.231 291.159 370.761C296.45 366.697 302.067 363.025 307.444 359.075C309.74 357.392 312.004 355.68 314.152 353.817C314.418 353.578 314.824 353.597 315.056 353.857C315.292 354.119 315.267 354.521 315 354.76C313.245 356.408 311.425 357.975 309.532 359.462C302.052 365.324 293.757 370.197 286.721 376.607C279.377 383.298 272.564 390.971 266.627 399.267C260.699 407.565 255.654 416.476 251.63 425.497C250.352 428.406 249.474 431.288 248.724 434.174C248.144 436.409 247.677 438.652 247.202 440.924C246.734 443.174 246.225 445.437 245.752 447.783C245.514 448.97 244.943 451.798 244.936 453.966C244.936 454.978 244.969 455.841 245.443 456.301Z" fill="#B5BDA6"/>
<path fill-rule="evenodd" clip-rule="evenodd" d="M245.704 464.176C245.63 464.288 245.478 464.322 245.367 464.25C245.253 464.173 245.226 464.023 245.3 463.911C245.591 463.298 245.985 462.771 246.511 462.314C246.989 461.896 247.58 461.588 248.193 461.282C249.941 460.405 252.037 459.795 253.855 459.06C254.609 458.758 255.31 458.444 255.881 458.025C257.959 456.498 259.871 454.709 261.711 452.823C264.514 449.958 267.122 446.846 269.652 443.895C270.976 442.367 272.226 440.762 273.436 439.116C276.296 435.223 278.933 431.108 281.698 427.211C283.726 424.427 285.701 421.629 287.66 418.83C290.611 414.614 293.492 410.386 296.135 405.998C299.048 401.16 301.706 396.164 303.98 390.889C306.122 385.891 307.69 381.186 308.994 376.5C310.992 369.311 312.384 362.176 314.397 354.167C314.443 353.961 314.647 353.834 314.848 353.879C315.053 353.921 315.178 354.123 315.128 354.327C313.334 362.4 312.105 369.569 310.328 376.829C309.154 381.618 307.748 386.441 305.756 391.583C303.132 398.414 299.904 404.837 296.254 411.039C292.619 417.221 288.562 423.168 284.402 429.122C281.993 432.445 279.69 435.939 277.236 439.301C275.565 441.591 273.82 443.816 271.943 445.902C269.284 448.825 266.566 451.942 263.595 454.735C261.571 456.641 259.429 458.392 257.152 459.878C256.402 460.368 255.506 460.767 254.518 461.055C252.66 461.6 250.5 461.824 248.676 462.46C248.111 462.659 247.595 462.908 247.11 463.178C246.586 463.465 246.101 463.747 245.704 464.176Z" fill="#B5BDA6"/>
<path fill-rule="evenodd" clip-rule="evenodd" d="M211.801 468.291C211.937 468.281 212.058 468.389 212.066 468.524C212.072 468.664 211.967 468.784 211.827 468.792C210.664 469.071 209.266 468.861 207.794 468.254C204.923 467.068 202.035 464.444 200.361 463.24C198.083 461.496 195.49 459.993 192.804 458.568C188.739 456.418 184.447 454.501 180.502 452.668C173.432 449.135 165.957 446.628 158.753 443.47C155.616 442.094 152.531 440.6 149.55 438.853C142.354 434.664 135.557 429.016 129.551 422.601C123.588 416.236 118.399 409.116 114.515 401.804C113.642 400.173 112.924 398.43 112.287 396.632C110.842 392.555 109.825 388.2 108.366 384.281C108.268 384.014 108.402 383.717 108.668 383.615C108.933 383.512 109.229 383.642 109.329 383.905C110.826 387.815 111.884 392.161 113.369 396.229C114.004 397.962 114.718 399.647 115.581 401.218C119.524 408.361 124.703 415.345 130.726 421.48C136.742 427.61 143.594 432.89 150.752 436.768C153.708 438.363 156.759 439.701 159.854 440.927C167.23 443.847 174.852 446.113 182.106 449.415C186.067 451.358 190.417 453.335 194.449 455.675C197.232 457.285 199.855 459.076 202.16 461.051C203.434 462.217 205.531 464.384 207.693 466.018C208.36 466.521 209.033 466.952 209.669 467.333C210.433 467.794 211.086 468.2 211.801 468.291Z" fill="#B5BDA6"/>
<path fill-rule="evenodd" clip-rule="evenodd" d="M177.246 452.676C175.762 452.186 173.239 451.497 172.829 451.452C171.488 451.226 170.129 451.109 168.761 451.045C165.504 450.89 162.2 451.058 158.976 450.957C156.338 450.862 153.705 450.813 151.084 450.699C144.865 450.425 138.707 449.958 132.647 448.949C126.878 447.987 121.202 446.492 115.649 444.073C103.222 438.716 95.2744 428.609 90.0894 416.556C86.4087 408.002 84.0778 398.478 82.599 388.987C81.0518 379.056 80.4233 369.178 79.8713 360.559C79.8469 360.228 80.0979 359.936 80.4313 359.906C80.7648 359.876 81.0552 360.121 81.0796 360.452C81.7724 369.017 82.6307 378.824 84.2651 388.695C85.8125 398.027 88.042 407.429 91.7046 415.84C96.7521 427.433 104.449 437.157 116.459 442.249C121.884 444.529 127.422 445.891 133.037 446.765C139.025 447.702 145.107 448.025 151.238 448.351C153.858 448.489 156.483 448.657 159.118 448.82C162.341 449.034 165.653 448.986 168.908 449.253C170.34 449.372 171.76 449.547 173.157 449.834C173.679 449.971 177.438 451.536 178.445 452.233C179.155 452.724 179.257 453.542 177.43 453.024C177.294 453.001 177.203 452.87 177.228 452.735C177.232 452.712 177.238 452.694 177.246 452.676Z" fill="#B5BDA6"/>
<path fill-rule="evenodd" clip-rule="evenodd" d="M164.614 444.608C164.633 444.614 164.652 444.619 164.671 444.628C164.707 444.651 164.738 444.676 164.759 444.71C164.725 444.688 164.67 444.665 164.62 444.642C164.646 444.747 164.688 444.799 164.757 444.779C164.771 444.775 164.781 444.769 164.787 444.763C164.81 444.83 164.807 444.902 164.771 444.969C164.82 445.242 164.668 445.279 164.605 445.358C164.433 445.577 164.143 445.461 163.942 445.088C163.755 444.739 163.846 443 163.572 442.359L160.253 435.252C158.539 431.689 156.697 428.256 154.743 424.888C152.79 421.515 150.724 418.212 148.534 414.93C144.684 409.015 140.182 403.642 135.543 398.384C128.512 390.418 121.12 382.753 114.632 374.392C111.919 370.891 109.368 367.267 107.093 363.426C106.967 363.224 107.035 362.952 107.243 362.825C107.451 362.695 107.721 362.76 107.846 362.965C110.184 366.719 112.786 370.253 115.555 373.656C122.223 381.846 129.895 389.215 137.01 397.076C141.779 402.347 146.278 407.852 150.184 413.844C152.324 417.204 154.346 420.58 156.236 424.031C158.126 427.483 159.884 431.005 161.52 434.647C162.269 436.315 163.07 437.997 163.763 439.714C164.064 440.455 164.336 441.205 164.592 441.959C164.775 442.505 164.518 444.079 164.614 444.608ZM164.759 444.71C164.789 444.731 164.804 444.748 164.787 444.763C164.78 444.745 164.771 444.726 164.759 444.71ZM164.532 444.601C164.521 444.598 164.514 444.592 164.508 444.59C164.415 444.523 164.207 444.71 164.207 444.71C164.207 444.71 164.261 444.766 164.328 444.737C164.371 444.656 164.448 444.609 164.532 444.601Z" fill="#B5BDA6"/>
<path fill-rule="evenodd" clip-rule="evenodd" d="M187.292 412.872C187.225 412.99 187.071 413.036 186.949 412.972C186.828 412.905 186.785 412.751 186.854 412.629C186.947 412.312 186.972 411.999 187.035 411.657C187.165 410.95 187.25 410.201 187.3 409.397C187.465 406.692 187.259 403.593 187.732 401.312C188.909 396.564 190.562 392.054 192.694 387.762C194.817 383.487 197.409 379.44 200.286 375.499C204.36 369.917 208.692 364.336 213.198 358.893C217.702 353.45 222.379 348.149 227.198 343.177C236.988 333.053 247.045 323.459 255.973 312.878C261.871 305.879 267.294 298.452 271.767 290.106C271.864 289.919 272.093 289.843 272.278 289.94C272.463 290.034 272.536 290.261 272.439 290.448C268.062 298.927 262.746 306.51 256.884 313.629C248.063 324.338 238.024 333.993 228.292 344.219C223.551 349.21 218.94 354.509 214.54 359.973C210.136 365.445 205.947 371.083 201.993 376.704C199.261 380.59 196.868 384.609 194.812 388.777C192.762 392.93 191.043 397.24 189.848 401.816C189.089 404.307 189.406 407.988 188.485 410.732C188.204 411.57 187.79 412.266 187.292 412.872Z" fill="#B5BDA6"/>
<path fill-rule="evenodd" clip-rule="evenodd" d="M207.112 368.207C207.017 368.37 206.809 368.428 206.649 368.333C206.487 368.242 206.434 368.037 206.529 367.874C206.863 367.269 207.817 366.757 209.018 366.36C211.197 365.635 214.203 365.236 215.213 365.04C220.442 364.123 225.625 363.388 230.63 361.97C233.898 361.048 237.087 359.827 240.16 358.071C245.375 355.11 250.864 351.285 256.134 346.96C259.457 344.231 262.695 341.304 265.674 338.205C270.857 332.819 275.29 326.951 278.073 320.837C279.982 316.74 281.351 312.424 282.427 308.012C284.057 301.33 285.028 294.451 286.205 287.813C286.249 287.534 286.515 287.339 286.793 287.378C287.072 287.418 287.265 287.675 287.22 287.958C286.273 294.661 285.525 301.604 284.125 308.364C283.178 312.939 281.929 317.431 280.117 321.714C276.682 329.632 270.727 337.324 263.655 343.93C256.645 350.482 248.557 355.952 241.156 359.914C237.878 361.64 234.504 362.808 231.054 363.662C225.953 364.927 220.699 365.513 215.39 366.268C214.513 366.378 212.134 366.523 210.093 366.943C208.722 367.226 207.496 367.592 207.112 368.207Z" fill="#B5BDA6"/>
<path fill-rule="evenodd" clip-rule="evenodd" d="M208.731 366.577C208.699 366.71 208.562 366.796 208.427 366.765C208.292 366.735 208.208 366.602 208.242 366.465C208.244 366.183 208.159 365.908 208.127 365.575C208.02 364.483 207.861 363.138 207.75 361.876C207.681 361.107 207.677 360.365 207.777 359.718C208.287 356.431 209.048 352.921 210.02 349.467C210.995 346.001 212.183 342.597 213.502 339.521C217.548 330.397 224.476 321.689 232.662 313.798C244.673 302.225 259.378 292.406 271.486 285.544C271.691 285.429 271.945 285.497 272.058 285.696C272.172 285.894 272.097 286.152 271.897 286.269C259.932 293.216 245.425 303.14 233.602 314.759C225.644 322.582 218.9 331.169 215.013 340.156C213.672 343.156 212.47 346.48 211.449 349.86C210.429 353.239 209.587 356.678 209.011 359.905C208.721 361.405 209.238 363.516 209.094 365.167C209.048 365.704 208.909 366.17 208.731 366.577Z" fill="#B5BDA6"/>
<path fill-rule="evenodd" clip-rule="evenodd" d="M182.157 362.39C182.226 362.373 182.212 362.377 182.157 362.39ZM182.157 362.39C182.132 362.395 182.099 362.402 182.06 362.411C182.112 362.462 182.143 362.532 182.136 362.611C182.195 362.773 182.015 362.786 181.948 362.844C181.919 362.868 181.824 362.845 181.62 362.722C181.534 362.673 181.37 362.602 181.17 362.379C180.36 361.475 179.096 358.802 178.67 358.211C177.804 356.922 176.881 355.67 175.909 354.457C174.937 353.244 173.918 352.07 172.868 350.923L154.137 330.23C141.916 316.796 128.797 302.4 121.079 285.954C115.883 274.882 113.135 262.891 114.678 249.686C114.709 249.404 114.961 249.197 115.24 249.224C115.521 249.248 115.724 249.496 115.693 249.779C114.425 262.742 117.371 274.425 122.635 285.193C130.532 301.345 143.663 315.441 155.927 328.585C158.449 331.334 160.957 334.1 163.406 336.918C167.071 341.14 170.632 345.451 174.25 349.708C175.277 350.925 176.27 352.168 177.215 353.451C178.164 354.734 179.067 356.049 179.907 357.402C180.118 357.746 180.622 358.66 181.074 359.639C181.464 360.483 181.896 361.34 182.039 361.899C182.106 362.157 181.992 362.419 182.079 362.404C182.113 362.397 182.138 362.393 182.157 362.39Z" fill="#B5BDA6"/>
</g>
<path fill-rule="evenodd" clip-rule="evenodd" d="M226.777 564.404C226.909 564.357 227.052 564.427 227.099 564.559C227.141 564.691 227.072 564.834 226.944 564.877C226.808 564.939 225.642 564.834 223.794 564.438C222.589 564.179 221.094 563.783 219.397 563.325C209.406 560.633 192.601 555.512 190.416 554.763C180.565 551.268 170.64 550.344 160.959 550.453C144.674 550.635 129.048 553.851 115.665 554.115C115.265 554.127 114.931 553.813 114.92 553.413C114.908 553.014 115.222 552.68 115.622 552.668C129.023 552.141 144.61 548.416 160.924 548.118C170.864 547.935 181.053 549.068 191.152 552.711L226.777 564.404Z" fill="#4B5C49"/>
<path fill-rule="evenodd" clip-rule="evenodd" d="M127.985 252.913C128.053 252.888 128.129 252.923 128.154 252.991C128.179 253.06 128.144 253.135 128.076 253.161C127.579 253.343 127.287 253.308 127.117 253.209C126.923 253.095 126.824 252.867 126.85 252.514C126.916 251.652 127.874 250.109 128.132 249.358C128.683 247.761 129.393 246.289 130.191 244.864C130.432 244.433 130.674 244.005 130.937 243.587C131.963 241.958 133.137 240.416 134.258 238.786C137.353 234.327 140.816 230.003 144.549 225.918C148.275 221.84 152.269 218.004 156.325 214.418C171.26 201.292 183.772 190.619 198.691 184.049C208.504 179.729 219.351 177.176 232.623 176.884C232.77 176.88 232.898 176.998 232.902 177.148C232.906 177.298 232.786 177.423 232.638 177.427C219.482 177.869 208.752 180.51 199.074 184.911C184.338 191.615 172.054 202.392 157.387 215.616C153.397 219.192 149.503 223.046 145.809 227.075C142.117 231.1 138.618 235.302 135.517 239.672C134.371 241.272 133.231 242.821 132.123 244.383C131.846 244.773 131.56 245.156 131.289 245.55C130.396 246.844 129.579 248.188 128.904 249.668C128.612 250.307 127.748 251.525 127.42 252.368C127.374 252.486 127.349 252.597 127.319 252.691C127.283 252.808 127.203 252.885 127.238 252.96C127.31 253.11 127.557 253.071 127.985 252.913Z" fill="#4B5C49"/>
<path fill-rule="evenodd" clip-rule="evenodd" d="M88.7347 392.393C88.9912 392.408 89.186 392.629 89.1702 392.889C89.1543 393.145 88.9335 393.339 88.6774 393.324C87.459 393.293 86.2585 393.134 85.0611 392.912C82.3803 392.42 79.7332 391.617 76.9816 391.372C70.0197 390.608 63.2709 390.1 56.5651 389.002C52.0794 388.269 47.6162 387.264 43.1194 385.79C35.2436 383.132 26.2901 376.413 18.8169 368.282C11.4033 360.213 5.4506 350.778 3.29358 342.755C1.71844 336.812 0.600808 329.15 0.182034 321.565C-0.251849 313.706 0.0627187 305.931 1.41976 300.24C1.46199 300.054 1.64716 299.938 1.83272 299.98C2.01828 300.023 2.13452 300.209 2.09229 300.391C0.865023 306.044 0.703849 313.737 1.30005 321.492C1.87456 328.964 3.15568 336.494 4.84394 342.321C7.06372 350.083 13.0529 359.103 20.3425 366.858C27.6329 374.613 36.2346 381.111 43.8411 383.621C48.2132 385.107 52.561 386.112 56.9257 386.895C63.5796 388.094 70.2765 388.765 77.1857 389.669C80.362 390.154 83.3569 391.357 86.4487 392.024C87.2041 392.183 87.9634 392.319 88.7347 392.393Z" fill="#4B5C49"/>
<path fill-rule="evenodd" clip-rule="evenodd" d="M83.522 383.09C83.649 383.086 83.761 383.179 83.778 383.307C83.8284 383.435 83.7517 383.598 83.4224 383.617C83.3097 383.621 83.0764 383.579 82.7487 383.52C82.5012 383.474 82.2269 383.443 81.9329 383.354C81.0918 383.094 80.2434 382.636 80.1939 382.613C79.1599 382.135 78.1616 381.616 77.2032 381.022C75.7965 380.145 74.4825 379.133 73.1189 378.174C70.2579 376.153 67.8158 373.829 65.5929 371.323C62.2993 367.611 59.4953 363.491 56.4713 359.382C54.1601 356.193 51.9361 352.838 49.8887 349.381C47.8429 345.921 45.9741 342.359 44.2839 338.798C43.2193 336.54 42.1424 334.251 40.991 332.013C40.2325 330.535 39.4484 329.076 38.5849 327.672C36.4775 324.235 34.1732 320.821 31.7145 317.523C29.2537 314.226 26.6442 311.044 23.8635 308.115C22.9733 307.18 21.9614 306.374 20.8891 305.633C18.33 303.86 15.4334 302.467 12.9215 300.783C12.8007 300.71 12.7639 300.547 12.8394 300.426C12.915 300.306 13.0742 300.271 13.195 300.345C15.8193 301.877 18.8219 303.076 21.4888 304.709C22.6723 305.435 23.7833 306.253 24.7785 307.2C27.7468 310.028 30.574 313.112 33.216 316.351C35.8573 319.591 38.3056 322.985 40.575 326.395C41.5245 327.823 42.4085 329.305 43.2364 330.818C44.4617 333.056 45.5685 335.369 46.6834 337.642C48.3744 341.114 50.2691 344.571 52.2789 347.957C54.2891 351.348 56.4144 354.665 58.6559 357.807C61.545 361.92 64.2231 366.036 67.3761 369.775C69.4285 372.212 71.6781 374.489 74.343 376.491L80.8923 381.328C80.9357 381.356 81.7256 381.744 82.4097 382.213C82.8022 382.485 83.1059 382.787 83.3457 382.958C83.4251 383.016 83.5134 383.082 83.522 383.09Z" fill="#4B5C49"/>
<path fill-rule="evenodd" clip-rule="evenodd" d="M102.048 333.095C102.079 333.227 101.995 333.363 101.86 333.394C101.724 333.429 101.589 333.343 101.558 333.208C101.325 332.824 100.97 332.564 100.626 332.121C100.449 331.896 100.31 331.625 100.123 331.365C99.4845 330.484 98.6036 329.573 97.6115 328.579C96.371 327.334 94.9396 326.004 93.3955 324.673C88.1451 320.161 81.779 315.607 79.0471 313.364C74.9531 309.803 71.3298 306.703 68.1385 303.697C64.2908 300.069 61.0325 296.605 58.1836 292.807C53.0893 286.013 49.3215 278.148 45.9144 266.201C45.8063 265.857 45.9973 265.49 46.3401 265.382C46.6834 265.274 47.0498 265.465 47.1575 265.809C51.088 277.241 55.1902 284.651 60.4281 291.042C63.339 294.592 66.6125 297.808 70.4001 301.241C73.6247 304.166 77.1985 307.262 81.282 310.773C84.2998 313.527 92.0771 319.505 97.2516 325.03C99.2873 327.206 100.902 329.32 101.768 331.093C101.827 331.214 101.903 331.326 101.935 331.45C102.066 331.955 101.953 332.35 101.986 332.789C101.993 332.897 102.032 332.994 102.048 333.095Z" fill="#4B5C49"/>
<path fill-rule="evenodd" clip-rule="evenodd" d="M81.7264 324.421C81.7573 324.39 81.7992 324.366 81.8472 324.359C81.9588 324.343 82.0614 324.425 82.0766 324.537C82.0998 324.653 81.908 324.875 81.4242 324.902C80.6626 324.941 79.003 324.851 76.9819 324.444C74.8067 324.009 72.2429 323.187 69.9209 322.151C64.8235 319.843 60.1012 317.046 55.6372 313.865C51.1826 310.691 46.9933 307.134 42.9063 303.367C36.3206 297.105 30.2419 289.823 25.5382 281.76C20.8395 273.705 17.5145 264.888 16.2326 255.664C15.6061 251.139 15.3377 246.565 15.2819 241.975C15.1986 235.145 15.5631 228.287 15.679 221.51C15.679 221.308 15.8425 221.145 16.0435 221.145C16.245 221.145 16.4081 221.308 16.4081 221.51C16.5239 228.274 16.4348 235.126 16.7102 241.937C16.8935 246.458 17.2293 250.961 17.9456 255.406C19.3817 264.345 22.8597 272.808 27.5298 280.577C32.2235 288.386 38.1309 295.503 44.5899 301.578C48.5138 305.388 52.5602 308.965 56.844 312.22C61.122 315.467 65.6324 318.396 70.5446 320.832C71.9679 321.542 73.4989 322.147 74.9632 322.636C75.6005 322.85 76.2292 323.024 76.8215 323.21C78.7341 323.812 80.3267 324.285 81.201 324.405C81.4579 324.44 81.6686 324.374 81.7264 324.421Z" fill="#4B5C49"/>
<path fill-rule="evenodd" clip-rule="evenodd" d="M86.1098 307.468C86.116 307.464 86.1221 307.464 86.1283 307.46C86.238 307.436 86.348 307.502 86.3743 307.611C86.5886 308.337 86.6715 308.787 86.716 309.008C86.785 309.345 86.5708 309.45 86.4952 309.496C86.4115 309.543 86.2771 309.516 86.0946 309.38C85.9672 309.283 85.7344 308.961 85.4504 308.461C85.1602 307.949 84.8259 307.231 84.4656 306.412C83.0087 303.091 81.1813 298.087 81.1708 298.064C79.0208 292.993 77.0931 288.113 74.7444 283.372C73.2141 280.283 71.515 277.247 69.3913 274.284C66.0249 269.557 62.2695 264.889 58.2878 260.427C54.3035 255.962 50.0917 251.704 45.7505 247.859C39.9346 242.655 33.6146 237.912 27.7622 232.708C23.8217 229.204 20.0934 225.493 16.864 221.302C16.6897 221.081 16.7277 220.761 16.9481 220.586C17.1685 220.412 17.4889 220.45 17.6629 220.671C20.1174 223.716 22.8439 226.489 25.7234 229.106C32.4737 235.244 40.0589 240.531 46.9728 246.46C51.4119 250.309 55.7457 254.558 59.8091 259.057C63.869 263.553 67.6577 268.297 71.0742 273.08C73.2529 276.149 75.0299 279.275 76.5597 282.488C78.8519 287.302 80.613 292.295 82.6433 297.459C82.6526 297.486 84.3952 302.533 85.5899 305.966C85.7816 306.521 85.9587 307.025 86.1098 307.468ZM86.5231 308.868C86.5444 308.915 86.5677 308.938 86.5963 308.918C86.6637 308.876 86.6049 308.868 86.5231 308.868Z" fill="#4B5C49"/>
<path fill-rule="evenodd" clip-rule="evenodd" d="M106.067 287.481C106.076 287.58 106.012 287.673 105.913 287.698C105.805 287.725 105.701 287.702 105.664 287.545C105.661 287.531 105.677 287.495 105.666 287.438C105.655 287.381 105.579 287.397 105.559 287.218C105.548 287.119 105.626 286.991 105.675 286.83C106.065 285.537 107.064 282.382 107.215 281.932C107.623 280.752 108.13 279.6 108.723 278.482C109.599 276.829 110.655 275.264 111.722 273.764C114.09 270.562 116.759 267.593 119.598 264.778C123.807 260.603 128.38 256.76 132.78 252.881C139.198 247.349 145.386 241.599 151.808 236.104C154.571 233.741 157.379 231.426 160.261 229.192C166.165 224.63 171.283 221.546 176.195 217.727C179.348 215.274 182.417 212.516 185.558 208.851C188.173 205.856 191.137 203.147 193.802 200.206C194.937 198.956 196.014 197.667 196.983 196.29C197.134 196.067 197.44 196.009 197.661 196.16C197.881 196.312 197.943 196.615 197.788 196.838C196.847 198.285 195.789 199.648 194.674 200.969C192.113 203.989 189.239 206.777 186.728 209.843C183.563 213.646 180.456 216.517 177.26 219.079C172.406 222.968 167.339 226.132 161.509 230.782C158.677 233.032 155.93 235.366 153.222 237.741C146.869 243.315 140.746 249.131 134.395 254.737C129.986 258.541 125.425 262.327 121.182 266.405C118.377 269.101 115.706 271.92 113.337 274.988C112.415 276.138 111.514 277.343 110.68 278.591C109.853 279.83 109.088 281.102 108.485 282.441C108.285 282.868 106.951 285.869 106.411 287.097C106.343 287.251 106.319 287.399 106.248 287.464C106.164 287.541 106.131 287.566 106.09 287.51C106.082 287.5 106.074 287.49 106.067 287.481Z" fill="#4B5C49"/>
<path fill-rule="evenodd" clip-rule="evenodd" d="M119.6 210.868C119.713 210.868 119.804 210.959 119.804 211.072C119.804 211.185 119.713 211.276 119.6 211.276C119.364 211.326 119.106 211.061 118.933 210.612C118.719 210.058 118.674 209.199 118.639 209.072C118.34 207.835 118.07 206.605 117.876 205.357C117.68 204.1 117.567 202.832 117.521 201.546C117.41 198.808 117.336 196.107 117.421 193.422C117.508 190.694 117.733 187.991 118.073 185.304C118.749 179.964 119.928 174.694 121.562 169.386C123.916 161.805 127.317 154.733 131.323 148.005C137.302 137.962 144.668 128.697 152.266 119.871C158.456 112.605 165.398 105.924 171.783 98.7844C174.498 95.7441 177.117 92.6207 179.523 89.3298C181.661 86.428 183.362 83.3423 184.904 80.1813C187.247 75.3735 189.184 70.369 191.288 65.3602C191.404 65.0666 191.737 64.9238 192.032 65.041C192.326 65.1585 192.466 65.4925 192.349 65.7862C190.412 70.897 188.708 76.033 186.442 80.9153C184.911 84.2023 183.114 87.3618 180.921 90.3594C178.469 93.6872 175.808 96.8462 173.042 99.9176C166.638 107.022 159.665 113.659 153.451 120.888C145.966 129.68 138.635 138.861 132.834 148.894C128.994 155.535 125.847 162.554 123.69 170.026C122.173 175.233 121.203 180.409 120.517 185.621C120.171 188.251 119.907 190.891 119.681 193.554C119.458 196.193 119.241 198.846 119.131 201.546C119.096 202.529 119.115 203.502 119.163 204.473C119.236 205.952 119.375 207.419 119.576 208.896L119.6 210.868Z" fill="#4B5C49"/>
<path fill-rule="evenodd" clip-rule="evenodd" d="M140.602 201.795C140.484 201.818 140.37 201.742 140.347 201.624C140.323 201.506 140.4 201.392 140.517 201.368C141.158 201.198 141.737 200.594 142.307 199.841C143.551 198.198 144.64 195.791 145.33 194.688C147.082 191.997 148.713 189.218 150.29 186.4C152.657 182.165 154.88 177.842 157.092 173.559C159.091 169.731 160.978 165.856 162.834 161.969C167.176 152.871 171.275 143.668 175.56 134.517C180.108 125.096 184.288 115.294 187.646 105.234C191.009 95.1738 193.55 84.8591 194.786 74.4017C194.813 74.1697 195.018 74.0009 195.251 74.0257C195.483 74.0506 195.65 74.2593 195.627 74.4917C194.623 85.0554 192.314 95.5098 189.149 105.72C185.988 115.928 181.971 125.887 177.586 135.473C173.894 143.312 170.396 151.215 166.661 159.011C164.166 164.222 161.555 169.377 158.785 174.465C156.446 178.703 154.113 182.989 151.607 187.165C149.93 189.959 148.175 192.7 146.312 195.354C145.536 196.416 144.299 198.797 142.886 200.326C142.146 201.127 141.36 201.692 140.602 201.795Z" fill="#4B5C49"/>
<path fill-rule="evenodd" clip-rule="evenodd" d="M132.988 265.345C132.935 265.445 132.812 265.483 132.712 265.43C132.613 265.377 132.575 265.254 132.627 265.154C132.729 264.729 133.188 264.432 133.8 264.25C134.456 264.055 135.266 264.112 135.667 264.079C136.153 264.046 136.62 263.973 137.083 263.898C139.078 263.573 140.922 262.94 142.946 262.592C145.924 262.102 148.934 261.007 151.925 259.72C156.43 257.784 160.866 255.339 164.775 253.137C166.905 251.945 169.071 250.551 171.186 249.078C173.313 247.596 175.385 246.031 177.311 244.508C180.367 242.02 183.753 239.868 186.934 237.488C188.243 236.507 189.525 235.491 190.718 234.378C193.016 232.306 195.123 230.086 197.176 227.832C198.563 226.308 199.95 224.791 201.263 223.204C204.56 219.22 207.574 215.009 210.584 210.75C212.564 207.866 214.621 205.059 216.399 202.083C217.565 200.125 218.611 198.095 219.432 195.925C220.997 191.771 224.217 188.008 226.107 183.842C226.901 182.097 227.475 180.286 227.533 178.309C227.533 178.146 227.668 178.014 227.827 178.014C227.99 178.014 228.121 178.146 228.121 178.309C228.187 180.391 227.734 182.345 226.979 184.216C225.278 188.427 222.082 192.2 220.625 196.36C219.839 198.628 218.812 200.755 217.662 202.815C215.957 205.868 213.97 208.766 212.056 211.735C208.701 217.108 205.281 222.375 201.465 227.368C200.694 228.378 199.931 229.39 199.113 230.364C197.207 232.626 195.123 234.746 192.927 236.791C191.625 237.967 190.242 239.05 188.809 240.069C185.597 242.351 182.149 244.341 179.035 246.707C177.059 248.255 174.936 249.843 172.755 251.349C170.558 252.865 168.308 254.297 166.096 255.522C162.078 257.728 157.565 260.287 152.897 262.098C149.678 263.348 146.39 264.224 143.207 264.551C141.425 264.73 139.771 265.188 138.035 265.366C137.262 265.445 136.48 265.463 135.667 265.408C135.314 265.383 134.643 265.334 134.034 265.294C133.798 265.278 133.597 265.21 133.401 265.23C133.23 265.248 133.081 265.242 132.988 265.345Z" fill="#4B5C49"/>
<path fill-rule="evenodd" clip-rule="evenodd" d="M325.977 618.646C326.036 618.774 325.977 618.921 325.85 618.98C325.722 619.034 325.575 618.976 325.516 618.848C325.079 618.002 324.618 617.18 324.172 616.342C322.398 612.986 320.55 609.7 318.493 606.542C314.669 600.661 310.28 595.152 305.209 590.093C297.279 582.175 287.788 575.293 276.747 569.478C269.158 565.397 261.263 561.195 253.48 556.978C248.243 554.138 243.059 551.287 238.047 548.486C218.409 537.538 198.114 525.295 179.871 510.859C167.626 501.168 156.302 490.492 146.745 478.536C135.663 464.57 128.145 451.054 122.382 436.742C116.646 422.501 112.644 407.468 108.805 390.321C107.027 382.391 105.054 374.667 103.485 366.819C102.438 361.582 101.57 356.286 101.062 350.844C98.4227 322.923 101.457 294.421 107.82 266.353C108.758 262.214 109.766 258.083 110.865 253.973C120.941 216.306 136.526 179.837 150.697 146.76C150.743 146.642 150.879 146.587 150.995 146.636C151.115 146.684 151.169 146.819 151.119 146.936C137.712 180.233 123.332 217.033 113.734 254.724C112.691 258.817 111.679 262.914 110.737 267.02C104.362 294.793 101.006 322.966 103.414 350.626C103.887 355.996 104.714 361.213 105.722 366.377C107.25 374.213 109.191 381.93 110.931 389.848C114.677 406.886 118.511 421.865 124.225 435.998C129.934 450.115 137.516 463.379 148.547 477.093C157.987 488.921 169.168 499.496 181.282 509.071C199.431 523.421 219.661 535.537 239.209 546.387L277.913 567.301C289.055 573.412 298.62 580.565 306.546 588.774C311.605 594.015 316.045 599.656 319.725 605.77C321.693 609.037 323.486 612.419 324.966 615.965C325.334 616.85 325.652 617.746 325.977 618.646Z" fill="#4B5C49"/>
<path fill-rule="evenodd" clip-rule="evenodd" d="M262.352 559.651C262.359 559.593 262.363 559.535 262.363 559.477C262.363 559.345 262.301 559.205 262.259 559.046C262.216 558.914 262.286 558.771 262.421 558.732C262.553 558.689 262.693 558.763 262.735 558.895C262.782 559.038 262.797 559.178 262.848 559.294C263.138 559.962 263.181 560.33 263.088 560.59C262.917 561.06 262.243 561.211 261.368 560.637C260.907 560.334 260.345 559.713 259.733 558.817C258.408 556.889 256.92 553.537 256.006 548.874C255.499 546.034 255.076 543.447 254.879 540.96C254.732 539.113 254.701 537.325 254.798 535.548C255.034 531.335 255.979 527.196 257.839 522.412C260.26 516.077 262.882 509.905 265.397 503.744C269.216 494.383 272.858 485.073 275.907 475.541C277.921 469.229 279.602 462.797 280.9 456.171C281.741 451.872 282.446 447.492 282.868 442.981C282.891 442.697 283.139 442.484 283.422 442.507C283.709 442.527 283.922 442.775 283.899 443.062C283.627 447.628 283.128 452.082 282.365 456.442C281.191 463.158 279.44 469.644 277.437 476.026C274.427 485.612 270.673 494.923 267.016 504.388C264.626 510.576 262.305 516.845 260.105 523.239C258.892 526.835 258.23 530.032 257.943 533.162C257.808 534.683 257.788 536.184 257.792 537.709C257.8 541.053 258.048 544.514 258.567 548.482C258.908 551.248 259.539 553.529 260.175 555.33C260.779 557.033 261.372 558.297 261.922 559.05C262.077 559.263 262.239 559.539 262.352 559.651ZM262.352 559.651C262.406 559.706 262.449 559.717 262.476 559.671C262.518 559.589 262.445 559.601 262.352 559.651ZM262.352 559.651C262.204 559.733 262.011 559.911 262.131 559.989C262.224 560.047 262.317 559.865 262.352 559.651Z" fill="#4B5C49"/>
<path fill-rule="evenodd" clip-rule="evenodd" d="M260.182 516.927C260.209 516.958 260.233 516.993 260.24 517.035C260.252 517.082 259.899 517.454 259.721 517.117C259.682 517.051 259.663 516.939 259.57 516.838C259.404 516.651 259.136 516.644 258.884 516.364C257.912 515.286 257.079 512.981 256.777 512.112C256.285 510.673 255.979 509.218 255.797 507.736C255.537 505.611 255.526 503.457 255.227 501.324C254.611 496.552 254.79 491.788 255.425 487.067C256.37 480.06 258.334 473.143 260.353 466.455C267.179 442.884 281.938 423.964 287.834 401.471C289.078 396.734 289.895 391.838 290.213 386.705C290.507 381.957 290.384 376.999 289.628 371.766C289.562 371.339 289.857 370.939 290.279 370.877C290.705 370.811 291.104 371.102 291.17 371.529C292.042 376.871 292.317 381.949 292.045 386.814C291.755 392.074 290.833 397.083 289.531 401.921C283.476 424.41 268.534 443.244 261.519 466.797C259.62 473.442 257.734 480.309 256.944 487.257C256.421 491.838 256.386 496.455 257.102 501.056C257.455 503.558 257.505 506.08 257.811 508.574C257.935 509.595 258.083 510.615 258.358 511.624C258.582 512.466 259.787 514.432 260.05 515.782C260.124 516.143 259.969 516.364 260.023 516.605C260.051 516.733 260.128 516.818 260.163 516.88C260.171 516.896 260.178 516.911 260.182 516.927Z" fill="#4B5C49"/>
<path fill-rule="evenodd" clip-rule="evenodd" d="M271.405 514.704C271.452 514.836 271.382 514.979 271.25 515.022C271.119 515.069 270.975 514.999 270.929 514.867C270.456 513.835 270.913 512.803 271.847 511.88C273.462 510.277 276.643 509.118 277.6 508.404C280.521 506.293 283.418 503.151 285.917 499.71C288.404 496.28 290.488 492.541 291.755 489.2C293.622 484.382 295.106 479.626 296.295 474.92C298.178 467.475 299.224 460.132 299.487 452.757C299.917 440.657 298.267 428.468 294.471 415.704C294.347 415.316 294.564 414.905 294.947 414.781C295.335 414.661 295.745 414.874 295.869 415.262C300.158 428.134 302.397 440.494 302.188 452.831C302.06 460.411 301.01 467.984 299.023 475.622C297.767 480.429 296.102 485.247 294.095 490.135C292.638 493.604 290.326 497.46 287.571 500.963C284.821 504.466 281.648 507.624 278.506 509.711C277.507 510.351 274.369 511.368 272.563 512.714C271.789 513.292 271.223 513.889 271.405 514.704Z" fill="#4B5C49"/>
<path fill-rule="evenodd" clip-rule="evenodd" d="M293.889 580.046C293.653 580.003 293.301 579.952 292.971 579.937C292.472 579.914 291.906 579.983 291.263 579.98C290.027 579.976 288.601 579.898 287.222 579.906C284.483 579.921 281.977 580.034 281.702 580.049C277.747 580.205 273.853 580.674 269.945 581.07C267.314 581.333 264.68 581.543 262.046 581.772C259.198 582.016 256.351 582.222 253.488 582.381C235.745 583.273 224.972 582.878 214.528 579.987C204.467 577.206 194.712 572.104 179.271 563.558C178.969 563.399 178.852 563.022 179.011 562.72C179.174 562.417 179.55 562.301 179.852 562.46C195.379 570.339 205.164 575.041 215.182 577.446C225.46 579.91 235.966 579.921 253.228 578.482C258.911 578.071 264.529 577.276 270.189 576.93C274.012 576.698 277.84 576.725 281.702 576.88C282.132 576.903 287.877 577.062 291.584 577.873C292.987 578.179 294.064 578.606 294.594 578.963C295.005 579.242 295.214 579.514 295.218 579.774C295.218 580.061 295.094 580.507 294.397 580.767C294.18 580.883 293.909 580.798 293.796 580.585C293.696 580.399 293.742 580.177 293.889 580.046Z" fill="#4B5C49"/>
<path fill-rule="evenodd" clip-rule="evenodd" d="M255.479 584.034C255.456 583.956 255.468 583.871 255.518 583.805C255.603 583.696 255.762 583.673 255.871 583.758C256.304 583.937 256.293 584.239 256.273 584.429C256.25 584.647 255.975 584.891 255.448 585.073C254.464 585.407 252.287 585.36 251.342 585.706C248.808 586.505 246.286 587.25 243.78 588.08C242.134 588.627 240.495 589.213 238.872 589.872C234.235 591.719 229.644 592.906 224.98 593.573C218.1 594.555 211.076 594.434 203.572 594.035C197.777 593.717 192.21 592.107 186.891 589.787C179.031 586.357 171.709 581.384 164.953 576.88C156.155 570.995 148.237 566.064 139.84 562.282C136.358 560.71 132.785 559.364 129.046 558.177C123.839 556.524 118.301 555.198 112.113 554.375C111.606 554.321 111.24 553.859 111.296 553.355C111.352 552.847 111.81 552.478 112.317 552.536C120.957 553.343 128.458 555.004 135.444 557.556C146.149 561.467 155.64 567.375 166.475 574.595C173.096 579.021 180.27 583.917 187.98 587.292C193 589.488 198.249 591.04 203.723 591.35C209.802 591.703 215.554 591.82 221.187 591.381C226.878 590.939 232.445 589.93 238.105 587.855C239.798 587.246 241.498 586.718 243.211 586.229C245.756 585.5 248.312 584.852 250.885 584.15C251.323 584.049 251.966 583.999 252.655 583.995C253.577 583.995 254.584 584.003 255.224 584.006C255.309 584.01 255.402 584.018 255.479 584.034Z" fill="#4B5C49"/>
<path fill-rule="evenodd" clip-rule="evenodd" d="M209.937 531.774C209.968 531.77 209.995 531.774 210.026 531.781C210.162 531.816 210.239 531.956 210.204 532.088C210.367 532.348 210.042 532.212 209.914 532.328C209.84 532.394 209.829 532.324 209.495 532.161C209.348 532.092 209.182 531.917 208.984 531.63C208.407 530.804 207.857 529.17 207.655 528.744C206.881 526.998 205.959 525.314 205.153 523.568C204.595 522.366 204.103 521.132 203.692 519.875C202.53 516.252 201.655 512.562 201.116 508.819C200.314 503.236 200.202 497.561 200.244 491.928C200.283 487.4 201.12 482.865 202.344 478.342C205.083 468.228 209.782 458.18 211.398 448.416C212.641 440.921 215.299 434.539 217.592 428.406C218.65 425.585 219.645 422.823 220.331 420.003C220.904 417.644 221.276 415.246 221.33 412.756C221.33 412.531 221.512 412.349 221.737 412.349C221.962 412.349 222.144 412.531 222.144 412.756C222.229 416.596 221.59 420.259 220.571 423.909C218.425 431.618 214.648 439.28 213.284 448.711C211.839 458.561 207.314 468.752 204.742 478.97C203.654 483.292 202.925 487.618 202.964 491.928C202.995 496.517 203.231 501.122 203.7 505.692C204.169 510.227 204.862 514.739 206.113 519.146C206.358 520.038 206.66 520.911 206.973 521.784C207.737 523.898 208.608 525.978 209.325 528.092C209.461 528.542 210.042 530.136 210.212 531.122C210.262 531.409 210.092 531.727 210.228 531.735C210.321 531.743 210.111 531.832 210.107 531.793C210.092 531.653 210.018 531.723 209.937 531.774ZM209.84 531.805C209.832 531.801 209.825 531.801 209.817 531.797C209.786 531.789 209.786 531.808 209.786 531.84C209.801 531.824 209.821 531.812 209.84 531.805Z" fill="#4B5C49"/>
<path fill-rule="evenodd" clip-rule="evenodd" d="M201.759 481.938C201.887 481.985 201.953 482.132 201.906 482.26C201.86 482.392 201.713 482.458 201.585 482.411C200.779 482.221 200.051 481.414 199.477 480.285C198.447 478.249 198.001 475.211 197.75 473.962C197.265 471.603 196.754 469.322 196.398 467.033C196.033 464.671 195.805 462.312 195.716 459.942C195.603 456.819 195.789 453.665 196.297 450.383C197.761 440.525 200.337 430.543 203.785 420.872C207.229 411.223 211.545 401.878 216.74 393.366C217.983 391.326 219.327 389.355 220.73 387.423C224.623 382.077 228.943 377.018 232.952 371.758C234.664 369.515 236.338 367.254 237.857 364.88C238.043 364.577 238.438 364.484 238.736 364.67C239.038 364.856 239.131 365.248 238.945 365.551C237.74 367.611 236.45 369.612 235.067 371.556C229.597 379.226 223.058 386.17 218.173 394.243C213.075 402.669 208.771 411.891 205.49 421.469C202.216 431.047 199.969 440.971 198.734 450.72C198.354 453.859 198.35 456.861 198.47 459.833C198.563 462.134 198.768 464.411 198.974 466.719C199.179 469.004 199.35 471.312 199.578 473.69C199.694 474.893 199.969 477.76 200.593 479.839C200.887 480.809 201.17 481.628 201.759 481.938Z" fill="#4B5C49"/>
<path fill-rule="evenodd" clip-rule="evenodd" d="M204.3 489.414C204.262 489.542 204.126 489.616 203.998 489.577C203.867 489.534 203.797 489.398 203.836 489.27C203.936 488.603 204.161 487.99 204.533 487.408C204.87 486.877 205.346 486.419 205.846 485.957C207.268 484.638 209.1 483.478 210.631 482.276C211.266 481.779 211.847 481.286 212.273 480.728C213.823 478.695 215.136 476.456 216.352 474.144C218.208 470.629 219.804 466.932 221.373 463.41C222.198 461.583 222.93 459.701 223.612 457.792C225.224 453.277 226.556 448.61 228.075 444.117C229.21 440.894 230.291 437.67 231.356 434.45C232.96 429.6 234.494 424.759 235.753 419.828C237.14 414.393 238.236 408.876 238.883 403.197C239.484 397.82 239.619 392.881 239.507 388.032C239.333 380.595 238.593 373.376 238.194 365.147C238.178 364.938 238.337 364.759 238.542 364.748C238.752 364.732 238.93 364.891 238.941 365.101C239.569 373.329 240.475 380.537 240.882 387.982C241.149 392.893 241.204 397.901 240.789 403.375C240.258 410.642 239.03 417.683 237.334 424.627C235.645 431.548 233.483 438.36 231.224 445.207C229.88 449.052 228.687 453.032 227.312 456.927C226.374 459.581 225.348 462.192 224.154 464.706C222.454 468.236 220.753 471.968 218.715 475.459C217.329 477.841 215.783 480.107 214.032 482.155C213.455 482.83 212.711 483.459 211.847 484.006C210.224 485.038 208.217 485.845 206.652 486.954C206.168 487.299 205.745 487.68 205.358 488.072C204.94 488.49 204.556 488.894 204.3 489.414Z" fill="#4B5C49"/>
<path fill-rule="evenodd" clip-rule="evenodd" d="M172.976 502.654C173.103 502.608 173.251 502.678 173.297 502.806C173.344 502.938 173.278 503.081 173.146 503.128C172.112 503.713 170.709 503.896 169.121 503.717C166.022 503.368 162.489 501.646 160.533 500.951C157.84 499.904 154.915 499.174 151.925 498.546C147.4 497.599 142.725 496.94 138.408 496.265C130.598 494.818 122.698 494.465 114.869 493.413C111.46 492.956 108.066 492.37 104.698 491.513C96.5775 489.472 88.4139 485.922 80.7873 481.422C73.2156 476.957 66.1666 471.557 60.3142 465.613C59.0025 464.29 57.8058 462.816 56.6719 461.268C54.1008 457.757 51.8578 453.862 49.318 450.507C49.1464 450.278 49.189 449.956 49.4141 449.785C49.6388 449.614 49.9607 449.657 50.1327 449.882C52.7058 453.219 54.9848 457.094 57.5931 460.586C58.7065 462.071 59.8815 463.491 61.1661 464.76C67.0262 470.525 74.0253 475.797 81.588 480.025C89.1418 484.25 97.25 487.431 105.245 489.185C108.545 489.903 111.86 490.349 115.186 490.675C123.11 491.451 131.08 491.532 139 492.707C143.365 493.483 148.113 494.186 152.661 495.322C155.799 496.102 158.836 497.099 161.621 498.36C163.182 499.128 165.824 500.629 168.373 501.603C169.16 501.902 169.931 502.131 170.651 502.321C171.519 502.553 172.263 502.763 172.976 502.654Z" fill="#4B5C49"/>
<path fill-rule="evenodd" clip-rule="evenodd" d="M135.287 497.165C133.721 497.103 131.1 497.134 130.693 497.204C129.342 497.355 128.004 497.615 126.673 497.929C123.504 498.674 120.383 499.741 117.261 500.528C114.703 501.161 112.163 501.836 109.616 502.445C103.57 503.888 97.5275 505.129 91.4206 505.824C85.6074 506.483 79.7275 506.608 73.6973 505.812C60.2183 504.086 49.6548 496.579 41.1751 486.45C35.1561 479.261 30.1498 470.773 25.9706 462.083C21.5977 452.99 18.1212 443.694 15.0848 435.586C14.9651 435.276 15.1208 434.927 15.4319 434.807C15.743 434.686 16.0928 434.842 16.2125 435.152C19.3686 443.171 23.0446 452.334 27.4838 461.346C31.6827 469.865 36.5562 478.264 42.5162 485.321C50.7302 495.047 60.9419 502.255 73.9433 503.841C79.8108 504.54 85.5194 504.326 91.1595 503.624C97.1765 502.879 103.104 501.522 109.081 500.152C111.634 499.566 114.201 499.008 116.776 498.441C119.93 497.762 123.093 496.808 126.293 496.172C127.701 495.892 129.114 495.671 130.537 495.563C131.078 495.551 135.139 496.021 136.308 496.412C137.132 496.688 137.468 497.444 135.565 497.448C135.427 497.464 135.302 497.363 135.286 497.227C135.284 497.204 135.284 497.184 135.287 497.165Z" fill="#4B5C49"/>
<path fill-rule="evenodd" clip-rule="evenodd" d="M120.822 492.898C120.842 492.898 120.862 492.898 120.883 492.901C120.924 492.913 120.961 492.929 120.992 492.956C120.952 492.944 120.893 492.936 120.839 492.929C120.893 493.022 120.949 493.06 121.009 493.022C121.022 493.014 121.03 493.006 121.034 492.998C121.075 493.057 121.093 493.126 121.078 493.2C121.205 493.448 121.069 493.526 121.032 493.619C120.931 493.875 120.619 493.844 120.318 493.541C120.037 493.258 119.618 491.567 119.169 491.028L113.918 485.127C111.237 482.182 108.472 479.397 105.618 476.705C102.764 474.008 99.8205 471.409 96.7655 468.864C91.3512 464.252 85.4698 460.337 79.4904 456.57C70.4292 450.864 61.1085 445.545 52.4529 439.311C48.8315 436.7 45.331 433.926 42.0308 430.869C41.8514 430.71 41.8379 430.431 42.0002 430.252C42.1621 430.07 42.4395 430.058 42.6189 430.221C45.9536 433.177 49.4781 435.85 53.1242 438.352C61.903 444.373 71.405 449.331 80.5173 454.914C86.6254 458.657 92.5417 462.7 98.0318 467.371C101.062 470.005 103.984 472.686 106.801 475.475C109.617 478.264 112.328 481.158 114.957 484.2C116.16 485.592 117.419 486.985 118.582 488.44C119.087 489.068 119.566 489.712 120.031 490.364C120.365 490.838 120.576 492.416 120.822 492.898ZM120.992 492.956C121.026 492.967 121.046 492.979 121.034 492.998C121.022 492.983 121.007 492.967 120.992 492.956ZM120.742 492.913C120.731 492.913 120.722 492.909 120.715 492.909C120.607 492.87 120.462 493.107 120.462 493.107C120.462 493.107 120.53 493.146 120.586 493.099C120.603 493.01 120.664 492.944 120.742 492.913Z" fill="#4B5C49"/>
<path fill-rule="evenodd" clip-rule="evenodd" d="M133.345 456.264C133.315 456.396 133.18 456.481 133.045 456.454C132.909 456.423 132.824 456.287 132.854 456.151C132.851 455.822 132.784 455.515 132.745 455.17C132.664 454.456 132.528 453.715 132.341 452.931C131.713 450.293 130.614 447.38 130.404 445.064C130.152 440.191 130.426 435.416 131.222 430.718C132.015 426.039 133.325 421.45 134.938 416.884C137.223 410.417 139.755 403.88 142.493 397.428C145.231 390.977 148.175 384.614 151.351 378.527C157.798 366.14 164.654 354.188 170.14 341.599C173.762 333.274 176.803 324.669 178.667 315.444C178.705 315.238 178.903 315.102 179.108 315.145C179.314 315.184 179.449 315.382 179.41 315.587C177.679 324.913 174.785 333.638 171.232 342.068C165.886 354.75 159.064 366.757 152.703 379.226C149.608 385.309 146.726 391.652 144.095 398.095C141.462 404.547 139.084 411.099 136.926 417.57C135.435 422.043 134.309 426.551 133.549 431.11C132.791 435.652 132.396 440.253 132.58 444.967C132.577 447.562 133.952 451.003 133.867 453.886C133.841 454.766 133.646 455.546 133.345 456.264Z" fill="#4B5C49"/>
<path fill-rule="evenodd" clip-rule="evenodd" d="M139.365 408.023C139.321 408.205 139.138 408.318 138.957 408.271C138.776 408.229 138.664 408.046 138.709 407.864C138.853 407.193 139.619 406.44 140.656 405.73C142.535 404.438 145.303 403.232 146.214 402.766C150.964 400.454 155.721 398.328 160.11 395.597C162.977 393.816 165.681 391.772 168.118 389.246C172.259 384.979 176.412 379.808 180.208 374.217C182.602 370.691 184.857 366.998 186.813 363.211C190.219 356.628 192.764 349.788 193.655 343.166C194.294 338.717 194.352 334.205 194.1 329.681C193.721 322.83 192.651 315.971 191.85 309.287C191.811 309.008 192.008 308.748 192.287 308.709C192.566 308.67 192.826 308.864 192.865 309.147C193.907 315.832 195.208 322.691 195.832 329.553C196.254 334.197 196.363 338.845 195.871 343.446C194.879 351.977 191.404 360.981 186.542 369.252C181.723 377.453 175.556 384.913 169.609 390.74C166.967 393.293 164.069 395.337 161.009 397.102C156.484 399.713 151.615 401.715 146.741 403.895C145.932 404.24 143.692 405.032 141.857 405.994C140.624 406.642 139.554 407.329 139.365 408.023Z" fill="#4B5C49"/>
<path fill-rule="evenodd" clip-rule="evenodd" d="M140.444 406.017C140.452 406.153 140.346 406.273 140.207 406.281C140.069 406.289 139.95 406.184 139.942 406.044C139.862 405.773 139.701 405.532 139.573 405.222C139.152 404.206 138.609 402.96 138.135 401.781C137.845 401.063 137.626 400.353 137.533 399.705C137.066 396.416 136.775 392.843 136.703 389.266C136.63 385.677 136.78 382.089 137.151 378.78C138.377 368.926 142.49 358.68 148.047 348.873C156.202 334.488 167.452 321.046 177.071 311.149C177.233 310.982 177.497 310.978 177.663 311.137C177.83 311.297 177.834 311.564 177.675 311.731C168.219 321.67 157.189 335.159 149.228 349.536C143.87 359.215 139.898 369.294 138.784 378.974C138.371 382.217 138.185 385.732 138.188 389.25C138.193 392.769 138.386 396.295 138.771 399.546C138.93 401.063 140.04 402.945 140.382 404.566C140.494 405.094 140.496 405.579 140.444 406.017Z" fill="#4B5C49"/>
<path fill-rule="evenodd" clip-rule="evenodd" d="M113.735 409.292C113.796 409.257 113.783 409.264 113.735 409.292ZM113.735 409.292C113.712 409.303 113.682 409.319 113.648 409.338C113.712 409.373 113.762 409.431 113.779 409.509C113.882 409.648 113.714 409.71 113.666 409.784C113.646 409.815 113.548 409.819 113.316 409.757C113.219 409.734 113.042 409.71 112.784 409.551C111.744 408.907 109.755 406.692 109.174 406.242C107.969 405.245 106.719 404.299 105.434 403.402C104.149 402.506 102.829 401.661 101.489 400.85L77.5015 386.154C61.8712 376.63 45.0993 366.431 32.9119 352.787C24.7065 343.601 18.5821 332.862 16.2217 319.785C16.1691 319.505 16.3508 319.238 16.6266 319.187C16.9028 319.133 17.1697 319.315 17.2224 319.595C19.7769 332.366 26.0011 342.755 34.1833 351.631C46.4564 364.945 63.1531 374.854 78.74 384.087C81.9592 386.03 85.1696 387.993 88.3384 390.022C93.0821 393.064 97.7521 396.218 102.461 399.306C103.8 400.19 105.114 401.11 106.394 402.08C107.677 403.049 108.926 404.062 110.125 405.129C110.428 405.4 111.177 406.138 111.896 406.952C112.516 407.654 113.179 408.357 113.479 408.853C113.618 409.082 113.585 409.365 113.664 409.326C113.694 409.311 113.717 409.299 113.735 409.292Z" fill="#4B5C49"/>
</svg>
