<svg width="448" height="617" viewBox="0 0 448 617" fill="none" xmlns="http://www.w3.org/2000/svg">
<g opacity="0.5">
<path fill-rule="evenodd" clip-rule="evenodd" d="M241.817 537.466C241.676 537.457 241.558 537.563 241.552 537.701C241.55 537.838 241.659 537.956 241.795 537.961C241.944 537.984 243.037 537.567 244.703 536.688C245.789 536.113 247.115 535.33 248.617 534.433C257.462 529.156 272.166 519.715 274.054 518.409C282.529 512.406 291.829 508.829 301.194 506.3C316.949 502.045 332.957 500.855 345.937 497.467C346.326 497.369 346.556 496.98 346.45 496.596C346.345 496.213 345.944 495.981 345.555 496.079C332.479 499.221 316.361 499.917 300.545 504.069C290.907 506.598 281.415 510.446 272.743 516.657L241.817 537.466Z" fill="#B5BDA6"/>
<path fill-rule="evenodd" clip-rule="evenodd" d="M245.912 214.322C245.839 214.317 245.776 214.371 245.772 214.443C245.768 214.515 245.824 214.577 245.897 214.583C246.43 214.621 246.701 214.508 246.835 214.368C246.99 214.206 247.019 213.963 246.889 213.634C246.574 212.832 245.199 211.625 244.731 210.981C243.731 209.612 242.616 208.405 241.43 207.266C241.072 206.922 240.712 206.581 240.337 206.255C238.871 204.984 237.287 203.837 235.73 202.591C231.441 199.191 226.836 196.02 222.042 193.149C217.256 190.284 212.282 187.721 207.322 185.414C189.082 176.989 173.894 170.239 157.587 168.047C146.862 166.606 135.656 167.128 122.774 170.458C122.631 170.494 122.542 170.642 122.582 170.786C122.622 170.929 122.775 171.016 122.918 170.979C135.732 167.822 146.851 167.417 157.469 168.971C173.64 171.341 188.638 178.251 206.649 186.842C211.543 189.158 216.425 191.765 221.165 194.593C225.904 197.417 230.507 200.462 234.776 203.776C236.348 204.986 237.901 206.15 239.426 207.334C239.808 207.63 240.195 207.916 240.572 208.217C241.811 209.205 242.993 210.261 244.076 211.486C244.546 212.014 245.735 212.938 246.298 213.65C246.376 213.75 246.433 213.848 246.489 213.93C246.558 214.032 246.658 214.083 246.646 214.164C246.621 214.326 246.371 214.356 245.912 214.322Z" fill="#B5BDA6"/>
<path fill-rule="evenodd" clip-rule="evenodd" d="M324.575 336.318C324.332 336.403 324.209 336.666 324.3 336.909C324.391 337.148 324.66 337.273 324.903 337.188C326.068 336.828 327.179 336.35 328.269 335.814C330.71 334.616 333.027 333.133 335.608 332.152C342.097 329.532 348.455 327.214 354.6 324.346C358.71 322.429 362.719 320.259 366.624 317.634C373.439 312.965 380.106 304.139 384.932 294.373C389.718 284.682 392.696 274.089 392.428 265.872C392.208 259.79 391.043 252.199 389.227 244.871C387.346 237.277 384.767 229.968 381.793 224.923C381.698 224.758 381.485 224.697 381.319 224.788C381.153 224.879 381.095 225.088 381.189 225.25C384.027 230.293 386.433 237.566 388.128 245.105C389.761 252.368 390.729 259.879 390.806 265.88C390.938 273.867 387.803 284.075 383.044 293.434C378.284 302.792 371.892 311.312 365.293 315.768C361.512 318.37 357.614 320.508 353.635 322.44C347.571 325.39 341.31 327.849 334.913 330.588C331.992 331.913 329.457 333.871 326.671 335.346C325.989 335.703 325.297 336.038 324.575 336.318Z" fill="#B5BDA6"/>
<path fill-rule="evenodd" clip-rule="evenodd" d="M326.878 326.052C326.755 326.083 326.674 326.202 326.695 326.329C326.684 326.464 326.805 326.598 327.129 326.527C327.238 326.5 327.451 326.396 327.75 326.252C327.975 326.14 328.23 326.036 328.488 325.871C329.222 325.395 329.906 324.729 329.947 324.693C330.805 323.958 331.615 323.193 332.365 322.367C333.465 321.151 334.436 319.83 335.47 318.548C337.637 315.848 339.312 312.973 340.721 309.985C342.811 305.558 344.308 300.877 346.022 296.147C347.317 292.485 348.479 288.689 349.442 284.844C350.402 280.996 351.161 277.101 351.749 273.254C352.114 270.817 352.483 268.347 352.938 265.905C353.237 264.293 353.566 262.692 353.987 261.121C355.013 257.279 356.236 253.405 357.642 249.6C359.049 245.794 360.634 242.059 362.458 238.517C363.043 237.386 363.782 236.343 364.599 235.346C366.548 232.964 368.933 230.852 370.862 228.567C370.957 228.464 370.945 228.3 370.837 228.206C370.729 228.112 370.565 228.122 370.47 228.225C368.389 230.396 365.844 232.353 363.751 234.631C362.822 235.643 361.991 236.724 361.308 237.895C359.274 241.392 357.45 245.094 355.851 248.894C354.252 252.693 352.885 256.588 351.695 260.448C351.197 262.064 350.779 263.714 350.423 265.379C349.897 267.841 349.506 270.341 349.097 272.807C348.482 276.569 347.667 280.372 346.72 284.14C345.775 287.912 344.696 291.645 343.455 295.243C341.872 299.94 340.495 304.583 338.549 308.998C337.283 311.873 335.781 314.651 333.797 317.28L328.898 323.662C328.864 323.7 328.216 324.283 327.694 324.916C327.395 325.281 327.191 325.651 327.01 325.879C326.95 325.956 326.884 326.043 326.878 326.052Z" fill="#B5BDA6"/>
<path fill-rule="evenodd" clip-rule="evenodd" d="M294.385 283.537C294.394 283.671 294.515 283.777 294.654 283.769C294.795 283.766 294.9 283.648 294.89 283.51C295.003 283.082 295.269 282.738 295.471 282.224C295.576 281.962 295.63 281.666 295.735 281.367C296.093 280.356 296.675 279.249 297.341 278.035C298.173 276.513 299.164 274.858 300.263 273.173C304.005 267.454 308.81 261.39 310.788 258.515C313.693 254.014 316.279 250.081 318.476 246.353C321.125 241.857 323.253 237.675 324.888 233.288C327.811 225.441 329.143 216.935 328.931 204.645C328.935 204.288 328.643 203.992 328.281 203.982C327.919 203.972 327.621 204.254 327.618 204.61C327.174 216.553 325.387 224.716 322.207 232.22C320.439 236.388 318.224 240.337 315.577 244.632C313.324 248.291 310.784 252.208 307.875 256.658C305.771 260.098 300.022 267.899 296.649 274.561C295.324 277.184 294.385 279.635 294.07 281.556C294.048 281.687 294.008 281.814 294.013 281.941C294.034 282.457 294.258 282.802 294.356 283.228C294.38 283.333 294.371 283.436 294.385 283.537Z" fill="#B5BDA6"/>
<path fill-rule="evenodd" clip-rule="evenodd" d="M311.44 269.76C311.401 269.739 311.354 269.728 311.305 269.734C311.193 269.749 311.118 269.855 311.137 269.966C311.148 270.083 311.398 270.241 311.872 270.135C312.618 269.965 314.192 269.429 316.021 268.492C317.992 267.487 320.223 266.008 322.158 264.391C326.398 260.809 330.132 256.865 333.505 252.625C336.872 248.396 339.87 243.873 342.708 239.178C347.225 231.432 350.955 222.852 353.13 213.903C355.304 204.965 355.929 195.674 354.466 186.552C353.746 182.077 352.666 177.654 351.376 173.273C349.458 166.754 347.1 160.33 345.005 153.915C344.946 153.723 344.74 153.612 344.546 153.667C344.352 153.722 344.243 153.921 344.302 154.113C346.17 160.579 348.261 167.071 349.988 173.625C351.135 177.975 352.129 182.35 352.739 186.773C353.97 195.666 353.093 204.66 350.864 213.32C348.624 222.024 345.011 230.4 340.561 237.935C337.893 242.626 335.038 247.128 331.86 251.389C328.686 255.641 325.194 259.653 321.171 263.306C320.007 264.368 318.708 265.36 317.439 266.223C316.887 266.6 316.332 266.937 315.815 267.275C314.147 268.367 312.75 269.25 311.942 269.602C311.705 269.705 311.482 269.7 311.44 269.76Z" fill="#B5BDA6"/>
<path fill-rule="evenodd" clip-rule="evenodd" d="M302.253 254.826C302.246 254.824 302.24 254.826 302.233 254.824C302.12 254.832 302.033 254.924 302.04 255.035C302.045 255.783 302.097 256.234 302.119 256.456C302.151 256.796 302.388 256.837 302.475 256.861C302.569 256.883 302.691 256.82 302.827 256.641C302.921 256.515 303.052 256.145 303.179 255.592C303.309 255.026 303.421 254.252 303.529 253.376C303.962 249.821 304.259 244.564 304.263 244.539C304.852 239.131 305.282 233.965 306.16 228.817C306.731 225.463 307.481 222.113 308.661 218.717C310.524 213.306 312.778 207.844 315.312 202.518C317.847 197.188 320.661 191.992 323.722 187.155C327.806 180.623 332.512 174.393 336.632 167.852C339.406 163.448 341.914 158.904 343.801 154.039C343.905 153.782 343.774 153.487 343.511 153.382C343.247 153.276 342.95 153.399 342.846 153.656C341.371 157.22 339.554 160.599 337.543 163.872C332.831 171.545 327.065 178.637 322.134 186.156C318.98 191.024 316.045 196.244 313.444 201.629C310.845 207.009 308.58 212.551 306.686 218.03C305.484 221.542 304.685 224.997 304.15 228.47C303.349 233.673 303.112 238.9 302.666 244.364C302.665 244.392 302.462 249.666 302.315 253.257C302.292 253.837 302.269 254.365 302.253 254.826ZM302.264 256.271C302.257 256.321 302.242 256.349 302.208 256.339C302.131 256.317 302.185 256.293 302.264 256.271Z" fill="#B5BDA6"/>
<path fill-rule="evenodd" clip-rule="evenodd" d="M277.162 241.242C277.182 241.339 277.271 241.41 277.374 241.407C277.486 241.403 277.58 241.353 277.569 241.194C277.568 241.179 277.542 241.149 277.535 241.092C277.529 241.035 277.607 241.03 277.574 240.854C277.556 240.757 277.443 240.657 277.349 240.516C276.595 239.393 274.708 236.664 274.431 236.276C273.692 235.265 272.866 234.307 271.967 233.405C270.639 232.071 269.163 230.869 267.695 229.733C264.475 227.331 261.032 225.233 257.472 223.327C252.191 220.501 246.658 218.089 241.28 215.595C233.473 212.079 225.824 208.292 218.024 204.812C214.669 203.315 211.283 201.877 207.851 200.536C200.824 197.803 194.987 196.26 189.133 193.964C185.375 192.488 181.609 190.698 177.508 188.067C174.11 185.929 170.46 184.158 167.029 182.085C165.569 181.205 164.153 180.272 162.817 179.226C162.606 179.055 162.294 179.083 162.125 179.287C161.956 179.491 161.986 179.796 162.2 179.966C163.531 181.086 164.95 182.096 166.412 183.048C169.765 185.224 173.352 187.095 176.67 189.329C180.834 192.085 184.67 193.971 188.501 195.539C194.32 197.919 200.131 199.55 207.113 202.388C210.502 203.758 213.833 205.23 217.14 206.754C224.896 210.328 232.502 214.195 240.266 217.8C245.631 220.22 251.136 222.58 256.42 225.306C259.914 227.108 263.314 229.062 266.496 231.336C267.722 232.18 268.943 233.081 270.112 234.041C271.272 234.994 272.382 235.997 273.355 237.106C273.673 237.458 275.838 239.95 276.717 240.97C276.828 241.099 276.895 241.233 276.982 241.275C277.085 241.326 277.125 241.341 277.148 241.277C277.153 241.265 277.157 241.253 277.162 241.242Z" fill="#B5BDA6"/>
<path fill-rule="evenodd" clip-rule="evenodd" d="M241.692 172.05C241.583 172.081 241.522 172.193 241.555 172.3C241.588 172.407 241.703 172.469 241.812 172.438C242.054 172.422 242.226 172.099 242.261 171.625C242.304 171.04 242.097 170.211 242.093 170.081C242.02 168.823 241.92 167.579 241.742 166.34C241.563 165.09 241.302 163.854 240.969 162.618C240.275 159.983 239.555 157.395 238.688 154.864C237.806 152.293 236.798 149.783 235.684 147.32C233.469 142.424 230.79 137.732 227.662 133.127C223.173 126.557 217.825 120.755 211.993 115.444C203.289 107.518 193.475 100.708 183.568 94.3791C175.472 89.151 166.824 84.6838 158.579 79.629C155.071 77.4756 151.632 75.2168 148.349 72.7407C145.438 70.5621 142.895 68.0895 140.484 65.5021C136.817 61.5663 133.485 57.3329 129.991 53.1407C129.793 52.893 129.43 52.8478 129.18 53.0393C128.931 53.2311 128.894 53.5868 129.092 53.8345C132.455 58.169 135.602 62.5908 139.216 66.6184C141.653 69.3289 144.311 71.8453 147.302 74.1003C150.64 76.5988 154.131 78.8799 157.697 81.0492C165.95 86.0659 174.616 90.4826 182.722 95.669C192.512 101.996 202.267 108.736 210.796 116.701C216.442 121.974 221.531 127.794 225.797 134.314C228.784 138.855 231.234 143.514 233.42 148.285C234.524 150.693 235.55 153.132 236.547 155.604C237.535 158.053 238.521 160.518 239.417 163.056C239.738 163.981 240.004 164.912 240.243 165.849C240.605 167.275 240.901 168.709 241.138 170.168L241.692 172.05Z" fill="#B5BDA6"/>
<path fill-rule="evenodd" clip-rule="evenodd" d="M218.788 169.131C218.909 169.121 218.996 169.017 218.984 168.899C218.973 168.78 218.865 168.692 218.745 168.702C218.078 168.715 217.342 168.297 216.572 167.736C214.892 166.512 213.138 164.518 212.15 163.657C209.673 161.574 207.287 159.373 204.942 157.122C201.421 153.738 198.011 150.23 194.625 146.758C191.578 143.661 188.625 140.487 185.698 137.295C178.848 129.822 172.203 122.183 165.394 114.644C158.252 106.92 151.353 98.7326 145.171 90.0776C138.985 81.4226 133.516 72.3026 129.264 62.6919C129.17 62.4786 128.923 62.3739 128.706 62.4607C128.489 62.5475 128.389 62.7913 128.48 63.0061C132.539 72.7812 137.824 82.0972 143.864 90.948C149.899 99.7983 156.687 108.178 163.72 116.104C169.574 122.556 175.26 129.122 181.142 135.522C185.072 139.8 189.098 143.993 193.258 148.08C196.754 151.475 200.257 154.918 203.896 158.208C206.331 160.41 208.825 162.539 211.398 164.558C212.456 165.356 214.346 167.285 216.156 168.355C217.104 168.915 218.028 169.239 218.788 169.131Z" fill="#B5BDA6"/>
<path fill-rule="evenodd" clip-rule="evenodd" d="M244.727 227.507C244.807 227.588 244.937 227.59 245.018 227.514C245.098 227.436 245.099 227.308 245.019 227.228C244.797 226.851 244.267 226.693 243.623 226.687C242.934 226.679 242.17 226.954 241.773 227.032C241.295 227.133 240.824 227.191 240.355 227.245C238.337 227.478 236.374 227.377 234.32 227.597C231.305 227.941 228.083 227.717 224.823 227.307C219.912 226.69 214.92 225.571 210.507 224.539C208.104 223.985 205.608 223.248 203.137 222.422C200.653 221.59 198.197 220.666 195.895 219.74C192.219 218.204 188.325 217.078 184.562 215.68C183.012 215.102 181.479 214.485 180.003 213.751C177.181 212.404 174.5 210.866 171.861 209.281C170.077 208.208 168.296 207.141 166.565 205.989C162.221 203.097 158.083 199.911 153.934 196.678C151.182 194.474 148.376 192.362 145.791 190.015C144.094 188.47 142.492 186.824 141.064 184.983C138.34 181.457 134.135 178.753 131.093 175.305C129.816 173.861 128.734 172.294 128.099 170.43C128.051 170.275 127.882 170.186 127.729 170.23C127.572 170.274 127.484 170.435 127.531 170.59C128.077 172.588 129.086 174.323 130.362 175.897C133.234 179.441 137.42 182.161 140.041 185.721C141.463 187.664 143.076 189.409 144.788 191.055C147.325 193.495 150.089 195.712 152.803 198.015C157.61 202.214 162.449 206.293 167.59 210.005C168.629 210.756 169.661 211.511 170.734 212.215C173.233 213.848 175.863 215.298 178.58 216.646C180.179 217.411 181.829 218.065 183.51 218.645C187.274 219.942 191.18 220.897 194.876 222.301C197.234 223.235 199.745 224.169 202.289 225.008C204.85 225.853 207.44 226.603 209.931 227.166C214.45 228.173 219.55 229.379 224.581 229.833C228.051 230.146 231.477 230.086 234.642 229.531C236.412 229.217 238.142 229.203 239.867 228.9C240.636 228.765 241.395 228.569 242.162 228.296C242.495 228.177 243.128 227.947 243.703 227.743C243.926 227.664 244.1 227.545 244.295 227.511C244.465 227.481 244.607 227.435 244.727 227.507Z" fill="#B5BDA6"/>
<path fill-rule="evenodd" clip-rule="evenodd" d="M162.045 616.034C162.026 616.171 162.125 616.296 162.266 616.316C162.405 616.333 162.53 616.238 162.548 616.1C162.723 615.177 162.927 614.269 163.111 613.351C163.839 609.677 164.66 606.049 165.719 602.486C167.684 595.852 170.304 589.419 173.713 583.228C179.042 573.54 186.179 564.414 195.122 555.88C201.245 549.935 207.628 543.791 213.897 537.664C218.116 533.539 222.279 529.417 226.293 525.39C242.023 509.637 258.008 492.473 271.372 473.782C280.343 461.234 288.137 448 293.852 434.029C300.45 417.732 303.743 402.831 305.112 387.652C306.475 372.546 305.934 357.159 304.618 339.805C304.011 331.779 303.653 323.896 302.869 316.005C302.346 310.738 301.633 305.465 300.53 300.15C294.904 272.875 283.637 246.59 269.288 221.623C267.172 217.941 264.992 214.286 262.729 210.675C241.991 177.587 216.292 147.137 192.949 119.528C192.87 119.429 192.723 119.413 192.625 119.491C192.524 119.57 192.511 119.713 192.594 119.811C215.264 147.837 239.899 178.929 260.183 212.17C262.386 215.779 264.561 219.401 266.671 223.051C280.945 247.734 292.426 273.619 298.199 300.583C299.314 305.819 300.043 311.007 300.583 316.192C301.403 324.062 301.79 331.929 302.43 339.933C303.804 357.158 304.49 372.448 303.117 387.445C301.744 402.425 298.315 417.103 291.693 433.146C286.052 446.964 278.367 460.063 269.489 472.464C256.19 491.049 240.23 508.073 224.558 523.71L193.361 554.127C184.407 562.968 177.278 572.374 172.038 582.337C168.694 588.698 166.064 595.27 164.305 602.086C163.364 605.729 162.624 609.434 162.235 613.209C162.139 614.15 162.095 615.089 162.045 616.034Z" fill="#B5BDA6"/>
<path fill-rule="evenodd" clip-rule="evenodd" d="M206.126 542.619C206.101 542.566 206.08 542.511 206.063 542.456C206.025 542.331 206.044 542.181 206.038 542.018C206.041 541.881 205.932 541.763 205.789 541.763C205.65 541.759 205.537 541.867 205.535 542.004C205.532 542.153 205.558 542.29 205.543 542.414C205.458 543.128 205.525 543.49 205.691 543.712C205.993 544.112 206.687 544.073 207.363 543.289C207.719 542.876 208.079 542.132 208.407 541.114C209.12 538.919 209.573 535.327 209.09 530.643C208.748 527.804 208.398 525.228 207.861 522.808C207.462 521.012 206.969 519.302 206.356 517.639C204.895 513.696 202.772 510.015 199.579 505.971C195.391 500.604 191.056 495.446 186.829 490.27C180.407 482.405 174.171 474.539 168.442 466.301C164.652 460.846 161.149 455.185 157.959 449.235C155.89 445.375 153.929 441.401 152.201 437.224C152.096 436.961 151.794 436.825 151.528 436.925C151.258 437.021 151.125 437.315 151.231 437.582C152.829 441.851 154.614 445.951 156.626 449.891C159.723 455.96 163.31 461.653 167.108 467.179C172.816 475.478 179.16 483.314 185.456 491.323C189.572 496.559 193.644 501.891 197.636 507.373C199.858 510.464 201.432 513.325 202.624 516.225C203.2 517.634 203.658 519.057 204.101 520.508C205.072 523.691 205.845 527.05 206.506 530.966C206.987 533.69 207.046 536.031 206.96 537.916C206.876 539.701 206.675 541.065 206.364 541.93C206.277 542.175 206.201 542.481 206.126 542.619ZM206.126 542.619C206.089 542.685 206.052 542.708 206.012 542.671C205.947 542.605 206.021 542.596 206.126 542.619ZM206.126 542.619C206.291 542.656 206.53 542.773 206.437 542.88C206.365 542.961 206.222 542.812 206.126 542.619Z" fill="#B5BDA6"/>
<path fill-rule="evenodd" clip-rule="evenodd" d="M195.714 501.391C195.697 501.428 195.685 501.467 195.69 501.51C195.693 501.557 196.141 501.816 196.215 501.446C196.233 501.373 196.218 501.261 196.278 501.14C196.385 500.917 196.64 500.837 196.801 500.503C197.423 499.213 197.552 496.794 197.589 495.886C197.642 494.383 197.511 492.916 197.253 491.457C196.881 489.364 196.262 487.313 195.925 485.202C195.123 480.496 193.557 476.013 191.563 471.695C188.601 465.288 184.683 459.243 180.78 453.43C167.3 432.866 147.532 418.883 135.265 399.091C132.68 394.924 130.459 390.489 128.651 385.694C126.977 381.257 125.646 376.508 124.843 371.325C124.781 370.901 124.38 370.601 123.955 370.657C123.525 370.71 123.225 371.095 123.287 371.519C124.01 376.837 125.231 381.742 126.916 386.295C128.735 391.22 131.09 395.733 133.761 399.981C146.18 419.725 166.099 433.577 179.755 454.072C183.53 459.877 187.359 465.895 190.154 472.289C191.999 476.505 193.384 480.886 194.039 485.458C194.432 487.933 195.121 490.346 195.556 492.802C195.735 493.806 195.892 494.816 195.922 495.85C195.951 496.712 195.365 498.911 195.507 500.267C195.541 500.63 195.755 500.798 195.773 501.041C195.785 501.171 195.735 501.273 195.719 501.341C195.717 501.358 195.714 501.375 195.714 501.391Z" fill="#B5BDA6"/>
<path fill-rule="evenodd" clip-rule="evenodd" d="M184.243 502.328C184.237 502.466 184.346 502.584 184.486 502.589C184.626 502.597 184.744 502.492 184.75 502.354C184.904 501.244 184.161 500.386 182.991 499.762C180.964 498.677 177.558 498.439 176.427 498.02C172.993 496.807 169.28 494.606 165.863 492.012C162.462 489.427 159.358 486.436 157.159 483.603C153.949 479.528 151.126 475.408 148.602 471.255C144.608 464.686 141.451 457.985 139.038 451.042C135.083 439.65 133.107 427.607 133.032 414.434C133.038 414.032 132.709 413.7 132.303 413.686C131.894 413.677 131.56 413.991 131.554 414.394C131.186 427.804 132.645 440.169 136.457 451.846C138.798 459.022 142.027 465.939 146.178 472.665C148.795 476.895 151.811 481.025 155.176 485.129C157.596 488.032 160.954 491.071 164.635 493.654C168.312 496.238 172.295 498.379 175.935 499.51C177.086 499.847 180.409 499.961 182.544 500.75C183.46 501.089 184.18 501.504 184.243 502.328Z" fill="#B5BDA6"/>
<path fill-rule="evenodd" clip-rule="evenodd" d="M181.687 570.593C181.902 570.488 182.227 570.344 182.54 570.24C183.015 570.082 183.581 569.995 184.2 569.816C185.39 569.476 186.742 569.015 188.074 568.647C190.719 567.917 193.169 567.343 193.438 567.283C197.297 566.355 201.189 565.743 205.073 565.056C207.687 564.592 210.288 564.075 212.895 563.576C215.712 563.034 218.517 562.456 221.324 561.829C238.692 557.853 248.964 554.547 258.188 548.958C267.074 543.577 274.986 536.072 287.373 523.744C287.618 523.51 287.62 523.121 287.378 522.876C287.133 522.633 286.737 522.624 286.492 522.858C273.827 534.574 265.768 541.707 256.813 546.719C247.625 551.857 237.498 554.725 220.433 558.05C214.833 559.204 209.185 559.975 203.627 561.185C199.872 562.004 196.189 563.07 192.511 564.268C192.103 564.407 186.61 566.121 183.273 567.9C182.011 568.573 181.097 569.271 180.69 569.755C180.376 570.133 180.254 570.448 180.326 570.696C180.41 570.969 180.66 571.36 181.408 571.417C181.652 571.469 181.888 571.314 181.934 571.081C181.977 570.876 181.867 570.678 181.687 570.593Z" fill="#B5BDA6"/>
<path fill-rule="evenodd" clip-rule="evenodd" d="M219.888 563.942C219.887 563.862 219.851 563.784 219.783 563.735C219.669 563.655 219.509 563.676 219.43 563.786C219.064 564.074 219.163 564.359 219.238 564.534C219.324 564.735 219.66 564.892 220.222 564.923C221.268 564.972 223.354 564.336 224.366 564.407C227.043 564.479 229.692 564.501 232.352 564.609C234.099 564.682 235.851 564.794 237.609 564.98C242.62 565.475 247.394 565.356 252.086 564.722C259.007 563.785 265.744 561.761 272.862 559.341C278.356 557.462 283.253 554.417 287.702 550.764C294.277 545.365 299.881 538.643 305.077 532.522C311.837 524.532 318.029 517.689 325.018 511.808C327.916 509.367 330.966 507.115 334.224 504.969C338.761 501.981 343.712 499.213 349.438 496.748C349.911 496.559 350.129 496.02 349.927 495.556C349.724 495.088 349.175 494.861 348.703 495.055C340.609 498.172 333.863 501.79 327.874 506.118C318.696 512.749 311.275 520.949 302.94 530.763C297.852 536.773 292.368 543.381 285.923 548.687C281.724 552.141 277.117 555.044 271.93 556.828C266.173 558.817 260.661 560.492 255.101 561.606C249.485 562.733 243.823 563.287 237.758 562.852C235.948 562.733 234.153 562.694 232.359 562.694C229.692 562.693 227.037 562.772 224.352 562.803C223.9 562.826 223.265 562.953 222.599 563.137C221.71 563.388 220.741 563.669 220.126 563.847C220.045 563.874 219.958 563.906 219.888 563.942Z" fill="#B5BDA6"/>
<path fill-rule="evenodd" clip-rule="evenodd" d="M248.504 501.85C248.473 501.855 248.448 501.866 248.421 501.882C248.3 501.952 248.266 502.106 248.338 502.222C248.258 502.513 248.532 502.296 248.689 502.372C248.779 502.414 248.77 502.345 249.044 502.099C249.165 501.993 249.275 501.781 249.381 501.455C249.696 500.512 249.748 498.808 249.818 498.348C250.054 496.477 250.45 494.624 250.716 492.745C250.902 491.449 251.015 490.142 251.043 488.835C251.103 485.072 250.868 481.325 250.292 477.618C249.431 472.09 247.878 466.661 246.189 461.314C244.827 457.019 242.693 452.933 240.189 448.963C234.588 440.088 227.117 431.808 222.702 422.96C219.309 416.169 214.879 410.821 210.873 405.611C209.028 403.216 207.26 400.859 205.773 398.363C204.53 396.276 203.47 394.096 202.689 391.742C202.623 391.528 202.394 391.404 202.178 391.465C201.961 391.526 201.839 391.749 201.905 391.963C202.946 395.64 204.634 398.949 206.685 402.144C211.01 408.893 216.894 415.154 220.969 423.753C225.245 432.729 232.59 441.193 238.06 450.213C240.375 454.027 242.343 457.944 243.567 462.054C244.88 466.428 246 470.872 246.885 475.346C247.76 479.787 248.412 484.267 248.495 488.799C248.521 489.715 248.485 490.627 248.438 491.543C248.321 493.761 248.089 495.976 248.017 498.182C248.018 498.647 247.924 500.321 248.048 501.305C248.084 501.592 248.341 501.848 248.213 501.892C248.125 501.925 248.353 501.953 248.346 501.915C248.32 501.778 248.411 501.824 248.504 501.85ZM248.607 501.853C248.613 501.848 248.621 501.845 248.627 501.84C248.654 501.824 248.66 501.842 248.669 501.872C248.65 501.861 248.628 501.855 248.607 501.853Z" fill="#B5BDA6"/>
<path fill-rule="evenodd" clip-rule="evenodd" d="M241.805 452.225C241.695 452.304 241.675 452.462 241.757 452.571C241.841 452.684 242.002 452.706 242.111 452.627C242.833 452.227 243.299 451.262 243.521 450.032C243.919 447.815 243.459 444.804 243.336 443.548C243.113 441.172 242.939 438.864 242.612 436.59C242.272 434.243 241.802 431.938 241.194 429.659C240.389 426.658 239.287 423.708 237.837 420.725C233.54 411.746 228.135 402.953 221.98 394.691C215.836 386.45 208.94 378.734 201.441 372.051C199.645 370.448 197.772 368.939 195.854 367.483C190.536 363.457 184.891 359.82 179.485 355.906C177.178 354.239 174.903 352.543 172.744 350.697C172.476 350.46 172.068 350.479 171.835 350.737C171.598 350.996 171.623 351.394 171.891 351.632C173.655 353.264 175.485 354.817 177.387 356.289C184.906 362.097 193.243 366.924 200.315 373.275C207.697 379.903 214.545 387.504 220.512 395.723C226.471 403.943 231.542 412.771 235.586 421.708C236.871 424.59 237.753 427.445 238.507 430.304C239.091 432.518 239.559 434.74 240.037 436.991C240.507 439.22 241.018 441.462 241.494 443.786C241.734 444.962 242.308 447.764 242.315 449.911C242.315 450.914 242.282 451.769 241.805 452.225Z" fill="#B5BDA6"/>
<path fill-rule="evenodd" clip-rule="evenodd" d="M241.543 460.026C241.617 460.137 241.77 460.171 241.882 460.099C241.996 460.023 242.024 459.874 241.949 459.763C241.656 459.156 241.26 458.634 240.731 458.182C240.251 457.768 239.658 457.462 239.041 457.159C237.284 456.291 235.178 455.686 233.35 454.958C232.592 454.658 231.888 454.348 231.314 453.932C229.225 452.42 227.303 450.648 225.454 448.779C222.636 445.941 220.015 442.858 217.472 439.934C216.141 438.421 214.885 436.83 213.669 435.2C210.794 431.343 208.143 427.266 205.364 423.406C203.326 420.648 201.341 417.876 199.371 415.103C196.406 410.926 193.51 406.738 190.853 402.391C187.925 397.598 185.254 392.649 182.968 387.423C180.815 382.472 179.239 377.811 177.928 373.168C175.92 366.047 174.521 358.979 172.498 351.044C172.451 350.84 172.246 350.714 172.044 350.758C171.838 350.8 171.713 351 171.763 351.203C173.566 359.2 174.801 366.302 176.588 373.494C177.767 378.238 179.181 383.017 181.182 388.111C183.82 394.878 187.065 401.241 190.733 407.385C194.387 413.509 198.465 419.401 202.646 425.299C205.068 428.591 207.383 432.052 209.849 435.383C211.529 437.652 213.283 439.856 215.169 441.923C217.842 444.819 220.574 447.906 223.56 450.673C225.595 452.561 227.748 454.296 230.036 455.768C230.79 456.253 231.691 456.649 232.684 456.934C234.551 457.474 236.722 457.696 238.556 458.326C239.123 458.523 239.642 458.77 240.13 459.037C240.656 459.322 241.144 459.601 241.543 460.026Z" fill="#B5BDA6"/>
<path fill-rule="evenodd" clip-rule="evenodd" d="M275.62 464.102C275.483 464.093 275.361 464.199 275.354 464.334C275.348 464.472 275.453 464.591 275.594 464.599C276.763 464.875 278.168 464.667 279.647 464.065C282.533 462.891 285.436 460.292 287.119 459.099C289.408 457.371 292.015 455.882 294.714 454.471C298.8 452.34 303.114 450.441 307.079 448.626C314.186 445.125 321.699 442.642 328.94 439.513C332.093 438.15 335.194 436.67 338.191 434.939C345.423 430.79 352.255 425.194 358.292 418.84C364.285 412.533 369.501 405.48 373.405 398.236C374.282 396.621 375.005 394.893 375.645 393.113C377.097 389.074 378.119 384.759 379.586 380.877C379.685 380.612 379.549 380.318 379.282 380.217C379.016 380.115 378.718 380.243 378.618 380.504C377.113 384.377 376.05 388.683 374.557 392.714C373.918 394.43 373.201 396.1 372.334 397.656C368.371 404.732 363.165 411.65 357.111 417.729C351.064 423.801 344.177 429.032 336.982 432.874C334.011 434.454 330.944 435.78 327.833 436.994C320.42 439.887 312.759 442.131 305.467 445.403C301.486 447.328 297.114 449.287 293.061 451.604C290.264 453.199 287.627 454.974 285.311 456.93C284.03 458.085 281.922 460.232 279.749 461.851C279.079 462.349 278.402 462.776 277.763 463.153C276.995 463.61 276.339 464.012 275.62 464.102Z" fill="#B5BDA6"/>
<path fill-rule="evenodd" clip-rule="evenodd" d="M310.352 448.633C311.844 448.148 314.379 447.465 314.792 447.421C316.14 447.197 317.506 447.081 318.881 447.018C322.154 446.864 325.475 447.031 328.716 446.931C331.368 446.837 334.014 446.788 336.648 446.675C342.9 446.404 349.089 445.941 355.181 444.941C360.979 443.988 366.684 442.507 372.265 440.111C384.756 434.804 392.745 424.791 397.956 412.851C401.656 404.376 403.999 394.941 405.485 385.539C407.04 375.701 407.672 365.914 408.227 357.376C408.251 357.049 407.999 356.759 407.664 356.729C407.329 356.699 407.037 356.942 407.012 357.27C406.316 365.755 405.453 375.471 403.81 385.25C402.255 394.495 400.014 403.809 396.333 412.142C391.259 423.626 383.523 433.259 371.452 438.303C365.999 440.563 360.432 441.912 354.789 442.778C348.769 443.706 342.656 444.026 336.493 444.348C333.86 444.485 331.222 444.652 328.573 444.814C325.334 445.025 322.005 444.978 318.733 445.243C317.294 445.36 315.867 445.534 314.463 445.817C313.938 445.953 310.159 447.504 309.147 448.195C308.434 448.681 308.331 449.492 310.167 448.978C310.305 448.955 310.395 448.825 310.371 448.692C310.366 448.669 310.36 448.651 310.352 448.633Z" fill="#B5BDA6"/>
<path fill-rule="evenodd" clip-rule="evenodd" d="M323.049 440.641C323.03 440.646 323.011 440.652 322.992 440.661C322.956 440.683 322.925 440.708 322.903 440.742C322.938 440.72 322.992 440.697 323.043 440.675C323.017 440.778 322.975 440.83 322.905 440.81C322.891 440.806 322.881 440.8 322.875 440.794C322.853 440.861 322.855 440.932 322.891 440.998C322.842 441.269 322.995 441.306 323.059 441.384C323.231 441.6 323.522 441.486 323.725 441.116C323.912 440.77 323.821 439.048 324.096 438.413L327.433 431.372C329.156 427.842 331.007 424.441 332.97 421.104C334.933 417.764 337.01 414.491 339.211 411.24C343.082 405.38 347.607 400.058 352.27 394.849C359.336 386.957 366.766 379.363 373.287 371.08C376.015 367.612 378.578 364.022 380.866 360.216C380.992 360.016 380.923 359.747 380.715 359.621C380.505 359.492 380.234 359.556 380.109 359.76C377.759 363.479 375.143 366.979 372.36 370.351C365.657 378.465 357.947 385.764 350.795 393.552C346.001 398.774 341.48 404.228 337.553 410.163C335.403 413.493 333.37 416.837 331.47 420.256C329.571 423.675 327.804 427.165 326.16 430.773C325.407 432.425 324.601 434.092 323.905 435.792C323.602 436.527 323.328 437.27 323.071 438.016C322.887 438.557 323.146 440.116 323.049 440.641ZM322.903 440.742C322.873 440.763 322.858 440.779 322.875 440.794C322.882 440.776 322.891 440.757 322.903 440.742ZM323.132 440.634C323.142 440.631 323.15 440.624 323.156 440.623C323.25 440.556 323.459 440.742 323.459 440.742C323.459 440.742 323.404 440.797 323.337 440.768C323.293 440.688 323.216 440.642 323.132 440.634Z" fill="#B5BDA6"/>
<path fill-rule="evenodd" clip-rule="evenodd" d="M300.255 409.201C300.322 409.318 300.477 409.363 300.599 409.3C300.721 409.234 300.764 409.081 300.695 408.96C300.601 408.646 300.576 408.336 300.513 407.997C300.382 407.296 300.296 406.554 300.247 405.758C300.08 403.078 300.288 400.008 299.812 397.748C298.63 393.045 296.968 388.577 294.825 384.325C292.691 380.091 290.085 376.081 287.194 372.177C283.099 366.647 278.744 361.118 274.216 355.726C269.688 350.334 264.988 345.082 260.144 340.157C250.304 330.127 240.195 320.623 231.221 310.14C225.293 303.206 219.843 295.849 215.346 287.581C215.249 287.396 215.018 287.32 214.833 287.417C214.646 287.509 214.574 287.734 214.671 287.919C219.07 296.319 224.413 303.831 230.306 310.884C239.171 321.493 249.263 331.058 259.045 341.188C263.809 346.133 268.444 351.382 272.867 356.796C277.293 362.217 281.504 367.802 285.478 373.371C288.225 377.22 290.629 381.201 292.696 385.33C294.756 389.445 296.484 393.714 297.686 398.248C298.449 400.715 298.129 404.362 299.056 407.081C299.338 407.911 299.754 408.6 300.255 409.201Z" fill="#B5BDA6"/>
<path fill-rule="evenodd" clip-rule="evenodd" d="M280.332 364.953C280.428 365.114 280.638 365.171 280.798 365.078C280.961 364.988 281.015 364.784 280.919 364.623C280.583 364.024 279.624 363.516 278.417 363.123C276.227 362.405 273.205 362.01 272.19 361.815C266.934 360.907 261.725 360.179 256.694 358.774C253.409 357.86 250.203 356.651 247.115 354.911C241.873 351.978 236.356 348.189 231.059 343.904C227.719 341.2 224.464 338.301 221.47 335.231C216.26 329.895 211.805 324.082 209.008 318.025C207.089 313.966 205.713 309.691 204.632 305.32C202.993 298.7 202.016 291.885 200.833 285.309C200.789 285.033 200.523 284.84 200.242 284.879C199.962 284.917 199.768 285.173 199.814 285.452C200.765 292.094 201.518 298.972 202.925 305.669C203.876 310.201 205.132 314.651 206.953 318.893C210.406 326.738 216.391 334.358 223.499 340.903C230.546 347.393 238.675 352.812 246.114 356.737C249.408 358.447 252.801 359.604 256.268 360.451C261.395 361.704 266.676 362.284 272.012 363.032C272.893 363.141 275.285 363.284 277.336 363.7C278.715 363.981 279.947 364.344 280.332 364.953Z" fill="#B5BDA6"/>
<path fill-rule="evenodd" clip-rule="evenodd" d="M278.705 363.338C278.737 363.47 278.875 363.555 279.011 363.525C279.147 363.494 279.231 363.362 279.197 363.228C279.195 362.947 279.28 362.675 279.312 362.345C279.421 361.264 279.58 359.932 279.692 358.681C279.761 357.919 279.765 357.185 279.665 356.543C279.152 353.287 278.387 349.809 277.41 346.387C276.43 342.955 275.236 339.582 273.91 336.535C269.843 327.496 262.88 318.869 254.652 311.052C242.58 299.586 227.799 289.86 215.628 283.062C215.423 282.947 215.167 283.015 215.053 283.212C214.939 283.409 215.014 283.664 215.216 283.78C227.242 290.662 241.823 300.493 253.707 312.004C261.706 319.753 268.485 328.26 272.392 337.164C273.739 340.136 274.947 343.429 275.973 346.777C276.999 350.125 277.845 353.531 278.425 356.728C278.715 358.214 278.196 360.306 278.341 361.941C278.387 362.474 278.527 362.935 278.705 363.338Z" fill="#B5BDA6"/>
<path fill-rule="evenodd" clip-rule="evenodd" d="M305.416 359.19C305.347 359.173 305.361 359.177 305.416 359.19ZM305.416 359.19C305.441 359.195 305.474 359.202 305.513 359.211C305.461 359.261 305.43 359.33 305.437 359.409C305.378 359.57 305.559 359.583 305.626 359.64C305.655 359.664 305.75 359.641 305.956 359.519C306.042 359.47 306.206 359.4 306.408 359.179C307.222 358.283 308.492 355.636 308.92 355.05C309.791 353.773 310.719 352.533 311.696 351.331C312.673 350.13 313.697 348.966 314.753 347.831L333.58 327.33C345.863 314.021 359.049 299.76 366.807 283.468C372.03 272.499 374.792 260.619 373.241 247.539C373.21 247.259 372.957 247.053 372.676 247.08C372.394 247.104 372.19 247.35 372.221 247.63C373.495 260.472 370.534 272.046 365.243 282.714C357.306 298.715 344.107 312.68 331.781 325.7C329.245 328.424 326.725 331.164 324.263 333.956C320.579 338.139 317 342.409 313.363 346.626C312.331 347.832 311.333 349.064 310.383 350.334C309.43 351.606 308.522 352.908 307.678 354.249C307.466 354.59 306.959 355.494 306.504 356.465C306.112 357.301 305.678 358.15 305.534 358.703C305.467 358.959 305.582 359.219 305.494 359.204C305.46 359.197 305.435 359.193 305.416 359.19Z" fill="#B5BDA6"/>
</g>
<path fill-rule="evenodd" clip-rule="evenodd" d="M260.832 559.247C260.699 559.201 260.555 559.271 260.508 559.401C260.465 559.532 260.536 559.674 260.664 559.716C260.801 559.778 261.974 559.674 263.833 559.282C265.045 559.025 266.55 558.633 268.257 558.179C278.309 555.513 295.217 550.442 297.416 549.701C307.328 546.24 317.314 545.325 327.054 545.433C343.439 545.613 359.161 548.798 372.626 549.059C373.028 549.071 373.364 548.76 373.376 548.364C373.388 547.968 373.071 547.638 372.669 547.626C359.185 547.104 343.503 543.416 327.089 543.12C317.088 542.94 306.837 544.061 296.675 547.669L260.832 559.247Z" fill="#4B5C49"/>
<path fill-rule="evenodd" clip-rule="evenodd" d="M360.23 250.792C360.161 250.767 360.085 250.802 360.06 250.869C360.034 250.937 360.069 251.012 360.138 251.037C360.638 251.218 360.932 251.183 361.103 251.085C361.298 250.972 361.398 250.747 361.371 250.397C361.305 249.543 360.341 248.015 360.082 247.272C359.527 245.69 358.813 244.232 358.01 242.821C357.768 242.395 357.524 241.971 357.259 241.557C356.227 239.944 355.046 238.417 353.918 236.803C350.804 232.387 347.32 228.105 343.564 224.06C339.815 220.022 335.796 216.223 331.715 212.673C316.69 199.674 304.1 189.105 289.09 182.599C279.217 178.321 268.303 175.793 254.95 175.504C254.802 175.5 254.673 175.617 254.669 175.765C254.665 175.914 254.786 176.038 254.934 176.042C268.171 176.479 278.968 179.095 288.704 183.453C303.531 190.091 315.891 200.763 330.647 213.859C334.662 217.4 338.579 221.216 342.296 225.206C346.011 229.192 349.532 233.352 352.652 237.68C353.804 239.264 354.951 240.799 356.066 242.345C356.345 242.732 356.632 243.11 356.906 243.501C357.804 244.782 358.626 246.113 359.305 247.579C359.599 248.212 360.468 249.418 360.798 250.252C360.844 250.369 360.87 250.479 360.9 250.572C360.936 250.688 361.016 250.764 360.981 250.838C360.909 250.987 360.661 250.948 360.23 250.792Z" fill="#4B5C49"/>
<path fill-rule="evenodd" clip-rule="evenodd" d="M399.721 388.913C399.463 388.928 399.267 389.147 399.283 389.404C399.299 389.658 399.521 389.85 399.779 389.835C401.004 389.804 402.212 389.646 403.417 389.427C406.114 388.939 408.778 388.144 411.546 387.902C418.551 387.145 425.341 386.642 432.088 385.555C436.601 384.829 441.092 383.834 445.616 382.374C453.54 379.742 462.549 373.089 470.068 365.037C477.527 357.046 483.516 347.703 485.686 339.759C487.271 333.873 488.396 326.286 488.817 318.776C489.253 310.992 488.937 303.294 487.572 297.658C487.529 297.474 487.343 297.358 487.156 297.401C486.969 297.443 486.852 297.627 486.895 297.808C488.13 303.405 488.292 311.023 487.692 318.703C487.114 326.102 485.825 333.558 484.126 339.328C481.893 347.015 475.867 355.947 468.533 363.627C461.198 371.306 452.543 377.741 444.89 380.227C440.491 381.698 436.117 382.693 431.725 383.469C425.03 384.656 418.292 385.321 411.341 386.216C408.145 386.696 405.132 387.887 402.021 388.548C401.261 388.705 400.497 388.84 399.721 388.913Z" fill="#4B5C49"/>
<path fill-rule="evenodd" clip-rule="evenodd" d="M404.965 379.7C404.838 379.696 404.725 379.789 404.708 379.915C404.657 380.042 404.734 380.203 405.066 380.223C405.179 380.227 405.414 380.184 405.743 380.127C405.992 380.081 406.268 380.05 406.564 379.961C407.41 379.704 408.264 379.251 408.314 379.228C409.354 378.755 410.359 378.24 411.323 377.653C412.738 376.784 414.06 375.782 415.432 374.833C418.311 372.831 420.768 370.53 423.004 368.049C426.318 364.372 429.139 360.292 432.182 356.224C434.507 353.066 436.745 349.743 438.805 346.32C440.863 342.893 442.744 339.367 444.444 335.84C445.515 333.604 446.599 331.338 447.757 329.121C448.52 327.657 449.309 326.213 450.178 324.822C452.299 321.419 454.617 318.038 457.091 314.773C459.567 311.507 462.192 308.357 464.99 305.457C465.886 304.531 466.904 303.732 467.983 302.998C470.557 301.242 473.472 299.863 475.999 298.196C476.121 298.123 476.158 297.961 476.082 297.842C476.006 297.723 475.845 297.689 475.724 297.762C473.083 299.279 470.062 300.466 467.379 302.084C466.188 302.802 465.071 303.613 464.069 304.55C461.083 307.35 458.238 310.405 455.58 313.612C452.923 316.82 450.459 320.182 448.176 323.558C447.221 324.972 446.331 326.44 445.498 327.938C444.265 330.154 443.152 332.444 442.03 334.695C440.329 338.134 438.422 341.557 436.4 344.91C434.378 348.268 432.239 351.552 429.984 354.664C427.077 358.736 424.383 362.812 421.21 366.516C419.145 368.928 416.882 371.183 414.201 373.166L407.611 377.956C407.568 377.983 406.773 378.367 406.084 378.832C405.69 379.101 405.384 379.401 405.143 379.57C405.063 379.627 404.974 379.693 404.965 379.7Z" fill="#4B5C49"/>
<path fill-rule="evenodd" clip-rule="evenodd" d="M386.326 330.193C386.295 330.324 386.38 330.458 386.516 330.489C386.652 330.523 386.788 330.439 386.819 330.304C387.054 329.924 387.41 329.667 387.757 329.229C387.935 329.006 388.074 328.737 388.263 328.48C388.905 327.608 389.792 326.705 390.79 325.721C392.038 324.488 393.478 323.17 395.032 321.853C400.314 317.385 406.719 312.875 409.468 310.654C413.587 307.128 417.233 304.058 420.444 301.081C424.315 297.489 427.593 294.058 430.46 290.297C435.585 283.569 439.376 275.781 442.804 263.95C442.913 263.61 442.721 263.247 442.376 263.14C442.03 263.032 441.662 263.222 441.553 263.562C437.599 274.883 433.471 282.221 428.201 288.549C425.273 292.065 421.979 295.249 418.168 298.649C414.924 301.546 411.328 304.611 407.219 308.088C404.183 310.816 396.358 316.736 391.152 322.206C389.104 324.361 387.479 326.455 386.608 328.211C386.548 328.33 386.472 328.441 386.44 328.564C386.308 329.063 386.421 329.455 386.389 329.889C386.381 329.997 386.343 330.093 386.326 330.193Z" fill="#4B5C49"/>
<path fill-rule="evenodd" clip-rule="evenodd" d="M406.772 321.603C406.741 321.572 406.699 321.549 406.651 321.541C406.538 321.526 406.435 321.607 406.42 321.718C406.397 321.833 406.59 322.052 407.076 322.079C407.843 322.118 409.512 322.029 411.546 321.626C413.734 321.196 416.314 320.381 418.65 319.356C423.779 317.07 428.53 314.3 433.021 311.15C437.503 308.007 441.718 304.485 445.831 300.754C452.457 294.554 458.573 287.342 463.305 279.357C468.033 271.382 471.378 262.651 472.668 253.516C473.298 249.035 473.568 244.506 473.624 239.961C473.708 233.197 473.341 226.406 473.225 219.695C473.225 219.495 473.06 219.334 472.858 219.334C472.655 219.334 472.491 219.495 472.491 219.695C472.375 226.393 472.464 233.178 472.187 239.923C472.003 244.4 471.665 248.859 470.944 253.261C469.499 262.113 466 270.493 461.301 278.187C456.579 285.92 450.635 292.967 444.137 298.983C440.189 302.756 436.117 306.298 431.807 309.521C427.503 312.736 422.965 315.637 418.023 318.049C416.591 318.752 415.05 319.352 413.577 319.836C412.936 320.047 412.303 320.22 411.707 320.404C409.783 321 408.181 321.468 407.301 321.588C407.042 321.622 406.83 321.557 406.772 321.603Z" fill="#4B5C49"/>
<path fill-rule="evenodd" clip-rule="evenodd" d="M402.362 304.815C402.356 304.811 402.349 304.811 402.343 304.807C402.233 304.784 402.122 304.85 402.096 304.957C401.88 305.675 401.797 306.121 401.752 306.34C401.682 306.674 401.898 306.778 401.974 306.824C402.058 306.87 402.193 306.843 402.377 306.709C402.505 306.613 402.74 306.294 403.025 305.798C403.317 305.291 403.654 304.581 404.016 303.77C405.482 300.482 407.321 295.526 407.331 295.503C409.494 290.482 411.434 285.649 413.797 280.954C415.337 277.896 417.046 274.889 419.183 271.955C422.57 267.274 426.348 262.651 430.354 258.233C434.363 253.812 438.601 249.595 442.969 245.788C448.82 240.634 455.179 235.937 461.067 230.784C465.032 227.314 468.783 223.639 472.032 219.489C472.208 219.271 472.17 218.953 471.948 218.78C471.726 218.608 471.404 218.645 471.229 218.864C468.759 221.88 466.016 224.625 463.119 227.217C456.327 233.295 448.695 238.531 441.739 244.402C437.273 248.213 432.912 252.421 428.824 256.876C424.739 261.328 420.927 266.026 417.49 270.763C415.298 273.802 413.51 276.897 411.971 280.079C409.664 284.846 407.892 289.79 405.85 294.903C405.84 294.93 404.087 299.928 402.885 303.328C402.692 303.878 402.514 304.377 402.362 304.815ZM401.946 306.202C401.925 306.248 401.901 306.271 401.872 306.252C401.804 306.209 401.864 306.202 401.946 306.202Z" fill="#4B5C49"/>
<path fill-rule="evenodd" clip-rule="evenodd" d="M382.282 285.023C382.273 285.121 382.337 285.213 382.437 285.238C382.546 285.265 382.651 285.242 382.687 285.087C382.691 285.072 382.675 285.037 382.685 284.98C382.696 284.924 382.773 284.94 382.793 284.763C382.804 284.665 382.725 284.538 382.676 284.378C382.284 283.098 381.279 279.974 381.127 279.528C380.716 278.36 380.206 277.218 379.61 276.112C378.728 274.475 377.666 272.925 376.592 271.439C374.21 268.269 371.524 265.329 368.668 262.541C364.433 258.407 359.832 254.601 355.405 250.76C348.948 245.282 342.722 239.588 336.26 234.147C333.481 231.807 330.655 229.514 327.755 227.302C321.815 222.785 316.666 219.731 311.724 215.949C308.551 213.52 305.464 210.788 302.303 207.159C299.672 204.194 296.69 201.511 294.009 198.598C292.867 197.361 291.783 196.084 290.809 194.721C290.657 194.5 290.349 194.442 290.127 194.592C289.904 194.742 289.842 195.043 289.998 195.263C290.945 196.696 292.009 198.046 293.132 199.354C295.708 202.344 298.6 205.105 301.126 208.142C304.31 211.907 307.436 214.751 310.652 217.288C315.536 221.139 320.634 224.272 326.5 228.877C329.349 231.105 332.113 233.416 334.837 235.768C341.23 241.287 347.39 247.047 353.78 252.598C358.217 256.366 362.805 260.114 367.074 264.153C369.896 266.823 372.584 269.614 374.967 272.652C375.895 273.791 376.802 274.984 377.64 276.22C378.473 277.446 379.242 278.707 379.849 280.032C380.05 280.455 381.393 283.427 381.936 284.642C382.004 284.796 382.029 284.942 382.1 285.006C382.184 285.082 382.218 285.108 382.259 285.052C382.267 285.042 382.275 285.032 382.282 285.023Z" fill="#4B5C49"/>
<path fill-rule="evenodd" clip-rule="evenodd" d="M368.666 209.156C368.552 209.156 368.461 209.247 368.461 209.358C368.461 209.47 368.552 209.56 368.666 209.56C368.904 209.61 369.164 209.348 369.337 208.903C369.552 208.354 369.598 207.504 369.633 207.378C369.934 206.154 370.205 204.935 370.401 203.7C370.598 202.454 370.712 201.199 370.758 199.925C370.87 197.214 370.944 194.54 370.858 191.881C370.771 189.18 370.545 186.503 370.203 183.842C369.522 178.554 368.336 173.336 366.692 168.079C364.323 160.572 360.902 153.569 356.872 146.906C350.855 136.961 343.444 127.786 335.8 119.047C329.572 111.851 322.587 105.235 316.164 98.1652C313.431 95.1545 310.796 92.0616 308.376 88.8028C306.224 85.9292 304.513 82.8736 302.962 79.7434C300.604 74.9824 298.655 70.0267 296.539 65.0667C296.422 64.7759 296.086 64.6346 295.79 64.7506C295.494 64.867 295.354 65.1977 295.471 65.4886C297.42 70.5495 299.135 75.6355 301.415 80.4702C302.954 83.7252 304.763 86.8539 306.969 89.8223C309.436 93.1177 312.114 96.246 314.897 99.2874C321.34 106.323 328.356 112.895 334.608 120.054C342.138 128.76 349.514 137.852 355.351 147.787C359.214 154.363 362.381 161.314 364.551 168.712C366.078 173.869 367.054 178.994 367.744 184.155C368.092 186.76 368.357 189.374 368.584 192.011C368.809 194.625 369.028 197.252 369.138 199.925C369.173 200.899 369.154 201.862 369.106 202.824C369.033 204.289 368.893 205.741 368.69 207.204L368.666 209.156Z" fill="#4B5C49"/>
<path fill-rule="evenodd" clip-rule="evenodd" d="M347.536 200.172C347.654 200.195 347.769 200.119 347.793 200.003C347.816 199.886 347.739 199.773 347.621 199.749C346.976 199.581 346.394 198.983 345.82 198.237C344.569 196.611 343.473 194.226 342.779 193.134C341.016 190.47 339.375 187.717 337.788 184.927C335.407 180.734 333.17 176.453 330.944 172.211C328.933 168.421 327.034 164.583 325.167 160.735C320.798 151.725 316.674 142.612 312.363 133.55C307.788 124.221 303.582 114.514 300.203 104.552C296.819 94.5898 294.262 84.3757 293.019 74.0201C292.992 73.7904 292.785 73.6233 292.551 73.6478C292.318 73.6724 292.15 73.8791 292.173 74.1092C293.183 84.57 295.506 94.9225 298.69 105.033C301.871 115.142 305.913 125.003 310.325 134.496C314.039 142.259 317.559 150.085 321.317 157.805C323.827 162.965 326.454 168.07 329.241 173.109C331.595 177.305 333.941 181.55 336.463 185.685C338.151 188.452 339.916 191.166 341.791 193.794C342.571 194.845 343.816 197.204 345.238 198.718C345.982 199.51 346.773 200.07 347.536 200.172Z" fill="#4B5C49"/>
<path fill-rule="evenodd" clip-rule="evenodd" d="M355.196 263.103C355.249 263.201 355.374 263.239 355.474 263.187C355.574 263.135 355.612 263.012 355.559 262.914C355.457 262.493 354.995 262.198 354.379 262.018C353.719 261.825 352.905 261.881 352.501 261.849C352.012 261.817 351.542 261.745 351.076 261.67C349.069 261.348 347.214 260.721 345.177 260.377C342.181 259.891 339.153 258.807 336.144 257.533C331.61 255.615 327.148 253.194 323.215 251.014C321.071 249.834 318.892 248.453 316.764 246.995C314.624 245.526 312.539 243.977 310.602 242.469C307.526 240.005 304.12 237.874 300.92 235.518C299.602 234.546 298.312 233.54 297.112 232.438C294.8 230.386 292.68 228.188 290.614 225.956C289.219 224.446 287.824 222.944 286.502 221.372C283.185 217.428 280.153 213.257 277.124 209.04C275.133 206.184 273.063 203.404 271.274 200.457C270.101 198.518 269.048 196.508 268.222 194.359C266.647 190.245 263.408 186.519 261.506 182.394C260.707 180.666 260.13 178.873 260.072 176.915C260.072 176.754 259.935 176.623 259.776 176.623C259.612 176.623 259.479 176.754 259.479 176.915C259.413 178.976 259.869 180.911 260.629 182.764C262.34 186.935 265.556 190.671 267.021 194.79C267.813 197.036 268.846 199.143 270.003 201.182C271.718 204.205 273.718 207.075 275.643 210.015C279.019 215.336 282.46 220.551 286.3 225.496C287.075 226.496 287.843 227.499 288.665 228.463C290.583 230.703 292.68 232.802 294.89 234.827C296.2 235.991 297.591 237.064 299.033 238.074C302.265 240.333 305.734 242.304 308.867 244.647C310.855 246.179 312.991 247.752 315.185 249.243C317.395 250.744 319.66 252.163 321.886 253.375C325.928 255.56 330.468 258.094 335.165 259.888C338.404 261.125 341.712 261.993 344.915 262.317C346.707 262.494 348.372 262.948 350.118 263.124C350.896 263.202 351.683 263.219 352.501 263.165C352.856 263.141 353.532 263.092 354.144 263.052C354.381 263.036 354.583 262.969 354.781 262.989C354.953 263.007 355.102 263.001 355.196 263.103Z" fill="#4B5C49"/>
<path fill-rule="evenodd" clip-rule="evenodd" d="M161.023 612.961C160.964 613.088 161.023 613.234 161.151 613.292C161.28 613.346 161.428 613.288 161.486 613.161C161.927 612.324 162.391 611.509 162.839 610.679C164.624 607.356 166.483 604.103 168.553 600.975C172.4 595.152 176.816 589.696 181.918 584.687C189.897 576.846 199.446 570.031 210.555 564.272C218.19 560.231 226.134 556.07 233.964 551.895C239.234 549.082 244.449 546.259 249.493 543.485C269.251 532.644 289.671 520.52 308.025 506.225C320.346 496.629 331.739 486.056 341.354 474.216C352.505 460.386 360.069 447.002 365.868 432.83C371.638 418.728 375.664 403.841 379.527 386.861C381.316 379.009 383.302 371.36 384.88 363.588C385.934 358.402 386.806 353.158 387.318 347.768C389.973 320.12 386.92 291.895 380.518 264.101C379.574 260.002 378.56 255.912 377.455 251.842C367.317 214.542 351.636 178.429 337.379 145.673C337.332 145.557 337.196 145.502 337.079 145.55C336.958 145.599 336.903 145.732 336.954 145.848C350.443 178.821 364.911 215.262 374.568 252.585C375.617 256.638 376.635 260.695 377.584 264.762C383.997 292.264 387.374 320.162 384.952 347.553C384.476 352.87 383.643 358.037 382.63 363.15C381.092 370.911 379.139 378.552 377.389 386.392C373.62 403.265 369.762 418.098 364.013 432.093C358.269 446.072 350.64 459.207 339.542 472.787C330.043 484.501 318.794 494.973 306.606 504.454C288.345 518.664 267.992 530.662 248.324 541.407L209.382 562.117C198.172 568.168 188.548 575.252 180.574 583.381C175.483 588.571 171.016 594.157 167.314 600.211C165.333 603.446 163.529 606.796 162.04 610.307C161.67 611.183 161.35 612.07 161.023 612.961Z" fill="#4B5C49"/>
<path fill-rule="evenodd" clip-rule="evenodd" d="M225.039 554.541C225.031 554.484 225.027 554.426 225.027 554.369C225.027 554.238 225.089 554.1 225.132 553.942C225.175 553.812 225.105 553.669 224.969 553.631C224.836 553.589 224.696 553.662 224.653 553.792C224.606 553.934 224.591 554.073 224.54 554.188C224.248 554.849 224.205 555.214 224.298 555.471C224.47 555.936 225.148 556.086 226.029 555.517C226.493 555.218 227.058 554.603 227.674 553.715C229.007 551.806 230.503 548.487 231.423 543.869C231.934 541.057 232.359 538.495 232.557 536.032C232.706 534.204 232.737 532.433 232.639 530.673C232.402 526.501 231.45 522.402 229.58 517.665C227.144 511.392 224.505 505.28 221.975 499.179C218.132 489.91 214.468 480.69 211.401 471.251C209.374 465 207.682 458.631 206.376 452.069C205.531 447.813 204.821 443.475 204.396 439.008C204.373 438.727 204.124 438.516 203.839 438.539C203.551 438.558 203.336 438.804 203.36 439.088C203.632 443.61 204.135 448.02 204.903 452.338C206.084 458.988 207.846 465.411 209.861 471.731C212.89 481.224 216.666 490.444 220.346 499.817C222.751 505.945 225.086 512.153 227.299 518.484C228.519 522.045 229.186 525.21 229.474 528.311C229.611 529.817 229.63 531.303 229.626 532.813C229.619 536.125 229.369 539.551 228.847 543.481C228.504 546.22 227.868 548.479 227.229 550.262C226.621 551.948 226.025 553.201 225.471 553.946C225.316 554.157 225.152 554.43 225.039 554.541ZM225.039 554.541C224.984 554.595 224.941 554.607 224.914 554.561C224.871 554.48 224.945 554.492 225.039 554.541ZM225.039 554.541C225.187 554.622 225.382 554.799 225.261 554.876C225.167 554.933 225.074 554.753 225.039 554.541Z" fill="#4B5C49"/>
<path fill-rule="evenodd" clip-rule="evenodd" d="M227.221 512.233C227.194 512.264 227.171 512.299 227.163 512.341C227.151 512.387 227.506 512.756 227.685 512.422C227.724 512.356 227.744 512.245 227.837 512.145C228.005 511.961 228.274 511.953 228.527 511.676C229.506 510.608 230.344 508.326 230.648 507.466C231.143 506.041 231.45 504.6 231.634 503.133C231.895 501.027 231.906 498.895 232.207 496.782C232.826 492.057 232.647 487.339 232.008 482.664C231.057 475.726 229.081 468.877 227.05 462.253C220.182 438.912 205.332 420.176 199.4 397.902C198.148 393.211 197.326 388.363 197.006 383.281C196.71 378.579 196.835 373.669 197.595 368.486C197.661 368.064 197.365 367.668 196.94 367.607C196.511 367.541 196.11 367.83 196.044 368.252C195.167 373.542 194.89 378.571 195.163 383.388C195.455 388.598 196.383 393.557 197.692 398.348C203.784 420.618 218.818 439.269 225.877 462.592C227.787 469.172 229.685 475.972 230.48 482.852C231.006 487.389 231.041 491.961 230.32 496.517C229.965 498.995 229.915 501.492 229.607 503.962C229.482 504.973 229.334 505.983 229.057 506.982C228.831 507.815 227.619 509.763 227.354 511.1C227.28 511.457 227.436 511.676 227.381 511.915C227.354 512.041 227.276 512.126 227.241 512.187C227.233 512.203 227.225 512.218 227.221 512.233Z" fill="#4B5C49"/>
<path fill-rule="evenodd" clip-rule="evenodd" d="M215.93 510.032C215.883 510.163 215.953 510.305 216.086 510.347C216.218 510.393 216.362 510.324 216.409 510.193C216.885 509.172 216.425 508.15 215.485 507.235C213.86 505.649 210.66 504.5 209.697 503.793C206.758 501.703 203.843 498.592 201.329 495.184C198.826 491.788 196.729 488.085 195.455 484.777C193.576 480.006 192.083 475.296 190.887 470.636C188.992 463.264 187.94 455.992 187.675 448.689C187.242 436.706 188.903 424.636 192.723 411.997C192.847 411.613 192.629 411.206 192.243 411.083C191.853 410.964 191.44 411.175 191.316 411.559C187.001 424.306 184.748 436.545 184.958 448.762C185.087 456.268 186.143 463.767 188.143 471.331C189.406 476.091 191.082 480.862 193.101 485.703C194.566 489.137 196.893 492.956 199.664 496.425C202.432 499.894 205.624 503.021 208.785 505.088C209.791 505.722 212.948 506.728 214.764 508.061C215.544 508.634 216.113 509.225 215.93 510.032Z" fill="#4B5C49"/>
<path fill-rule="evenodd" clip-rule="evenodd" d="M193.308 574.737C193.545 574.695 193.9 574.645 194.231 574.629C194.734 574.606 195.303 574.676 195.95 574.672C197.193 574.668 198.628 574.591 200.015 574.599C202.771 574.614 205.293 574.725 205.57 574.741C209.549 574.894 213.466 575.359 217.399 575.751C220.046 576.012 222.696 576.22 225.347 576.447C228.212 576.689 231.076 576.892 233.957 577.05C251.808 577.933 262.648 577.541 273.156 574.679C283.278 571.925 293.093 566.873 308.629 558.41C308.933 558.253 309.05 557.88 308.89 557.58C308.727 557.281 308.349 557.165 308.045 557.323C292.423 565.125 282.577 569.781 272.497 572.163C262.157 574.603 251.586 574.614 234.218 573.189C228.5 572.782 222.848 571.994 217.154 571.652C213.307 571.422 209.456 571.449 205.57 571.602C205.137 571.625 199.357 571.783 195.627 572.586C194.216 572.889 193.132 573.312 192.598 573.665C192.185 573.942 191.974 574.211 191.971 574.468C191.971 574.752 192.095 575.194 192.797 575.452C193.015 575.567 193.288 575.482 193.401 575.271C193.502 575.087 193.456 574.868 193.308 574.737Z" fill="#4B5C49"/>
<path fill-rule="evenodd" clip-rule="evenodd" d="M231.953 578.686C231.977 578.609 231.965 578.525 231.914 578.46C231.829 578.352 231.669 578.329 231.56 578.413C231.123 578.59 231.135 578.89 231.154 579.078C231.178 579.293 231.455 579.535 231.985 579.716C232.975 580.046 235.165 580 236.116 580.342C238.665 581.133 241.203 581.871 243.725 582.693C245.381 583.235 247.03 583.815 248.663 584.468C253.329 586.296 257.947 587.472 262.64 588.133C269.563 589.105 276.629 588.986 284.179 588.59C290.01 588.275 295.611 586.681 300.963 584.383C308.871 580.987 316.238 576.062 323.035 571.602C331.887 565.774 339.854 560.892 348.302 557.146C351.806 555.59 355.4 554.257 359.162 553.082C364.402 551.445 369.974 550.131 376.199 549.317C376.71 549.263 377.078 548.806 377.021 548.306C376.965 547.803 376.504 547.438 375.994 547.496C367.301 548.295 359.755 549.939 352.725 552.467C341.954 556.339 332.405 562.19 321.504 569.339C314.842 573.723 307.624 578.571 299.867 581.913C294.816 584.088 289.534 585.624 284.027 585.931C277.911 586.281 272.123 586.396 266.456 585.962C260.73 585.524 255.129 584.525 249.435 582.47C247.731 581.867 246.02 581.345 244.298 580.861C241.737 580.138 239.164 579.497 236.576 578.801C236.136 578.702 235.489 578.652 234.795 578.648C233.867 578.648 232.854 578.655 232.211 578.659C232.125 578.663 232.031 578.671 231.953 578.686Z" fill="#4B5C49"/>
<path fill-rule="evenodd" clip-rule="evenodd" d="M277.775 526.935C277.744 526.932 277.716 526.935 277.685 526.943C277.549 526.978 277.471 527.116 277.506 527.247C277.342 527.504 277.67 527.369 277.798 527.485C277.872 527.55 277.884 527.481 278.219 527.32C278.367 527.25 278.535 527.077 278.734 526.793C279.314 525.975 279.868 524.358 280.071 523.935C280.85 522.206 281.778 520.539 282.588 518.81C283.15 517.619 283.645 516.398 284.058 515.153C285.227 511.565 286.108 507.911 286.65 504.204C287.457 498.676 287.57 493.056 287.527 487.478C287.488 482.995 286.646 478.504 285.414 474.024C282.659 464.009 277.931 454.059 276.305 444.39C275.054 436.968 272.38 430.648 270.073 424.575C269.009 421.782 268.007 419.046 267.317 416.254C266.74 413.918 266.366 411.544 266.312 409.077C266.312 408.855 266.128 408.674 265.902 408.674C265.676 408.674 265.493 408.855 265.493 409.077C265.407 412.881 266.05 416.507 267.076 420.122C269.235 427.755 273.035 435.343 274.407 444.682C275.861 454.436 280.414 464.528 283.002 474.647C284.097 478.926 284.83 483.21 284.791 487.478C284.759 492.022 284.522 496.582 284.05 501.108C283.578 505.599 282.881 510.067 281.622 514.431C281.376 515.314 281.072 516.179 280.757 517.043C279.989 519.137 279.112 521.196 278.391 523.29C278.254 523.735 277.67 525.314 277.498 526.29C277.447 526.574 277.619 526.889 277.482 526.897C277.389 526.905 277.599 526.993 277.603 526.955C277.619 526.816 277.693 526.885 277.775 526.935ZM277.872 526.966C277.88 526.962 277.888 526.962 277.896 526.958C277.927 526.951 277.927 526.97 277.927 527.001C277.911 526.985 277.892 526.974 277.872 526.966Z" fill="#4B5C49"/>
<path fill-rule="evenodd" clip-rule="evenodd" d="M286.003 477.586C285.874 477.632 285.808 477.778 285.855 477.904C285.902 478.035 286.05 478.1 286.178 478.054C286.989 477.866 287.722 477.067 288.299 475.949C289.336 473.932 289.784 470.924 290.037 469.687C290.524 467.351 291.039 465.092 291.397 462.826C291.764 460.486 291.994 458.151 292.083 455.803C292.196 452.711 292.009 449.588 291.499 446.338C290.025 436.576 287.434 426.691 283.965 417.114C280.499 407.56 276.157 398.305 270.931 389.877C269.679 387.856 268.327 385.905 266.916 383.991C262.999 378.698 258.653 373.688 254.619 368.479C252.896 366.258 251.212 364.019 249.684 361.668C249.497 361.368 249.099 361.276 248.799 361.46C248.495 361.645 248.402 362.033 248.589 362.332C249.801 364.372 251.099 366.354 252.49 368.279C257.994 375.874 264.573 382.751 269.488 390.745C274.618 399.089 278.948 408.221 282.25 417.706C285.543 427.191 287.804 437.018 289.047 446.672C289.429 449.78 289.433 452.753 289.312 455.696C289.219 457.974 289.012 460.229 288.806 462.515C288.599 464.777 288.427 467.063 288.197 469.418C288.081 470.609 287.804 473.448 287.176 475.507C286.88 476.468 286.595 477.278 286.003 477.586Z" fill="#4B5C49"/>
<path fill-rule="evenodd" clip-rule="evenodd" d="M283.446 484.988C283.485 485.115 283.622 485.188 283.75 485.15C283.883 485.107 283.953 484.973 283.914 484.846C283.813 484.185 283.587 483.579 283.212 483.002C282.873 482.476 282.394 482.023 281.891 481.566C280.461 480.259 278.617 479.111 277.077 477.92C276.438 477.428 275.854 476.94 275.425 476.387C273.866 474.374 272.544 472.157 271.321 469.868C269.454 466.387 267.848 462.726 266.269 459.238C265.439 457.428 264.702 455.565 264.016 453.675C262.395 449.203 261.054 444.582 259.526 440.133C258.384 436.941 257.297 433.748 256.225 430.56C254.611 425.758 253.068 420.963 251.801 416.081C250.405 410.699 249.302 405.236 248.651 399.612C248.047 394.287 247.911 389.397 248.024 384.595C248.199 377.23 248.944 370.081 249.345 361.933C249.361 361.725 249.201 361.548 248.994 361.537C248.784 361.522 248.605 361.679 248.593 361.887C247.962 370.035 247.049 377.172 246.64 384.545C246.371 389.408 246.317 394.368 246.734 399.788C247.268 406.984 248.503 413.956 250.211 420.833C251.91 427.686 254.085 434.432 256.357 441.213C257.71 445.02 258.91 448.961 260.294 452.818C261.237 455.446 262.27 458.032 263.471 460.521C265.182 464.017 266.893 467.712 268.943 471.17C270.338 473.529 271.894 475.772 273.655 477.801C274.236 478.469 274.984 479.091 275.854 479.633C277.487 480.655 279.506 481.454 281.08 482.553C281.568 482.895 281.992 483.271 282.382 483.659C282.803 484.074 283.189 484.474 283.446 484.988Z" fill="#4B5C49"/>
<path fill-rule="evenodd" clip-rule="evenodd" d="M314.963 498.1C314.835 498.054 314.686 498.123 314.64 498.25C314.593 498.38 314.659 498.523 314.792 498.569C315.832 499.149 317.243 499.329 318.841 499.153C321.96 498.807 325.514 497.101 327.483 496.413C330.192 495.376 333.134 494.654 336.143 494.032C340.696 493.094 345.4 492.441 349.743 491.773C357.601 490.34 365.549 489.99 373.426 488.949C376.857 488.496 380.271 487.916 383.66 487.067C391.83 485.046 400.044 481.531 407.717 477.075C415.335 472.653 422.428 467.305 428.316 461.42C429.636 460.11 430.84 458.65 431.98 457.117C434.567 453.64 436.824 449.783 439.379 446.46C439.552 446.234 439.509 445.915 439.283 445.746C439.057 445.577 438.733 445.619 438.56 445.842C435.971 449.146 433.678 452.984 431.054 456.441C429.933 457.912 428.751 459.318 427.459 460.575C421.563 466.283 414.521 471.504 406.911 475.692C399.311 479.875 391.153 483.025 383.11 484.762C379.79 485.472 376.454 485.914 373.107 486.237C365.135 487.005 357.115 487.086 349.147 488.25C344.756 489.018 339.979 489.714 335.403 490.839C332.246 491.611 329.19 492.599 326.387 493.847C324.817 494.608 322.158 496.095 319.594 497.059C318.802 497.355 318.027 497.581 317.302 497.77C316.429 498 315.68 498.207 314.963 498.1Z" fill="#4B5C49"/>
<path fill-rule="evenodd" clip-rule="evenodd" d="M352.883 492.664C354.459 492.603 357.095 492.633 357.505 492.702C358.865 492.852 360.211 493.11 361.55 493.421C364.738 494.158 367.878 495.215 371.019 495.995C373.593 496.621 376.149 497.289 378.712 497.893C384.794 499.322 390.874 500.551 397.019 501.239C402.867 501.892 408.783 502.015 414.851 501.227C428.412 499.517 439.041 492.084 447.572 482.053C453.628 474.935 458.665 466.529 462.87 457.924C467.27 448.919 470.768 439.715 473.823 431.686C473.943 431.378 473.786 431.032 473.473 430.913C473.16 430.794 472.808 430.948 472.688 431.255C469.513 439.196 465.814 448.27 461.348 457.194C457.123 465.63 452.22 473.947 446.223 480.935C437.959 490.566 427.684 497.704 414.603 499.275C408.7 499.967 402.956 499.756 397.281 499.06C391.227 498.323 385.263 496.978 379.25 495.622C376.681 495.042 374.098 494.489 371.508 493.928C368.334 493.256 365.152 492.311 361.932 491.681C360.516 491.404 359.094 491.185 357.662 491.077C357.118 491.066 353.032 491.531 351.856 491.919C351.027 492.191 350.689 492.941 352.604 492.944C352.742 492.96 352.868 492.86 352.884 492.725C352.886 492.702 352.886 492.683 352.883 492.664Z" fill="#4B5C49"/>
<path fill-rule="evenodd" clip-rule="evenodd" d="M367.437 488.438C367.417 488.438 367.397 488.438 367.376 488.442C367.334 488.454 367.297 488.469 367.266 488.496C367.306 488.484 367.365 488.477 367.42 488.469C367.365 488.561 367.309 488.599 367.248 488.561C367.236 488.553 367.228 488.546 367.224 488.538C367.183 488.596 367.164 488.665 367.179 488.738C367.052 488.984 367.188 489.06 367.226 489.153C367.328 489.406 367.641 489.375 367.945 489.076C368.227 488.795 368.648 487.12 369.1 486.586L374.384 480.743C377.081 477.827 379.863 475.069 382.734 472.403C385.606 469.733 388.567 467.159 391.641 464.639C397.089 460.071 403.006 456.195 409.022 452.465C418.139 446.814 427.517 441.547 436.226 435.373C439.869 432.788 443.391 430.041 446.712 427.014C446.892 426.856 446.906 426.58 446.742 426.403C446.579 426.223 446.3 426.211 446.12 426.372C442.765 429.3 439.219 431.947 435.55 434.425C426.717 440.387 417.157 445.296 407.989 450.825C401.843 454.532 395.891 458.535 390.367 463.16C387.319 465.769 384.379 468.423 381.545 471.185C378.71 473.947 375.983 476.813 373.338 479.825C372.127 481.204 370.861 482.583 369.69 484.024C369.182 484.646 368.7 485.284 368.233 485.93C367.897 486.398 367.684 487.962 367.437 488.438ZM367.266 488.496C367.231 488.507 367.212 488.519 367.224 488.538C367.236 488.523 367.25 488.507 367.266 488.496ZM367.518 488.453C367.529 488.453 367.538 488.45 367.544 488.45C367.654 488.411 367.8 488.646 367.8 488.646C367.8 488.646 367.731 488.684 367.675 488.638C367.657 488.55 367.596 488.484 367.518 488.453Z" fill="#4B5C49"/>
<path fill-rule="evenodd" clip-rule="evenodd" d="M354.837 452.161C354.867 452.292 355.003 452.377 355.139 452.35C355.275 452.319 355.361 452.184 355.331 452.05C355.333 451.723 355.401 451.42 355.441 451.078C355.522 450.371 355.659 449.638 355.846 448.861C356.478 446.249 357.584 443.364 357.795 441.071C358.049 436.245 357.773 431.516 356.972 426.864C356.175 422.231 354.857 417.686 353.234 413.165C350.935 406.761 348.388 400.288 345.632 393.899C342.878 387.51 339.916 381.21 336.72 375.182C330.234 362.916 323.335 351.08 317.816 338.614C314.172 330.37 311.112 321.849 309.237 312.713C309.198 312.51 308.999 312.375 308.793 312.418C308.586 312.456 308.45 312.652 308.489 312.856C310.231 322.091 313.143 330.731 316.717 339.079C322.096 351.637 328.96 363.527 335.36 375.874C338.474 381.898 341.374 388.179 344.021 394.56C346.67 400.948 349.063 407.437 351.233 413.845C352.734 418.274 353.866 422.738 354.631 427.252C355.394 431.751 355.791 436.307 355.606 440.975C355.61 443.545 354.226 446.952 354.312 449.807C354.338 450.679 354.534 451.451 354.837 452.161Z" fill="#4B5C49"/>
<path fill-rule="evenodd" clip-rule="evenodd" d="M348.78 404.391C348.825 404.571 349.009 404.683 349.191 404.636C349.373 404.594 349.485 404.414 349.44 404.233C349.295 403.568 348.525 402.823 347.481 402.12C345.591 400.841 342.806 399.646 341.889 399.185C337.11 396.896 332.324 394.79 327.908 392.086C325.023 390.322 322.303 388.298 319.851 385.797C315.684 381.571 311.506 376.45 307.686 370.914C305.277 367.422 303.009 363.765 301.041 360.016C297.614 353.496 295.054 346.724 294.157 340.166C293.514 335.759 293.456 331.292 293.709 326.812C294.091 320.028 295.167 313.236 295.974 306.617C296.012 306.34 295.814 306.083 295.533 306.044C295.252 306.006 294.991 306.198 294.952 306.478C293.904 313.098 292.594 319.89 291.967 326.685C291.542 331.284 291.433 335.886 291.928 340.442C292.926 348.89 296.422 357.807 301.313 365.997C306.162 374.118 312.367 381.506 318.35 387.276C321.009 389.804 323.924 391.828 327.003 393.576C331.556 396.162 336.455 398.144 341.359 400.303C342.172 400.645 344.427 401.429 346.273 402.381C347.514 403.023 348.59 403.703 348.78 404.391Z" fill="#4B5C49"/>
<path fill-rule="evenodd" clip-rule="evenodd" d="M347.694 402.404C347.686 402.539 347.794 402.658 347.933 402.666C348.072 402.673 348.192 402.57 348.2 402.431C348.28 402.162 348.443 401.924 348.571 401.617C348.994 400.61 349.541 399.377 350.018 398.209C350.309 397.499 350.53 396.796 350.623 396.154C351.093 392.896 351.386 389.358 351.459 385.816C351.532 382.263 351.382 378.709 351.008 375.432C349.774 365.674 345.636 355.529 340.045 345.817C331.84 331.572 320.521 318.261 310.843 308.461C310.68 308.296 310.415 308.292 310.247 308.449C310.079 308.607 310.075 308.872 310.235 309.037C319.75 318.879 330.846 332.237 338.856 346.474C344.248 356.059 348.243 366.039 349.365 375.624C349.781 378.836 349.968 382.316 349.964 385.801C349.96 389.285 349.766 392.777 349.378 395.997C349.218 397.499 348.101 399.362 347.757 400.968C347.644 401.49 347.642 401.97 347.694 402.404Z" fill="#4B5C49"/>
<path fill-rule="evenodd" clip-rule="evenodd" d="M374.567 405.647C374.506 405.612 374.519 405.62 374.567 405.647ZM374.567 405.647C374.59 405.658 374.62 405.674 374.655 405.693C374.59 405.727 374.54 405.785 374.523 405.862C374.419 406 374.589 406.062 374.636 406.135C374.657 406.165 374.755 406.169 374.989 406.108C375.086 406.085 375.265 406.062 375.524 405.904C376.57 405.266 378.572 403.073 379.156 402.627C380.369 401.64 381.627 400.703 382.919 399.815C384.212 398.928 385.54 398.09 386.889 397.287L411.023 382.735C426.749 373.304 443.624 363.204 455.886 349.693C464.142 340.596 470.304 329.962 472.679 317.012C472.732 316.736 472.549 316.471 472.272 316.421C471.994 316.367 471.725 316.547 471.672 316.824C469.102 329.471 462.839 339.759 454.607 348.548C442.259 361.733 425.46 371.544 409.777 380.688C406.538 382.612 403.308 384.556 400.12 386.565C395.347 389.577 390.648 392.7 385.91 395.758C384.564 396.634 383.241 397.545 381.953 398.505C380.662 399.466 379.406 400.468 378.199 401.525C377.895 401.794 377.141 402.524 376.418 403.33C375.794 404.026 375.127 404.721 374.825 405.213C374.685 405.439 374.719 405.72 374.639 405.681C374.608 405.666 374.585 405.654 374.567 405.647Z" fill="#4B5C49"/>
</svg>
