<svg width="346" height="537" viewBox="0 0 346 537" fill="none" xmlns="http://www.w3.org/2000/svg">
<g opacity="0.2">
<path fill-rule="evenodd" clip-rule="evenodd" d="M116.823 404.358C146.438 398.391 161.456 344.56 152.28 320.062C139.234 285.234 41.2174 256.64 10.9201 281.834C1.60783 289.578 0.153106 305.009 0.145705 316.202C0.135323 331.904 1.62872 350.364 8.7153 364.548C24.2316 395.605 86.3756 426.391 116.823 404.358Z" fill="#6D6F47"/>
<path fill-rule="evenodd" clip-rule="evenodd" d="M260.848 348.871C283.994 345.203 311.602 305.166 320.374 287.667C327.123 274.206 331.481 259.742 334.743 245.121C340.964 217.237 346.773 186.979 344.498 158.33C340.478 107.671 318.165 37.8307 271.266 10.4534C254.73 0.80219 236.041 -0.229709 217.666 0.240153C208.354 0.480203 199.029 -0.528122 189.834 1.48747C136.617 13.1593 83.2766 48.0959 90.6587 109.285C92.6142 125.491 97.286 142.018 105.81 156.064C113.532 168.792 122.441 180.717 134.042 190.212C149.146 202.577 165.42 212.513 174.501 230.69C180.875 243.448 185.193 259.035 186.28 273.253C187.526 289.573 181.319 307.892 190.041 322.972C203.589 346.387 234.505 358.95 259.609 349.564C260.084 349.386 260.49 349.149 260.848 348.871Z" fill="#AB744E"/>
<path fill-rule="evenodd" clip-rule="evenodd" d="M233.236 90.2202C233.354 90.2619 233.482 90.1995 233.524 90.0817C233.562 89.9638 233.5 89.8355 233.386 89.7972C233.264 89.7417 232.219 89.8346 230.564 90.1872C229.484 90.4188 228.144 90.7717 226.624 91.1798C217.671 93.5805 202.612 98.1479 200.654 98.8159C191.826 101.934 182.933 102.754 174.26 102.651C159.67 102.478 145.672 99.5945 133.682 99.3507C133.324 99.3401 133.025 99.6208 133.014 99.9779C133.003 100.335 133.285 100.634 133.643 100.644C145.649 101.124 159.611 104.462 174.227 104.739C183.133 104.907 192.262 103.901 201.312 100.651L233.236 90.2202Z" fill="black"/>
<path fill-rule="evenodd" clip-rule="evenodd" d="M144.542 368.592C144.603 368.615 144.671 368.584 144.694 368.523C144.716 368.461 144.685 368.394 144.624 368.371C144.179 368.208 143.917 368.239 143.765 368.328C143.591 368.429 143.502 368.633 143.525 368.949C143.583 369.719 144.441 371.099 144.671 371.77C145.165 373.198 145.8 374.514 146.514 375.788C146.729 376.174 146.946 376.557 147.182 376.93C148.099 378.387 149.151 379.766 150.154 381.223C152.924 385.211 156.024 389.079 159.366 392.732C162.702 396.379 166.278 399.811 169.91 403.018C183.282 414.76 194.486 424.308 207.848 430.19C216.637 434.057 226.354 436.345 238.244 436.614C238.376 436.618 238.491 436.512 238.494 436.378C238.498 436.244 238.39 436.132 238.259 436.129C226.472 435.726 216.86 433.359 208.192 429.419C194.994 423.418 183.994 413.777 170.862 401.948C167.289 398.749 163.803 395.302 160.496 391.699C157.19 388.098 154.058 384.341 151.282 380.432C150.257 379.002 149.236 377.616 148.245 376.22C147.996 375.871 147.741 375.529 147.498 375.176C146.699 374.019 145.967 372.817 145.364 371.494C145.102 370.922 144.329 369.833 144.035 369.079C143.995 368.974 143.972 368.875 143.945 368.79C143.913 368.686 143.841 368.617 143.873 368.55C143.937 368.416 144.158 368.451 144.542 368.592Z" fill="black"/>
<path fill-rule="evenodd" clip-rule="evenodd" d="M109.459 243.893C109.689 243.879 109.864 243.682 109.85 243.45C109.836 243.221 109.638 243.047 109.408 243.061C108.317 243.088 107.241 243.229 106.168 243.426C103.766 243.865 101.394 244.581 98.9287 244.798C92.691 245.477 86.6443 245.927 80.6357 246.905C76.6165 247.558 72.6173 248.453 68.5875 249.768C61.5299 252.139 53.5044 258.14 46.8041 265.404C40.1574 272.612 34.8186 281.042 32.8814 288.212C31.4666 293.523 30.4608 300.372 30.0811 307.151C29.6878 314.176 29.965 321.125 31.1774 326.213C31.2151 326.38 31.381 326.484 31.5473 326.446C31.7135 326.408 31.8178 326.242 31.78 326.079C30.6839 321.025 30.544 314.149 31.0827 307.217C31.6019 300.539 32.7541 293.809 34.2701 288.601C36.2634 281.664 41.6346 273.605 48.1701 266.677C54.7063 259.749 62.4166 253.946 69.2329 251.707C73.1508 250.382 77.0467 249.486 80.9576 248.788C86.9197 247.72 92.92 247.125 99.1106 246.321C101.957 245.889 104.641 244.816 107.411 244.221C108.088 244.079 108.768 243.959 109.459 243.893Z" fill="black"/>
<path fill-rule="evenodd" clip-rule="evenodd" d="M104.783 252.206C104.897 252.209 104.998 252.126 105.013 252.012C105.058 251.897 104.989 251.751 104.694 251.734C104.593 251.73 104.385 251.768 104.091 251.82C103.869 251.862 103.623 251.889 103.36 251.969C102.606 252.201 101.846 252.609 101.801 252.63C100.875 253.056 99.98 253.52 99.121 254.05C97.8603 254.833 96.6824 255.737 95.4601 256.593C92.8958 258.398 90.7064 260.474 88.7134 262.713C85.7604 266.029 83.2458 269.71 80.5341 273.381C78.4616 276.23 76.467 279.228 74.6307 282.317C72.7958 285.409 71.1194 288.591 69.603 291.773C68.6479 293.791 67.6817 295.836 66.6488 297.836C65.9684 299.157 65.265 300.46 64.4906 301.715C62.6005 304.786 60.534 307.837 58.3292 310.783C56.1226 313.729 53.7828 316.571 51.2898 319.187C50.4917 320.022 49.5846 320.743 48.6235 321.405C46.3297 322.988 43.7337 324.231 41.4823 325.735C41.374 325.801 41.3409 325.946 41.4085 326.054C41.4761 326.161 41.6188 326.193 41.7271 326.127C44.0791 324.759 46.77 323.689 49.1602 322.23C50.2209 321.583 51.2168 320.852 52.109 320.006C54.77 317.48 57.3048 314.725 59.6738 311.831C62.042 308.937 64.2375 305.904 66.2727 302.857C67.1243 301.582 67.9172 300.258 68.6598 298.906C69.7589 296.906 70.7518 294.839 71.7521 292.808C73.2691 289.705 74.9687 286.617 76.7713 283.591C78.5743 280.561 80.4803 277.597 82.4904 274.79C85.0813 271.116 87.483 267.438 90.3101 264.097C92.1503 261.921 94.1672 259.887 96.5559 258.099L102.426 253.778C102.465 253.754 103.173 253.408 103.786 252.989C104.138 252.746 104.41 252.476 104.625 252.323C104.697 252.271 104.776 252.213 104.783 252.206Z" fill="black"/>
<path fill-rule="evenodd" clip-rule="evenodd" d="M121.352 296.905C121.38 296.787 121.304 296.666 121.183 296.638C121.062 296.607 120.941 296.683 120.913 296.804C120.704 297.147 120.386 297.379 120.077 297.775C119.919 297.976 119.794 298.218 119.626 298.45C119.054 299.237 118.264 300.052 117.374 300.939C116.262 302.051 114.979 303.24 113.595 304.428C108.888 308.458 103.182 312.525 100.733 314.528C97.0632 317.709 93.8152 320.478 90.9542 323.163C87.5049 326.403 84.5836 329.498 82.0289 332.891C77.4609 338.961 74.0806 345.989 71.021 356.666C70.924 356.974 71.0948 357.301 71.4019 357.398C71.7094 357.495 72.0378 357.325 72.1345 357.017C75.6627 346.801 79.3423 340.18 84.0388 334.47C86.6489 331.299 89.5836 328.426 92.979 325.36C95.8697 322.747 99.0733 319.982 102.734 316.846C105.439 314.386 112.411 309.046 117.05 304.111C118.875 302.167 120.323 300.278 121.1 298.694C121.153 298.587 121.221 298.486 121.249 298.375C121.367 297.924 121.267 297.571 121.296 297.179C121.303 297.082 121.337 296.995 121.352 296.905Z" fill="black"/>
<path fill-rule="evenodd" clip-rule="evenodd" d="M103.14 304.647C103.168 304.674 103.205 304.695 103.248 304.702C103.348 304.716 103.44 304.643 103.454 304.543C103.475 304.439 103.303 304.241 102.87 304.217C102.187 304.181 100.7 304.26 98.8894 304.623C96.9404 305.01 94.6429 305.744 92.5619 306.668C87.9938 308.729 83.7613 311.226 79.76 314.067C75.7671 316.901 72.0118 320.078 68.3479 323.443C62.4439 329.036 56.9936 335.542 52.7747 342.747C48.5602 349.943 45.5761 357.823 44.4222 366.067C43.8583 370.112 43.615 374.2 43.5623 378.303C43.4837 384.408 43.8062 390.538 43.906 396.596C43.9059 396.776 44.0523 396.922 44.2324 396.922C44.4129 396.923 44.5591 396.777 44.5592 396.597C44.667 390.55 44.5912 384.426 44.842 378.337C45.0088 374.296 45.3124 370.271 45.9568 366.298C47.2487 358.309 50.3697 350.747 54.5583 343.805C58.7681 336.827 64.0648 330.469 69.8552 325.043C73.373 321.64 77.0003 318.445 80.8402 315.538C84.6749 312.638 88.7176 310.023 93.12 307.848C94.3955 307.214 95.7675 306.674 97.0798 306.238C97.6508 306.048 98.2142 305.892 98.745 305.726C100.459 305.189 101.886 304.767 102.669 304.66C102.9 304.629 103.088 304.688 103.14 304.647Z" fill="black"/>
<path fill-rule="evenodd" clip-rule="evenodd" d="M107.057 319.803C107.063 319.807 107.068 319.807 107.074 319.81C107.172 319.831 107.271 319.772 107.294 319.675C107.487 319.027 107.561 318.625 107.601 318.427C107.663 318.125 107.471 318.031 107.404 317.99C107.329 317.948 107.208 317.972 107.045 318.094C106.93 318.18 106.722 318.468 106.467 318.915C106.207 319.373 105.907 320.014 105.584 320.745C104.276 323.713 102.636 328.185 102.627 328.206C100.697 332.737 98.9675 337.098 96.8604 341.334C95.4876 344.095 93.9636 346.808 92.0591 349.455C89.0403 353.678 85.673 357.849 82.1031 361.834C78.5308 365.823 74.7548 369.627 70.8632 373.061C65.6495 377.71 59.9845 381.945 54.7382 386.593C51.2057 389.723 47.8632 393.038 44.9675 396.782C44.8112 396.98 44.845 397.266 45.0424 397.422C45.2398 397.578 45.5268 397.545 45.6828 397.347C47.8837 394.626 50.328 392.15 52.9094 389.812C58.9608 384.33 65.7597 379.608 71.9574 374.312C75.9368 370.875 79.8221 367.079 83.4652 363.06C87.1052 359.044 90.5024 354.806 93.5661 350.532C95.5199 347.79 97.1138 344.997 98.4863 342.126C100.543 337.824 102.124 333.362 103.946 328.748C103.954 328.724 105.518 324.213 106.59 321.145C106.763 320.649 106.922 320.198 107.057 319.803ZM107.428 318.552C107.447 318.51 107.468 318.489 107.494 318.507C107.554 318.545 107.502 318.552 107.428 318.552Z" fill="black"/>
<path fill-rule="evenodd" clip-rule="evenodd" d="M124.925 337.68C124.934 337.592 124.877 337.509 124.788 337.486C124.691 337.462 124.598 337.482 124.565 337.623C124.562 337.636 124.576 337.668 124.567 337.719C124.557 337.77 124.489 337.755 124.471 337.915C124.46 338.003 124.531 338.118 124.574 338.262C124.923 339.418 125.816 342.239 125.951 342.641C126.316 343.696 126.77 344.727 127.3 345.726C128.084 347.204 129.029 348.604 129.984 349.945C132.104 352.809 134.493 355.464 137.035 357.982C140.804 361.716 144.898 365.154 148.838 368.624C154.585 373.573 160.125 378.716 165.876 383.631C168.349 385.746 170.864 387.817 173.445 389.815C178.732 393.896 183.315 396.656 187.714 400.072C190.537 402.267 193.284 404.735 196.097 408.012C198.438 410.691 201.092 413.114 203.478 415.745C204.494 416.862 205.458 418.016 206.325 419.247C206.46 419.446 206.734 419.498 206.932 419.363C207.13 419.228 207.186 418.956 207.047 418.757C206.205 417.463 205.258 416.244 204.259 415.063C201.967 412.362 199.393 409.868 197.146 407.126C194.312 403.725 191.531 401.157 188.669 398.865C184.322 395.385 179.784 392.554 174.564 388.394C172.028 386.381 169.568 384.294 167.144 382.169C161.455 377.183 155.973 371.981 150.286 366.966C146.338 363.563 142.254 360.176 138.455 356.528C135.944 354.117 133.552 351.595 131.432 348.852C130.606 347.823 129.799 346.745 129.054 345.629C128.313 344.522 127.629 343.384 127.089 342.187C126.91 341.805 125.717 339.121 125.234 338.024C125.173 337.886 125.151 337.754 125.088 337.696C125.013 337.627 124.983 337.604 124.946 337.654C124.939 337.663 124.932 337.672 124.925 337.68Z" fill="black"/>
<path fill-rule="evenodd" clip-rule="evenodd" d="M137.005 406.17C137.106 406.17 137.188 406.089 137.188 405.988C137.188 405.887 137.106 405.806 137.005 405.806C136.794 405.76 136.562 405.997 136.407 406.399C136.215 406.894 136.174 407.661 136.143 407.775C135.874 408.88 135.632 409.98 135.457 411.095C135.28 412.219 135.178 413.352 135.137 414.502C135.035 416.949 134.968 419.363 135.043 421.763C135.118 424.201 135.318 426.618 135.622 429.02C136.224 433.793 137.277 438.505 138.738 443.25C140.843 450.028 143.885 456.352 147.47 462.368C152.822 471.349 159.416 479.635 166.217 487.528C171.759 494.027 177.974 500.003 183.69 506.389C186.121 509.108 188.466 511.901 190.619 514.844C192.533 517.44 194.055 520.199 195.434 523.025C197.531 527.324 199.264 531.799 201.145 536.277C201.249 536.54 201.548 536.667 201.812 536.563C202.076 536.458 202.201 536.159 202.097 535.897C200.364 531.327 198.84 526.735 196.813 522.37C195.444 519.431 193.835 516.606 191.873 513.925C189.678 510.949 187.295 508.123 184.819 505.376C179.086 499.022 172.842 493.085 167.279 486.62C160.579 478.757 154.017 470.545 148.825 461.574C145.389 455.636 142.573 449.36 140.645 442.68C139.289 438.024 138.423 433.397 137.811 428.738C137.503 426.387 137.268 424.027 137.067 421.646C136.869 419.287 136.676 416.916 136.579 414.503C136.548 413.624 136.566 412.754 136.61 411.886C136.675 410.564 136.801 409.253 136.982 407.933L137.005 406.17Z" fill="black"/>
<path fill-rule="evenodd" clip-rule="evenodd" d="M155.815 414.293C155.71 414.272 155.607 414.34 155.587 414.445C155.565 414.551 155.634 414.653 155.739 414.674C156.313 414.826 156.832 415.367 157.342 416.04C158.455 417.509 159.43 419.662 160.047 420.648C161.615 423.054 163.075 425.54 164.486 428.059C166.604 431.846 168.594 435.712 170.573 439.542C172.362 442.964 174.05 446.429 175.71 449.904C179.595 458.039 183.262 466.268 187.095 474.451C191.164 482.874 194.903 491.639 197.906 500.633C200.913 509.627 203.184 518.849 204.285 528.197C204.309 528.405 204.493 528.556 204.701 528.533C204.909 528.511 205.059 528.325 205.038 528.117C204.145 518.674 202.083 509.328 199.253 500.2C196.427 491.073 192.834 482.169 188.911 473.598C185.608 466.589 182.478 459.522 179.137 452.551C176.905 447.892 174.569 443.282 172.09 438.733C169.996 434.943 167.91 431.11 165.666 427.376C164.165 424.878 162.595 422.427 160.927 420.053C160.233 419.104 159.126 416.974 157.861 415.607C157.198 414.891 156.494 414.385 155.815 414.293Z" fill="black"/>
<path fill-rule="evenodd" clip-rule="evenodd" d="M149.032 357.483C148.985 357.394 148.874 357.36 148.785 357.407C148.696 357.454 148.661 357.564 148.708 357.653C148.799 358.033 149.211 358.299 149.759 358.462C150.346 358.637 151.071 358.587 151.431 358.616C151.867 358.646 152.285 358.711 152.7 358.779C154.487 359.07 156.138 359.637 157.952 359.949C160.62 360.389 163.315 361.37 165.994 362.522C170.029 364.256 174.002 366.443 177.503 368.414C179.411 369.481 181.35 370.728 183.244 372.046C185.149 373.372 187.005 374.772 188.729 376.134C191.466 378.361 194.498 380.286 197.346 382.415C198.519 383.293 199.667 384.202 200.735 385.197C202.792 387.051 204.679 389.036 206.517 391.052C207.759 392.416 209 393.773 210.176 395.192C213.127 398.754 215.825 402.521 218.519 406.329C220.291 408.908 222.133 411.419 223.724 414.08C224.767 415.831 225.703 417.646 226.438 419.586C227.837 423.301 230.719 426.666 232.411 430.391C233.121 431.951 233.634 433.57 233.685 435.337C233.685 435.483 233.806 435.601 233.948 435.601C234.094 435.601 234.212 435.483 234.212 435.338C234.272 433.477 233.868 431.73 233.192 430.057C231.671 426.292 228.81 422.917 227.507 419.198C226.804 417.17 225.885 415.268 224.856 413.427C223.33 410.697 221.552 408.105 219.839 405.45C216.836 400.645 213.775 395.935 210.359 391.469C209.669 390.567 208.986 389.661 208.254 388.791C206.548 386.767 204.682 384.871 202.715 383.042C201.55 381.99 200.311 381.021 199.028 380.109C196.152 378.067 193.064 376.287 190.275 374.17C188.506 372.785 186.605 371.364 184.651 370.017C182.684 368.661 180.669 367.379 178.688 366.283C175.09 364.309 171.048 362.019 166.867 360.397C163.983 359.278 161.038 358.493 158.187 358.199C156.59 358.037 155.108 357.627 153.553 357.467C152.861 357.396 152.16 357.38 151.432 357.428C151.116 357.45 150.514 357.494 149.969 357.529C149.758 357.544 149.578 357.604 149.402 357.586C149.248 357.57 149.115 357.575 149.032 357.483Z" fill="black"/>
<path fill-rule="evenodd" clip-rule="evenodd" d="M322.144 41.7934C322.196 41.679 322.144 41.5472 322.029 41.4951C321.915 41.4465 321.783 41.4984 321.731 41.6128C321.338 42.3685 320.925 43.1034 320.525 43.8522C318.933 46.8507 317.276 49.7867 315.431 52.6082C312.002 57.863 308.066 62.7846 303.52 67.3035C296.411 74.3764 287.903 80.5225 278.008 85.714C271.207 89.3576 264.131 93.1084 257.155 96.8732C252.461 99.4084 247.816 101.954 243.323 104.455C225.723 114.229 207.533 125.161 191.18 138.054C180.204 146.709 170.052 156.245 161.483 166.927C151.546 179.404 144.802 191.481 139.63 204.27C134.483 216.997 130.889 230.432 127.439 245.757C125.842 252.844 124.069 259.747 122.659 266.761C121.718 271.442 120.937 276.175 120.479 281.04C118.098 305.995 120.8 331.474 126.484 356.567C127.322 360.267 128.222 363.96 129.204 367.635C138.21 401.31 152.151 433.917 164.827 463.493C164.869 463.597 164.99 463.647 165.094 463.604C165.202 463.56 165.25 463.44 165.205 463.335C153.214 433.564 140.352 400.661 131.775 366.965C130.843 363.306 129.939 359.644 129.097 355.972C123.402 331.143 120.412 305.959 122.585 281.235C123.013 276.436 123.757 271.773 124.663 267.158C126.037 260.154 127.78 253.258 129.343 246.181C132.71 230.953 136.154 217.567 141.282 204.937C146.404 192.321 153.206 180.47 163.096 168.218C171.561 157.651 181.584 148.204 192.443 139.653C208.712 126.837 226.843 116.019 244.363 106.332L279.052 87.6601C289.037 82.2051 297.611 75.8162 304.717 68.4832C309.253 63.8014 313.233 58.762 316.534 53.299C318.299 50.3804 319.908 47.3576 321.236 44.189C321.566 43.3986 321.852 42.5977 322.144 41.7934Z" fill="black"/>
<path fill-rule="evenodd" clip-rule="evenodd" d="M265.105 94.4891C265.112 94.5412 265.115 94.5932 265.115 94.6452C265.115 94.7631 265.06 94.8879 265.021 95.03C264.983 95.1479 265.046 95.2763 265.167 95.311C265.285 95.3492 265.41 95.2834 265.448 95.1656C265.49 95.0373 265.504 94.9125 265.549 94.8085C265.81 94.2122 265.848 93.8828 265.765 93.6504C265.613 93.2307 265.009 93.095 264.224 93.6077C263.811 93.878 263.307 94.4325 262.758 95.2332C261.57 96.9558 260.235 99.951 259.414 104.119C258.957 106.657 258.577 108.969 258.399 111.192C258.266 112.843 258.237 114.441 258.323 116.03C258.532 119.796 259.377 123.496 261.04 127.773C263.205 133.437 265.551 138.956 267.8 144.464C271.217 152.834 274.474 161.159 277.2 169.681C279.001 175.324 280.503 181.074 281.662 186.998C282.413 190.841 283.042 194.756 283.417 198.789C283.438 199.042 283.66 199.233 283.913 199.213C284.17 199.195 284.361 198.974 284.341 198.717C284.1 194.635 283.655 190.654 282.974 186.756C281.926 180.753 280.361 174.954 278.571 169.248C275.88 160.678 272.522 152.353 269.251 143.889C267.113 138.357 265.038 132.752 263.071 127.036C261.986 123.82 261.395 120.963 261.14 118.164C261.019 116.805 261.003 115.463 261.007 114.1C261.016 111.111 261.24 108.018 261.708 104.47C262.015 101.998 262.582 99.9595 263.152 98.3509C263.694 96.8289 264.226 95.6988 264.719 95.0264C264.858 94.8357 265.004 94.5896 265.105 94.4891ZM265.105 94.4891C265.154 94.4406 265.192 94.4302 265.216 94.4719C265.254 94.5447 265.188 94.5343 265.105 94.4891ZM265.105 94.4891C264.973 94.4162 264.8 94.2566 264.907 94.1873C264.991 94.1354 265.074 94.2984 265.105 94.4891Z" fill="black"/>
<path fill-rule="evenodd" clip-rule="evenodd" d="M263.136 132.678C263.16 132.65 263.181 132.619 263.188 132.581C263.199 132.539 262.883 132.206 262.723 132.508C262.689 132.567 262.671 132.667 262.588 132.757C262.438 132.924 262.199 132.93 261.973 133.18C261.101 134.143 260.354 136.203 260.083 136.979C259.641 138.265 259.366 139.566 259.202 140.89C258.968 142.79 258.956 144.715 258.688 146.622C258.133 150.887 258.29 155.145 258.856 159.366C259.699 165.629 261.455 171.813 263.259 177.793C269.361 198.867 282.573 215.787 287.842 235.897C288.953 240.131 289.683 244.508 289.964 249.096C290.225 253.341 290.111 257.772 289.432 262.45C289.372 262.831 289.636 263.189 290.014 263.244C290.396 263.304 290.754 263.044 290.813 262.662C291.597 257.888 291.846 253.349 291.606 249C291.349 244.298 290.526 239.82 289.363 235.495C283.951 215.39 270.576 198.545 264.304 177.488C262.607 171.547 260.921 165.408 260.217 159.197C259.751 155.101 259.723 150.975 260.368 146.862C260.685 144.626 260.731 142.372 261.007 140.142C261.119 139.23 261.251 138.319 261.498 137.417C261.7 136.665 262.781 134.907 263.017 133.701C263.084 133.378 262.945 133.18 262.994 132.966C263.018 132.851 263.088 132.775 263.119 132.719C263.126 132.706 263.133 132.692 263.136 132.678Z" fill="black"/>
<path fill-rule="evenodd" clip-rule="evenodd" d="M273.19 134.671C273.231 134.554 273.169 134.425 273.051 134.387C272.933 134.345 272.805 134.408 272.763 134.526C272.339 135.448 272.748 136.37 273.584 137.196C275.03 138.629 277.879 139.668 278.736 140.307C281.351 142.195 283.946 145.005 286.182 148.083C288.409 151.15 290.274 154.494 291.407 157.48C293.077 161.788 294.403 166.041 295.466 170.248C297.148 176.903 298.081 183.468 298.313 190.061C298.691 200.877 297.205 211.771 293.796 223.178C293.685 223.524 293.879 223.892 294.222 224.003C294.569 224.111 294.937 223.92 295.049 223.574C298.898 212.07 300.912 201.024 300.732 189.996C300.622 183.22 299.686 176.451 297.91 169.622C296.788 165.324 295.298 161.016 293.503 156.646C292.2 153.545 290.131 150.097 287.665 146.964C285.203 143.831 282.362 141.006 279.549 139.139C278.654 138.566 275.843 137.655 274.226 136.451C273.532 135.934 273.026 135.4 273.19 134.671Z" fill="black"/>
<path fill-rule="evenodd" clip-rule="evenodd" d="M293.373 76.2781C293.161 76.3161 292.845 76.361 292.55 76.3747C292.102 76.3952 291.596 76.3324 291.019 76.3355C289.912 76.3382 288.635 76.4068 287.399 76.399C284.946 76.3835 282.7 76.2815 282.454 76.2674C278.91 76.1264 275.422 75.7045 271.92 75.3485C269.564 75.1111 267.204 74.9223 264.844 74.7161C262.293 74.496 259.742 74.3105 257.177 74.1666C241.282 73.3586 231.63 73.7059 222.271 76.2831C213.255 78.7635 204.513 83.3177 190.674 90.948C190.403 91.09 190.298 91.4263 190.441 91.6968C190.586 91.9674 190.923 92.0717 191.194 91.9297C205.109 84.896 213.879 80.6989 222.856 78.5549C232.065 76.359 241.478 76.3548 256.943 77.6515C262.034 78.0225 267.066 78.7367 272.137 79.0486C275.562 79.259 278.991 79.237 282.452 79.1005C282.837 79.08 287.984 78.9412 291.306 78.2187C292.563 77.9456 293.528 77.5647 294.004 77.246C294.372 76.9966 294.559 76.754 294.563 76.5217C294.563 76.265 294.452 75.8662 293.828 75.6334C293.633 75.5292 293.39 75.6054 293.29 75.7961C293.199 75.9625 293.241 76.1601 293.373 76.2781Z" fill="black"/>
<path fill-rule="evenodd" clip-rule="evenodd" d="M258.962 72.6905C258.942 72.7599 258.952 72.8361 258.997 72.8951C259.073 72.9923 259.216 73.0132 259.313 72.9369C259.702 72.7777 259.691 72.5072 259.674 72.3373C259.653 72.1431 259.407 71.9244 258.935 71.7611C258.054 71.4623 256.103 71.5027 255.257 71.1935C252.987 70.4776 250.728 69.8103 248.483 69.0667C247.008 68.5768 245.541 68.0522 244.087 67.4618C239.933 65.8084 235.821 64.7445 231.643 64.1453C225.479 63.2639 219.187 63.3673 212.464 63.72C207.271 64.0009 202.283 65.4367 197.516 67.5072C190.472 70.568 183.909 75.0093 177.854 79.0313C169.968 84.2866 162.871 88.6894 155.346 92.0655C152.225 93.4678 149.024 94.669 145.673 95.7279C141.006 97.202 136.044 98.3847 130.5 99.1162C130.045 99.1645 129.717 99.5769 129.768 100.028C129.818 100.482 130.227 100.812 130.682 100.76C138.423 100.044 145.144 98.5642 151.405 96.2865C160.998 92.7974 169.504 87.5217 179.216 81.0747C185.15 77.122 191.581 72.75 198.49 69.7376C202.989 67.7779 207.693 66.3939 212.597 66.1198C218.043 65.8078 223.197 65.7072 228.244 66.1023C233.342 66.501 238.329 67.4059 243.398 69.2645C244.915 69.8099 246.438 70.2826 247.972 70.7205C250.252 71.374 252.542 71.9546 254.846 72.5838C255.238 72.6742 255.814 72.7196 256.432 72.7235C257.258 72.7241 258.161 72.7177 258.733 72.7146C258.81 72.7112 258.893 72.7043 258.962 72.6905Z" fill="black"/>
<path fill-rule="evenodd" clip-rule="evenodd" d="M218.129 119.377C218.157 119.381 218.181 119.377 218.209 119.37C218.331 119.339 218.4 119.214 218.369 119.096C218.515 118.864 218.223 118.985 218.109 118.881C218.043 118.822 218.032 118.885 217.734 119.03C217.602 119.092 217.453 119.248 217.275 119.505C216.758 120.243 216.264 121.703 216.083 122.084C215.388 123.644 214.561 125.149 213.838 126.708C213.338 127.783 212.896 128.886 212.527 130.009C211.484 133.247 210.697 136.544 210.213 139.89C209.491 144.88 209.387 149.953 209.422 154.988C209.454 159.035 210.201 163.089 211.295 167.133C213.743 176.175 217.947 185.159 219.388 193.889C220.498 200.589 222.875 206.295 224.926 211.779C225.872 214.3 226.763 216.77 227.375 219.291C227.888 221.4 228.219 223.543 228.266 225.77C228.266 225.971 228.429 226.134 228.631 226.134C228.832 226.134 228.995 225.971 228.995 225.77C229.074 222.337 228.503 219.063 227.593 215.8C225.674 208.908 222.295 202.057 221.079 193.626C219.79 184.821 215.742 175.709 213.444 166.573C212.471 162.709 211.821 158.842 211.858 154.99C211.889 150.888 212.103 146.772 212.526 142.687C212.949 138.633 213.573 134.601 214.696 130.662C214.915 129.865 215.187 129.085 215.468 128.305C216.153 126.415 216.935 124.557 217.579 122.668C217.7 122.265 218.222 120.841 218.375 119.96C218.421 119.703 218.268 119.419 218.39 119.412C218.473 119.405 218.285 119.325 218.282 119.36C218.268 119.485 218.202 119.422 218.129 119.377ZM218.043 119.349C218.036 119.353 218.029 119.353 218.022 119.356C217.994 119.363 217.994 119.346 217.994 119.318C218.008 119.332 218.025 119.342 218.043 119.349Z" fill="black"/>
<path fill-rule="evenodd" clip-rule="evenodd" d="M210.773 163.918C210.888 163.877 210.947 163.745 210.905 163.631C210.864 163.513 210.732 163.454 210.617 163.495C209.895 163.665 209.242 164.386 208.728 165.394C207.803 167.214 207.402 169.929 207.176 171.046C206.741 173.154 206.281 175.192 205.961 177.238C205.633 179.35 205.427 181.458 205.346 183.577C205.243 186.368 205.408 189.188 205.861 192.122C207.167 200.934 209.469 209.858 212.552 218.505C215.632 227.131 219.493 235.487 224.142 243.099C225.255 244.923 226.458 246.686 227.713 248.413C231.198 253.194 235.065 257.719 238.654 262.423C240.187 264.429 241.685 266.451 243.044 268.574C243.211 268.845 243.565 268.929 243.832 268.762C244.103 268.596 244.186 268.246 244.02 267.975C242.942 266.133 241.787 264.343 240.549 262.605C235.653 255.746 229.799 249.535 225.427 242.316C220.864 234.781 217.014 226.536 214.08 217.972C211.152 209.408 209.145 200.536 208.044 191.821C207.706 189.016 207.704 186.332 207.813 183.675C207.898 181.619 208.083 179.584 208.269 177.521C208.454 175.478 208.608 173.415 208.814 171.29C208.919 170.215 209.167 167.652 209.727 165.794C209.991 164.927 210.245 164.196 210.773 163.918Z" fill="black"/>
<path fill-rule="evenodd" clip-rule="evenodd" d="M213.054 157.238C213.02 157.123 212.898 157.057 212.784 157.092C212.666 157.13 212.603 157.251 212.638 157.366C212.728 157.962 212.929 158.51 213.261 159.031C213.563 159.506 213.99 159.915 214.437 160.328C215.71 161.508 217.351 162.546 218.721 163.622C219.29 164.066 219.811 164.507 220.192 165.007C221.579 166.825 222.754 168.826 223.843 170.894C225.503 174.037 226.931 177.342 228.335 180.492C229.073 182.126 229.728 183.808 230.337 185.514C231.779 189.552 232.97 193.724 234.328 197.741C235.343 200.623 236.309 203.505 237.262 206.384C238.696 210.72 240.067 215.048 241.192 219.457C242.432 224.316 243.411 229.247 243.987 234.325C244.522 239.131 244.64 243.546 244.537 247.88C244.376 254.528 243.709 260.981 243.347 268.335C243.333 268.523 243.475 268.682 243.659 268.693C243.846 268.707 244.006 268.565 244.016 268.377C244.584 261.023 245.4 254.58 245.769 247.926C246.011 243.536 246.063 239.059 245.695 234.166C245.223 227.671 244.127 221.376 242.611 215.168C241.102 208.981 239.169 202.89 237.15 196.768C235.948 193.331 234.881 189.772 233.651 186.29C232.813 183.917 231.895 181.583 230.827 179.335C229.306 176.179 227.784 172.842 225.961 169.72C224.72 167.59 223.336 165.564 221.769 163.732C221.252 163.128 220.586 162.566 219.812 162.076C218.359 161.153 216.561 160.43 215.16 159.438C214.726 159.129 214.348 158.789 214.001 158.438C213.627 158.063 213.283 157.702 213.054 157.238Z" fill="black"/>
<path fill-rule="evenodd" clip-rule="evenodd" d="M184.998 145.384C185.112 145.426 185.244 145.363 185.286 145.249C185.327 145.131 185.269 145.003 185.151 144.961C184.224 144.437 182.968 144.273 181.545 144.431C178.768 144.742 175.602 146.279 173.849 146.899C171.436 147.833 168.815 148.484 166.135 149.044C162.081 149.887 157.892 150.474 154.024 151.075C147.026 152.364 139.948 152.674 132.933 153.609C129.878 154.017 126.837 154.538 123.819 155.303C116.543 157.122 109.227 160.29 102.391 164.308C95.6053 168.295 89.2867 173.118 84.0399 178.427C82.8639 179.609 81.7909 180.926 80.7741 182.308C78.4685 185.445 76.4567 188.925 74.1793 191.924C74.0254 192.128 74.0633 192.416 74.2649 192.569C74.4661 192.721 74.7545 192.683 74.9088 192.482C77.216 189.502 79.2602 186.039 81.5991 182.919C82.5975 181.592 83.651 180.323 84.8026 179.19C90.0562 174.041 96.33 169.332 103.108 165.557C109.878 161.785 117.144 158.946 124.308 157.384C127.265 156.744 130.236 156.347 133.216 156.058C140.315 155.369 147.456 155.301 154.552 154.255C158.463 153.564 162.717 152.939 166.793 151.926C169.604 151.231 172.326 150.341 174.822 149.216C176.221 148.53 178.589 147.19 180.874 146.321C181.578 146.054 182.269 145.85 182.915 145.681C183.693 145.473 184.359 145.286 184.998 145.384Z" fill="black"/>
<path fill-rule="evenodd" clip-rule="evenodd" d="M151.228 150.268C149.825 150.323 147.477 150.294 147.113 150.231C145.902 150.095 144.704 149.862 143.511 149.58C140.673 148.912 137.877 147.957 135.081 147.251C132.789 146.684 130.514 146.079 128.232 145.533C122.817 144.24 117.404 143.127 111.933 142.502C106.725 141.909 101.457 141.795 96.0539 142.502C83.9768 144.037 74.5083 150.741 66.9052 159.79C61.5084 166.212 57.0181 173.797 53.2687 181.562C49.3456 189.688 46.2254 197.994 43.5003 205.24C43.3928 205.517 43.5321 205.83 43.8108 205.937C44.0894 206.045 44.4029 205.906 44.5103 205.629C47.3427 198.463 50.6415 190.275 54.624 182.222C58.391 174.609 62.7621 167.104 68.1061 160.8C75.4709 152.112 84.624 145.675 96.2732 144.264C101.53 143.643 106.645 143.837 111.697 144.468C117.088 145.138 122.398 146.355 127.751 147.583C130.038 148.108 132.338 148.609 134.645 149.116C137.47 149.725 140.303 150.58 143.17 151.151C144.431 151.401 145.697 151.6 146.972 151.698C147.456 151.708 151.095 151.291 152.143 150.942C152.881 150.696 153.182 150.02 151.477 150.015C151.354 150.001 151.242 150.091 151.228 150.213C151.226 150.234 151.226 150.251 151.228 150.268Z" fill="black"/>
<path fill-rule="evenodd" clip-rule="evenodd" d="M138.267 154.074C138.284 154.074 138.302 154.074 138.321 154.071C138.358 154.06 138.391 154.047 138.418 154.022C138.383 154.033 138.33 154.04 138.281 154.046C138.33 153.963 138.381 153.929 138.434 153.963C138.445 153.97 138.452 153.977 138.456 153.984C138.493 153.932 138.509 153.87 138.496 153.804C138.61 153.582 138.488 153.513 138.455 153.429C138.364 153.2 138.085 153.228 137.815 153.498C137.563 153.751 137.187 155.263 136.785 155.745L132.076 161.016C129.673 163.646 127.194 166.134 124.635 168.539C122.076 170.948 119.438 173.269 116.699 175.542C111.846 179.662 106.574 183.158 101.215 186.521C93.0935 191.617 84.7397 196.366 76.9813 201.933C73.7353 204.265 70.5975 206.742 67.639 209.473C67.4782 209.615 67.4659 209.864 67.6112 210.024C67.7561 210.187 68.0046 210.198 68.1654 210.052C71.1548 207.412 74.3141 205.025 77.5822 202.79C85.4509 197.413 93.9669 192.987 102.134 188.003C107.609 184.66 112.912 181.05 117.833 176.878C120.549 174.525 123.169 172.131 125.694 169.639C128.219 167.148 130.65 164.562 133.006 161.845C134.086 160.601 135.214 159.357 136.257 158.057C136.71 157.496 137.14 156.92 137.556 156.338C137.856 155.915 138.046 154.504 138.267 154.074ZM138.418 154.022C138.45 154.012 138.467 154.001 138.456 153.984C138.445 153.998 138.433 154.012 138.418 154.022ZM138.194 154.06C138.185 154.06 138.177 154.064 138.171 154.064C138.073 154.098 137.944 153.887 137.944 153.887C137.944 153.887 138.005 153.852 138.055 153.894C138.071 153.973 138.125 154.033 138.194 154.06Z" fill="black"/>
<path fill-rule="evenodd" clip-rule="evenodd" d="M149.464 186.827C149.437 186.709 149.317 186.633 149.196 186.657C149.074 186.685 148.997 186.806 149.024 186.928C149.022 187.222 148.962 187.496 148.926 187.805C148.853 188.443 148.731 189.105 148.563 189.805C147.999 192.163 147.012 194.767 146.823 196.837C146.594 201.192 146.837 205.461 147.547 209.661C148.255 213.843 149.426 217.946 150.868 222.029C152.911 227.811 155.176 233.656 157.626 239.424C160.075 245.192 162.708 250.881 165.551 256.324C171.319 267.4 177.455 278.088 182.362 289.344C185.602 296.788 188.322 304.481 189.986 312.728C190.02 312.912 190.197 313.034 190.381 312.996C190.565 312.961 190.687 312.784 190.652 312.601C189.106 304.263 186.519 296.463 183.341 288.925C178.559 277.586 172.454 266.849 166.762 255.7C163.993 250.261 161.414 244.59 159.061 238.828C156.706 233.06 154.579 227.202 152.65 221.416C151.317 217.417 150.311 213.387 149.632 209.312C148.956 205.251 148.605 201.138 148.772 196.925C148.771 194.605 150.005 191.53 149.93 188.953C149.908 188.166 149.733 187.469 149.464 186.827Z" fill="black"/>
<path fill-rule="evenodd" clip-rule="evenodd" d="M154.829 229.952C154.79 229.789 154.626 229.688 154.464 229.73C154.301 229.768 154.202 229.93 154.241 230.094C154.37 230.693 155.056 231.367 155.985 232.002C157.667 233.158 160.146 234.238 160.962 234.655C165.216 236.724 169.477 238.627 173.408 241.071C175.975 242.664 178.397 244.494 180.578 246.752C184.286 250.569 188.004 255.194 191.402 260.194C193.545 263.347 195.562 266.65 197.313 270.035C200.36 275.922 202.636 282.037 203.43 287.957C204 291.935 204.05 295.968 203.821 300.011C203.477 306.135 202.515 312.265 201.793 318.239C201.758 318.489 201.935 318.722 202.185 318.756C202.435 318.791 202.667 318.618 202.702 318.365C203.64 312.391 204.81 306.261 205.373 300.127C205.754 295.976 205.854 291.822 205.416 287.709C204.532 280.083 201.424 272.032 197.073 264.636C192.761 257.302 187.24 250.63 181.915 245.418C179.55 243.135 176.955 241.306 174.214 239.726C170.162 237.39 165.8 235.597 161.435 233.646C160.711 233.337 158.704 232.628 157.06 231.767C155.956 231.187 154.998 230.573 154.829 229.952Z" fill="black"/>
<path fill-rule="evenodd" clip-rule="evenodd" d="M155.795 231.745C155.802 231.624 155.707 231.516 155.583 231.509C155.458 231.502 155.352 231.596 155.345 231.721C155.273 231.963 155.128 232.178 155.014 232.456C154.636 233.364 154.149 234.477 153.724 235.531C153.464 236.172 153.267 236.806 153.183 237.385C152.763 240.326 152.5 243.519 152.433 246.717C152.366 249.924 152.497 253.132 152.828 256.09C153.921 264.899 157.6 274.059 162.573 282.829C169.87 295.692 179.941 307.714 188.553 316.566C188.699 316.715 188.935 316.719 189.084 316.577C189.233 316.435 189.237 316.196 189.095 316.046C180.629 307.157 170.755 295.093 163.632 282.237C158.836 273.582 155.284 264.57 154.291 255.918C153.923 253.018 153.758 249.876 153.764 246.731C153.77 243.586 153.945 240.434 154.292 237.528C154.435 236.173 155.431 234.491 155.738 233.042C155.839 232.571 155.841 232.137 155.795 231.745Z" fill="black"/>
<path fill-rule="evenodd" clip-rule="evenodd" d="M131.867 228.803C131.847 228.792 131.82 228.778 131.789 228.761C131.847 228.73 131.892 228.678 131.907 228.608C131.999 228.484 131.849 228.428 131.806 228.362C131.788 228.334 131.7 228.331 131.492 228.386C131.406 228.407 131.247 228.428 131.016 228.57C130.084 229.145 128.3 231.124 127.78 231.526C126.699 232.416 125.579 233.261 124.427 234.062C123.275 234.862 122.092 235.617 120.891 236.341L99.3914 249.463C85.3823 257.967 70.35 267.073 59.423 279.262C52.0661 287.469 46.5729 297.064 44.4504 308.752C44.403 309.001 44.5657 309.241 44.8128 309.286C45.0602 309.335 45.2994 309.172 45.3468 308.922C47.6429 297.508 53.2255 288.225 60.5614 280.296C71.5649 268.402 86.5298 259.556 100.5 251.312C103.385 249.576 106.263 247.823 109.103 246.012C113.355 243.296 117.54 240.479 121.761 237.722C122.961 236.932 124.139 236.111 125.286 235.245C126.436 234.379 127.556 233.474 128.631 232.521C128.902 232.279 129.574 231.62 130.218 230.893C130.774 230.265 131.369 229.638 131.638 229.194C131.763 228.99 131.733 228.737 131.804 228.771C131.831 228.785 131.852 228.796 131.867 228.803ZM131.867 228.803C131.922 228.834 131.911 228.827 131.867 228.803Z" fill="black"/>
</g>
</svg>
