<svg width="29" height="32" viewBox="0 0 29 32" fill="none" xmlns="http://www.w3.org/2000/svg">
<path fill-rule="evenodd" clip-rule="evenodd" d="M15.7962 31.8174C15.7639 31.7362 15.7212 31.6182 15.7099 31.5411C15.669 31.2562 15.6233 30.9743 15.5873 30.6875C15.492 29.9301 15.3911 29.0259 15.5055 28.2688C15.7628 26.5647 15.7062 24.8033 16.3652 23.1674C16.6331 22.5031 17.0682 21.9343 17.3889 21.2976C17.5839 20.9103 17.7828 20.5096 18.0847 20.1797C19.2228 18.937 20.7491 18.1178 21.8519 16.8668C21.9937 16.7057 22.6175 15.5336 22.9367 15.8506C23.2792 16.1906 22.8467 17.0331 22.7116 17.3547C22.0488 18.9336 20.7746 20.1387 19.7022 21.4399C19.3421 21.877 19.1163 22.3333 18.8833 22.8422C18.8736 22.8636 18.7528 23.2449 18.7607 23.2487C18.8424 23.2893 19.2397 23.0789 19.3338 23.0455C19.931 22.8337 20.4936 22.5696 21.0533 22.2731C23.3047 21.0811 25.2961 19.0848 26.7035 16.9888C27.1536 16.319 27.6266 15.5502 27.8502 14.7735C27.9125 14.5563 28.0535 13.6967 28.3003 13.615C28.3135 13.6107 28.3656 13.5781 28.3825 13.5946C28.9294 14.1375 28.7249 17.1203 28.6237 17.8191C28.3045 20.0183 26.9079 21.7379 25.2957 22.7567C23.3193 24.0052 20.5792 24.2242 19.0266 26.0739C18.1695 27.095 18.1504 28.5444 18.273 29.882C18.2948 30.1208 18.6241 31.95 18.0847 31.8662C18.0228 31.8565 17.7415 31.8256 17.6957 31.8256C17.2764 31.8256 16.7966 31.8051 16.3859 31.8867C16.2842 31.9068 15.9567 31.8874 15.8255 31.8841C15.8191 31.8654 15.8086 31.839 15.7962 31.8174Z" fill="#977C4C"/>
<path fill-rule="evenodd" clip-rule="evenodd" d="M13.217 31.9218C13.2492 31.8406 13.292 31.7225 13.3032 31.6454C13.3441 31.3606 13.3899 31.0787 13.4259 30.7919C13.5212 30.0345 13.6221 29.1303 13.5077 28.3732C13.2503 26.6691 13.307 24.9077 12.6479 23.2718C12.3801 22.6075 11.945 22.0387 11.6243 21.4019C11.4292 21.0147 11.2304 20.614 10.9284 20.2841C9.79037 19.0413 8.26407 18.2222 7.16126 16.9712C7.01947 16.8101 6.39567 15.638 6.07645 15.955C5.73398 16.295 6.16648 17.1375 6.30152 17.459C6.96433 19.038 8.23856 20.2431 9.31099 21.5442C9.67109 21.9813 9.8969 22.4376 10.1298 22.9466C10.1396 22.968 10.2604 23.3493 10.2525 23.3531C10.1707 23.3937 9.77349 23.1832 9.67934 23.1499C9.08217 22.9381 8.51951 22.6739 7.95986 22.3775C5.70847 21.1854 3.71704 19.1892 2.30964 17.0932C1.85952 16.4233 1.38651 15.6545 1.16295 14.8778C1.10068 14.6607 0.959642 13.801 0.712823 13.7193C0.699695 13.715 0.647552 13.6824 0.630672 13.699C0.0837688 14.2419 0.288204 17.2247 0.389482 17.9234C0.708697 20.1227 2.10521 21.8423 3.71741 22.861C5.69384 24.1096 8.43399 24.3286 9.98655 26.1783C10.8437 27.1994 10.8628 28.6488 10.7401 29.9864C10.7184 30.2251 10.389 32.0543 10.9284 31.9705C10.9903 31.9609 11.2717 31.93 11.3174 31.93C11.7368 31.93 12.2166 31.9095 12.6273 31.991C12.7289 32.0111 13.0564 31.9918 13.1877 31.9884C13.1941 31.9698 13.2046 31.9434 13.217 31.9218Z" fill="#977C4C"/>
<path fill-rule="evenodd" clip-rule="evenodd" d="M15.5246 17.5589C7.16183 15.4823 23.599 3.24088 26.1075 3.84091C26.9047 4.03159 25.1151 8.58972 24.4696 10.8765C23.8245 13.1633 18.8753 18.3909 15.5246 17.5589Z" fill="#384234"/>
<path fill-rule="evenodd" clip-rule="evenodd" d="M13.8293 17.8224C21.9634 15.7111 5.97572 3.26553 3.53582 3.87557C2.7605 4.06943 4.50116 8.70358 5.12899 11.0285C5.75639 13.3534 10.5703 18.6682 13.8293 17.8224Z" fill="#384234"/>
<path fill-rule="evenodd" clip-rule="evenodd" d="M14.6836 17.8647C11.0669 17.9468 9.46629 16.5082 10.095 13.0329C10.7236 9.5575 14.0144 6.11342 14.4076 1.04442C14.7999 -4.02459 18.587 10.8973 19.1406 12.9244C19.9055 15.7245 18.3 17.7825 14.6836 17.8647Z" fill="#344B2B"/>
<path fill-rule="evenodd" clip-rule="evenodd" d="M18.1559 31.7167C18.1481 31.7148 18.1432 31.7067 18.1451 31.6988C18.1469 31.691 18.1548 31.6862 18.1627 31.688C18.2182 31.688 18.2055 31.6247 18.2017 31.5283C18.1991 31.4676 18.1972 31.395 18.1893 31.3149C18.1691 31.1045 18.1263 30.8498 18.0895 30.6587C17.962 30.0085 17.8851 29.2559 17.9286 28.4981C17.9564 28.008 18.0397 27.5183 18.1672 27.0558C18.405 26.1952 18.8202 25.4325 19.4347 24.9216C19.731 24.6769 20.1586 24.471 20.6414 24.2926C21.5994 23.9377 22.7817 23.6845 23.4543 23.3523C25.3088 22.441 26.4649 21.7762 27.2339 20.7953C27.9837 19.8382 28.3671 18.5812 28.6675 16.4949C28.7212 16.0913 28.7425 15.5849 28.7069 15.0883C28.6791 14.6984 28.6015 14.3194 28.5058 13.9924C28.4788 13.9003 28.4578 13.8115 28.4263 13.7286C28.4031 13.6823 28.4218 13.6259 28.4687 13.6028C28.5152 13.5797 28.5719 13.5984 28.5951 13.6447C28.6566 13.7429 28.7155 13.8485 28.7613 13.9667C28.8551 14.2082 28.9035 14.4884 28.9417 14.7756C29.0224 15.3792 29.0126 16.0301 28.9533 16.5303C28.717 18.7204 28.3577 20.0518 27.5955 21.0687C26.8141 22.1119 25.607 22.8215 23.6749 23.7906C22.9918 24.131 21.7918 24.3976 20.8181 24.7611C20.3957 24.9186 20.0176 25.0929 19.7588 25.3074C19.2145 25.755 18.8645 26.4342 18.6417 27.1895C18.5142 27.6218 18.4331 28.0799 18.3769 28.5379C18.2876 29.2641 18.264 29.9899 18.3229 30.6256C18.3457 30.8628 18.3821 31.1935 18.357 31.4259C18.3495 31.4963 18.3382 31.557 18.318 31.6039C18.2748 31.7052 18.2208 31.751 18.1559 31.7167Z" fill="#423621"/>
<path fill-rule="evenodd" clip-rule="evenodd" d="M10.8373 31.7624C10.8452 31.7605 10.8531 31.7654 10.8549 31.7732C10.8568 31.781 10.8519 31.7892 10.8441 31.791C10.7792 31.8253 10.7252 31.7795 10.682 31.6782C10.6618 31.6313 10.6505 31.5706 10.643 31.5002C10.6179 31.2678 10.6543 30.9371 10.6771 30.6999C10.736 30.0642 10.7124 29.3384 10.6231 28.6123C10.5669 28.1542 10.4858 27.6962 10.3583 27.2638C10.1355 26.5086 9.78552 25.8293 9.24124 25.3817C8.98241 25.1672 8.60431 24.9929 8.18194 24.8354C7.20817 24.4719 6.0082 24.2053 5.32514 23.8649C3.39297 22.8959 2.18588 22.1863 1.40454 21.143C0.642322 20.1261 0.282973 18.7947 0.0466566 16.6047C-0.0126104 16.1044 -0.0223656 15.4535 0.0582829 14.8499C0.0965433 14.5627 0.144934 14.2825 0.23871 14.0411C0.284473 13.9228 0.343362 13.8172 0.40488 13.7191C0.428136 13.6728 0.484776 13.654 0.53129 13.6771C0.578177 13.7003 0.596933 13.7566 0.573677 13.8029C0.542168 13.8858 0.521162 13.9747 0.494155 14.0668C0.398503 14.3937 0.320857 14.7728 0.293098 15.1626C0.257463 15.6592 0.278847 16.1656 0.332487 16.5692C0.632946 18.6555 1.0163 19.9126 1.76614 20.8696C2.5351 21.8505 3.69118 22.5154 5.5457 23.4266C6.21826 23.7588 7.40059 24.012 8.35861 24.3669C8.84137 24.5453 9.269 24.7512 9.56533 24.9959C10.1798 25.5068 10.595 26.2695 10.8328 27.1301C10.9603 27.5926 11.0436 28.0823 11.0714 28.5724C11.1149 29.3302 11.038 30.0829 10.9105 30.7331C10.8737 30.9241 10.8324 31.1788 10.8107 31.3892C10.8005 31.4887 10.7964 31.5762 10.7975 31.644C10.7987 31.7147 10.7915 31.7616 10.8373 31.7624Z" fill="#423621"/>
</svg>
