<?xml version="1.0" encoding="UTF-8" standalone="no"?><!DOCTYPE svg PUBLIC "-//W3C//DTD SVG 1.1//EN" "http://www.w3.org/Graphics/SVG/1.1/DTD/svg11.dtd"><svg width="100%" height="100%" viewBox="0 0 1021 1009" version="1.1" xmlns="http://www.w3.org/2000/svg" xmlnsXlink="http://www.w3.org/1999/xlink" xmlSpace="preserve" xmlnSerif="http://www.serif.com/" style="fill-rule:evenodd;clip-rule:evenodd;stroke-linejoin:round;stroke-miterlimit:2;"><g><path d="M839.654,706.263c-2.691,1.649 -5.433,2.829 -8.212,3.766c-0.034,0.038 -0.071,0.054 -0.105,0.088c-3.195,3.245 -6.37,6.495 -9.495,9.808c-5.575,7.083 -11.304,14.029 -16.996,20.992c7.533,-2.221 14.825,-5.104 21.996,-8.3c9.2,-10.242 17.533,-21.213 24.67,-33.071c-3.995,2.171 -7.987,4.337 -11.858,6.717Z" style="fill:#344b2a;fill-rule:nonzero;"/><path d="M967.117,280.171c4.708,12.029 10.437,23.712 14.204,36.004c5.817,19.029 10.483,38.421 15.346,57.729c2.083,8.246 3.991,16.596 4.983,25.034c2.413,20.833 5.329,41.716 6.025,62.654c0.817,24.221 0.121,48.562 -3.387,72.675c-1.63,11.266 -2.171,22.741 -4.738,33.783c-5.558,23.854 -11.962,47.521 -18.387,71.167c-1.109,4.041 -2.238,8.646 -6.821,12.358c0.225,-2.325 0.191,-3.608 0.483,-4.808c2.9,-11.667 6.25,-23.246 8.717,-35c8.679,-41.371 10.991,-83.196 9.012,-125.384c-1.441,-30.312 -6.041,-60.187 -13.629,-89.441c-5.417,-20.921 -12.954,-41.338 -20.246,-61.721c-3.816,-10.692 -9.041,-20.867 -13.8,-31.196c-0.833,-1.842 -2.466,-3.317 -3.75,-4.967c-0.4,0.296 -0.816,0.592 -1.216,0.888c0.8,1.996 1.6,3.975 2.433,5.954c4.912,11.683 10.692,23.108 14.6,35.121c5.587,17.221 10.067,34.842 14.567,52.396c2.725,10.591 5.395,21.3 6.716,32.133c2.917,23.854 6.321,47.708 5.434,71.858c-0.571,15.955 -0.313,31.98 -1.771,47.85c-1.371,15 -3.696,30.017 -7.013,44.705c-4.862,21.545 -10.971,42.795 -16.546,64.166c-1.008,3.921 -3.612,5.796 -7.516,6.196c-5.659,0.608 -10.992,1.996 -16.234,3.683c-0.641,3.021 -1.233,6.021 -1.979,9.025c-0.312,1.217 -0.762,2.396 -1.075,3.613c3.592,-1.842 7.171,-3.7 10.779,-5.538c2.275,-1.145 5.263,-0.92 9.43,-1.562c-22.205,61.3 -56.234,113.229 -100.384,158.367c-53.662,54.862 -115.487,97.345 -190.383,120.329c0.175,-1.909 0.125,-2.984 0.4,-3.959c1.754,-6.091 3.525,-12.187 5.279,-18.279c-4.583,0.971 -9.183,1.804 -13.783,2.567c-1.529,5.8 -2.971,11.633 -4.063,17.537c-1.129,6.075 -4.062,9.217 -10,10.363c-21.458,4.221 -42.762,9.533 -64.375,12.725c-51.962,7.708 -103.996,6.721 -155.558,-3.367c-26.354,-5.175 -52.708,-10.696 -77.708,-21.371l-11.267,17.413c26.492,10.696 53.646,19.012 81.529,24.742c19.079,3.904 38.438,6.666 57.775,8.833c27.05,3.042 54.188,2.346 81.375,0.871c26.163,-1.425 51.925,-5.729 77.221,-11.529c25.05,-5.713 49.408,-14.792 73.733,-23.334c20.417,-7.171 39.321,-17.741 57.879,-28.8c13.092,-7.796 26.288,-15.454 39.046,-23.733c20.575,-13.371 39.584,-28.871 57.692,-45.383c17.971,-16.405 33.942,-34.671 49.271,-53.575c18.437,-22.763 34.408,-47.138 48.783,-72.5c8.596,-15.175 15.438,-31.371 22.538,-47.346c9.704,-21.804 17.308,-44.288 23.504,-67.413c9.566,-35.746 15,-71.996 16.391,-108.837c0.73,-19.184 0.296,-38.525 -1.095,-57.671c-1.317,-18.092 -4.096,-36.113 -7.171,-54.013c-2.638,-15.279 -6.146,-30.466 -10.171,-45.45c-3.804,-14.133 -8.596,-28.004 -13.333,-41.858c-4.934,-14.392 -10.85,-28.367 -19.167,-41.2c0.433,2.188 0.625,4.463 1.421,6.496Z" style="fill:#344b2a;fill-rule:nonzero;"/><path d="M629.654,16.992c-0.121,-0.034 -0.246,-0.067 -0.366,-0.105c-11.005,-3.47 -22.621,-5.033 -33.921,-7.62c-22.9,-5.259 -46.146,-7.692 -69.567,-8.767c-37.796,-1.754 -75.208,1.179 -112.5,7.621c-34.029,5.887 -66.946,15.45 -98.767,28.421c-18.941,7.708 -36.945,17.812 -55.191,27.171c-29.496,15.137 -56.65,33.904 -81.788,55.379c-23.821,20.333 -46.129,42.362 -65.608,67c-18.975,23.975 -35.713,49.529 -50.454,76.266c-8.521,15.467 -15.259,31.942 -22.604,48.071c-11.371,25 -19.13,51.129 -25.538,77.829c-6.683,27.796 -11.129,55.834 -12.483,84.309c-0.917,19.65 -0.709,39.358 -0.867,59.045c-0.017,4.146 0.45,8.313 0.763,12.463c0.312,4.063 0.695,8.108 1.041,12.171c0.542,-0.034 1.063,-0.071 1.6,-0.104c-0.141,-1.3 -0.433,-2.621 -0.366,-3.925c1.058,-20.313 1.337,-40.746 3.508,-60.955c2.133,-20 6.112,-39.791 9.446,-59.65c0.416,-2.537 1.837,-4.895 2.791,-7.345c0.559,0.158 1.113,0.295 1.667,0.45c-0.208,2.537 -0.292,5.087 -0.658,7.587c-4.463,32.204 -6.075,64.479 -3.959,96.963c1.355,20.8 4.584,41.25 7.884,61.804c4.025,25.037 11.354,49.046 19.271,72.937c6.179,18.679 13.229,37.029 23.262,54.146c9.358,15.921 17.325,32.709 27.325,48.196c11.704,18.142 23.925,36.146 37.779,52.658c17.275,20.588 35.954,40.034 56.667,57.446c25.45,21.425 52.917,39.863 81.354,56.963l-60.696,-63.804c-9.979,-7.271 -18.521,-16.509 -28.262,-24.13c-18.975,-14.862 -33.334,-33.975 -48.75,-52.083c-7.05,-8.267 -12.796,-17.621 -19.063,-26.546c-16.596,-23.7 -30.712,-48.908 -43.316,-74.862c-7.134,-14.671 -11.7,-30.625 -17.238,-46.075c-10.904,-30.434 -17.346,-61.963 -21.146,-93.942c-4.516,-37.95 -4.95,-76.042 -0.329,-114.062c0.538,-4.375 1.892,-8.663 2.863,-12.967c0.591,0.033 1.2,0.067 1.787,0.104c-1.162,40.779 2.171,81.092 11.288,120.833c0.745,-1.32 0.779,-2.587 0.691,-3.837c-1.058,-14.583 -2.708,-29.167 -3.071,-43.767c-0.416,-16.633 -0.816,-33.404 0.817,-49.916c2.046,-20.659 5.658,-41.196 9.529,-61.596c7.95,-41.821 23.575,-81.042 42.396,-118.975c9.013,-18.142 19.758,-35.296 31.875,-51.596c17.917,-24.1 36.788,-47.313 58.421,-68.179c19.237,-18.592 39.929,-35.488 61.962,-50.571c14.755,-10.125 29.896,-19.792 45.609,-28.3c13.921,-7.571 28.729,-13.629 43.4,-19.721c19.583,-8.125 39.412,-15.992 60.175,-20.417c24.15,-5.141 48.525,-9.429 72.966,-12.812c29.621,-4.117 59.413,-3.283 89.205,-1.113c21.804,1.596 43.295,5 64.512,9.671l4.654,-7.762Z" style="fill:#344b2a;fill-rule:nonzero;"/><path d="M960.346,261.992c0.712,1.079 1.425,2.154 2.154,3.212c-0.554,0.192 -1.112,0.367 -1.667,0.538c-0.104,-1.234 -0.208,-2.463 -0.312,-3.713l-0.175,-0.037Z" style="fill:#344b2a;fill-rule:nonzero;"/><path d="M938.908,294.925c-0.312,-0.121 -0.645,-0.225 -0.904,-0.417c-0.071,-0.033 0.017,-0.5 0.121,-0.521c0.312,-0.104 0.642,-0.083 0.992,-0.12c-0.071,0.35 -0.142,0.712 -0.209,1.058Z" style="fill:#344b2a;fill-rule:nonzero;"/><path d="M891.513,218.85c-0.28,-0.242 -0.559,-0.504 -0.834,-0.746c0.275,0.242 0.554,0.488 0.833,0.746Z" style="fill:#344b2a;fill-rule:nonzero;"/><path d="M957.742,258.121c-0.225,-1.217 -0.45,-2.429 -0.675,-3.646l-0.159,-0.033c0.209,1.212 0.417,2.429 0.625,3.645l0.209,0.034Z" style="fill:#344b2a;fill-rule:nonzero;"/><path d="M960.521,262.029c-0.921,-1.304 -1.858,-2.604 -2.779,-3.908l-0.209,-0.034c0.938,1.3 1.875,2.605 2.813,3.905l0.175,0.037Z" style="fill:#344b2a;fill-rule:nonzero;"/><path d="M957.067,254.475c-0.592,-0.504 -1.179,-0.987 -1.754,-1.492c0.12,-0.104 0.241,-0.208 0.383,-0.329c0.4,0.588 0.796,1.196 1.212,1.788l0.159,0.033Z" style="fill:#344b2a;fill-rule:nonzero;"/><path d="M964.15,271.75l0.05,0.121l-0.05,-0.121Z" style="fill:#344b2a;fill-rule:nonzero;"/><path d="M965.642,273.363c-0.484,-0.538 -0.988,-1.075 -1.492,-1.613l0.05,0.121c0.417,0.487 0.854,0.954 1.287,1.442l0.155,0.05Z" style="fill:#344b2a;fill-rule:nonzero;"/><path d="M931.529,676.646c-31.475,119.425 -142.691,223.229 -264.879,249.358c-1.754,6.092 -3.525,12.188 -5.279,18.279c-0.275,0.975 -0.225,2.05 -0.4,3.959c74.896,-22.984 136.721,-65.467 190.383,-120.329c44.15,-45.138 78.179,-97.067 100.384,-158.367c-4.167,0.642 -7.155,0.417 -9.43,1.562c-3.608,1.838 -7.187,3.696 -10.779,5.538Z" style="fill:#344b2a;fill-rule:nonzero;"/><path d="M791.163,757.321c0.783,2.154 1.704,4.254 2.537,6.354c11.925,-9.562 23.071,-19.875 33.142,-31.058c-7.171,3.195 -14.463,6.079 -21.996,8.3c-4.517,5.504 -9.063,10.971 -13.683,16.404Z" style="fill:#344b2a;fill-rule:nonzero;"/><path d="M648.596,203.104c4.408,-17.221 7.846,-33.108 19.271,-46.267c4.146,16.909 -3.892,37.067 -19.271,46.267Zm32.342,-138.942c-1.267,-0.399 -2.571,-0.675 -3.838,-1.058c-11.337,6.092 -19.808,14.167 -22.221,28.263c1.146,1.2 6.025,-5.067 5.088,1.858c-2.138,15.8 2.083,30.904 5.571,46.025c1.425,6.146 0.625,11.146 -3.055,16.458c-10.383,14.967 -17.829,31.338 -22.17,49.167c-3.75,15.329 -7.342,20.625 -17.325,27.446c5.745,-20.242 7.308,-40.329 16.962,-60.171c-9.029,7.846 -12.171,16.754 -14.533,26.058c-3.696,14.55 -5.746,29.513 -11.804,43.438c-2.121,4.879 -3.959,9.862 -6.755,14.654c23.975,-14.187 49.2,-26.808 65.905,-50.279c12.895,-18.125 15.675,-38.317 9.375,-59.742c-3.371,-11.437 -7.642,-22.637 -8.667,-34.737c-1.404,-16.804 2.937,-31.929 11.392,-46.009c-1.321,-0.433 -2.621,-0.937 -3.925,-1.37Z" style="fill:#344b2a;fill-rule:nonzero;"/><path d="M747.221,236.317c10.071,3.921 18.958,8.8 28.875,11.25c13.021,3.229 24.183,-0.121 33.833,-9.134c2.796,-2.62 5.679,-5.154 8.284,-7.933c3.541,-3.767 7.429,-4.808 12.395,-3.054c21.13,7.5 39.342,2.046 55.434,-12.329c-1.475,-1.942 -2.988,-3.888 -4.479,-5.834c-1.25,-0.087 -2.484,-0.191 -3.663,-0.554c-22.429,-6.616 -43.887,-3.783 -64.533,6.613c-8.296,4.204 -16.821,7.033 -26.284,6.946c-14.616,-0.121 -26.995,6.408 -39.862,14.029Z" style="fill:#344b2a;fill-rule:nonzero;"/><path d="M374.463,61.767c10.833,4.133 18.575,15.4 20.154,29.929c-13.038,-6.25 -19.288,-15.746 -20.154,-29.929Zm24.825,13.508c-2.846,-9.775 -9.705,-17.275 -18.888,-22.121c-4.325,1.025 -8.733,1.896 -13.196,2.571c-1.733,0.279 -3.317,0.658 -5,0.954c1.546,3.629 3.108,7.242 4.55,10.904c6.458,16.321 16.717,29.671 31.042,39.825c18.991,13.438 32.412,30.642 37.9,53.717c2.275,9.6 10.312,15.329 17.654,22.796c0.471,-26.788 -7.308,-49.517 -26.283,-66.788c-13.038,-11.875 -22.78,-24.687 -27.78,-41.858Z" style="fill:#344b2a;fill-rule:nonzero;"/><path d="M349.117,158.779c7.95,4.584 16.266,25.625 16.437,41.688c-11.387,-6.184 -19.771,-27.379 -16.437,-41.688Zm17.741,68.596c13.925,10.208 28.405,19.654 43.279,29.063c-10.779,-19.238 -13.662,-40.784 -19.562,-61.388c-2.292,-8.004 -5.992,-15.35 -12.692,-20.937c7.255,18.037 10.363,36.995 15.138,57.1c-8.367,-5.746 -12.813,-12.571 -15.279,-20.33c-6.804,-21.408 -13.438,-42.812 -26.3,-61.616c-2.259,-3.279 -0.867,-7.05 -0.055,-10.417c3.684,-15.154 6.755,-30.346 5.8,-46.092c-0.208,-3.354 0.121,-3.37 5.417,-1.704c-2.987,-14.046 -11.196,-22.9 -23.246,-29.166c-2.533,0.712 -5.12,1.408 -7.62,2.204c7.654,10.071 10.987,21.754 11.666,34.291c0.642,11.821 -0.712,23.575 -4.741,34.65c-13.992,38.58 -4.88,70.105 28.195,94.342Z" style="fill:#344b2a;fill-rule:nonzero;"/><path d="M978.717,631.125c-63.804,15.383 -119.167,46.633 -168.454,89.392c-13.475,11.7 -27.5,22.725 -42.034,33.125c-26.3,18.82 -55.658,30.625 -87.708,38.091c18.975,6.075 37.05,6.734 55.887,1.771c36.734,-9.671 72.813,-21.408 108.975,-32.954c25.571,-8.158 51.509,-11.908 78.384,-8.296c6.946,0.921 6.512,2.813 3.387,7.879c-4.116,6.634 -8.316,9.396 -17.05,8.492c-28.35,-2.9 -54.825,6.146 -81.075,15.488c-26.891,9.562 -53.996,18.399 -81.979,24.287c-3.162,0.658 -6.354,1.129 -11.579,2.046c28.521,13.108 56.333,18.542 85.867,15.383c29.72,-3.175 53.904,-19.946 80.208,-32.1c-13.388,16.075 -23.804,34.6 -45.783,41.546c-41.196,13.021 -81.163,11.65 -120.571,-6.563c-27.742,-12.812 -57.171,-19.895 -87.396,-23.595c-39.096,-4.775 -73.229,-20.625 -103.613,-45.259c-8.454,-6.858 -17.341,-13.179 -26.025,-19.758c11.425,1.771 22.225,5.192 32.467,9.913c14.808,6.825 29.342,14.237 43.975,21.408c15.975,7.812 33.004,11.804 50.433,14.704c8.788,1.475 16.584,-1.408 24.534,-4.012c46.387,-15.05 88.333,-37.863 124.946,-70.434c52.675,-46.858 112.587,-80.433 181.425,-97.275c0.262,-0.066 0.504,-0.241 0.729,-0.225c4.304,0.384 9.912,-5.329 12.587,0.434c2.467,5.262 -4.808,15.141 -10.537,16.512Zm-21.475,48.158c-35.313,8.075 -65.279,27.955 -95.104,47.621c-19.15,12.642 -38.875,24.221 -60.471,33.213c4.221,-7.463 55.433,-48.005 80.312,-63.384c29.325,-18.141 60.209,-32.641 95.192,-40.191c-3.317,11.804 -6.65,19.704 -19.929,22.741Zm-11.963,49.863c-0.746,1.387 -2.05,2.171 -3.75,2.204c-16.616,0.367 -32.691,4.325 -49.116,7.033c19.445,-14.462 39.829,-26.945 64.862,-31.791c-3.992,7.521 -7.95,15.054 -11.996,22.554Zm-429.079,-107.675c3.833,15.767 8.088,31.217 13.454,46.321c9.463,26.666 24.096,49.271 49.859,63.229c22.883,12.379 46.895,11.842 71.391,7.171c31.804,-6.079 62.396,-16.892 93.904,-24.15c4.671,-1.075 9.342,-2.1 14.621,-1.875c-7.466,4.425 -14.846,9.062 -22.45,13.262c-35.45,19.567 -72.883,33.059 -113.8,33.475c-45.854,0.467 -83.716,-26.737 -99.358,-69.812c-7.954,-21.959 -9.533,-44.617 -7.621,-67.621Zm-9.083,-128.421c-2.029,-33.488 -9.963,-65.208 -26.613,-94.408c-16.946,-29.721 -44.304,-48.175 -72.275,-66.042c18.334,2.05 34.046,9.863 48.629,20.762c-0.07,-20.466 -24.029,-55.329 -47.275,-68.47c4.705,16.008 12.38,29.479 22.813,41.633c-16.075,-5.817 -29.321,-14.983 -38.558,-29.271c-3.734,-5.767 -7.242,-11.704 -10.434,-17.779c-4.516,-8.592 -8.612,-17.413 -17.571,-23.004c2.1,0.783 4.288,1.425 6.305,2.396c14.041,6.666 27.895,13.716 42.062,20.054c23.213,10.379 38.788,27.812 47.604,51.233c9.984,26.525 22,52.013 35.817,76.771c8.108,14.496 13.975,30.017 15.625,46.804c1.321,13.613 -0.746,26.7 -6.129,39.321Zm-45.329,216.875c10.104,-5.642 18.179,-12.325 25.487,-20.017c7.429,-7.829 12.55,-17.171 18.508,-27.966c-4.045,24.791 -21.841,49.183 -43.995,47.983Zm31.162,-64.65c-5.225,25.067 -28.854,43.279 -54.754,45.275c21.996,-10.188 40.608,-24.25 54.754,-45.275Zm-78.262,29.425c21.787,-5.275 39.079,-17.725 55.85,-33.542c-7.188,23.284 -37.396,40.938 -55.85,33.542Zm117.762,-245.4c6.283,-16.458 14.979,-31.788 23.713,-47.013c8.558,-14.945 13.7,-31.233 19.445,-47.258c9.55,-26.596 26.7,-45.9 52.621,-57.462c15.054,-6.705 29.95,-13.767 44.913,-20.68c0.383,0.592 0.746,1.2 1.112,1.788c-10.904,4.567 -14.446,14.792 -19.183,24.012c-10.329,20.071 -24.133,36.492 -45.8,44.967c-0.938,0.363 -1.858,0.763 -2.813,1.092c-0.175,0.071 -0.45,-0.138 -1.875,-0.642c11.563,-11.946 22.275,-24.117 24.167,-40.783c-15.8,3.646 -35.937,31.25 -47.275,66.304c16.288,-11.738 33.788,-17.5 52.763,-20c-29.03,15.921 -55.73,34.167 -73.3,63.3c-17.342,28.767 -25.105,60.329 -28.838,95.154c-8.037,-22.362 -7.342,-42.654 0.35,-62.779Zm67.983,281.704c-26.716,-1.721 -56.491,-30.871 -62.862,-61.562c29.583,44.945 31.442,42.708 62.862,61.562Zm55.905,244.738c-20.85,-6.18 -40.696,-14.775 -60.417,-23.696c-35.329,-15.992 -72.517,-24.95 -110.575,-31.546c-56.717,-9.808 -106.525,-34.879 -151.508,-70.504c-24.392,-19.321 -50.105,-37.013 -79.359,-48.421c-41.387,-16.146 -84.112,-21.525 -128.158,-13.558c-6.475,1.162 -17.779,-7.796 -17.05,-13.871c0.346,-2.933 3.387,-2.484 5.433,-2.796c15.642,-2.517 31.392,-2.621 47.225,-2.117c63.625,2.029 119.721,23.992 169.842,62.775c31.842,24.671 63.992,49.013 102.829,62.33c20.558,7.045 41.529,12.291 63.004,15.466c32.204,4.792 63.179,13.788 92.95,26.858c30.592,13.405 61.529,25.851 94.084,34.551c-9.084,4.529 -17.867,7.62 -28.3,4.529Zm-57.867,6.162c-35.588,-15.883 -72.463,-22.5 -111.525,-19.962c-39.829,2.587 -77.138,-7.971 -112.379,-26.409c-21.65,-11.316 -43.038,-23.316 -66.009,-31.787c-24.479,-9.046 -49.441,-12.188 -74.512,-1.788c-2.467,1.025 -4.375,0.713 -6.354,-0.833c-4.392,-3.421 -8.804,-6.787 -14.342,-11.042c31.842,-14.429 62.604,-13.179 93.404,-1.737c16.267,6.042 31.925,13.612 46.771,22.517c45.554,27.345 94.254,41.166 147.758,38.283c33.542,-1.825 64.95,7.483 94.759,22.725c11.512,5.887 23.262,11.425 36.371,14.896c-12.775,5.433 -23.505,-0.209 -33.942,-4.863Zm-49.375,17.275c-19.042,-2.429 -38.158,-2.446 -57.221,-0.971c-41.962,3.246 -80.696,-7.533 -117.812,-26.041c-25.467,-12.725 -50.209,-27.621 -79.134,-31.284c-10.812,-1.354 -18.816,-6.77 -28.558,-14.187c18.492,-4.408 34.775,-3.558 51.042,2.137c22.97,8.021 43.75,20.592 65.695,30.78c28.23,13.108 57.325,22.708 88.871,22.291c14.271,-0.187 28.509,-1.212 42.779,-1.7c25.971,-0.904 50.259,5.575 75.067,17.204c-14.529,3.405 -27.637,3.455 -40.729,1.771Zm-362.638,-132.862c-8.02,-7.884 -8.575,-7.954 1.513,-12.829c32.237,-15.542 65.292,-16.425 98.662,-3.996c19.946,7.433 37.813,18.837 55.713,30.141c20.225,12.775 40.537,25.275 63.071,34.042c3.958,1.529 8.925,5.296 13.054,8.733c-16.179,-1.804 -30.954,-7.879 -45.067,-15.312c-20.746,-10.883 -40.816,-23.088 -61.683,-33.733c-21.792,-11.092 -44.775,-18.246 -69.792,-16.405c-13.958,1.025 -27.329,4.359 -39.237,11.475c-6.825,4.08 -10.904,3.125 -16.234,-2.116Zm-31.562,-42.434c-5.521,2.188 -8.421,1.442 -12.05,-3c-9.6,-11.77 -9.792,-11.512 4.829,-14.95c30.171,-7.083 59.633,-3.591 88.75,5.609c0.608,0.191 1.042,0.937 2.5,2.308c-14.671,-1.129 -28.229,-1.267 -41.825,0.158c-14.529,1.525 -28.696,4.546 -42.204,9.875Zm-88.35,-137.412c-3.575,-11.267 -4.063,-11.179 7.933,-10.05c21.963,2.083 43.092,8.054 63.646,15.537c30.954,11.267 62.675,19.496 94.6,27.238c40.454,9.812 76.563,28.404 108.058,55.679c-19.358,-8.075 -38.075,-17.221 -57.362,-25.158c-34.096,-14.009 -70.208,-20.813 -105.575,-30.329c-22.342,-6.005 -44.442,-12.95 -66.717,-19.184c-10.071,-2.829 -20.471,-4.654 -30.921,-4.096c-7.691,0.38 -11.354,-2.345 -13.662,-9.637Zm231.787,-148.471c4.271,-18.021 21.042,-17.846 32.171,-25.158c-7.621,11.754 -17.412,20.8 -32.171,25.158Zm-110.866,-12.571c3.591,-16.162 15.866,-22.691 29.096,-30.137c-7.067,13.229 -13.925,24.862 -29.096,30.137Zm-35.992,-81.475c13.438,-3.716 25.992,-5.571 39.046,-1.441c-16.338,10.07 -30.4,10.175 -39.046,1.441Zm113.246,-79.375c-8.625,2.884 -17.167,6.267 -27.933,3.542c17.779,-10.488 35.904,-10.625 54.308,-9.288c-9.013,0.988 -17.813,2.884 -26.375,5.746Zm-178.958,-3.316c19.775,-0.692 36.375,-11.317 56.337,-11.3c-18.421,23.383 -36.787,27.187 -56.337,11.3Zm217.57,-163.421c10.955,10.991 13.925,25.246 18.596,41.112c-17.121,-10.537 -15.504,-26.908 -18.596,-41.112Zm433.23,-0.138c-3.509,14.513 -1.667,31.338 -18.175,40.088c4.6,-14.096 6.612,-29.238 18.175,-40.088Zm190.416,160.471c8.575,2.375 17.363,3.383 27.484,4.354c-22.363,17.467 -38.542,17.104 -54.375,-8.575c9.304,-0.329 18.158,1.771 26.891,4.221Zm-125.466,9.321c-17.538,4.583 -31.913,-8.975 -48.771,-9.167c17.187,-2.5 33.437,0.888 48.771,9.167Zm86.82,77.45c-6.145,5.467 -13.175,7.012 -20.554,6.108c-7.016,-0.85 -13.021,-5.466 -20.991,-5.883c10.575,-6.288 20.12,-6.25 41.545,-0.225Zm-36.458,80c-9.079,-2.938 -17.533,-12.188 -25.033,-27.417c13.525,4.167 24.254,15.904 25.033,27.417Zm-111.042,13.575c-14.271,-4.983 -23.404,-13.596 -30.175,-25.017c11.009,6.404 25.921,8.192 30.175,25.017Zm259.238,36.979c-1.129,9.046 -2.309,18.071 -3.854,27.067c-0.609,3.487 -1.771,5.312 -5.505,5.937c-64.704,10.625 -121.825,39.009 -175.904,74.754c-39.079,25.834 -82.116,42.33 -128.575,47.588c-45.416,5.142 -85.296,-7.708 -115.537,-43.975c-3.404,-4.079 -6.146,-8.75 -8.854,-13.367c-2.292,-3.925 -4.08,-8.141 -5.955,-11.946c0.9,-1.562 1.525,-1.058 2.03,-0.466c42.083,49.375 95.225,62.166 156.666,47.271c41.771,-10.121 78.004,-30.555 109.879,-59.546c-1.633,-1.475 -2.725,0.241 -3.87,0.521c-1.2,0.275 -2.225,1.212 -3.35,1.804c-28.717,14.983 -57.642,29.512 -89.567,36.65c-28.021,6.25 -55.833,7.066 -83.733,-1.563c-38.405,-11.875 -63.75,-36.979 -75.034,-75.054c-13.996,-47.117 -7.937,-90.867 27.15,-127.862c18.629,-19.638 35.904,-22.83 59.725,-10.105c19.079,10.192 34.809,24.48 42.15,45.505c9.342,26.716 26.859,36.233 58.092,32.829c-4.096,-9.184 -7.658,-18.438 -12.204,-27.171c-7.642,-14.738 -21.546,-21.946 -36.059,-28.004c-9.791,-4.079 -18.354,-9.879 -25.816,-17.396c-5.575,-5.625 -11.65,-10.713 -18.267,-15.05c-6.542,-4.288 -13.333,-8.246 -20.762,-12.829c10.937,-4.917 21.737,-8.7 33.212,-10.696c14.633,-2.554 29.304,-3.679 44.113,-1.683c8.75,1.179 17.329,3.629 24.116,9.008c18.196,14.412 39.167,23.767 59.479,34.325c4.271,2.221 6.475,4.879 7.325,9.687c1.859,10.609 5.246,20.73 11.842,29.53c10.488,13.958 25.433,18.42 42.379,20.558c-2.916,-8.267 -4.55,-15.975 -6.25,-23.646c-3.804,-16.979 -13.541,-29.792 -29.15,-37.208c-25.383,-12.046 -49.221,-26.821 -73.887,-40.121c-3.354,-1.804 -6.859,-3.296 -9.95,-6.404c5.416,1.666 10.971,3.021 16.233,5.087c25.658,10 51.25,20.104 78.575,24.792c4.517,0.779 9.063,1.404 13.596,2.117c17.083,2.741 31.717,-1.738 43.733,-14.48c4.288,-4.55 9.08,-8.612 14.896,-14.045c-14.325,0.762 -25.087,-6.771 -37.537,-8.125c-12.742,-1.388 -24.567,0.625 -35.225,7.204c-9.063,5.608 -18.055,6.146 -27.742,2.987c-6.304,-2.066 -12.813,-3.612 -18.821,-6.304c-26.3,-11.75 -53.958,-14.062 -82.275,-13.087c-15.692,0.537 -31.404,0.104 -46.146,0.104c13.854,-12.121 28.7,-25.538 44.029,-38.35c11.58,-9.688 25.071,-11.825 39.55,-7.467c0.242,0.071 0.5,0.088 0.73,0.192c20.971,10.571 41.266,8.629 61.179,-3.021c2.587,-1.529 5.625,-2.413 8.542,-3.196c2.204,-0.592 4.445,-0.904 5.174,2.554c2.188,10.379 10.538,12.413 20.121,12.984c-3.558,-3.334 -7.1,-6.7 -10.679,-10.017c-14.358,-13.263 -30.587,-24.096 -48.75,-30.883c-25.329,-9.446 -47.671,-1.13 -66.908,16.145c-23.179,20.834 -48.263,39.167 -72.988,58c-13.158,10.038 -25.537,21.113 -41.091,28.005c7.796,-12.934 17.55,-24.15 31.612,-33.959c-20.033,3.925 -34.375,13.388 -45.816,27.763c-8.959,11.25 -14.53,24.546 -22.567,36.337c-1.704,2.479 -3.283,5.05 -5.521,8.504c-1.337,-3.8 -0.087,-6.337 0.467,-8.8c2.658,-11.945 5.746,-23.733 10.729,-35c9.029,-20.416 24.046,-33.629 46.337,-36.65c26.042,-3.558 47.796,-15.191 67.171,-32.241c8.229,-7.238 16.563,-14.354 24.929,-21.438c23.075,-19.566 49.846,-25.679 79.309,-21.271c18.104,2.709 36.162,5.888 54.233,8.996c17.621,3.054 31.946,11.317 41.996,26.546c4.758,7.238 9.933,14.233 16.408,20.083c11.875,10.713 24.913,11.875 38.629,3.838c10.346,-6.075 17.917,-14.983 25.296,-24.129c0.171,-0.192 0.313,-0.454 0.467,-0.679c-1.475,-3.855 -2.796,-7.796 -3.838,-11.875c-0.379,-1.509 -0.658,-3.021 -1.025,-4.53c-7.654,-1.562 -15.329,-3.145 -22.95,-4.933c-9.529,-2.221 -19.079,-2.879 -28.82,-1.371c-15.988,2.45 -31.059,1.371 -43,-11.633c-2.396,-2.621 -5.834,-4.146 -9.342,-4.979c-20.263,-4.879 -39.775,-12.625 -60.592,-15.4c-30.712,-4.117 -58.662,2.725 -84.025,20.329c-16.791,11.65 -31.529,25.817 -47.208,38.837c-14.496,12.03 -30.746,19.671 -50.033,20.171c7.866,-5.396 15.679,-10.746 23.212,-16.491c15.05,-11.459 24.321,-26.492 29.342,-44.463c3.279,-11.787 6.891,-23.471 10,-35.296c4.496,-17.083 14.825,-29.391 30.154,-37.621c13.212,-7.116 27.621,-12.691 33.7,-28.245c7.725,-19.863 10.954,-40.242 6.854,-61.405c-1.7,-8.716 -4.304,-17.241 -5.171,-28.266c-8.558,9.325 -18.141,15.575 -20.175,27.762c2.659,-3.579 5.208,-7.204 8.663,-10.121c3.683,-3.145 6.233,-3.145 7.5,2.046c2.346,9.725 1.704,18.821 -6.075,26.129c-2.779,2.605 -5.746,5.071 -8.909,7.188c-8.645,5.833 -13.92,13.854 -16.925,23.75c-4.929,16.408 -11.945,31.512 -29.408,40.954c4.233,-6.404 7.463,-11.908 8.192,-19.6c-13.384,19.758 -31.734,31.946 -51.859,40.625c-44.962,19.392 -71.387,56.146 -93.991,96.804c-6.179,11.096 -11.475,22.729 -15.329,35.071c-0.68,-12.883 -3.405,-26.25 3.991,-37.9c21.65,-34.096 40.313,-70.296 71.529,-97.604c19.321,-16.908 24.009,-43.888 13.696,-67.292c-3.679,-8.366 -7.829,-16.508 -12.133,-25.521c-8.317,13.475 -22.933,21.771 -26.579,37.659c-3.475,15.137 -1.929,30.641 -2.1,46.041c4.304,-7.537 6.041,-15.695 5.329,-24.062c-1.458,-17.225 -0.279,-20.85 13.592,-33.596c2.883,16.008 1.079,31.129 -4.705,45.696c-6.77,17.05 -13.925,33.942 -21.195,50.762c-4.83,11.163 -12.884,20.121 -21.042,28.925c-9.5,10.296 -19.15,20.434 -27.467,33.005c-18.404,-26.946 -46.283,-46.338 -55.625,-79.496c-3.491,-12.363 -10.537,-23.7 -15.608,-35.663c-5.779,-13.662 -6.633,-27.966 -5.138,-42.796c9.913,4.813 20.346,20.313 16.909,29.463c-4.046,10.783 1.112,18.821 3.246,27.971c1.579,-15.35 1.266,-30.663 -1.717,-45.729c-3.142,-15.938 -17.292,-24.792 -25.417,-38.246c-4.029,7.55 -7.829,14.562 -11.529,21.666c-11.821,22.742 -9.079,51.63 10.208,68.296c25.921,22.396 42.309,51.392 60.521,79.238c15.8,24.183 15.367,24.479 17.534,57.675c-2.43,-0.834 -2.271,-3.179 -3.038,-5.038c-15.346,-36.787 -35.521,-70.571 -63.921,-98.783c-13.162,-13.075 -30.416,-20.313 -46.546,-29.046c-17.97,-9.721 -35.695,-19.862 -47.379,-37.708c0.921,6.425 3.575,12.012 7.221,17.379c-9.929,-4.408 -16.875,-12.05 -22.083,-21.233c-2.863,-5.05 -5.379,-10.505 -6.909,-16.092c-3.454,-12.467 -10.554,-21.771 -21.337,-28.75c-8.975,-5.817 -13.871,-14.1 -12.708,-25.192c0.329,-2.987 0.175,-6.929 2.916,-8.229c3.246,-1.546 6.234,1.563 8.679,3.542c2.313,1.858 3.875,4.616 6.875,8.35c-2.429,-12.934 -12.187,-18.575 -18.92,-27.534c-8.005,28.105 -11.234,55.188 -2.434,82.621c4.1,12.775 11.754,22.325 24.359,27.813c23.091,10.033 38.87,26.354 44.445,51.733c2.221,10.175 5.763,20.071 8.871,30.038c7.534,24.216 23.317,41.404 45.45,53.175c1.667,0.887 4.029,0.954 4.934,3.87c-15.609,0.871 -28.925,-4.562 -41.2,-13.07c-15.121,-10.488 -28.055,-23.63 -42.325,-35.175c-21.563,-17.43 -45.434,-28.525 -73.388,-31.092c-22.5,-2.083 -43.417,3.733 -64.408,10.171c-14.134,4.358 -28.404,8.266 -39.879,18.437c-2.759,2.434 -6.492,2.9 -10.138,2.746c-20.608,-0.954 -40.904,0.554 -60.696,6.163c-2.55,9.445 -5.379,19.408 -8.766,29.287c3.366,3.263 6.754,6.492 10.641,9.183c15.663,10.817 30.159,10.263 44.704,-2.045c5.871,-4.984 10.855,-10.855 15.246,-17.084c11.213,-15.887 26.234,-25.104 45.467,-28.004c16.371,-2.467 32.587,-5.954 48.975,-8.283c32.433,-4.584 60.937,4.166 85.521,26.008c12.016,10.658 24.187,21.113 37.466,30.258c11.93,8.213 24.617,14.396 39.15,16.2c37.759,4.705 58.23,27.413 65.817,63.384c1.196,5.662 3.421,11.2 1.667,17.971c-5.088,-8.525 -10.609,-16.825 -15.192,-25.609c-11.754,-22.55 -28.158,-39.183 -55.8,-44.879c11.496,10.158 22.363,19.029 28.213,32.329c-11.025,-5.054 -20.78,-12.066 -30.225,-19.462c-29.08,-22.779 -58.838,-44.671 -87.171,-68.454c-24.359,-20.471 -51.546,-20.696 -78.488,-3.525c-14.983,9.545 -30.366,18.437 -42.466,31.37c6.77,2.43 18.42,-2.308 19.287,-9.287c0.888,-7.138 4.721,-5.954 8.925,-4.621c3.629,1.167 7.275,2.571 10.521,4.5c16.925,10.05 33.958,10.45 51.837,2.221c16.305,-7.517 31.825,-4.913 45.817,6.25c15.625,12.5 28.683,27.933 47.413,39.671c-16.492,1.787 -30.642,-0.088 -44.705,-1.184c-32.933,-2.55 -64.545,1.738 -94.825,15.209c-3.47,1.546 -7.275,2.312 -10.92,3.458c-10.209,3.208 -20.034,2.933 -29.342,-2.954c-15.208,-9.617 -31.146,-9.529 -47.725,-3.992c-7.396,2.467 -14.583,6.284 -23.021,5.088c22.675,23.991 30.225,31.421 63.038,27.029c24.15,-3.246 47.312,-9.913 69.758,-19.338c10.712,-4.5 21.754,-8.266 33.35,-10.175c-25.433,13.23 -49.063,29.738 -75.329,41.163c-21.7,9.446 -35.071,24.6 -38.629,48.229c-0.817,5.488 -2.813,10.8 -4.271,16.2c25.279,0.5 46.458,-15.071 51.754,-40.608c2.533,-12.259 8.212,-18.559 19.304,-23.317c16.113,-6.929 31.617,-15.346 44.725,-27.517c5.483,-5.087 12.204,-8.333 19.529,-10.104c22.017,-5.312 63.542,0.034 85,11.179c-5.362,3.334 -10.433,6.459 -15.483,9.584c-7.833,4.879 -14.863,10.783 -21.063,17.587c-6.995,7.654 -14.825,14.479 -24.687,17.571c-27.933,8.767 -44.392,27.654 -50.467,55.796c24.321,5.35 45.904,-4.946 55.817,-28.296c11.717,-27.658 30.729,-46.808 59.633,-56.146c10.121,-3.283 18.767,-2.016 27.588,3.438c18.037,11.108 31.179,26.716 39.029,45.883c16.546,40.45 15.692,80.729 -6.392,119.133c-15.066,26.213 -37.533,42.638 -68.437,45.609c-17.117,1.646 -33.417,-2.467 -49.375,-8.092c-25.225,-8.908 -50.417,-17.933 -75.604,-26.908c-1.13,-0.4 -2.292,-0.663 -3.909,0.154c8.334,4.167 16.579,8.492 25,12.467c27.9,13.191 54.342,29.129 81.563,43.608c15.8,8.421 32.571,14.517 49.062,21.321c41.475,17.116 78.596,41.25 111.075,71.929c37.104,35.05 80.246,54.962 131.167,58.542c26.212,1.837 50.971,9.458 74.667,20.779c16.112,7.708 32.395,14.95 50.541,16.7c13.088,1.287 25.917,-0.434 38.729,-2.742c1.963,-0.346 3.925,-0.658 6.25,-1.042c-9.6,15.45 -29.441,24.117 -47.604,21.409c-15.5,-2.292 -30.5,-6.442 -44.337,-13.7c-31.634,-16.579 -65.246,-25.8 -100.767,-28.404c-10.187,-0.746 -19.754,-4.096 -29.546,-6.875c14.425,10.295 30.4,17.691 47.309,22.05c39.029,10.054 71.008,32.395 103.316,57.012c-11.371,6.008 -21.996,12.258 -33.958,15.575c-4.479,1.25 -9.046,-1.042 -13.404,-2.221c-44.079,-11.875 -87.796,-24.812 -128.384,-46.287c-20.558,-10.867 -37.033,-26.909 -53.283,-43.159c-14.408,-14.429 -28.646,-28.975 -44.946,-41.408c-23.508,-17.896 -51.146,-25.937 -78.716,-34.287c-5.071,-1.525 -10.088,-3.23 -16.009,-3.421c7.05,5.021 13.996,10.191 21.163,15.037c8.666,5.867 17.658,11.213 27.137,15.642c31.634,14.775 58.509,36.042 82.446,61.112c7.9,8.28 14.775,17.517 20.938,24.875c-6.334,0.209 -16.021,-2.533 -25.763,-4.2c-49.721,-8.487 -93.679,-30.137 -134.967,-58.404c-39.166,-26.787 -79.079,-52.375 -124.666,-67.429c-34.479,-11.387 -70.104,-17.396 -105.817,-23.142c-18.125,-2.916 -36.337,-5.241 -54.725,-4.67c-6.058,0.175 -6.908,-4.48 -8.8,-7.967c-1.754,-3.213 -5.904,-6.825 -3.783,-10.071c1.629,-2.5 6.683,-1.025 10.225,-0.887c22.029,0.887 43.333,6.112 64.825,10.383c26.979,5.367 54.096,10.017 80.658,17.362c39.654,10.971 75.817,29.584 111.304,49.842c30.971,17.708 60,38.7 92.05,54.583c20.292,10.055 41.7,17.171 63.438,23.717c-12.467,-13.262 -25.817,-25.8 -41.617,-34.254c-51.112,-27.379 -97.308,-61.492 -141.179,-99.046c-30.313,-25.937 -65.038,-42.446 -104.254,-49.912c-19.342,-3.696 -37.796,-10.209 -55.346,-19.342c-32.242,-16.771 -67,-23.817 -102.954,-25.971c-5.329,-0.329 -12.588,-12.133 -10.363,-16.979c1.284,-2.796 4.046,-1.596 6.092,-1.442c34.725,2.725 69.221,7.709 100.8,22.971c28.004,13.542 57.171,22.708 87.133,30.192c27.363,6.854 52.225,19.687 74.046,37.062c31.288,24.917 65.817,42.363 104.375,52.396c41.217,10.713 74.671,34.325 104.496,63.788c20.158,19.912 40.817,39.27 65.679,53.366c18.263,10.367 37.933,17.467 57.725,24.2c25.329,8.596 50.625,17.292 76.546,23.979c0.937,0.242 1.925,0.313 4.967,0.813c-9.742,-10.417 -19.567,-17.688 -30.038,-24.146c-13.958,-8.629 -29.096,-14.933 -44.65,-19.725c-44.187,-13.629 -80.487,-39.879 -114.792,-69.671c-27.9,-24.216 -55.191,-49.25 -87.745,-67.429c-12.9,-7.221 -25.921,-14.271 -39.792,-19.425c-33.279,-12.396 -65.05,-27.779 -95.483,-46.146c-27.884,-16.808 -58.075,-28.458 -89.205,-37.658c-26.162,-7.742 -51.979,-16.388 -77.5,-26.008c-32.67,-12.342 -66.595,-18.73 -101.337,-21.059c-5.292,-0.346 -7.063,-2.133 -8.021,-7.533c-0.121,-0.625 -0.171,-1.25 -0.292,-1.875c-17.45,32.812 18.246,84.358 30.275,113.646c8.58,20.937 17.309,41.908 25.488,63.071c5.521,0.366 10.937,3.058 14.425,8.82c9.412,15.505 12.225,32.467 13.629,49.792c58.525,70.938 132.083,122.013 218.558,155.85c75.609,29.6 153.63,40.192 234.046,30.104c104.375,-13.125 196.25,-55.329 275.017,-124.704c12.708,-11.196 24.654,-22.742 35.904,-34.617c10.938,-17.137 21.738,-34.341 31.892,-51.858c41.441,-71.371 74.654,-151.771 80.816,-234.879c-1.091,0.017 -2.204,0.087 -3.262,-0.121Z" style="fill:#344b2a;fill-rule:nonzero;"/><path d="M297.379,96.8c1.267,-1.629 3.229,-0.554 4.825,0.125c10.4,4.425 16.409,16.267 13.267,25.867c-9.621,-4.896 -15.625,-11.859 -18.021,-21.771c-0.333,-1.388 -0.75,-3.35 -0.071,-4.221Zm10.225,30.713c6.2,5.695 10.45,12.987 15.992,20.783c3.054,-9.6 6.716,-17.658 7.725,-26.475c1.941,-17.033 -5.104,-28.683 -21.2,-34.55c-5.954,-2.154 -12.292,-3.229 -18.438,-4.879c-1.058,-0.296 -2.204,-0.642 -3.383,-1.009c-2.813,1.288 -5.679,2.538 -8.438,3.855c4.48,5.487 9.046,10.904 11.317,17.762c3.229,9.688 8.979,17.675 16.425,24.513Z" style="fill:#344b2a;fill-rule:nonzero;"/><path d="M107.621,280.275c2.017,-1.2 3.908,0.137 5.625,1.212c0.85,0.542 1.579,1.271 2.308,1.963c5.834,5.487 11.633,10.975 17.642,16.633c-11.288,2.988 -23.996,-4.029 -26.546,-14.325c-0.471,-1.941 -1.2,-4.2 0.971,-5.483Zm26.875,26.337c21.546,0.467 41.267,-4.254 58.437,-19.187c-7.395,1.146 -14.479,1.704 -21.266,3.387c-13.646,3.367 -25.696,-0.07 -35.4,-9.287c-9.88,-9.358 -20.713,-13.733 -33.992,-12.5c-2.379,3.958 -4.654,7.95 -6.788,11.979c0.38,0.779 0.9,1.492 1.25,2.275c7.134,16.667 20.417,22.934 37.759,23.334Z" style="fill:#344b2a;fill-rule:nonzero;"/><path d="M219.238,151.558c16.404,7.917 28.108,26.009 28.591,44.638c-16.979,-10.817 -28.558,-24.083 -28.591,-44.638Zm56.441,70.055c-8.125,-7.538 -13.437,-16.705 -14.896,-27.73c-3.875,-29.062 -19.604,-48.487 -46.979,-58.696c-1.425,-0.537 -2.729,-1.387 -4.116,-2.012c-1.355,-0.608 -2.155,-1.25 -2.655,-1.913c-1.529,1.288 -2.954,2.709 -4.445,4.013c0.641,0.537 1.283,1.283 1.995,2.462c5.017,8.334 5.225,17.659 5.521,26.667c0.609,18.733 9.013,31.392 26.475,38.058c7.554,2.88 13.492,8.005 19.429,13.296c8.109,7.242 16.788,13.596 29.825,15.105c-4.237,-3.855 -7.221,-6.509 -10.154,-9.25Z" style="fill:#344b2a;fill-rule:nonzero;"/><path d="M200.054,231.125c18.921,21.875 40.709,19.321 63.609,7.5c1.72,-0.888 3.475,-1.7 5.574,-2.725c-12.379,-8.804 -25.158,-15.017 -40.433,-14.638c-8.579,0.226 -16.6,-2.083 -24.15,-6.233c-19.792,-10.867 -40.608,-13.175 -62.308,-8.104c-2.625,3.921 -5.384,7.758 -7.954,11.717c4.15,3.262 8.595,6.112 13.454,8.179c10.816,4.616 22.05,4.529 32.812,0.291c7.45,-2.916 13.25,-1.42 18.788,3.563c0.191,0.171 0.45,0.275 0.608,0.45Z" style="fill:#344b2a;fill-rule:nonzero;"/><path d="M796.908,153.192c-0.416,21.283 -12.325,34.112 -28.766,44.129c-0.796,-13.8 14.116,-36.979 28.766,-44.129Zm-47.395,72.291c14.375,-10.52 28.925,-20.625 44.325,-29.671c10.312,-6.041 12.516,-17.45 13.091,-28.75c0.521,-10.241 2.046,-20.225 5.938,-29.825c0.258,-0.608 0.5,-1.008 0.746,-1.441c-0.905,-0.713 -1.788,-1.475 -2.692,-2.188c-0.158,0.088 -0.242,0.192 -0.4,0.259c-2.933,1.546 -5.833,3.229 -8.942,4.27c-25.137,8.438 -40,25.871 -43.941,51.842c-2.584,16.908 -10.538,29.929 -24.875,40.45c7.237,1.458 12.395,-1.754 16.75,-4.946Z" style="fill:#344b2a;fill-rule:nonzero;"/><path d="M655.01,61.717c-2.033,14.912 -7.154,25.433 -21.704,30.587c3.525,-12.742 8.733,-23.175 21.704,-30.587Zm-58.146,88.729c3.996,-13.279 12.083,-24.042 22.9,-32.709c1.008,-0.795 1.929,-1.7 2.988,-2.412c21.404,-14.512 35.8,-34.183 43.887,-58.35c-5.275,-1.321 -10.587,-2.55 -15.9,-3.733c-10.975,5.071 -18.525,13.387 -21.512,25.208c-3.717,14.742 -11.7,25.954 -23.213,35.783c-20.85,17.796 -31.629,40.625 -30.658,68.817c10.883,-8.75 17.587,-19.6 21.508,-32.604Z" style="fill:#344b2a;fill-rule:nonzero;"/><path d="M713.142,98.883c2.1,-1.25 4.879,-3.4 6.858,-1.958c2.292,1.683 0.137,4.667 -0.592,6.908c-2.895,9.009 -8.625,15.675 -18.104,20.417c-0.504,-11.337 2.621,-19.846 11.838,-25.367Zm-20.313,50.505c12.275,-17.917 28.909,-31.405 37.796,-51.996c2.708,-6.25 4.408,-10.138 6.008,-12.517c-2.329,-0.971 -4.671,-1.842 -6.995,-2.796c-6.042,1.721 -11.617,3.3 -16.896,4.913c-22.117,6.841 -29.875,20.071 -24.896,42.45c1.441,6.441 3.196,12.829 4.983,19.946Z" style="fill:#344b2a;fill-rule:nonzero;"/><path d="M523.843,91.558c-3.887,6.059 -5.433,3.646 -7.983,-0.554c-9.967,-16.442 -8.788,-39.237 3.471,-58.333c13.925,18.904 15.296,42.117 4.512,58.887Zm-5.104,59.617c-6.542,-22.1 -25.762,-40.467 -15.225,-67.983c4.221,12.429 10.4,21.891 17.083,31.787c6.305,-9.446 11.321,-18.908 14.984,-29.983c7.866,18.212 2.291,39.512 -16.842,66.179Zm-8.75,-124.65c-1.542,2.133 -3.142,4.217 -4.546,6.442c-23.091,36.75 -24.533,75.104 -5.679,113.487c10.367,21.058 13.7,43.333 17.538,65.888c-5.367,-5.817 -8.438,-12.971 -12.73,-20.646c-4.287,21.841 3.667,39.166 14.83,55.625c13.837,-14.563 20.104,-35.313 15.883,-53.834c-4.496,7.167 -7.621,14.617 -13.088,20.659c-0.47,-0.521 -1.079,-0.921 -1.008,-1.163c5.383,-21.391 8.196,-43.229 18.142,-63.646c20.346,-41.737 19.462,-82.691 -8.871,-121.058c-5.488,-0.887 -10.992,-1.562 -16.563,-1.721c-1.32,-0.05 -2.604,-0.016 -3.908,-0.033Z" style="fill:#344b2a;fill-rule:nonzero;"/><path d="M328.542,442.983c-14.863,-0.312 -29.009,1.388 -38.871,16.213c15.591,-0.833 26.996,-8.958 38.871,-16.213Zm-107.884,72.638c4.167,-9.238 5.646,-17.758 8.267,-25.954c4.583,-14.325 14.442,-23.004 28.992,-26.338c10.554,-2.396 19.358,-8.229 26.891,-15.362c23.509,-22.259 50.975,-19.896 79.671,-13.804c-14.342,4.429 -22.012,16.666 -32.379,25.695c-12.775,11.13 -27.983,15.105 -44.858,11.317c-7.675,-1.717 -15.055,-4.842 -22.971,-5.483c-6.909,-0.575 -13.054,0.85 -17.467,7.916c5.488,2.292 10.854,-0.591 15.888,0.988c-3.125,11.354 0.625,24.758 -10.642,33.267c-8.892,6.733 -19.567,6.195 -31.392,7.758Z" style="fill:#344b2a;fill-rule:nonzero;"/><path d="M133.213,491.421c-14.967,2.237 -28.471,14.025 -29.096,24.912c13.887,-3.245 20.275,-14.95 29.096,-24.912Zm-43.471,37.133c3.229,-9.479 5.937,-17.654 8.783,-25.796c3.663,-10.437 10.779,-18.058 20.779,-22.241c19.95,-8.35 39.846,-16.859 60.729,-22.742c1.184,-0.329 2.45,-0.312 4.934,-0.608c-8.125,6.162 -15.384,11.404 -22.329,17.066c-7.967,6.475 -15.226,13.646 -18.488,23.8c-6.633,20.575 -21.683,29.117 -42.308,29.775c-3.767,0.138 -7.538,0.471 -12.1,0.746Z" style="fill:#344b2a;fill-rule:nonzero;"/><path d="M381.596,472.375c-11.629,6.196 -15.417,15.017 -17.396,25.017c-0.467,2.379 -2.167,5.696 0.504,6.891c3.421,1.546 5.471,-1.666 6.946,-4.425c4.304,-8.058 7.154,-16.65 9.946,-27.483Zm-31.213,51.925c2.796,-8.208 4.896,-15.483 5.954,-23.087c2.396,-17.259 11.196,-29.671 27.846,-35.975c2.85,-1.075 5.625,-2.309 8.421,-3.505c8.942,-3.82 9.759,-3.404 11.617,6.109c4.479,23.004 -4.396,39.775 -26.025,49.1c-8.629,3.733 -17.692,5.866 -27.813,7.358Z" style="fill:#344b2a;fill-rule:nonzero;"/><path d="M113.246,464.233c-10.834,-4.116 -20.154,-10 -30.729,-12.883c-1.892,-0.504 -4.48,-1.667 -5.78,-0.033c-1.754,2.171 0.659,4.183 1.805,5.937c8.141,12.413 18.662,14.704 34.704,6.979Zm37.017,-5.312c-13.492,1.925 -25.384,7.742 -37.642,12.692c-22.638,9.112 -39.079,2.829 -50.313,-18.646c-2.9,-5.521 -5.987,-10.992 -7.395,-17c24.533,1.337 48.125,3.941 69.741,15.591c7.813,4.221 16.613,5.817 25.609,7.363Z" style="fill:#344b2a;fill-rule:nonzero;"/><path d="M110.575,398.329c-12.154,-0.571 -23.371,0.696 -31.617,11.042c10.346,3.871 22.571,-0.383 31.617,-11.042Zm31.542,-5.416c-9.409,5.695 -16.942,13.3 -25.225,19.983c-13.471,10.867 -28.559,12.637 -44.634,7.396c-6.721,-2.188 -13.196,-5.104 -20.712,-8.054c19.167,-13.734 36.3,-29.43 62.341,-22.692c8.925,2.308 18.459,2.879 28.23,3.367Z" style="fill:#344b2a;fill-rule:nonzero;"/><path d="M195.938,392.496c14.495,7.637 30.487,4.983 40.295,-6.371c-14.445,-2.708 -26.754,5.8 -40.296,6.371Zm-25.816,-3.767c15.158,-6.546 29.912,-11.825 45.246,-15.279c10.866,-2.446 27.654,5.208 33.437,14.479c1.092,1.738 0.971,2.659 -1.025,3.317c-4.808,1.546 -7.9,5.471 -11.512,8.612c-12.88,11.146 -26.963,13.559 -42.43,6.059c-8.7,-4.221 -16.304,-9.984 -23.716,-17.188Z" style="fill:#344b2a;fill-rule:nonzero;"/><path d="M138.975,372.167c7.883,-32.934 32.537,-47.971 71.563,-42.78c-23.871,15.071 -41.042,39.496 -71.563,42.78Z" style="fill:#344b2a;fill-rule:nonzero;"/><path d="M338.854,395.029c-13.541,-0.796 -25.104,-2.429 -36.821,-0.85c-12.416,1.667 -22.708,-3.871 -32.466,-10.691c-2.638,-1.842 -5.417,-3.509 -9.063,-5.855c7.309,-3.054 13.575,-6.316 20.242,-8.35c13.596,-4.112 26.129,-2.187 36.512,8.421c6.025,6.163 12.605,11.667 21.596,17.325Z" style="fill:#344b2a;fill-rule:nonzero;"/><path d="M688.283,443.521c18.471,12.308 28.4,16.371 38.542,15.8c-9.517,-12.659 -22.171,-17.084 -38.542,-15.8Zm108.542,71.3c-6.962,0.8 -13.021,-0.188 -18.979,-1.421c-10.763,-2.242 -17.604,-8.7 -19.6,-19.792c-0.138,-0.745 -0.313,-1.495 -0.434,-2.241c-0.745,-5.275 -3.508,-11.421 -1.716,-15.642c2.341,-5.554 9.512,0.225 14.65,-2.446c-2.084,-5.312 -6.892,-6.458 -11.734,-7.258c-6.479,-1.059 -12.691,0.571 -18.733,2.692c-25.104,8.799 -46.529,3.991 -63.975,-16.667c-6.321,-7.467 -14.829,-12.154 -25.383,-17.604c29.096,-4.934 55.571,-8.109 78.662,11.941c9.15,7.938 19.617,13.355 31.354,16.842c15.417,4.567 26.13,14.15 29.638,30.713c1.458,6.891 4.025,13.575 6.25,20.883Z" style="fill:#344b2a;fill-rule:nonzero;"/><path d="M884.096,489.321c9.446,11.021 15.729,22.933 29.533,27.879c-1.562,-12.758 -12.933,-23.663 -29.533,-27.879Zm-47.396,-29.238c23.021,3.959 44.271,13.038 65.333,22.5c7.188,3.246 12.117,9.409 15,16.7c3.28,8.267 5.85,16.809 8.834,25.175c1.166,3.28 0.454,4.342 -3.192,4.617c-22.954,1.721 -39.358,-7.55 -47.587,-28.904c-6.475,-16.858 -20.192,-26.354 -33.471,-36.579c-1.6,-1.217 -3.267,-2.346 -4.917,-3.509Z" style="fill:#344b2a;fill-rule:nonzero;"/><path d="M634.879,473.296c1.963,5.658 3.213,9.721 4.759,13.662c2.149,5.434 3.695,11.146 7.291,15.904c1.267,1.667 3.229,3.125 5.188,2.534c2.537,-0.763 1.737,-3.454 1.546,-5.329c-1.196,-11.513 -5.38,-21.113 -18.784,-26.771Zm32.325,51.996c-16.683,-2.971 -31.129,-6.475 -42.967,-16.596c-12.154,-10.4 -16.65,-31.771 -10.312,-46.271c1.546,-3.521 3.054,-4.65 6.787,-2.654c4.688,2.5 9.721,4.342 14.584,6.508c13.854,6.146 21.891,16.913 24.808,31.617c1.721,8.696 2.813,17.55 7.1,27.396Z" style="fill:#344b2a;fill-rule:nonzero;"/><path d="M966.458,412.254c-14.791,5.225 -27.466,12.534 -42.741,11.509c-7.725,-0.521 -14.584,-2.605 -20.471,-7.205c-9.321,-7.275 -17.55,-15.937 -27.725,-22.466c11.425,0.662 22.171,-1.854 33.054,-3.75c13.25,-2.325 25.75,0.4 37,8.162c6.458,4.463 13.104,8.646 20.883,13.75Z" style="fill:#344b2a;fill-rule:nonzero;"/><path d="M942.221,451.108c-14.304,-0.295 -25.121,8.488 -37.725,12.984c13.942,9.687 31.267,3.733 37.725,-12.984Zm-75.883,7.43c13.733,-1.267 26.179,-5.488 38.175,-11.388c10.833,-5.35 22.137,-8.804 34.412,-9.063c7.813,-0.158 15.675,-0.433 25.121,-3.595c-5.992,12.396 -9.429,24.183 -19.029,32.346c-10,8.504 -21.788,11.612 -34.254,7.291c-14.771,-5.141 -28.455,-13.316 -44.425,-15.591Z" style="fill:#344b2a;fill-rule:nonzero;"/><path d="M822.138,391.367c-8.892,0.208 -15.576,-1.075 -22.188,-2.775c-13.021,-3.334 -13.021,-3.355 -19.133,-0.471c13.175,11.096 24.879,12.379 41.321,3.246Zm25.083,-3.559c-8.208,7.363 -15.642,13.263 -24.25,17.779c-15.488,8.126 -29.429,5.242 -42.483,-5.262c-2.171,-1.754 -4.101,-3.8 -6.25,-5.587c-6.913,-5.767 -6.771,-5.575 0.225,-11.946c10.137,-9.221 21.404,-12.034 34.512,-7.517c12.242,4.2 24.583,8.071 38.246,12.533Z" style="fill:#344b2a;fill-rule:nonzero;"/><path d="M805.138,329.075c12.937,0.887 24.62,1.354 36.216,2.554c10.329,1.092 18.559,5.884 24.375,14.984c5.504,8.591 10.121,17.583 14.479,26.854c-12.154,1.512 -29.633,-8.817 -75.071,-44.392Z" style="fill:#344b2a;fill-rule:nonzero;"/><path d="M755.921,377.392c-21.163,22.083 -48.909,15.783 -74.046,17.258c2.45,-3.267 25.696,-23.179 29.133,-24.583c10.313,-4.204 20.379,-2.779 30.329,1.316c5.105,2.121 10.225,4.221 14.584,6.009Z" style="fill:#344b2a;fill-rule:nonzero;"/><path d="M520.06,330.692c-7.117,-11.579 -16.425,-20.279 -24.688,-29.863c-14.791,-17.204 -18.716,-38.054 -19.079,-59.862c-0.487,-27.775 -0.279,-55.571 -3.196,-83.23c-1.858,-17.708 -5.745,-25.52 -17.133,-39.041c7.067,0.746 7.067,0.746 23.733,21.891c-0.245,-3.404 -0.416,-5.937 -0.679,-9.479c5.954,5.171 7.275,11.596 8.75,17.775c4.534,18.875 5.242,38.284 7.675,57.467c2.829,22.429 8.75,44.408 10.067,67.137c0.4,6.771 4.046,12.896 8.021,18.834c-0.017,-11.004 1.896,-21.525 6.562,-33.159c4.396,12.38 7.988,23.421 4.479,37.221c8.109,-10.762 11.305,-21.283 11.842,-32.671c1.25,-26.787 9.15,-52.658 10.783,-79.412c0.709,-11.925 2.375,-23.8 5,-35.5c1.25,-5.488 3.105,-10.696 6.18,-15.417c3.07,1.021 0.329,4.129 2.57,5.779c3.609,-4.079 5.05,-9.791 9.375,-13.366c4.08,-3.35 8.209,-6.563 15.067,-8.267c-16.858,17.45 -19.671,37.867 -19.825,59.479c-0.192,24.725 -1.529,49.413 -2.221,74.117c-0.608,21.354 -8.316,39.633 -23.108,55.017c-7.188,7.483 -14.183,15.12 -20.175,24.55Z" style="fill:#344b2a;fill-rule:nonzero;"/><path d="M331.146,297.967c-6.858,-31.025 -35.329,-52.259 -55.954,-42.363c18.366,13.992 39.079,24.342 55.954,42.363Zm16.041,27.533c-19.912,-19.062 -42.708,-29.55 -64.079,-42.242c-12.571,-7.479 -21.25,-19.425 -33.646,-27.895c17.155,-11.442 34.617,-16.113 54.15,-10.767c17.255,4.725 27.621,16.704 33.8,32.587c5.746,14.759 7.867,30.367 9.775,48.317Z" style="fill:#344b2a;fill-rule:nonzero;"/><path d="M686.738,297.046c16.858,-16.459 38.262,-26.633 57.1,-41.058c-25.471,-8.005 -47.309,8.92 -57.101,41.058Zm-17.083,28.383c3.421,-16.354 4.775,-31.508 9.983,-45.937c11.005,-30.521 37.567,-43.63 68.367,-33.367c7.484,2.5 14.496,5.971 20.242,9.446c-27.133,30.604 -67.204,42.654 -98.592,69.858Z" style="fill:#344b2a;fill-rule:nonzero;"/><path d="M852.413,255.308c-17.692,-1.875 -29.601,12.221 -46.338,15.384c18.525,9.358 39.446,2.029 46.338,-15.384Zm-84.167,20.505c19.567,-13.821 41.65,-21.842 62.779,-31.684c13.871,-6.458 30.904,-5.296 47.933,1.404c-9.912,7.5 -15.383,18.334 -24.529,25.992c-12.154,10.138 -26.183,11.771 -40.991,9.408c-14.984,-2.379 -29.775,-5.987 -45.192,-5.12Z" style="fill:#344b2a;fill-rule:nonzero;"/><path d="M164.512,253.296c8.126,19.025 27.155,25.796 45.176,16.146c-15.988,-3.196 -27.621,-16.425 -45.176,-16.146Zm-26.491,-9.967c16.65,-3.646 32.533,-6.925 47.325,-0.175c19.846,9.046 40.367,16.771 59.292,27.85c1.716,1.004 3.35,2.134 5,3.838c-18.059,-2.796 -35.105,3.071 -52.538,5.275c-15.921,1.996 -29.079,-3.088 -39.479,-15.121c-6.092,-7.067 -11.65,-14.617 -19.6,-21.667Z" style="fill:#344b2a;fill-rule:nonzero;"/><path d="M439.818,69.683c14.617,3.388 26.388,16.579 27.9,31.513c-15.75,-5.471 -22.346,-17.659 -27.9,-31.513Zm33.767,20.088c-5.696,-16.859 -16.529,-28.959 -32.95,-35.971c-7.588,-3.25 -15.333,-6.321 -22.104,-12.188c-2.517,1.805 -5.121,3.455 -7.879,4.859c0.087,6.683 2.291,11.996 10.275,15.225c2.483,0.992 3.854,3.404 4.358,5.975c4.342,22.604 19.287,35.504 39.496,43.837c6.562,2.688 11.979,7.792 20.037,10.467c-4.046,-11.596 -7.746,-21.858 -11.233,-32.204Z" style="fill:#344b2a;fill-rule:nonzero;"/><path d="M570.702,101.229c5.575,-14.825 13.404,-26.371 29.6,-31.387c-3.159,15.866 -14.2,27.637 -29.6,31.387Zm45.504,-55.071c-5.488,3.788 -11.475,6.771 -17.742,9.325c-14.517,5.955 -24.446,16.388 -29.983,30.921c-4.429,11.629 -8.438,23.417 -12.638,35.138c0.417,0.466 0.85,0.954 1.284,1.425c8.487,-6.704 18.195,-11.146 27.758,-15.854c15.383,-7.55 25.679,-18.938 28.629,-36.25c0.871,-5.084 3.613,-8.575 8.179,-11.284c4.425,-2.621 6.788,-6.491 7.413,-10.954c-4.304,-0.833 -8.596,-1.65 -12.9,-2.467Z" style="fill:#344b2a;fill-rule:nonzero;"/><path d="M398.542,181.783c-5.554,-10.379 -14.584,-15.45 -21.946,-22.275c-12.517,-11.629 -17.221,-26.716 -13.558,-44.791c7.083,6.112 15.887,7.691 24.116,10.695c17.934,6.563 24.113,19.88 17.917,38.109c-1.929,5.658 -4.029,11.266 -6.529,18.262Z" style="fill:#344b2a;fill-rule:nonzero;"/><path d="M618.404,182.671c-3.404,-8.092 -5.937,-14.967 -7.396,-22.225c-3.35,-16.563 2.638,-27.671 18.559,-33.488c8.279,-3.02 17.066,-4.791 24.408,-11.491c4.063,20.104 -1.546,35.521 -16.771,47.479c-6.942,5.471 -14.216,10.575 -18.8,19.725Z" style="fill:#344b2a;fill-rule:nonzero;"/><path d="M909.288,291.717c-4.321,7.637 -15.971,12.221 -28.055,10.45c8.613,-5.4 13.613,-12.638 20.625,-17.588c2.467,-1.737 5.554,-4.079 8.229,-1.771c3.092,2.675 0.763,6.163 -0.8,8.909Zm19.046,-22.084c-5.954,-1.025 -11.666,1.717 -17.637,1.059c-11.2,-1.217 -20.4,2.775 -27.988,11.041c-10.729,11.717 -24.008,14.113 -39.112,10.938c-6.513,-1.354 -12.954,-3.892 -19.396,-3.404c17.587,14.912 37.937,21.425 61.183,19.479c15.763,-1.321 27.725,-7.5 34.567,-22.292c2.604,-5.658 5.675,-11.075 8.542,-16.596c-0.055,-0.087 -0.105,-0.158 -0.159,-0.225Z" style="fill:#344b2a;fill-rule:nonzero;"/></g></svg>