<?xml version="1.0" encoding="UTF-8" standalone="no"?><!DOCTYPE svg PUBLIC "-//W3C//DTD SVG 1.1//EN" "http://www.w3.org/Graphics/SVG/1.1/DTD/svg11.dtd"><svg width="100%" height="100%" viewBox="0 0 411 406" version="1.1" xmlns="http://www.w3.org/2000/svg" xmlnsXlink="http://www.w3.org/1999/xlink" xmlSpace="preserve" xmlnsSerif="http://www.serif.com/" style="fill-rule:evenodd;clip-rule:evenodd;stroke-linejoin:round;stroke-miterlimit:2;"><g><path d="M338.804,284.98c-1.087,0.665 -2.193,1.141 -3.314,1.519c-0.014,0.016 -0.029,0.022 -0.042,0.036c-1.29,1.309 -2.571,2.621 -3.832,3.957c-2.249,2.859 -4.561,5.661 -6.858,8.471c3.04,-0.897 5.982,-2.06 8.876,-3.349c3.712,-4.133 7.074,-8.56 9.954,-13.345c-1.612,0.876 -3.223,1.751 -4.784,2.711Z" style="fill:#b5bda6;fill-rule:nonzero;"/><path d="M390.235,113.05c1.9,4.854 4.212,9.568 5.732,14.528c2.347,7.678 4.23,15.503 6.192,23.294c0.84,3.327 1.61,6.696 2.01,10.101c0.974,8.406 2.151,16.833 2.432,25.281c0.329,9.773 0.048,19.595 -1.367,29.325c-0.658,4.546 -0.876,9.176 -1.912,13.631c-2.243,9.626 -4.827,19.175 -7.419,28.716c-0.448,1.631 -0.903,3.489 -2.753,4.987c0.091,-0.938 0.078,-1.456 0.195,-1.94c1.171,-4.708 2.522,-9.38 3.518,-14.123c3.502,-16.693 4.435,-33.57 3.636,-50.592c-0.581,-12.232 -2.438,-24.286 -5.499,-36.091c-2.186,-8.441 -5.227,-16.679 -8.169,-24.904c-1.54,-4.314 -3.649,-8.42 -5.569,-12.588c-0.336,-0.743 -0.995,-1.338 -1.513,-2.004c-0.161,0.12 -0.329,0.239 -0.491,0.358c0.323,0.806 0.646,1.604 0.982,2.403c1.982,4.714 4.314,9.324 5.891,14.171c2.255,6.949 4.062,14.059 5.878,21.142c1.099,4.274 2.177,8.595 2.71,12.966c1.177,9.625 2.551,19.251 2.192,28.995c-0.23,6.438 -0.126,12.904 -0.714,19.308c-0.553,6.052 -1.491,12.112 -2.83,18.038c-1.962,8.694 -4.426,17.268 -6.676,25.892c-0.407,1.582 -1.458,2.338 -3.033,2.5c-2.283,0.245 -4.435,0.805 -6.55,1.486c-0.259,1.219 -0.498,2.429 -0.799,3.641c-0.126,0.491 -0.307,0.967 -0.434,1.458c1.45,-0.743 2.894,-1.493 4.35,-2.234c0.918,-0.463 2.123,-0.372 3.805,-0.631c-8.96,24.735 -22.691,45.689 -40.505,63.902c-21.653,22.137 -46.6,39.279 -76.821,48.553c0.071,-0.77 0.051,-1.204 0.162,-1.597c0.707,-2.458 1.422,-4.918 2.13,-7.376c-1.85,0.392 -3.706,0.728 -5.562,1.036c-0.617,2.34 -1.199,4.694 -1.639,7.076c-0.456,2.451 -1.639,3.719 -4.035,4.181c-8.659,1.704 -17.255,3.847 -25.976,5.135c-20.967,3.11 -41.962,2.712 -62.768,-1.358c-10.634,-2.089 -21.268,-4.316 -31.356,-8.624l-4.546,7.026c10.69,4.316 21.647,7.672 32.898,9.984c7.698,1.575 15.509,2.69 23.312,3.564c10.915,1.227 21.865,0.947 32.835,0.351c10.557,-0.575 20.952,-2.311 31.159,-4.652c10.108,-2.305 19.936,-5.968 29.752,-9.415c8.238,-2.893 15.866,-7.159 23.354,-11.621c5.283,-3.145 10.607,-6.235 15.755,-9.576c8.302,-5.395 15.972,-11.65 23.279,-18.312c7.251,-6.62 13.696,-13.99 19.881,-21.618c7.44,-9.185 13.884,-19.02 19.684,-29.254c3.469,-6.123 6.229,-12.658 9.094,-19.104c3.916,-8.798 6.984,-17.871 9.484,-27.202c3.86,-14.423 6.053,-29.05 6.614,-43.916c0.294,-7.74 0.12,-15.545 -0.442,-23.27c-0.531,-7.3 -1.653,-14.572 -2.893,-21.794c-1.065,-6.166 -2.48,-12.294 -4.104,-18.34c-1.535,-5.703 -3.469,-11.299 -5.38,-16.89c-1.991,-5.807 -4.378,-11.446 -7.734,-16.624c0.175,0.883 0.252,1.801 0.573,2.621Z" style="fill:#b5bda6;fill-rule:nonzero;"/><path d="M254.068,6.856c-0.049,-0.013 -0.099,-0.027 -0.148,-0.042c-4.44,-1.4 -9.128,-2.031 -13.687,-3.075c-9.241,-2.121 -18.62,-3.103 -28.071,-3.537c-15.25,-0.708 -30.347,0.476 -45.394,3.075c-13.731,2.376 -27.013,6.234 -39.853,11.468c-7.643,3.11 -14.907,7.187 -22.27,10.963c-11.901,6.108 -22.858,13.681 -33.001,22.346c-9.612,8.205 -18.613,17.093 -26.473,27.035c-7.657,9.674 -14.41,19.985 -20.359,30.774c-3.438,6.24 -6.157,12.888 -9.121,19.396c-4.588,10.088 -7.718,20.631 -10.304,31.405c-2.697,11.215 -4.491,22.529 -5.037,34.018c-0.37,7.929 -0.286,15.882 -0.35,23.826c-0.007,1.672 0.182,3.354 0.308,5.028c0.126,1.64 0.281,3.272 0.42,4.911c0.219,-0.013 0.429,-0.028 0.646,-0.042c-0.057,-0.524 -0.175,-1.057 -0.148,-1.584c0.427,-8.196 0.54,-16.441 1.415,-24.595c0.861,-8.07 2.467,-16.056 3.812,-24.069c0.168,-1.024 0.741,-1.975 1.126,-2.964c0.226,0.064 0.449,0.12 0.673,0.182c-0.084,1.024 -0.118,2.053 -0.266,3.061c-1.8,12.995 -2.451,26.018 -1.597,39.125c0.546,8.393 1.849,16.645 3.181,24.938c1.624,10.103 4.581,19.79 7.776,29.431c2.493,7.537 5.338,14.941 9.386,21.848c3.776,6.424 6.991,13.198 11.026,19.447c4.723,7.32 9.654,14.585 15.244,21.248c6.971,8.307 14.508,16.153 22.865,23.179c10.269,8.646 21.352,16.085 32.827,22.985l-24.491,-25.745c-4.027,-2.934 -7.473,-6.661 -11.404,-9.736c-7.657,-5.997 -13.45,-13.709 -19.671,-21.016c-2.845,-3.336 -5.163,-7.11 -7.692,-10.712c-6.696,-9.563 -12.392,-19.734 -17.478,-30.207c-2.878,-5.92 -4.721,-12.357 -6.955,-18.591c-4.4,-12.28 -7,-25.002 -8.533,-37.906c-1.822,-15.313 -1.997,-30.683 -0.133,-46.025c0.217,-1.765 0.764,-3.495 1.155,-5.232c0.239,0.014 0.485,0.027 0.722,0.042c-0.469,16.455 0.876,32.721 4.554,48.757c0.301,-0.533 0.315,-1.044 0.279,-1.548c-0.427,-5.885 -1.093,-11.769 -1.239,-17.66c-0.168,-6.712 -0.329,-13.479 0.33,-20.142c0.825,-8.336 2.283,-16.623 3.845,-24.854c3.208,-16.875 9.512,-32.701 17.107,-48.007c3.636,-7.32 7.972,-14.242 12.861,-20.819c7.23,-9.725 14.844,-19.091 23.573,-27.511c7.763,-7.501 16.112,-14.319 25.002,-20.405c5.954,-4.086 12.063,-7.986 18.403,-11.419c5.618,-3.055 11.593,-5.5 17.513,-7.958c7.901,-3.278 15.903,-6.452 24.28,-8.238c9.745,-2.075 19.58,-3.805 29.443,-5.17c11.952,-1.661 23.973,-1.325 35.994,-0.449c8.798,0.644 17.47,2.018 26.031,3.903l1.878,-3.133Z" style="fill:#b5bda6;fill-rule:nonzero;"/><path d="M387.503,105.715c0.288,0.435 0.575,0.869 0.869,1.296c-0.223,0.077 -0.449,0.148 -0.672,0.217c-0.042,-0.498 -0.084,-0.994 -0.126,-1.498l-0.071,-0.015Z" style="fill:#b5bda6;fill-rule:nonzero;"/><path d="M378.853,119.003c-0.126,-0.048 -0.261,-0.09 -0.365,-0.168c-0.028,-0.013 0.007,-0.201 0.049,-0.21c0.126,-0.042 0.259,-0.034 0.4,-0.049c-0.029,0.142 -0.057,0.288 -0.084,0.427Z" style="fill:#b5bda6;fill-rule:nonzero;"/><path d="M359.729,88.307c-0.113,-0.098 -0.226,-0.204 -0.337,-0.301c0.111,0.097 0.224,0.197 0.337,0.301Z" style="fill:#b5bda6;fill-rule:nonzero;"/><path d="M386.452,104.153c-0.091,-0.491 -0.181,-0.98 -0.272,-1.471l-0.064,-0.014c0.084,0.489 0.168,0.98 0.252,1.471l0.084,0.014Z" style="fill:#b5bda6;fill-rule:nonzero;"/><path d="M387.574,105.73c-0.372,-0.526 -0.75,-1.051 -1.122,-1.577l-0.084,-0.014c0.378,0.525 0.757,1.051 1.135,1.576l0.071,0.015Z" style="fill:#b5bda6;fill-rule:nonzero;"/><path d="M386.18,102.682c-0.239,-0.204 -0.476,-0.399 -0.708,-0.602c0.049,-0.042 0.098,-0.084 0.155,-0.133c0.161,0.237 0.321,0.482 0.489,0.721l0.064,0.014Z" style="fill:#b5bda6;fill-rule:nonzero;"/><path d="M389.038,109.652l0.02,0.049l-0.02,-0.049Z" style="fill:#b5bda6;fill-rule:nonzero;"/><path d="M389.64,110.303c-0.195,-0.217 -0.399,-0.434 -0.602,-0.651l0.02,0.049c0.168,0.197 0.345,0.385 0.52,0.582l0.062,0.02Z" style="fill:#b5bda6;fill-rule:nonzero;"/><path d="M375.875,273.029c-12.7,48.188 -57.576,90.074 -106.879,100.617c-0.708,2.458 -1.423,4.918 -2.13,7.376c-0.111,0.393 -0.091,0.827 -0.162,1.597c30.221,-9.274 55.168,-26.416 76.821,-48.553c17.814,-18.213 31.545,-39.167 40.505,-63.902c-1.682,0.259 -2.887,0.168 -3.805,0.631c-1.456,0.741 -2.9,1.491 -4.35,2.234Z" style="fill:#b5bda6;fill-rule:nonzero;"/><path d="M319.237,305.582c0.316,0.869 0.688,1.716 1.024,2.564c4.812,-3.859 9.309,-8.02 13.373,-12.532c-2.894,1.289 -5.836,2.452 -8.876,3.349c-1.822,2.221 -3.656,4.426 -5.521,6.619Z" style="fill:#b5bda6;fill-rule:nonzero;"/><path d="M261.711,81.953c1.779,-6.948 3.166,-13.359 7.776,-18.668c1.673,6.822 -1.571,14.956 -7.776,18.668Zm13.05,-56.063c-0.511,-0.161 -1.038,-0.272 -1.549,-0.427c-4.574,2.458 -7.992,5.716 -8.966,11.404c0.463,0.484 2.431,-2.045 2.053,0.75c-0.862,6.375 0.841,12.47 2.248,18.571c0.575,2.48 0.252,4.497 -1.232,6.641c-4.19,6.039 -7.195,12.645 -8.947,19.839c-1.513,6.185 -2.962,8.322 -6.99,11.074c2.318,-8.167 2.949,-16.273 6.844,-24.279c-3.643,3.166 -4.911,6.761 -5.864,10.515c-1.491,5.871 -2.318,11.908 -4.763,17.527c-0.856,1.969 -1.597,3.98 -2.725,5.913c9.674,-5.725 19.852,-10.817 26.592,-20.288c5.204,-7.313 6.325,-15.461 3.783,-24.106c-1.36,-4.615 -3.083,-9.134 -3.497,-14.016c-0.567,-6.781 1.185,-12.884 4.597,-18.565c-0.533,-0.175 -1.058,-0.378 -1.584,-0.553Z" style="fill:#b5bda6;fill-rule:nonzero;"/><path d="M301.506,95.355c4.064,1.582 7.65,3.551 11.652,4.539c5.253,1.303 9.758,-0.049 13.651,-3.685c1.129,-1.058 2.292,-2.08 3.343,-3.201c1.429,-1.52 2.997,-1.94 5.002,-1.233c8.525,3.027 15.874,0.826 22.367,-4.975c-0.595,-0.783 -1.205,-1.568 -1.807,-2.353c-0.505,-0.036 -1.002,-0.078 -1.478,-0.224c-9.05,-2.67 -17.709,-1.527 -26.04,2.668c-3.347,1.697 -6.787,2.838 -10.605,2.803c-5.898,-0.049 -10.893,2.586 -16.085,5.661Z" style="fill:#b5bda6;fill-rule:nonzero;"/><path d="M151.097,24.923c4.371,1.668 7.495,6.214 8.132,12.077c-5.26,-2.522 -7.782,-6.354 -8.132,-12.077Zm10.017,5.451c-1.148,-3.944 -3.916,-6.971 -7.621,-8.926c-1.745,0.414 -3.524,0.765 -5.325,1.037c-0.699,0.113 -1.338,0.266 -2.017,0.385c0.624,1.465 1.254,2.922 1.836,4.4c2.606,6.586 6.745,11.973 12.525,16.07c7.663,5.422 13.079,12.364 15.293,21.675c0.918,3.873 4.161,6.185 7.123,9.198c0.19,-10.809 -2.948,-19.98 -10.605,-26.949c-5.261,-4.792 -9.191,-9.962 -11.209,-16.89Z" style="fill:#b5bda6;fill-rule:nonzero;"/><path d="M140.87,64.068c3.208,1.849 6.564,10.34 6.633,16.821c-4.595,-2.495 -7.978,-11.047 -6.633,-16.821Zm7.159,27.679c5.619,4.119 11.461,7.93 17.463,11.727c-4.349,-7.763 -5.513,-16.457 -7.893,-24.771c-0.925,-3.229 -2.418,-6.193 -5.122,-8.448c2.927,7.278 4.182,14.928 6.108,23.04c-3.376,-2.318 -5.169,-5.072 -6.165,-8.203c-2.745,-8.638 -5.422,-17.275 -10.612,-24.862c-0.911,-1.323 -0.35,-2.845 -0.022,-4.203c1.486,-6.115 2.726,-12.245 2.341,-18.599c-0.084,-1.353 0.048,-1.36 2.185,-0.687c-1.205,-5.668 -4.517,-9.24 -9.38,-11.769c-1.022,0.287 -2.066,0.568 -3.075,0.889c3.089,4.064 4.434,8.778 4.708,13.837c0.259,4.77 -0.288,9.513 -1.913,13.982c-5.646,15.566 -1.969,28.287 11.377,38.067Z" style="fill:#b5bda6;fill-rule:nonzero;"/><path d="M394.916,254.661c-25.745,6.208 -48.084,18.817 -67.972,36.07c-5.437,4.721 -11.096,9.17 -16.961,13.366c-10.612,7.594 -22.458,12.357 -35.39,15.37c7.656,2.452 14.95,2.717 22.551,0.715c14.822,-3.902 29.38,-8.639 43.971,-13.297c10.318,-3.292 20.784,-4.805 31.628,-3.348c2.803,0.372 2.628,1.135 1.367,3.18c-1.661,2.676 -3.356,3.791 -6.88,3.426c-11.439,-1.17 -22.122,2.48 -32.714,6.249c-10.851,3.859 -21.787,7.425 -33.079,9.8c-1.276,0.266 -2.563,0.456 -4.672,0.826c11.508,5.289 22.731,7.481 34.648,6.207c11.992,-1.281 21.75,-8.048 32.364,-12.952c-5.402,6.486 -9.605,13.961 -18.474,16.764c-16.622,5.253 -32.749,4.7 -48.65,-2.648c-11.194,-5.17 -23.069,-8.029 -35.265,-9.521c-15.775,-1.927 -29.548,-8.323 -41.808,-18.262c-3.411,-2.768 -6.997,-5.318 -10.501,-7.973c4.61,0.715 8.968,2.095 13.1,4c5.975,2.754 11.84,5.745 17.744,8.638c6.446,3.153 13.318,4.763 20.35,5.933c3.546,0.595 6.692,-0.568 9.9,-1.619c18.717,-6.072 35.642,-15.277 50.416,-28.42c21.254,-18.907 45.429,-32.455 73.205,-39.251c0.106,-0.027 0.204,-0.097 0.295,-0.09c1.736,0.154 3.999,-2.151 5.079,0.174c0.995,2.124 -1.941,6.11 -4.252,6.663Zm-8.665,19.432c-14.249,3.259 -26.341,11.28 -38.375,19.216c-7.727,5.1 -15.687,9.773 -24.401,13.401c1.704,-3.011 22.368,-19.37 32.407,-25.576c11.833,-7.32 24.294,-13.171 38.41,-16.217c-1.338,4.763 -2.683,7.951 -8.041,9.176Zm-4.827,20.12c-0.301,0.56 -0.828,0.876 -1.514,0.889c-6.704,0.148 -13.191,1.746 -19.818,2.838c7.846,-5.835 16.071,-10.872 26.172,-12.828c-1.611,3.035 -3.208,6.075 -4.84,9.101Zm-173.135,-43.447c1.546,6.362 3.263,12.596 5.428,18.69c3.819,10.76 9.723,19.881 20.118,25.514c9.234,4.995 18.923,4.778 28.807,2.893c12.833,-2.453 25.177,-6.816 37.891,-9.745c1.885,-0.433 3.769,-0.847 5.899,-0.756c-3.012,1.785 -5.99,3.657 -9.058,5.351c-14.304,7.896 -29.409,13.339 -45.919,13.508c-18.502,0.188 -33.78,-10.789 -40.091,-28.17c-3.21,-8.86 -3.847,-18.003 -3.075,-27.285Zm-3.665,-51.818c-0.819,-13.513 -4.02,-26.312 -10.739,-38.095c-6.837,-11.992 -17.877,-19.438 -29.163,-26.648c7.398,0.828 13.738,3.98 19.622,8.378c-0.028,-8.258 -9.696,-22.325 -19.076,-27.628c1.899,6.459 4.996,11.895 9.205,16.799c-6.486,-2.347 -11.831,-6.046 -15.558,-11.811c-1.506,-2.327 -2.922,-4.722 -4.21,-7.174c-1.822,-3.466 -3.475,-7.026 -7.09,-9.282c0.848,0.316 1.73,0.575 2.544,0.967c5.666,2.69 11.256,5.534 16.972,8.092c9.367,4.188 15.651,11.222 19.209,20.672c4.028,10.703 8.877,20.988 14.452,30.978c3.272,5.849 5.639,12.112 6.305,18.885c0.533,5.493 -0.301,10.774 -2.473,15.867Zm-18.291,87.509c4.077,-2.276 7.335,-4.973 10.284,-8.076c2.998,-3.16 5.064,-6.929 7.469,-11.285c-1.633,10.003 -8.814,19.846 -17.753,19.361Zm12.574,-26.086c-2.108,10.114 -11.643,17.463 -22.093,18.268c8.875,-4.11 16.385,-9.784 22.093,-18.268Zm-31.579,11.873c8.791,-2.129 15.769,-7.152 22.536,-13.534c-2.9,9.395 -15.09,16.518 -22.536,13.534Zm47.518,-99.02c2.535,-6.641 6.044,-12.826 9.568,-18.97c3.453,-6.03 5.528,-12.602 7.846,-19.068c3.854,-10.732 10.774,-18.521 21.233,-23.187c6.074,-2.705 12.085,-5.555 18.122,-8.344c0.155,0.239 0.301,0.484 0.449,0.721c-4.4,1.843 -5.829,5.969 -7.74,9.69c-4.168,8.098 -9.738,14.724 -18.481,18.144c-0.378,0.146 -0.75,0.307 -1.135,0.44c-0.07,0.029 -0.181,-0.055 -0.756,-0.259c4.665,-4.82 8.988,-9.731 9.751,-16.456c-6.375,1.471 -14.501,12.61 -19.076,26.754c6.572,-4.736 13.634,-7.061 21.29,-8.07c-11.713,6.424 -22.487,13.786 -29.577,25.542c-6.997,11.607 -10.129,24.343 -11.636,38.395c-3.243,-9.024 -2.962,-17.211 0.142,-25.332Zm27.431,113.669c-10.78,-0.695 -22.794,-12.457 -25.365,-24.841c11.937,18.136 12.687,17.233 25.365,24.841Zm22.558,98.752c-8.413,-2.493 -16.421,-5.962 -24.379,-9.561c-14.255,-6.453 -29.26,-10.068 -44.617,-12.729c-22.885,-3.958 -42.983,-14.074 -61.134,-28.449c-9.842,-7.796 -20.217,-14.934 -32.022,-19.538c-16.7,-6.515 -33.939,-8.685 -51.712,-5.47c-2.613,0.469 -7.174,-3.146 -6.88,-5.597c0.14,-1.184 1.367,-1.002 2.193,-1.129c6.311,-1.015 12.666,-1.057 19.055,-0.854c25.673,0.819 48.308,9.681 68.532,25.33c12.848,9.955 25.821,19.777 41.492,25.15c8.295,2.843 16.757,4.96 25.422,6.241c12.995,1.934 25.493,5.564 37.506,10.838c12.344,5.408 24.827,10.43 37.963,13.941c-3.665,1.827 -7.209,3.075 -11.419,1.827Zm-23.35,2.487c-14.359,-6.409 -29.239,-9.079 -45,-8.055c-16.072,1.044 -31.126,-3.216 -45.346,-10.656c-8.736,-4.566 -17.366,-9.408 -26.634,-12.826c-9.878,-3.65 -19.95,-4.918 -30.067,-0.722c-0.995,0.414 -1.765,0.288 -2.563,-0.336c-1.772,-1.38 -3.553,-2.739 -5.787,-4.455c12.848,-5.822 25.261,-5.318 37.689,-0.701c6.563,2.438 12.881,5.492 18.872,9.085c18.381,11.034 38.032,16.611 59.621,15.448c13.534,-0.737 26.207,3.019 38.235,9.169c4.645,2.376 9.387,4.61 14.676,6.011c-5.155,2.192 -9.484,-0.084 -13.696,-1.962Zm-19.923,6.97c-7.683,-0.98 -15.397,-0.987 -23.089,-0.391c-16.932,1.309 -32.561,-3.04 -47.537,-10.508c-10.276,-5.135 -20.26,-11.145 -31.931,-12.623c-4.363,-0.547 -7.592,-2.732 -11.523,-5.725c7.461,-1.779 14.032,-1.436 20.595,0.863c9.269,3.236 17.654,8.308 26.509,12.419c11.39,5.289 23.131,9.163 35.859,8.995c5.759,-0.076 11.504,-0.489 17.262,-0.686c10.479,-0.365 20.279,2.249 30.29,6.942c-5.863,1.373 -11.152,1.394 -16.435,0.714Zm-146.325,-53.61c-3.237,-3.181 -3.46,-3.21 0.61,-5.177c13.008,-6.271 26.345,-6.627 39.811,-1.612c8.048,2.999 15.257,7.601 22.48,12.162c8.161,5.155 16.357,10.199 25.449,13.736c1.597,0.617 3.601,2.137 5.268,3.524c-6.529,-0.728 -12.49,-3.179 -18.185,-6.179c-8.371,-4.391 -16.47,-9.315 -24.889,-13.611c-8.793,-4.476 -18.067,-7.362 -28.162,-6.619c-5.632,0.413 -11.027,1.758 -15.832,4.63c-2.754,1.646 -4.4,1.261 -6.55,-0.854Zm-12.736,-17.122c-2.227,0.883 -3.398,0.582 -4.862,-1.211c-3.874,-4.749 -3.951,-4.645 1.949,-6.032c12.174,-2.858 24.062,-1.449 35.81,2.263c0.246,0.077 0.421,0.378 1.009,0.931c-5.919,-0.455 -11.39,-0.511 -16.876,0.064c-5.863,0.616 -11.579,1.835 -17.03,3.985Zm-35.649,-55.447c-1.443,-4.546 -1.64,-4.51 3.201,-4.055c8.862,0.841 17.387,3.25 25.681,6.27c12.49,4.546 25.29,7.866 38.172,10.99c16.323,3.959 30.893,11.461 43.601,22.467c-7.811,-3.258 -15.363,-6.949 -23.146,-10.152c-13.757,-5.652 -28.329,-8.398 -42.599,-12.238c-9.015,-2.422 -17.933,-5.225 -26.921,-7.74c-4.063,-1.142 -8.26,-1.878 -12.476,-1.653c-3.104,0.153 -4.582,-0.946 -5.513,-3.889Zm93.527,-59.908c1.723,-7.272 8.49,-7.201 12.981,-10.152c-3.075,4.743 -7.026,8.393 -12.981,10.152Zm-44.735,-5.072c1.449,-6.522 6.402,-9.157 11.74,-12.161c-2.852,5.338 -5.619,10.032 -11.74,12.161Zm-14.523,-32.876c5.422,-1.5 10.488,-2.248 15.755,-0.582c-6.592,4.064 -12.267,4.106 -15.755,0.582Zm45.695,-32.028c-3.48,1.163 -6.927,2.529 -11.271,1.429c7.174,-4.232 14.487,-4.287 21.913,-3.747c-3.636,0.398 -7.187,1.163 -10.642,2.318Zm-72.21,-1.338c7.979,-0.279 14.677,-4.567 22.732,-4.56c-7.433,9.435 -14.844,10.97 -22.732,4.56Zm87.79,-65.941c4.42,4.435 5.619,10.187 7.504,16.589c-6.909,-4.252 -6.256,-10.858 -7.504,-16.589Zm174.81,-0.056c-1.416,5.856 -0.673,12.645 -7.334,16.176c1.856,-5.688 2.668,-11.798 7.334,-16.176Zm76.833,64.751c3.461,0.958 7.006,1.365 11.09,1.757c-9.023,7.048 -15.552,6.901 -21.94,-3.46c3.754,-0.133 7.327,0.714 10.85,1.703Zm-50.626,3.761c-7.076,1.849 -12.877,-3.622 -19.679,-3.699c6.935,-1.009 13.492,0.358 19.679,3.699Zm35.033,31.251c-2.48,2.206 -5.316,2.83 -8.294,2.465c-2.831,-0.343 -5.254,-2.206 -8.47,-2.374c4.267,-2.537 8.119,-2.522 16.764,-0.091Zm-14.711,32.281c-3.664,-1.186 -7.075,-4.918 -10.101,-11.063c5.457,1.681 9.786,6.417 10.101,11.063Zm-44.806,5.477c-5.758,-2.011 -9.444,-5.486 -12.176,-10.094c4.442,2.584 10.459,3.305 12.176,10.094Zm104.603,14.921c-0.455,3.65 -0.931,7.292 -1.555,10.922c-0.245,1.407 -0.714,2.143 -2.221,2.396c-26.108,4.287 -49.157,15.74 -70.978,30.163c-15.768,10.424 -33.134,17.08 -51.88,19.202c-18.326,2.075 -34.417,-3.11 -46.62,-17.744c-1.374,-1.646 -2.48,-3.531 -3.573,-5.394c-0.924,-1.583 -1.646,-3.285 -2.402,-4.82c0.363,-0.63 0.615,-0.427 0.818,-0.188c16.981,19.923 38.424,25.084 63.216,19.074c16.855,-4.084 31.475,-12.329 44.337,-24.027c-0.659,-0.595 -1.1,0.097 -1.562,0.21c-0.484,0.111 -0.898,0.489 -1.352,0.728c-11.587,6.046 -23.259,11.908 -36.14,14.788c-11.307,2.522 -22.529,2.852 -33.787,-0.63c-15.496,-4.792 -25.723,-14.921 -30.276,-30.285c-5.648,-19.011 -3.203,-36.665 10.955,-51.593c7.517,-7.923 14.487,-9.211 24.099,-4.077c7.699,4.113 14.045,9.878 17.008,18.361c3.769,10.781 10.837,14.621 23.44,13.247c-1.653,-3.705 -3.09,-7.44 -4.925,-10.963c-3.083,-5.947 -8.693,-8.856 -14.549,-11.3c-3.951,-1.646 -7.406,-3.987 -10.417,-7.02c-2.25,-2.269 -4.701,-4.322 -7.371,-6.072c-2.64,-1.73 -5.38,-3.327 -8.378,-5.177c4.414,-1.984 8.771,-3.51 13.402,-4.316c5.904,-1.03 11.824,-1.484 17.799,-0.679c3.531,0.476 6.993,1.464 9.731,3.635c7.342,5.815 15.804,9.59 24,13.85c1.724,0.896 2.613,1.969 2.956,3.909c0.75,4.281 2.117,8.364 4.778,11.915c4.232,5.633 10.263,7.433 17.1,8.296c-1.177,-3.336 -1.836,-6.446 -2.522,-9.542c-1.535,-6.851 -5.464,-12.021 -11.762,-15.013c-10.242,-4.861 -19.86,-10.823 -29.814,-16.189c-1.353,-0.728 -2.767,-1.33 -4.014,-2.584c2.185,0.672 4.426,1.219 6.55,2.053c10.353,4.035 20.679,8.112 31.705,10.003c1.823,0.315 3.657,0.567 5.486,0.854c6.893,1.106 12.798,-0.701 17.647,-5.842c1.73,-1.836 3.663,-3.475 6.01,-5.668c-5.78,0.308 -10.123,-2.732 -15.146,-3.278c-5.142,-0.56 -9.913,0.252 -14.214,2.907c-3.657,2.263 -7.285,2.48 -11.194,1.205c-2.543,-0.834 -5.17,-1.457 -7.594,-2.544c-10.612,-4.741 -21.772,-5.674 -33.198,-5.28c-6.332,0.216 -12.672,0.042 -18.62,0.042c5.59,-4.891 11.58,-10.305 17.766,-15.475c4.672,-3.909 10.116,-4.771 15.958,-3.013c0.098,0.029 0.202,0.036 0.295,0.078c8.461,4.265 16.651,3.482 24.686,-1.219c1.044,-0.617 2.269,-0.974 3.446,-1.29c0.89,-0.238 1.794,-0.365 2.088,1.031c0.883,4.188 4.252,5.008 8.119,5.239c-1.436,-1.345 -2.865,-2.704 -4.309,-4.042c-5.794,-5.351 -12.342,-9.723 -19.671,-12.462c-10.22,-3.811 -19.235,-0.455 -26.998,6.515c-9.352,8.407 -19.474,15.804 -29.45,23.404c-5.31,4.05 -10.305,8.519 -16.581,11.299c3.146,-5.218 7.082,-9.744 12.756,-13.702c-8.084,1.584 -13.871,5.402 -18.487,11.202c-3.615,4.54 -5.863,9.905 -9.106,14.663c-0.688,1 -1.325,2.037 -2.228,3.431c-0.539,-1.533 -0.035,-2.557 0.189,-3.551c1.072,-4.82 2.318,-9.576 4.329,-14.122c3.643,-8.239 9.702,-13.57 18.697,-14.789c10.508,-1.436 19.286,-6.13 27.104,-13.009c3.32,-2.921 6.683,-5.792 10.059,-8.651c9.311,-7.895 20.113,-10.361 32.001,-8.582c7.305,1.092 14.592,2.375 21.883,3.629c7.11,1.233 12.891,4.567 16.946,10.712c1.92,2.92 4.008,5.743 6.621,8.104c4.791,4.322 10.052,4.791 15.587,1.548c4.174,-2.451 7.229,-6.046 10.207,-9.736c0.069,-0.078 0.126,-0.183 0.188,-0.274c-0.595,-1.555 -1.128,-3.146 -1.548,-4.792c-0.153,-0.609 -0.266,-1.219 -0.414,-1.827c-3.089,-0.631 -6.185,-1.27 -9.26,-1.991c-3.846,-0.896 -7.699,-1.162 -11.63,-0.553c-6.451,0.988 -12.532,0.553 -17.35,-4.694c-0.967,-1.058 -2.354,-1.673 -3.77,-2.009c-8.176,-1.969 -16.049,-5.095 -24.449,-6.214c-12.392,-1.661 -23.67,1.099 -33.904,8.203c-6.776,4.7 -12.722,10.417 -19.049,15.671c-5.849,4.853 -12.406,7.937 -20.189,8.139c3.175,-2.178 6.327,-4.336 9.367,-6.655c6.073,-4.623 9.813,-10.689 11.839,-17.941c1.323,-4.756 2.781,-9.47 4.035,-14.242c1.814,-6.893 5.982,-11.859 12.168,-15.18c5.331,-2.871 11.145,-5.121 13.598,-11.397c3.117,-8.015 4.42,-16.238 2.765,-24.777c-0.686,-3.517 -1.736,-6.957 -2.086,-11.406c-3.453,3.763 -7.32,6.285 -8.141,11.203c1.073,-1.444 2.102,-2.907 3.496,-4.084c1.486,-1.269 2.515,-1.269 3.026,0.825c0.946,3.925 0.687,7.595 -2.451,10.544c-1.122,1.05 -2.319,2.046 -3.595,2.9c-3.489,2.354 -5.617,5.59 -6.829,9.583c-1.989,6.621 -4.82,12.715 -11.867,16.525c1.709,-2.584 3.012,-4.805 3.306,-7.908c-5.4,7.972 -12.805,12.89 -20.925,16.392c-18.143,7.824 -28.805,22.655 -37.926,39.061c-2.494,4.477 -4.63,9.171 -6.186,14.151c-0.274,-5.199 -1.373,-10.592 1.611,-15.293c8.736,-13.758 16.266,-28.364 28.862,-39.384c7.796,-6.822 9.688,-17.708 5.527,-27.152c-1.485,-3.376 -3.159,-6.661 -4.896,-10.298c-3.356,5.438 -9.254,8.785 -10.725,15.196c-1.402,6.108 -0.778,12.364 -0.847,18.578c1.736,-3.042 2.437,-6.334 2.15,-9.71c-0.588,-6.95 -0.113,-8.413 5.484,-13.556c1.164,6.46 0.436,12.561 -1.898,18.439c-2.732,6.879 -5.619,13.695 -8.552,20.483c-1.949,4.504 -5.199,8.118 -8.491,11.671c-3.833,4.154 -7.727,8.245 -11.083,13.317c-7.426,-10.873 -18.675,-18.697 -22.445,-32.077c-1.409,-4.988 -4.252,-9.563 -6.298,-14.39c-2.332,-5.513 -2.676,-11.284 -2.073,-17.268c4,1.942 8.21,8.196 6.823,11.888c-1.633,4.351 0.449,7.595 1.31,11.287c0.637,-6.194 0.511,-12.373 -0.693,-18.452c-1.268,-6.431 -6.977,-10.004 -10.256,-15.433c-1.626,3.047 -3.159,5.876 -4.652,8.743c-4.77,9.176 -3.663,20.833 4.119,27.558c10.459,9.036 17.072,20.736 24.421,31.972c6.375,9.758 6.2,9.878 7.074,23.272c-0.98,-0.336 -0.916,-1.283 -1.225,-2.032c-6.192,-14.844 -14.333,-28.476 -25.793,-39.86c-5.311,-5.276 -12.273,-8.196 -18.781,-11.72c-7.251,-3.922 -14.403,-8.014 -19.118,-15.215c0.372,2.592 1.443,4.847 2.914,7.012c-4.006,-1.779 -6.809,-4.862 -8.911,-8.567c-1.155,-2.038 -2.17,-4.239 -2.787,-6.494c-1.394,-5.03 -4.259,-8.784 -8.61,-11.6c-3.621,-2.347 -5.597,-5.69 -5.128,-10.165c0.133,-1.206 0.071,-2.796 1.177,-3.321c1.31,-0.623 2.515,0.631 3.502,1.429c0.933,0.75 1.564,1.863 2.774,3.37c-0.98,-5.219 -4.917,-7.495 -7.634,-11.11c-3.23,11.34 -4.533,22.268 -0.982,33.338c1.654,5.154 4.743,9.008 9.828,11.222c9.318,4.049 15.685,10.634 17.934,20.875c0.897,4.105 2.326,8.098 3.58,12.12c3.04,9.771 9.408,16.707 18.339,21.456c0.673,0.358 1.626,0.385 1.991,1.562c-6.298,0.351 -11.672,-1.841 -16.625,-5.274c-6.101,-4.232 -11.32,-9.534 -17.078,-14.193c-8.7,-7.033 -18.332,-11.51 -29.612,-12.546c-9.079,-0.84 -17.519,1.507 -25.989,4.104c-5.703,1.759 -11.461,3.336 -16.091,7.44c-1.113,0.982 -2.62,1.17 -4.091,1.108c-8.315,-0.385 -16.505,0.223 -24.491,2.486c-1.029,3.812 -2.17,7.832 -3.537,11.818c1.358,1.316 2.725,2.619 4.294,3.705c6.32,4.365 12.169,4.141 18.038,-0.825c2.369,-2.011 4.38,-4.38 6.152,-6.893c4.524,-6.411 10.585,-10.13 18.346,-11.3c6.605,-0.995 13.149,-2.403 19.761,-3.342c13.087,-1.85 24.589,1.681 34.508,10.494c4.849,4.301 9.76,8.519 15.118,12.209c4.814,3.314 9.933,5.809 15.797,6.537c15.236,1.898 23.496,11.061 26.558,25.575c0.482,2.285 1.38,4.52 0.672,7.252c-2.053,-3.44 -4.28,-6.789 -6.13,-10.333c-4.743,-9.099 -11.362,-15.811 -22.515,-18.109c4.638,4.099 9.023,7.678 11.384,13.045c-4.449,-2.04 -8.385,-4.869 -12.196,-7.853c-11.734,-9.192 -23.742,-18.025 -35.174,-27.622c-9.829,-8.26 -20.799,-8.351 -31.67,-1.422c-6.046,3.852 -12.253,7.439 -17.136,12.658c2.733,0.98 7.433,-0.931 7.783,-3.748c0.358,-2.88 1.905,-2.402 3.601,-1.864c1.465,0.471 2.936,1.037 4.246,1.816c6.829,4.055 13.702,4.216 20.916,0.896c6.579,-3.033 12.842,-1.982 18.487,2.522c6.305,5.043 11.574,11.271 19.131,16.007c-6.654,0.721 -12.364,-0.035 -18.038,-0.477c-13.289,-1.029 -26.044,0.701 -38.262,6.136c-1.401,0.624 -2.936,0.933 -4.407,1.396c-4.119,1.294 -8.083,1.183 -11.839,-1.192c-6.137,-3.881 -12.568,-3.845 -19.257,-1.611c-2.985,0.995 -5.885,2.535 -9.289,2.053c9.149,9.68 12.196,12.678 25.436,10.906c9.744,-1.31 19.09,-4 28.147,-7.803c4.323,-1.815 8.778,-3.335 13.457,-4.105c-10.262,5.338 -19.797,11.999 -30.396,16.609c-8.756,3.811 -14.151,9.926 -15.587,19.461c-0.329,2.214 -1.134,4.357 -1.723,6.536c10.2,0.202 18.746,-6.081 20.883,-16.385c1.022,-4.947 3.314,-7.489 7.789,-9.409c6.502,-2.796 12.758,-6.192 18.047,-11.103c2.213,-2.053 4.925,-3.362 7.88,-4.077c8.884,-2.143 25.64,0.014 34.298,4.511c-2.164,1.345 -4.21,2.606 -6.248,3.867c-3.16,1.969 -5.997,4.351 -8.498,7.097c-2.823,3.088 -5.982,5.842 -9.962,7.089c-11.271,3.538 -17.912,11.159 -20.363,22.514c9.813,2.159 18.522,-1.995 22.522,-11.417c4.728,-11.16 12.399,-18.888 24.062,-22.655c4.084,-1.325 7.573,-0.814 11.132,1.387c7.278,4.482 12.581,10.78 15.748,18.514c6.677,16.322 6.332,32.574 -2.579,48.071c-6.079,10.576 -15.145,17.204 -27.615,18.403c-6.906,0.664 -13.483,-0.996 -19.923,-3.265c-10.178,-3.595 -20.343,-7.236 -30.506,-10.858c-0.456,-0.161 -0.925,-0.267 -1.577,0.062c3.362,1.682 6.69,3.427 10.087,5.031c11.258,5.323 21.928,11.753 32.911,17.596c6.376,3.398 13.143,5.857 19.797,8.603c16.735,6.906 31.714,16.644 44.819,29.023c14.972,14.143 32.38,22.178 52.926,23.622c10.577,0.742 20.567,3.817 30.129,8.385c6.501,3.11 13.072,6.032 20.393,6.738c5.281,0.52 10.458,-0.175 15.628,-1.106c0.792,-0.14 1.584,-0.266 2.522,-0.42c-3.874,6.234 -11.88,9.731 -19.209,8.638c-6.254,-0.925 -12.307,-2.599 -17.89,-5.528c-12.764,-6.69 -26.327,-10.41 -40.66,-11.461c-4.11,-0.301 -7.971,-1.653 -11.922,-2.774c5.821,4.154 12.267,7.138 19.089,8.897c15.749,4.057 28.653,13.072 41.689,23.005c-4.588,2.424 -8.875,4.946 -13.702,6.284c-1.808,0.505 -3.65,-0.42 -5.409,-0.896c-17.786,-4.791 -35.426,-10.012 -51.803,-18.677c-8.295,-4.385 -14.943,-10.858 -21.5,-17.415c-5.814,-5.822 -11.559,-11.691 -18.136,-16.708c-9.485,-7.221 -20.637,-10.466 -31.762,-13.835c-2.046,-0.615 -4.071,-1.303 -6.46,-1.38c2.845,2.026 5.648,4.112 8.539,6.067c3.498,2.368 7.126,4.525 10.951,6.312c12.764,5.962 23.608,14.543 33.267,24.659c3.187,3.341 5.962,7.068 8.448,10.037c-2.555,0.084 -6.464,-1.022 -10.395,-1.695c-20.063,-3.424 -37.8,-12.16 -54.46,-23.566c-15.804,-10.809 -31.908,-21.133 -50.303,-27.208c-13.913,-4.595 -28.287,-7.019 -42.697,-9.338c-7.314,-1.177 -14.663,-2.115 -22.082,-1.884c-2.445,0.07 -2.788,-1.808 -3.551,-3.215c-0.708,-1.296 -2.382,-2.754 -1.527,-4.064c0.658,-1.008 2.697,-0.413 4.126,-0.358c8.889,0.358 17.485,2.467 26.157,4.19c10.886,2.166 21.828,4.042 32.546,7.006c16.001,4.427 30.592,11.937 44.912,20.111c12.497,7.146 24.21,15.616 37.142,22.025c8.188,4.057 16.826,6.928 25.598,9.57c-5.031,-5.352 -10.418,-10.411 -16.793,-13.822c-20.624,-11.048 -39.264,-24.812 -56.966,-39.966c-12.231,-10.465 -26.243,-17.127 -42.067,-20.139c-7.805,-1.492 -15.251,-4.119 -22.332,-7.805c-13.01,-6.767 -27.035,-9.61 -41.543,-10.479c-2.15,-0.133 -5.079,-4.896 -4.181,-6.851c0.518,-1.128 1.633,-0.644 2.458,-0.582c14.012,1.1 27.931,3.11 40.673,9.269c11.3,5.464 23.069,9.163 35.159,12.182c11.041,2.766 21.073,7.944 29.878,14.955c12.624,10.054 26.557,17.094 42.115,21.142c16.631,4.323 30.13,13.85 42.165,25.738c8.134,8.035 16.469,15.846 26.501,21.534c7.369,4.183 15.307,7.048 23.293,9.765c10.22,3.468 20.427,6.977 30.886,9.676c0.378,0.097 0.777,0.126 2.004,0.327c-3.931,-4.203 -7.895,-7.137 -12.12,-9.742c-5.632,-3.482 -11.74,-6.026 -18.016,-7.96c-17.83,-5.499 -32.477,-16.091 -46.319,-28.112c-11.258,-9.772 -22.27,-19.873 -35.406,-27.208c-5.205,-2.914 -10.459,-5.758 -16.056,-7.838c-13.428,-5.002 -26.248,-11.209 -38.528,-18.62c-11.251,-6.782 -23.433,-11.483 -35.994,-15.195c-10.557,-3.124 -20.974,-6.613 -31.272,-10.495c-13.182,-4.98 -26.871,-7.557 -40.89,-8.497c-2.135,-0.139 -2.849,-0.861 -3.236,-3.04c-0.049,-0.252 -0.069,-0.504 -0.118,-0.756c-7.041,13.24 7.362,34.039 12.216,45.856c3.462,8.449 6.984,16.911 10.285,25.45c2.227,0.148 4.413,1.234 5.82,3.559c3.798,6.256 4.933,13.1 5.499,20.091c23.616,28.624 53.297,49.232 88.19,62.886c30.508,11.944 61.989,16.218 94.438,12.147c42.116,-5.296 79.187,-22.325 110.97,-50.318c5.128,-4.518 9.948,-9.177 14.487,-13.968c4.414,-6.915 8.772,-13.857 12.869,-20.925c16.722,-28.799 30.123,-61.24 32.61,-94.775c-0.441,0.007 -0.89,0.035 -1.317,-0.049Z" style="fill:#b5bda6;fill-rule:nonzero;"/><path d="M119.994,39.059c0.511,-0.657 1.303,-0.223 1.947,0.051c4.196,1.785 6.62,6.563 5.353,10.437c-3.882,-1.975 -6.305,-4.785 -7.272,-8.785c-0.134,-0.559 -0.302,-1.351 -0.028,-1.703Zm4.126,12.393c2.501,2.298 4.216,5.24 6.452,8.386c1.233,-3.874 2.71,-7.125 3.117,-10.683c0.784,-6.873 -2.059,-11.574 -8.554,-13.941c-2.403,-0.869 -4.96,-1.303 -7.44,-1.969c-0.427,-0.119 -0.889,-0.258 -1.365,-0.406c-1.135,0.519 -2.291,1.023 -3.404,1.555c1.807,2.214 3.65,4.4 4.566,7.167c1.303,3.909 3.623,7.132 6.628,9.891Z" style="fill:#b5bda6;fill-rule:nonzero;"/><path d="M43.426,113.092c0.813,-0.484 1.577,0.056 2.269,0.489c0.343,0.219 0.637,0.513 0.932,0.792c2.353,2.214 4.694,4.429 7.118,6.712c-4.554,1.205 -9.682,-1.626 -10.711,-5.78c-0.19,-0.784 -0.484,-1.695 0.392,-2.213Zm10.844,10.627c8.694,0.189 16.651,-1.716 23.579,-7.742c-2.984,0.462 -5.842,0.688 -8.581,1.367c-5.506,1.358 -10.368,-0.029 -14.284,-3.748c-3.986,-3.776 -8.357,-5.541 -13.716,-5.043c-0.96,1.597 -1.877,3.208 -2.738,4.833c0.153,0.315 0.363,0.602 0.504,0.918c2.878,6.725 8.238,9.254 15.236,9.415Z" style="fill:#b5bda6;fill-rule:nonzero;"/><path d="M88.463,61.154c6.619,3.195 11.342,10.495 11.537,18.012c-6.851,-4.365 -11.523,-9.718 -11.537,-18.012Zm22.775,28.268c-3.279,-3.042 -5.422,-6.741 -6.011,-11.189c-1.563,-11.727 -7.91,-19.565 -18.956,-23.684c-0.575,-0.217 -1.101,-0.56 -1.661,-0.812c-0.547,-0.246 -0.869,-0.505 -1.071,-0.772c-0.617,0.52 -1.192,1.093 -1.794,1.619c0.259,0.217 0.518,0.518 0.805,0.994c2.025,3.362 2.109,7.125 2.228,10.76c0.245,7.559 3.637,12.666 10.683,15.356c3.048,1.162 5.444,3.23 7.839,5.365c3.272,2.922 6.774,5.486 12.035,6.095c-1.71,-1.555 -2.914,-2.626 -4.097,-3.732Z" style="fill:#b5bda6;fill-rule:nonzero;"/><path d="M80.723,93.26c7.634,8.827 16.426,7.796 25.666,3.026c0.694,-0.358 1.402,-0.686 2.249,-1.099c-4.995,-3.553 -10.151,-6.06 -16.315,-5.907c-3.461,0.091 -6.698,-0.84 -9.744,-2.515c-7.986,-4.385 -16.386,-5.316 -25.142,-3.27c-1.059,1.582 -2.172,3.131 -3.209,4.728c1.674,1.316 3.468,2.466 5.428,3.3c4.365,1.863 8.898,1.828 13.24,0.118c3.007,-1.177 5.347,-0.573 7.581,1.437c0.078,0.069 0.182,0.111 0.246,0.182Z" style="fill:#b5bda6;fill-rule:nonzero;"/><path d="M321.555,61.814c-0.168,8.587 -4.973,13.764 -11.607,17.806c-0.321,-5.569 5.696,-14.921 11.607,-17.806Zm-19.124,29.169c5.8,-4.245 11.671,-8.322 17.885,-11.972c4.162,-2.438 5.051,-7.041 5.283,-11.601c0.21,-4.132 0.825,-8.16 2.396,-12.034c0.104,-0.246 0.201,-0.407 0.301,-0.582c-0.365,-0.287 -0.722,-0.595 -1.086,-0.882c-0.064,0.035 -0.098,0.077 -0.162,0.104c-1.183,0.624 -2.354,1.303 -3.608,1.723c-10.143,3.405 -16.14,10.439 -17.73,20.918c-1.043,6.823 -4.252,12.077 -10.038,16.322c2.921,0.589 5.002,-0.708 6.759,-1.996Z" style="fill:#b5bda6;fill-rule:nonzero;"/><path d="M264.299,24.903c-0.82,6.017 -2.887,10.262 -8.758,12.342c1.423,-5.141 3.524,-9.351 8.758,-12.342Zm-23.462,35.803c1.612,-5.359 4.876,-9.701 9.24,-13.198c0.407,-0.321 0.779,-0.686 1.206,-0.974c8.636,-5.856 14.445,-13.793 17.708,-23.544c-2.128,-0.533 -4.272,-1.029 -6.415,-1.507c-4.429,2.046 -7.475,5.402 -8.681,10.172c-1.499,5.948 -4.721,10.473 -9.366,14.439c-8.413,7.18 -12.762,16.392 -12.371,27.767c4.392,-3.53 7.097,-7.908 8.679,-13.155Z" style="fill:#b5bda6;fill-rule:nonzero;"/><path d="M287.755,39.9c0.848,-0.504 1.969,-1.372 2.768,-0.79c0.924,0.679 0.055,1.883 -0.239,2.787c-1.169,3.635 -3.48,6.325 -7.305,8.238c-0.204,-4.574 1.057,-8.007 4.776,-10.235Zm-8.196,20.379c4.953,-7.23 11.665,-12.672 15.251,-20.981c1.093,-2.522 1.779,-4.09 2.424,-5.051c-0.94,-0.391 -1.884,-0.743 -2.823,-1.128c-2.437,0.695 -4.687,1.332 -6.817,1.983c-8.924,2.76 -12.055,8.098 -10.046,17.128c0.582,2.6 1.29,5.177 2.011,8.049Z" style="fill:#b5bda6;fill-rule:nonzero;"/><path d="M211.373,36.944c-1.569,2.445 -2.193,1.471 -3.222,-0.223c-4.021,-6.635 -3.545,-15.833 1.401,-23.538c5.619,7.628 6.172,16.994 1.821,23.761Zm-2.06,24.056c-2.639,-8.918 -10.395,-16.329 -6.143,-27.432c1.703,5.015 4.196,8.834 6.893,12.827c2.544,-3.812 4.568,-7.63 6.046,-12.099c3.174,7.349 0.925,15.944 -6.796,26.704Zm-3.53,-50.297c-0.622,0.861 -1.268,1.702 -1.835,2.599c-9.317,14.829 -9.899,30.305 -2.291,45.793c4.183,8.497 5.528,17.485 7.076,26.586c-2.165,-2.347 -3.404,-5.234 -5.136,-8.331c-1.73,8.813 1.479,15.804 5.984,22.445c5.583,-5.876 8.112,-14.249 6.409,-21.722c-1.815,2.892 -3.076,5.898 -5.281,8.336c-0.19,-0.21 -0.436,-0.372 -0.407,-0.469c2.172,-8.632 3.307,-17.443 7.32,-25.682c8.21,-16.841 7.853,-33.366 -3.579,-48.847c-2.215,-0.358 -4.436,-0.631 -6.683,-0.694c-0.533,-0.021 -1.051,-0.007 -1.577,-0.014Z" style="fill:#b5bda6;fill-rule:nonzero;"/><path d="M132.568,178.745c-5.997,-0.126 -11.705,0.56 -15.685,6.542c6.292,-0.336 10.893,-3.614 15.685,-6.542Zm-43.531,29.31c1.681,-3.727 2.278,-7.166 3.335,-10.473c1.85,-5.78 5.827,-9.282 11.698,-10.627c4.259,-0.967 7.812,-3.32 10.851,-6.199c9.486,-8.981 20.569,-8.028 32.148,-5.57c-5.787,1.787 -8.882,6.725 -13.065,10.369c-5.155,4.49 -11.292,6.094 -18.101,4.566c-3.097,-0.693 -6.074,-1.954 -9.269,-2.213c-2.787,-0.232 -5.267,0.343 -7.047,3.195c2.214,0.924 4.379,-0.239 6.41,0.398c-1.261,4.582 0.252,9.99 -4.294,13.423c-3.588,2.717 -7.895,2.5 -12.666,3.131Z" style="fill:#b5bda6;fill-rule:nonzero;"/><path d="M53.752,198.29c-6.039,0.903 -11.488,5.659 -11.74,10.052c5.603,-1.309 8.181,-6.032 11.74,-10.052Zm-17.541,14.984c1.303,-3.825 2.396,-7.124 3.544,-10.409c1.478,-4.212 4.35,-7.287 8.385,-8.975c8.05,-3.369 16.078,-6.802 24.504,-9.176c0.478,-0.133 0.989,-0.126 1.991,-0.246c-3.279,2.487 -6.207,4.602 -9.01,6.887c-3.215,2.613 -6.143,5.506 -7.46,9.603c-2.676,8.302 -8.749,11.749 -17.071,12.015c-1.52,0.055 -3.042,0.19 -4.883,0.301Z" style="fill:#b5bda6;fill-rule:nonzero;"/><path d="M153.975,190.605c-4.692,2.5 -6.22,6.059 -7.019,10.094c-0.188,0.96 -0.874,2.299 0.204,2.781c1.38,0.624 2.207,-0.672 2.802,-1.785c1.737,-3.252 2.887,-6.719 4.013,-11.09Zm-12.594,20.952c1.128,-3.312 1.976,-6.248 2.403,-9.316c0.966,-6.964 4.517,-11.972 11.235,-14.516c1.15,-0.434 2.27,-0.931 3.398,-1.414c3.608,-1.542 3.938,-1.373 4.688,2.465c1.807,9.282 -1.774,16.049 -10.501,19.812c-3.482,1.506 -7.139,2.367 -11.223,2.969Z" style="fill:#b5bda6;fill-rule:nonzero;"/><path d="M45.695,187.32c-4.371,-1.661 -8.132,-4.035 -12.399,-5.199c-0.763,-0.203 -1.807,-0.672 -2.332,-0.013c-0.708,0.876 0.266,1.688 0.728,2.396c3.285,5.008 7.53,5.933 14.003,2.816Zm14.937,-2.144c-5.444,0.777 -10.243,3.124 -15.189,5.121c-9.134,3.677 -15.769,1.142 -20.301,-7.523c-1.17,-2.228 -2.416,-4.435 -2.984,-6.86c9.899,0.54 19.418,1.591 28.141,6.292c3.152,1.703 6.703,2.347 10.333,2.97Z" style="fill:#b5bda6;fill-rule:nonzero;"/><path d="M44.618,160.727c-4.905,-0.23 -9.431,0.281 -12.758,4.456c4.175,1.562 9.108,-0.155 12.758,-4.456Zm12.727,-2.185c-3.797,2.298 -6.836,5.366 -10.179,8.063c-5.435,4.385 -11.523,5.099 -18.009,2.984c-2.712,-0.882 -5.325,-2.059 -8.358,-3.25c7.734,-5.541 14.647,-11.874 25.155,-9.156c3.601,0.932 7.448,1.162 11.391,1.359Z" style="fill:#b5bda6;fill-rule:nonzero;"/><path d="M79.062,158.374c5.849,3.081 12.301,2.01 16.259,-2.571c-5.829,-1.093 -10.795,2.34 -16.259,2.571Zm-10.417,-1.52c6.116,-2.642 12.069,-4.772 18.256,-6.165c4.385,-0.987 11.159,2.101 13.493,5.842c0.44,0.701 0.391,1.073 -0.414,1.338c-1.94,0.624 -3.188,2.208 -4.645,3.475c-5.197,4.498 -10.88,5.471 -17.121,2.445c-3.51,-1.703 -6.579,-4.028 -9.569,-6.935Z" style="fill:#b5bda6;fill-rule:nonzero;"/><path d="M56.077,150.171c3.181,-13.289 13.129,-19.357 28.876,-17.262c-9.632,6.081 -16.561,15.937 -28.876,17.262Z" style="fill:#b5bda6;fill-rule:nonzero;"/><path d="M136.729,159.396c-5.464,-0.321 -10.13,-0.98 -14.857,-0.343c-5.01,0.672 -9.163,-1.562 -13.101,-4.314c-1.064,-0.743 -2.185,-1.416 -3.656,-2.362c2.948,-1.233 5.477,-2.549 8.167,-3.37c5.486,-1.659 10.543,-0.882 14.733,3.398c2.431,2.487 5.086,4.708 8.714,6.991Z" style="fill:#b5bda6;fill-rule:nonzero;"/><path d="M277.725,178.962c7.453,4.967 11.459,6.606 15.552,6.376c-3.84,-5.108 -8.946,-6.893 -15.552,-6.376Zm43.797,28.77c-2.81,0.323 -5.254,-0.076 -7.658,-0.573c-4.343,-0.905 -7.104,-3.511 -7.909,-7.986c-0.055,-0.301 -0.126,-0.604 -0.175,-0.905c-0.301,-2.128 -1.415,-4.608 -0.693,-6.311c0.945,-2.241 3.839,0.091 5.912,-0.987c-0.841,-2.144 -2.781,-2.606 -4.735,-2.929c-2.614,-0.427 -5.121,0.231 -7.559,1.086c-10.129,3.551 -18.774,1.611 -25.814,-6.725c-2.55,-3.013 -5.983,-4.904 -10.242,-7.103c11.74,-1.991 22.423,-3.272 31.741,4.818c3.692,3.203 7.915,5.389 12.651,6.796c6.221,1.843 10.543,5.71 11.959,12.393c0.588,2.78 1.624,5.477 2.522,8.426Z" style="fill:#b5bda6;fill-rule:nonzero;"/><path d="M356.736,197.443c3.811,4.447 6.347,9.253 11.917,11.249c-0.631,-5.148 -5.219,-9.548 -11.917,-11.249Zm-19.124,-11.798c9.289,1.598 17.863,5.261 26.362,9.079c2.9,1.31 4.889,3.796 6.052,6.739c1.323,3.335 2.361,6.782 3.565,10.158c0.47,1.323 0.183,1.752 -1.288,1.863c-9.262,0.694 -15.881,-3.047 -19.202,-11.663c-2.613,-6.803 -8.147,-10.634 -13.506,-14.76c-0.645,-0.491 -1.318,-0.947 -1.983,-1.416Z" style="fill:#b5bda6;fill-rule:nonzero;"/><path d="M256.176,190.977c0.792,2.283 1.296,3.922 1.92,5.513c0.868,2.192 1.491,4.497 2.942,6.417c0.511,0.672 1.303,1.261 2.094,1.022c1.023,-0.308 0.701,-1.394 0.623,-2.15c-0.482,-4.646 -2.17,-8.519 -7.579,-10.802Zm13.043,20.98c-6.731,-1.199 -12.56,-2.613 -17.337,-6.696c-4.904,-4.197 -6.718,-12.82 -4.161,-18.671c0.624,-1.42 1.232,-1.876 2.739,-1.071c1.891,1.009 3.922,1.752 5.884,2.626c5.59,2.48 8.834,6.825 10.011,12.758c0.694,3.509 1.134,7.081 2.864,11.054Z" style="fill:#b5bda6;fill-rule:nonzero;"/><path d="M389.969,166.346c-5.968,2.108 -11.082,5.057 -17.246,4.644c-3.117,-0.21 -5.884,-1.051 -8.26,-2.907c-3.761,-2.936 -7.081,-6.431 -11.187,-9.065c4.61,0.267 8.946,-0.749 13.337,-1.514c5.347,-0.938 10.391,0.162 14.93,3.294c2.606,1.801 5.288,3.489 8.426,5.548Z" style="fill:#b5bda6;fill-rule:nonzero;"/><path d="M380.19,182.024c-5.772,-0.119 -10.137,3.425 -15.223,5.239c5.626,3.909 12.617,1.506 15.223,-5.239Zm-30.62,2.998c5.542,-0.511 10.564,-2.215 15.404,-4.595c4.371,-2.159 8.933,-3.553 13.886,-3.657c3.152,-0.064 6.325,-0.175 10.136,-1.451c-2.418,5.002 -3.805,9.758 -7.678,13.052c-4.035,3.431 -8.792,4.685 -13.822,2.942c-5.96,-2.075 -11.481,-5.373 -17.926,-6.291Z" style="fill:#b5bda6;fill-rule:nonzero;"/><path d="M331.736,157.918c-3.588,0.084 -6.285,-0.434 -8.953,-1.12c-5.254,-1.345 -5.254,-1.353 -7.721,-0.19c5.317,4.477 10.039,4.995 16.674,1.31Zm10.121,-1.436c-3.312,2.971 -6.312,5.352 -9.785,7.174c-6.249,3.279 -11.875,2.115 -17.142,-2.123c-0.876,-0.708 -1.655,-1.534 -2.522,-2.255c-2.79,-2.327 -2.732,-2.249 0.09,-4.82c4.091,-3.721 8.637,-4.856 13.926,-3.033c4.94,1.695 9.92,3.257 15.433,5.057Z" style="fill:#b5bda6;fill-rule:nonzero;"/><path d="M324.876,132.783c5.22,0.358 9.935,0.546 14.614,1.031c4.167,0.44 7.488,2.374 9.835,6.045c2.221,3.467 4.084,7.095 5.842,10.836c-4.904,0.611 -11.957,-3.557 -30.291,-17.912Z" style="fill:#b5bda6;fill-rule:nonzero;"/><path d="M305.017,152.279c-8.539,8.911 -19.735,6.369 -29.878,6.964c0.989,-1.318 10.368,-9.353 11.756,-9.92c4.161,-1.696 8.223,-1.121 12.237,0.532c2.06,0.855 4.126,1.703 5.885,2.424Z" style="fill:#b5bda6;fill-rule:nonzero;"/><path d="M209.846,133.435c-2.871,-4.672 -6.627,-8.182 -9.961,-12.049c-5.969,-6.942 -7.553,-15.355 -7.699,-24.155c-0.197,-11.207 -0.112,-22.423 -1.289,-33.583c-0.75,-7.146 -2.319,-10.298 -6.914,-15.754c2.852,0.301 2.852,0.301 9.577,8.834c-0.099,-1.374 -0.168,-2.396 -0.274,-3.825c2.402,2.086 2.935,4.679 3.53,7.172c1.83,7.616 2.115,15.448 3.097,23.188c1.142,9.05 3.531,17.919 4.062,27.09c0.162,2.732 1.633,5.204 3.237,7.6c-0.007,-4.441 0.765,-8.686 2.648,-13.38c1.773,4.995 3.223,9.45 1.807,15.019c3.272,-4.343 4.561,-8.588 4.778,-13.183c0.505,-10.809 3.692,-21.248 4.351,-32.043c0.286,-4.812 0.959,-9.604 2.018,-14.325c0.504,-2.214 1.252,-4.315 2.493,-6.22c1.239,0.412 0.133,1.666 1.037,2.332c1.456,-1.646 2.038,-3.951 3.783,-5.394c1.646,-1.352 3.312,-2.648 6.08,-3.335c-6.803,7.041 -7.938,15.279 -8,24c-0.077,9.976 -0.617,19.938 -0.896,29.906c-0.245,8.616 -3.356,15.992 -9.324,22.199c-2.9,3.02 -5.723,6.102 -8.141,9.906Z" style="fill:#b5bda6;fill-rule:nonzero;"/><path d="M133.619,120.231c-2.768,-12.519 -14.256,-21.087 -22.578,-17.094c7.411,5.646 15.769,9.822 22.578,17.094Zm6.473,11.11c-8.035,-7.692 -17.233,-11.924 -25.857,-17.045c-5.072,-3.018 -8.574,-7.838 -13.576,-11.256c6.922,-4.617 13.968,-6.502 21.85,-4.345c6.962,1.907 11.145,6.741 13.638,13.15c2.319,5.955 3.175,12.253 3.945,19.496Z" style="fill:#b5bda6;fill-rule:nonzero;"/><path d="M277.101,119.859c6.803,-6.641 15.439,-10.746 23.04,-16.567c-10.277,-3.23 -19.089,3.6 -23.04,16.567Zm-6.893,11.453c1.38,-6.599 1.927,-12.714 4.028,-18.536c4.44,-12.315 15.159,-17.605 27.586,-13.464c3.02,1.009 5.85,2.41 8.168,3.812c-10.948,12.349 -27.117,17.211 -39.782,28.188Z" style="fill:#b5bda6;fill-rule:nonzero;"/><path d="M343.952,103.018c-7.139,-0.757 -11.944,4.931 -18.698,6.207c7.475,3.776 15.917,0.819 18.698,-6.207Zm-33.962,8.273c7.895,-5.576 16.806,-8.813 25.332,-12.784c5.597,-2.606 12.47,-2.137 19.341,0.567c-4,3.026 -6.207,7.397 -9.898,10.487c-4.904,4.091 -10.565,4.75 -16.54,3.797c-6.046,-0.96 -12.014,-2.416 -18.235,-2.067Z" style="fill:#b5bda6;fill-rule:nonzero;"/><path d="M66.382,102.206c3.278,7.677 10.956,10.409 18.228,6.515c-6.451,-1.29 -11.145,-6.628 -18.228,-6.515Zm-10.69,-4.022c6.718,-1.471 13.127,-2.794 19.096,-0.07c8.008,3.65 16.288,6.767 23.924,11.237c0.693,0.405 1.352,0.861 2.018,1.549c-7.287,-1.128 -14.165,1.239 -21.199,2.128c-6.424,0.806 -11.734,-1.246 -15.93,-6.101c-2.458,-2.852 -4.701,-5.898 -7.909,-8.743Z" style="fill:#b5bda6;fill-rule:nonzero;"/><path d="M177.468,28.118c5.898,1.366 10.648,6.689 11.258,12.715c-6.355,-2.207 -9.016,-7.125 -11.258,-12.715Zm13.625,8.105c-2.298,-6.802 -6.669,-11.685 -13.295,-14.514c-3.062,-1.312 -6.187,-2.551 -8.919,-4.918c-1.016,0.728 -2.066,1.394 -3.179,1.96c0.035,2.697 0.924,4.841 4.146,6.144c1.002,0.4 1.555,1.373 1.758,2.411c1.752,9.12 7.783,14.326 15.937,17.688c2.648,1.085 4.833,3.144 8.085,4.223c-1.632,-4.678 -3.125,-8.819 -4.533,-12.994Z" style="fill:#b5bda6;fill-rule:nonzero;"/><path d="M230.28,40.846c2.25,-5.981 5.409,-10.64 11.944,-12.665c-1.274,6.403 -5.73,11.152 -11.944,12.665Zm18.361,-22.221c-2.214,1.528 -4.63,2.732 -7.158,3.763c-5.858,2.402 -9.864,6.612 -12.099,12.477c-1.787,4.692 -3.404,9.448 -5.099,14.178c0.168,0.188 0.343,0.385 0.518,0.575c3.424,-2.706 7.342,-4.498 11.2,-6.398c6.208,-3.046 10.362,-7.641 11.552,-14.627c0.352,-2.051 1.458,-3.46 3.301,-4.552c1.785,-1.058 2.738,-2.62 2.991,-4.421c-1.737,-0.336 -3.469,-0.665 -5.206,-0.995Z" style="fill:#b5bda6;fill-rule:nonzero;"/><path d="M160.813,73.35c-2.241,-4.188 -5.884,-6.234 -8.855,-8.988c-5.051,-4.692 -6.949,-10.78 -5.471,-18.073c2.858,2.466 6.411,3.103 9.731,4.316c7.236,2.648 9.73,8.021 7.23,15.376c-0.779,2.284 -1.626,4.547 -2.635,7.369Z" style="fill:#b5bda6;fill-rule:nonzero;"/><path d="M249.528,73.708c-1.373,-3.265 -2.395,-6.039 -2.984,-8.967c-1.352,-6.683 1.064,-11.166 7.489,-13.513c3.34,-1.219 6.886,-1.933 9.848,-4.637c1.64,8.112 -0.623,14.333 -6.767,19.158c-2.801,2.208 -5.736,4.267 -7.586,7.959Z" style="fill:#b5bda6;fill-rule:nonzero;"/><path d="M366.901,117.709c-1.744,3.082 -6.444,4.931 -11.32,4.216c3.475,-2.178 5.493,-5.099 8.322,-7.096c0.995,-0.701 2.241,-1.646 3.321,-0.715c1.247,1.08 0.307,2.487 -0.323,3.595Zm7.685,-8.911c-2.403,-0.413 -4.708,0.693 -7.117,0.427c-4.519,-0.491 -8.231,1.12 -11.293,4.456c-4.329,4.727 -9.687,5.694 -15.782,4.413c-2.628,-0.547 -5.227,-1.57 -7.826,-1.374c7.096,6.017 15.308,8.645 24.687,7.86c6.361,-0.533 11.188,-3.026 13.948,-8.995c1.051,-2.283 2.29,-4.468 3.447,-6.696c-0.022,-0.035 -0.042,-0.064 -0.064,-0.091Z" style="fill:#b5bda6;fill-rule:nonzero;"/></g></svg>