<svg width="1374" height="436" viewBox="0 0 1374 436" fill="none" xmlns="http://www.w3.org/2000/svg">
<path fill-rule="evenodd" clip-rule="evenodd" d="M370.754 42.7104C359.351 45.1873 356.239 60.5909 361.615 62.1261C367.668 63.8555 372.36 65.4806 434.699 66.691C497.038 67.902 711.937 37.9285 711.937 37.9285L511.566 40.9554L648.424 25.596L424.936 34.1982L698.034 15.9923C739.807 5.66344 790.54 20.0774 814.094 9.60602C837.64 -0.866606 875.33 9.69595 878.859 6.0269C882.387 2.35784 890.613 1.85788 894.321 0.420525C898.035 -1.01443 907.905 8.61312 906.607 9.04627C905.303 9.47759 901.737 15.8986 905.763 15.3879C909.789 14.8773 914.818 19.1481 916.071 17.8827C917.325 16.6167 915.779 21.5325 905.657 20.4782C895.529 19.4221 863.307 28.9701 866.522 32.8782C869.738 36.7857 910.036 28.3547 913.157 28.2997C916.277 28.2447 926.4 20.5504 937.075 19.6273C947.756 18.7061 959.941 22.3025 960.159 23.9791C960.383 25.658 958.151 27.6621 965.106 28.4654C972.054 29.2668 971.721 24.9338 978.084 21.7997C984.448 18.6661 981.718 14.6225 985.99 13.3902C990.256 12.1554 1059.73 25.6032 1061.28 21.3598C1062.83 17.1164 1208.04 18.789 1208.04 18.789L1144.48 28.332L1214.63 31.1967L1139.14 41.6784L1231.06 37.2878L1192.71 39.5068L1219.25 43.0727L1188.47 45.9164L1240.44 52.9146L1218.08 54.2754C1209.39 47.8724 1086.75 58.773 1087.28 62.5303C1087.82 66.2895 1069.26 77.9737 1113.99 71.132C1158.72 64.2915 1180.24 77.4044 1198.79 72.251C1217.33 67.0982 1293.94 88.1625 1293.94 88.1625L1257.47 102.22C1243.94 106.929 1193.46 125.162 1169.67 123.317C1145.88 121.471 1112.8 146.464 1112.8 146.464L1154.23 142.614C1181.44 140.102 1236.76 137.611 1257.85 128.212C1278.94 118.813 1309.08 113.919 1324.56 110.161C1303.97 127.484 1273.36 136.857 1273.36 136.857L1354.59 143.617C1404.99 156.357 1389.92 144.001 1317.58 153.525C1317.07 152.747 1242.03 179.784 1230.4 164.368C1218.77 148.953 1170.58 160.269 1170.58 160.269L1177.12 196.659C1189.23 188.419 1279.99 199.461 1289.08 200.77C1298.16 202.077 1304.46 209.032 1304.46 209.032L1346.8 214.338L1343.23 225.482L1273.84 227.209C1273.84 227.209 1294.97 229.993 1312.37 232.041C1298.39 233.494 1288.13 239.091 1287.24 239.586C1287.2 239.594 1287.19 239.607 1287.18 239.622C1287.18 239.622 1287.2 239.609 1287.24 239.586C1289.5 239.008 1351.07 249.194 1351.07 249.194L1289.72 246.517C1284.29 242.165 1267.09 243.809 1242.11 239.643C1217.14 235.477 1184.14 244.765 1201.52 248.041C1218.9 251.318 1231.23 252.209 1246.43 251.453C1261.63 250.698 1264.94 253.802 1284.11 260.872C1303.28 267.941 1332.96 266.007 1341.06 265.568C1354.51 264.836 1359.48 281.512 1359.48 281.512L1349.85 314.959C1320.19 306.562 1215.86 334.224 1232.17 331.471C1242.61 329.709 1280.47 341.156 1280.47 341.156C1262.07 335.948 1071.52 349.13 1071.52 349.13C1067.2 349.03 1025.9 358.9 1034.52 346.387C1037.52 342.024 1035.32 345.848 1013.87 343.622C1011.28 343.353 999.799 339.378 993.168 332.689C989.278 328.766 968.453 325.944 988.544 339.092C993.93 342.619 999.664 345.709 1005.39 348.758C1010.88 351.682 1016.61 354.213 1022.17 357.012C1023.4 357.631 1024.92 358.014 1025.79 359.018C1026.22 359.533 1024.38 358.867 1023.68 358.771C1019.58 358.243 1015.49 357.417 1011.38 357.15C1004.59 356.707 997.796 356.53 991.038 356.636C971.049 356.939 951.078 357.475 931.164 358.377C885.287 360.452 813.79 365.455 768.993 368.902C717.869 372.837 666.824 377.186 615.717 381.186C568.708 384.864 567.033 391.273 557.264 382.823C554.045 380.037 549.096 379.612 544.871 378.428C536.713 376.143 528.97 375.481 520.759 376.743C518.625 377.067 516.653 377.859 514.667 378.551C513.938 378.803 513.275 379.194 512.628 379.577C504.943 382.043 498.101 384.892 506.431 386.521C509.399 387.102 512.438 387.215 515.386 387.893C518.392 388.587 521.324 389.592 524.231 390.638C524.733 390.816 525.857 391.195 525.525 391.529C524.929 392.126 523.742 391.971 522.823 392.054C490.466 394.991 483.466 394.739 451.39 398.931C366.485 410.029 282.01 423.389 196.573 432.39C196.573 432.39 175.214 438.724 179.348 432.848C183.481 426.977 170.689 422.825 175.426 424.003C180.163 425.182 188.487 422.174 205.113 418.737C221.739 415.3 234.439 397.298 234.439 397.298L122.918 412.856C125.514 411.903 123.471 408.118 111.004 403.347C96.4748 397.798 97.2718 413.052 89.9941 413.945C82.7163 414.838 71.0962 407.533 68.1224 393.322C65.1485 379.11 99.4591 382.253 83.2831 374.889C67.1061 367.53 56.3406 375.235 57.9723 372.231C58.8375 370.638 112.634 361.54 84.5402 353.062C56.4466 344.583 44.788 363.32 42.0893 358.988C36.7518 356.313 77.101 344.331 73.579 338.131C70.0579 331.926 51.0039 343.964 46.8118 342.585C42.6203 341.205 44.5821 333.984 42.9537 323.794C41.3268 313.598 56.8368 310.931 52.9448 306.863C49.0512 302.801 36.1744 308.39 36.1744 308.39L60.6632 263.682C66.9693 266.987 107.264 256.056 112.105 250.265C116.945 244.474 109.338 250.048 103.769 248.484C98.2029 246.914 110.224 240.329 114.048 229.663C117.872 219.003 99.9487 237.739 101.39 230.817C102.83 223.895 82.7958 244.945 82.1768 236.668C81.5584 228.391 69.0042 252.137 66.3324 243.575C63.6596 235.018 57.4688 254.658 53.9938 252.27C50.5203 249.876 38.4189 261.972 41.3045 253.716C44.19 245.461 35.2169 233.083 32.5854 225.008C29.9529 216.939 22.7132 228.277 20.1691 227.467C17.6273 226.65 3.2288 213.417 18.0971 181.688C32.9676 149.954 150.213 146.698 147.914 134.431C145.615 122.164 26.4664 162.544 24.6049 145.362C22.744 128.18 116.396 110.13 91.3601 108.497C66.3222 106.87 10.0497 134.013 7.19879 134.731C4.34783 135.449 -6.90962 151.364 9.90178 115.61C26.7116 79.8617 279.895 60.5897 299.037 50.0581C312.834 42.4679 354.34 42.5709 370.754 42.7104ZM309.051 382.183L470.438 364.184L383.395 367.618L309.051 382.183ZM683.55 78.2889L718.336 84.6865L789.436 72.835L683.55 78.2889ZM1097.42 201.053L1151.53 196.837L1138.97 190.091L1097.42 201.053Z" fill="#D7BFA9"/>
</svg>
