<svg width="385" height="599" viewBox="0 0 385 599" fill="none" xmlns="http://www.w3.org/2000/svg">
<g opacity="0.7">
<path fill-rule="evenodd" clip-rule="evenodd" d="M254.464 147.507C221.454 154.158 204.715 214.161 214.942 241.467C229.484 280.288 338.738 312.16 372.508 284.078C382.888 275.446 384.51 258.246 384.518 245.769C384.529 228.268 382.865 207.691 374.966 191.882C357.671 157.264 288.402 122.948 254.464 147.507Z" fill="#6D6F47"/>
<path fill-rule="evenodd" clip-rule="evenodd" d="M93.9276 209.355C68.1287 213.444 37.355 258.071 27.5777 277.576C20.0548 292.58 15.1968 308.703 11.561 325C4.62722 356.08 -1.84802 389.808 0.688052 421.74C5.1693 478.207 30.0397 556.054 82.316 586.57C100.747 597.328 121.579 598.478 142.06 597.954C152.44 597.687 162.834 598.811 173.083 596.564C232.401 583.554 291.856 544.612 283.628 476.408C281.448 458.344 276.241 439.923 266.74 424.266C258.132 410.079 248.202 396.788 235.272 386.204C218.436 372.421 200.296 361.346 190.174 341.086C183.069 326.864 178.256 309.491 177.044 293.642C175.656 275.452 182.575 255.032 172.852 238.223C157.751 212.125 123.29 198.121 95.3093 208.583C94.7791 208.782 94.3263 209.046 93.9276 209.355Z" fill="#AB744E"/>
<path fill-rule="evenodd" clip-rule="evenodd" d="M124.705 497.659C124.574 497.612 124.431 497.682 124.384 497.813C124.341 497.945 124.411 498.088 124.539 498.13C124.674 498.192 125.839 498.089 127.684 497.696C128.887 497.437 130.381 497.044 132.076 496.589C142.055 493.913 158.84 488.822 161.023 488.078C170.863 484.602 180.775 483.688 190.443 483.803C206.705 483.995 222.308 487.21 235.672 487.481C236.072 487.493 236.405 487.181 236.417 486.782C236.429 486.384 236.115 486.052 235.716 486.04C222.333 485.505 206.771 481.784 190.479 481.476C180.552 481.288 170.377 482.41 160.289 486.032L124.705 497.659Z" fill="black"/>
<path fill-rule="evenodd" clip-rule="evenodd" d="M223.567 187.373C223.499 187.348 223.423 187.383 223.399 187.451C223.373 187.519 223.408 187.595 223.476 187.62C223.973 187.802 224.264 187.767 224.434 187.668C224.628 187.555 224.727 187.328 224.701 186.976C224.636 186.117 223.68 184.58 223.424 183.831C222.874 182.239 222.166 180.772 221.37 179.352C221.13 178.923 220.888 178.496 220.625 178.08C219.602 176.456 218.43 174.919 217.312 173.294C214.225 168.849 210.769 164.538 207.044 160.466C203.325 156.401 199.339 152.576 195.291 149.001C180.386 135.912 167.898 125.27 153.004 118.714C143.207 114.404 132.377 111.853 119.123 111.553C118.976 111.549 118.848 111.667 118.844 111.816C118.84 111.965 118.96 112.09 119.107 112.094C132.245 112.543 142.959 115.182 152.62 119.573C167.332 126.262 179.592 137.008 194.23 150.194C198.213 153.759 202.098 157.602 205.785 161.618C209.47 165.631 212.961 169.819 216.055 174.176C217.198 175.77 218.335 177.315 219.441 178.871C219.717 179.261 220.002 179.642 220.273 180.035C221.164 181.324 221.979 182.664 222.651 184.139C222.944 184.777 223.805 185.991 224.132 186.831C224.178 186.948 224.203 187.058 224.233 187.153C224.268 187.269 224.348 187.346 224.313 187.42C224.242 187.57 223.995 187.53 223.567 187.373Z" fill="black"/>
<path fill-rule="evenodd" clip-rule="evenodd" d="M262.672 326.368C262.416 326.384 262.221 326.604 262.237 326.863C262.253 327.118 262.473 327.311 262.729 327.296C263.946 327.266 265.145 327.108 266.341 326.889C269.018 326.4 271.662 325.601 274.41 325.359C281.363 324.603 288.103 324.101 294.8 323.011C299.28 322.284 303.738 321.286 308.23 319.82C316.096 317.177 325.042 310.489 332.51 302.392C339.919 294.357 345.87 284.961 348.029 276.969C349.606 271.048 350.727 263.415 351.151 255.859C351.589 248.028 351.28 240.282 349.929 234.611C349.887 234.425 349.702 234.309 349.516 234.351C349.331 234.394 349.215 234.579 349.257 234.761C350.479 240.393 350.635 248.058 350.034 255.785C349.455 263.229 348.171 270.73 346.481 276.535C344.259 284.268 338.273 293.25 330.988 300.972C323.702 308.694 315.108 315.163 307.51 317.659C303.143 319.136 298.801 320.134 294.441 320.912C287.796 322.102 281.108 322.766 274.207 323.662C271.035 324.144 268.043 325.34 264.955 326.003C264.201 326.161 263.443 326.295 262.672 326.368Z" fill="black"/>
<path fill-rule="evenodd" clip-rule="evenodd" d="M267.884 317.103C267.757 317.099 267.645 317.192 267.628 317.319C267.578 317.447 267.654 317.609 267.983 317.629C268.096 317.633 268.329 317.59 268.656 317.532C268.903 317.486 269.177 317.455 269.471 317.367C270.311 317.108 271.158 316.653 271.208 316.63C272.241 316.155 273.238 315.638 274.196 315.047C275.601 314.174 276.914 313.166 278.276 312.212C281.134 310.201 283.575 307.887 285.796 305.391C289.088 301.694 291.891 297.591 294.913 293.5C297.223 290.324 299.447 286.982 301.493 283.54C303.539 280.093 305.407 276.546 307.098 272.999C308.162 270.75 309.239 268.47 310.39 266.241C311.149 264.769 311.933 263.316 312.796 261.917C314.903 258.494 317.206 255.094 319.664 251.81C322.123 248.526 324.731 245.359 327.51 242.442C328.4 241.511 329.411 240.708 330.482 239.97C333.039 238.206 335.933 236.82 338.442 235.144C338.563 235.071 338.6 234.909 338.524 234.789C338.449 234.669 338.29 234.634 338.169 234.707C335.548 236.232 332.548 237.425 329.884 239.05C328.702 239.772 327.592 240.587 326.597 241.529C323.631 244.345 320.806 247.416 318.165 250.642C315.525 253.868 313.078 257.248 310.81 260.644C309.86 262.066 308.977 263.542 308.149 265.049C306.924 267.278 305.817 269.581 304.702 271.846C303.011 275.304 301.117 278.747 299.107 282.12C297.098 285.497 294.973 288.8 292.733 291.929C289.845 296.025 287.168 300.124 284.017 303.848C281.965 306.274 279.717 308.541 277.055 310.534L270.511 315.35C270.468 315.377 269.679 315.763 268.995 316.23C268.603 316.5 268.3 316.802 268.06 316.972C267.981 317.029 267.893 317.095 267.884 317.103Z" fill="black"/>
<path fill-rule="evenodd" clip-rule="evenodd" d="M249.416 267.279C249.385 267.41 249.469 267.546 249.604 267.577C249.739 267.612 249.874 267.527 249.905 267.391C250.139 267.009 250.493 266.75 250.837 266.31C251.014 266.086 251.152 265.815 251.34 265.556C251.978 264.679 252.858 263.772 253.85 262.783C255.089 261.543 256.52 260.218 258.062 258.893C263.309 254.401 269.669 249.868 272.399 247.636C276.489 244.09 280.11 241.004 283.299 238.01C287.143 234.399 290.4 230.95 293.247 227.167C298.339 220.401 302.107 212.568 305.517 200.666C305.625 200.324 305.435 199.959 305.092 199.85C304.75 199.742 304.384 199.933 304.276 200.275C300.343 211.663 296.242 219.043 291.007 225.407C288.098 228.942 284.826 232.144 281.042 235.562C277.82 238.475 274.249 241.557 270.169 245.052C267.153 247.794 259.382 253.746 254.211 259.246C252.177 261.413 250.563 263.519 249.697 265.285C249.638 265.405 249.563 265.517 249.53 265.64C249.399 266.143 249.511 266.537 249.479 266.974C249.471 267.082 249.433 267.179 249.416 267.279Z" fill="black"/>
<path fill-rule="evenodd" clip-rule="evenodd" d="M269.716 258.65C269.685 258.619 269.643 258.596 269.595 258.588C269.484 258.572 269.381 258.653 269.366 258.765C269.343 258.881 269.534 259.102 270.017 259.129C270.778 259.168 272.435 259.081 274.454 258.676C276.626 258.245 279.187 257.427 281.507 256.396C286.599 254.1 291.316 251.316 295.776 248.15C300.227 244.991 304.413 241.449 308.497 237.699C315.078 231.464 321.153 224.212 325.855 216.182C330.553 208.16 333.879 199.377 335.165 190.188C335.794 185.68 336.065 181.123 336.124 176.55C336.211 169.745 335.852 162.912 335.741 156.159C335.741 155.958 335.578 155.795 335.377 155.795C335.176 155.795 335.013 155.958 335.013 156.158C334.892 162.898 334.977 169.725 334.697 176.511C334.511 181.016 334.173 185.502 333.455 189.93C332.015 198.835 328.536 207.264 323.867 215.002C319.175 222.78 313.271 229.867 306.817 235.916C302.895 239.709 298.852 243.27 294.572 246.51C290.298 249.742 285.792 252.658 280.885 255.082C279.463 255.788 277.934 256.39 276.471 256.876C275.834 257.088 275.206 257.262 274.615 257.447C272.704 258.045 271.114 258.515 270.24 258.635C269.984 258.669 269.773 258.603 269.716 258.65Z" fill="black"/>
<path fill-rule="evenodd" clip-rule="evenodd" d="M265.35 241.756C265.343 241.752 265.337 241.752 265.331 241.748C265.222 241.725 265.112 241.79 265.085 241.899C264.871 242.621 264.788 243.07 264.743 243.29C264.674 243.626 264.888 243.731 264.963 243.777C265.047 243.823 265.181 243.796 265.363 243.661C265.491 243.565 265.723 243.244 266.007 242.746C266.297 242.236 266.632 241.521 266.992 240.705C268.449 237.398 270.277 232.413 270.288 232.39C272.438 227.339 274.367 222.478 276.715 217.756C278.245 214.68 279.944 211.655 282.067 208.704C285.432 203.998 289.185 199.348 293.164 194.906C297.146 190.46 301.355 186.22 305.693 182.392C311.504 177.21 317.819 172.489 323.667 167.308C327.604 163.82 331.33 160.125 334.557 155.951C334.732 155.732 334.694 155.412 334.474 155.238C334.254 155.064 333.934 155.102 333.76 155.322C331.307 158.355 328.582 161.115 325.705 163.721C318.96 169.832 311.381 175.095 304.473 180.998C300.038 184.829 295.707 189.06 291.646 193.54C287.589 198.016 283.802 202.74 280.387 207.504C278.209 210.561 276.433 213.673 274.903 216.874C272.611 221.669 270.849 226.642 268.818 231.786C268.809 231.813 267.065 236.84 265.87 240.26C265.678 240.813 265.501 241.315 265.35 241.756ZM264.936 243.151C264.915 243.197 264.891 243.22 264.863 243.201C264.795 243.158 264.854 243.151 264.936 243.151Z" fill="black"/>
<path fill-rule="evenodd" clip-rule="evenodd" d="M245.433 221.829C245.424 221.928 245.487 222.02 245.586 222.045C245.695 222.072 245.798 222.05 245.835 221.893C245.838 221.879 245.823 221.843 245.833 221.786C245.844 221.729 245.92 221.746 245.94 221.567C245.951 221.469 245.873 221.341 245.825 221.18C245.436 219.892 244.441 216.748 244.29 216.299C243.883 215.124 243.377 213.975 242.786 212.861C241.913 211.214 240.859 209.654 239.795 208.158C237.432 204.966 234.768 202.007 231.936 199.2C227.735 195.038 223.171 191.206 218.779 187.338C212.374 181.822 206.198 176.089 199.788 170.61C197.031 168.254 194.228 165.945 191.351 163.718C185.458 159.169 180.35 156.092 175.447 152.284C172.299 149.838 169.237 147.088 166.102 143.434C163.493 140.449 160.535 137.748 157.875 134.815C156.743 133.569 155.668 132.284 154.702 130.912C154.551 130.69 154.245 130.631 154.025 130.782C153.804 130.933 153.742 131.235 153.897 131.457C154.836 132.9 155.891 134.258 157.004 135.575C159.559 138.585 162.428 141.365 164.933 144.422C168.091 148.213 171.192 151.076 174.382 153.63C179.227 157.509 184.285 160.664 190.104 165.301C192.931 167.545 195.672 169.871 198.375 172.24C204.716 177.798 210.826 183.597 217.165 189.186C221.566 192.98 226.118 196.754 230.352 200.821C233.151 203.509 235.817 206.319 238.181 209.377C239.101 210.524 240 211.725 240.832 212.969C241.657 214.203 242.42 215.472 243.021 216.806C243.22 217.231 244.551 220.223 245.089 221.446C245.157 221.6 245.181 221.747 245.252 221.812C245.335 221.889 245.369 221.914 245.41 221.858C245.418 221.848 245.426 221.838 245.433 221.829Z" fill="black"/>
<path fill-rule="evenodd" clip-rule="evenodd" d="M231.968 145.487C231.856 145.487 231.765 145.578 231.765 145.69C231.765 145.803 231.856 145.894 231.968 145.894C232.204 145.944 232.462 145.68 232.635 145.233C232.849 144.681 232.894 143.826 232.929 143.699C233.229 142.467 233.499 141.241 233.694 139.998C233.891 138.745 234.005 137.482 234.051 136.201C234.164 133.473 234.239 130.782 234.156 128.107C234.072 125.389 233.849 122.696 233.511 120.018C232.839 114.697 231.665 109.446 230.037 104.156C227.691 96.6011 224.3 89.5529 220.304 82.8464C214.339 72.8364 206.989 63.6002 199.408 54.8021C193.231 47.5583 186.302 40.897 179.931 33.7796C177.222 30.7486 174.608 27.6349 172.208 24.3544C170.075 21.4618 168.378 18.3863 166.841 15.2358C164.503 10.4441 162.572 5.45663 160.475 0.464808C160.359 0.172131 160.026 0.0296702 159.732 0.146207C159.438 0.263129 159.299 0.595832 159.415 0.888509C161.345 5.98188 163.044 11.1002 165.304 15.9661C166.83 19.2422 168.623 22.3912 170.811 25.3794C173.258 28.6966 175.913 31.8458 178.673 34.9078C185.064 41.9909 192.023 48.6081 198.223 55.8148C205.692 64.5795 213.007 73.7319 218.793 83.7317C222.624 90.3507 225.762 97.3462 227.911 104.792C229.423 109.981 230.388 115.139 231.07 120.332C231.414 122.953 231.675 125.583 231.899 128.237C232.12 130.866 232.336 133.51 232.443 136.2C232.478 137.179 232.458 138.148 232.409 139.117C232.336 140.59 232.196 142.051 231.994 143.522L231.968 145.487Z" fill="black"/>
<path fill-rule="evenodd" clip-rule="evenodd" d="M211.002 136.434C211.119 136.457 211.233 136.381 211.257 136.264C211.28 136.146 211.204 136.032 211.087 136.008C210.447 135.839 209.869 135.237 209.3 134.486C208.059 132.849 206.973 130.449 206.285 129.35C204.537 126.668 202.91 123.897 201.337 121.089C198.976 116.868 196.758 112.559 194.552 108.29C192.558 104.475 190.677 100.613 188.826 96.7393C184.496 87.6717 180.409 78.4994 176.136 69.3792C171.6 59.9898 167.433 50.2203 164.085 40.1955C160.734 30.1695 158.203 19.8909 156.975 9.47086C156.948 9.2397 156.744 9.07143 156.511 9.09601C156.279 9.1206 156.113 9.32843 156.136 9.55998C157.131 20.0857 159.43 30.5034 162.584 40.678C165.734 50.8512 169.739 60.7759 174.112 70.3299C177.794 78.1424 181.282 86.0194 185.006 93.7891C187.494 98.9826 190.098 104.12 192.861 109.192C195.195 113.416 197.521 117.688 200.021 121.85C201.694 124.635 203.445 127.367 205.304 130.013C206.077 131.071 207.312 133.445 208.722 134.969C209.46 135.767 210.245 136.331 211.002 136.434Z" fill="black"/>
<path fill-rule="evenodd" clip-rule="evenodd" d="M218.563 199.756C218.616 199.856 218.739 199.893 218.839 199.841C218.938 199.789 218.976 199.666 218.923 199.566C218.823 199.143 218.364 198.846 217.753 198.664C217.098 198.47 216.29 198.526 215.888 198.493C215.403 198.46 214.937 198.387 214.475 198.312C212.483 197.987 210.642 197.355 208.62 197.007C205.647 196.517 202.642 195.423 199.656 194.14C195.158 192.207 190.73 189.768 186.828 187.572C184.701 186.383 182.54 184.993 180.428 183.524C178.305 182.045 176.237 180.485 174.315 178.967C171.264 176.485 167.884 174.339 164.71 171.966C163.403 170.987 162.123 169.974 160.932 168.865C158.639 166.798 156.536 164.586 154.487 162.339C153.103 160.819 151.719 159.306 150.409 157.724C147.119 153.753 144.112 149.555 141.109 145.31C139.134 142.436 137.082 139.637 135.308 136.67C134.145 134.719 133.102 132.696 132.283 130.533C130.723 126.393 127.51 122.642 125.625 118.49C124.833 116.751 124.262 114.946 124.205 112.976C124.205 112.814 124.07 112.683 123.911 112.683C123.749 112.683 123.617 112.814 123.617 112.976C123.55 115.05 124.001 116.997 124.755 118.862C126.45 123.059 129.639 126.821 131.091 130.966C131.875 133.226 132.899 135.346 134.047 137.399C135.747 140.442 137.729 143.331 139.639 146.29C142.985 151.646 146.398 156.896 150.205 161.874C150.974 162.88 151.736 163.889 152.551 164.859C154.453 167.115 156.533 169.228 158.725 171.267C160.025 172.44 161.405 173.52 162.836 174.536C166.041 176.812 169.483 178.797 172.592 181.156C174.564 182.699 176.683 184.284 178.86 185.785C181.052 187.297 183.299 188.726 185.507 189.947C189.518 192.148 194.023 194.7 198.684 196.509C201.898 197.755 205.18 198.631 208.359 198.959C210.138 199.138 211.79 199.596 213.523 199.774C214.295 199.853 215.076 199.871 215.888 199.817C216.24 199.793 216.911 199.744 217.518 199.704C217.754 199.689 217.955 199.622 218.151 199.642C218.322 199.659 218.47 199.654 218.563 199.756Z" fill="black"/>
<path fill-rule="evenodd" clip-rule="evenodd" d="M25.605 551.637C25.5469 551.765 25.6048 551.912 25.7325 551.97C25.8601 552.024 26.0071 551.966 26.0653 551.839C26.503 550.996 26.9639 550.177 27.4093 549.343C29.1834 546 31.0309 542.728 33.0872 539.583C36.9094 533.725 41.2962 528.24 46.3636 523.203C54.288 515.319 63.7708 508.468 74.8003 502.681C82.3816 498.62 90.2687 494.439 98.0436 490.243C103.276 487.417 108.454 484.58 113.462 481.792C133.079 470.897 153.355 458.712 171.582 444.341C183.817 434.694 195.133 424.064 204.684 412.158C215.761 398.25 223.277 384.789 229.042 370.534C234.779 356.348 238.785 341.373 242.631 324.291C244.411 316.392 246.387 308.697 247.959 300.879C249.008 295.661 249.878 290.386 250.389 284.963C253.043 257.147 250.032 228.747 243.696 200.777C242.762 196.652 241.758 192.536 240.663 188.441C230.626 150.905 215.086 114.559 200.957 81.5932C200.911 81.4765 200.775 81.4207 200.659 81.4693C200.539 81.518 200.485 81.652 200.535 81.7688C213.901 114.953 228.238 151.628 237.798 189.187C238.836 193.265 239.844 197.348 240.783 201.44C247.13 229.116 250.463 257.188 248.041 284.745C247.565 290.094 246.735 295.293 245.726 300.437C244.194 308.243 242.251 315.93 240.508 323.818C236.756 340.792 232.917 355.713 227.202 369.79C221.491 383.852 213.911 397.063 202.886 410.719C193.451 422.498 182.279 433.027 170.175 442.559C152.041 456.844 131.831 468.902 112.303 479.7L73.6372 500.512C62.5069 506.593 52.9505 513.714 45.0298 521.888C39.9739 527.106 35.5367 532.723 31.8575 538.813C29.89 542.066 28.0966 545.435 26.6165 548.967C26.2484 549.848 25.9305 550.741 25.605 551.637Z" fill="black"/>
<path fill-rule="evenodd" clip-rule="evenodd" d="M89.1826 492.9C89.1749 492.842 89.1711 492.784 89.1711 492.726C89.1712 492.595 89.2332 492.456 89.2758 492.297C89.3185 492.166 89.249 492.023 89.1136 491.984C88.9821 491.942 88.8427 492.015 88.8001 492.146C88.7536 492.289 88.7381 492.428 88.6877 492.544C88.3971 493.209 88.3543 493.576 88.447 493.835C88.6169 494.303 89.2899 494.454 90.1646 493.883C90.6252 493.582 91.1865 492.964 91.7984 492.071C93.1227 490.151 94.6105 486.812 95.5266 482.167C96.0352 479.338 96.4586 476.76 96.6576 474.283C96.8058 472.443 96.8379 470.661 96.7424 468.891C96.5091 464.693 95.5679 460.568 93.7141 455.801C91.3004 449.487 88.6854 443.336 86.1787 437.196C82.3704 427.867 78.74 418.588 75.7016 409.089C73.6941 402.799 72.0193 396.389 70.7277 389.786C69.891 385.503 69.1898 381.139 68.7711 376.643C68.7481 376.361 68.5006 376.148 68.2182 376.171C67.9319 376.19 67.7189 376.437 67.742 376.724C68.0098 381.273 68.5059 385.711 69.2652 390.056C70.4329 396.747 72.1773 403.211 74.1732 409.571C77.1728 419.124 80.9154 428.403 84.5612 437.837C86.9441 444.003 89.2572 450.251 91.4504 456.623C92.6589 460.206 93.3184 463.392 93.6026 466.511C93.737 468.027 93.7553 469.522 93.7505 471.042C93.7405 474.373 93.4907 477.821 92.9696 481.775C92.6274 484.53 91.9953 486.803 91.3596 488.596C90.755 490.292 90.1623 491.552 89.6125 492.302C89.4576 492.514 89.2949 492.788 89.1826 492.9ZM89.1826 492.9C89.1284 492.954 89.0859 492.966 89.0588 492.92C89.0163 492.838 89.0898 492.85 89.1826 492.9ZM89.1826 492.9C89.3296 492.982 89.5229 493.16 89.4029 493.237C89.31 493.295 89.2173 493.113 89.1826 492.9Z" fill="black"/>
<path fill-rule="evenodd" clip-rule="evenodd" d="M91.3773 450.334C91.3502 450.365 91.3269 450.399 91.3191 450.442C91.3075 450.488 91.6593 450.86 91.8375 450.523C91.8762 450.458 91.8956 450.346 91.9885 450.245C92.155 450.06 92.422 450.052 92.6736 449.774C93.6454 448.7 94.4786 446.405 94.7809 445.539C95.2732 444.105 95.5798 442.656 95.7626 441.18C96.0232 439.062 96.0362 436.917 96.3355 434.791C96.9538 430.037 96.7789 425.29 96.1476 420.586C95.2083 413.605 93.2514 406.712 91.2403 400.047C84.4392 376.557 69.7121 357.696 63.8389 335.282C62.6002 330.561 61.7871 325.683 61.4732 320.569C61.1824 315.838 61.3094 310.898 62.0673 305.684C62.1333 305.259 61.8395 304.861 61.4179 304.799C60.9924 304.733 60.5937 305.022 60.5277 305.447C59.6537 310.769 59.3757 315.829 59.6433 320.676C59.93 325.917 60.8474 330.908 62.1441 335.729C68.176 358.14 83.085 376.915 90.0756 400.386C91.9668 407.008 93.8464 413.851 94.631 420.774C95.1502 425.34 95.182 429.939 94.4633 434.523C94.1096 437.016 94.0576 439.528 93.7504 442.013C93.6259 443.03 93.4782 444.046 93.2029 445.051C92.9779 445.89 91.7735 447.849 91.5095 449.194C91.4358 449.553 91.5904 449.773 91.5361 450.013C91.5089 450.141 91.4315 450.226 91.3966 450.287C91.3889 450.303 91.3811 450.318 91.3773 450.334Z" fill="black"/>
<path fill-rule="evenodd" clip-rule="evenodd" d="M80.1712 448.111C80.1247 448.243 80.1942 448.386 80.3257 448.429C80.4572 448.475 80.6004 448.406 80.6469 448.274C81.1196 447.246 80.6637 446.218 79.732 445.297C78.1198 443.7 74.9444 442.542 73.9894 441.83C71.0738 439.726 68.1821 436.593 65.6891 433.163C63.2077 429.744 61.1288 426.017 59.866 422.688C58.0045 417.886 56.5259 413.146 55.3413 408.457C53.466 401.038 52.4263 393.721 52.1681 386.372C51.7467 374.316 53.4028 362.173 57.2025 349.459C57.3265 349.072 57.1102 348.662 56.7272 348.539C56.3405 348.418 55.9302 348.631 55.8062 349.017C51.5151 361.839 49.2709 374.153 49.4716 386.444C49.5943 393.997 50.6377 401.543 52.6173 409.155C53.8676 413.945 55.5279 418.746 57.5287 423.618C58.981 427.074 61.288 430.918 64.0363 434.41C66.7808 437.902 69.9471 441.051 73.0832 443.132C74.0809 443.771 77.2139 444.785 79.0158 446.128C79.7891 446.704 80.3535 447.3 80.1712 448.111Z" fill="black"/>
<path fill-rule="evenodd" clip-rule="evenodd" d="M57.6745 513.199C57.9106 513.157 58.2626 513.107 58.5915 513.092C59.0905 513.069 59.6553 513.139 60.2975 513.135C61.5316 513.132 62.9553 513.056 64.3326 513.064C67.0677 513.082 69.5706 513.195 69.8453 513.211C73.7951 513.368 77.6828 513.839 81.586 514.235C84.2126 514.5 86.8432 514.711 89.4737 514.94C92.317 515.186 95.1603 515.392 98.0191 515.553C115.737 516.454 126.496 516.066 136.928 513.194C146.976 510.429 156.721 505.353 172.147 496.848C172.449 496.689 172.565 496.314 172.407 496.013C172.245 495.711 171.869 495.595 171.568 495.753C156.057 503.593 146.282 508.272 136.276 510.661C126.01 513.109 115.519 513.114 98.2809 511.668C92.6059 511.255 86.9969 510.459 81.345 510.111C77.5268 509.877 73.7045 509.901 69.8474 510.053C69.418 510.076 63.6806 510.231 59.9778 511.036C58.5771 511.341 57.5014 511.765 56.9711 512.12C56.5609 512.398 56.3518 512.669 56.3478 512.928C56.3476 513.214 56.4711 513.658 57.1672 513.918C57.3838 514.034 57.6547 513.949 57.767 513.737C57.8677 513.551 57.8215 513.331 57.6745 513.199Z" fill="black"/>
<path fill-rule="evenodd" clip-rule="evenodd" d="M96.0295 517.198C96.0528 517.121 96.0413 517.036 95.991 516.97C95.906 516.862 95.7474 516.838 95.639 516.923C95.2056 517.101 95.217 517.402 95.2362 517.592C95.2593 517.808 95.5338 518.052 96.0598 518.234C97.0422 518.567 99.2164 518.522 100.16 518.867C102.69 519.665 105.208 520.408 107.71 521.237C109.354 521.783 110.99 522.368 112.611 523.026C117.24 524.869 121.824 526.055 126.481 526.723C133.351 527.705 140.365 527.59 147.859 527.197C153.647 526.884 159.207 525.283 164.52 522.976C172.372 519.564 179.687 514.613 186.437 510.13C195.227 504.273 203.137 499.365 211.525 495.602C215.004 494.039 218.572 492.7 222.307 491.52C227.508 489.876 233.039 488.558 239.219 487.743C239.726 487.689 240.092 487.229 240.036 486.727C239.98 486.22 239.523 485.853 239.017 485.911C230.388 486.709 222.897 488.358 215.918 490.897C205.225 494.786 195.743 500.667 184.918 507.853C178.304 512.259 171.136 517.132 163.435 520.489C158.42 522.674 153.177 524.216 147.71 524.522C141.64 524.87 135.895 524.982 130.27 524.541C124.587 524.097 119.029 523.088 113.378 521.017C111.688 520.409 109.99 519.882 108.28 519.394C105.739 518.666 103.186 518.018 100.618 517.317C100.181 517.216 99.5384 517.166 98.8498 517.161C97.9291 517.161 96.9232 517.168 96.2849 517.171C96.1998 517.175 96.1069 517.183 96.0295 517.198Z" fill="black"/>
<path fill-rule="evenodd" clip-rule="evenodd" d="M141.544 465.159C141.513 465.155 141.486 465.159 141.455 465.167C141.319 465.202 141.242 465.341 141.277 465.472C141.114 465.731 141.439 465.596 141.567 465.712C141.64 465.778 141.652 465.708 141.985 465.546C142.132 465.477 142.298 465.303 142.496 465.017C143.073 464.194 143.623 462.567 143.824 462.142C144.599 460.403 145.521 458.726 146.327 456.987C146.885 455.789 147.377 454.561 147.788 453.309C148.951 449.699 149.828 446.024 150.368 442.294C151.172 436.733 151.288 431.078 151.249 425.466C151.214 420.955 150.381 416.436 149.162 411.928C146.433 401.85 141.747 391.835 140.14 382.105C138.903 374.637 136.254 368.277 133.967 362.164C132.913 359.354 131.921 356.601 131.238 353.79C130.667 351.44 130.297 349.051 130.245 346.569C130.245 346.345 130.063 346.164 129.839 346.163C129.614 346.163 129.432 346.345 129.432 346.569C129.344 350.395 129.98 354.045 130.995 357.683C133.134 365.364 136.9 373.001 138.256 382.398C139.693 392.213 144.204 402.37 146.767 412.553C147.851 416.859 148.575 421.169 148.534 425.464C148.5 430.036 148.261 434.624 147.79 439.177C147.318 443.695 146.623 448.19 145.371 452.58C145.126 453.469 144.824 454.339 144.51 455.208C143.746 457.314 142.875 459.385 142.158 461.491C142.022 461.94 141.44 463.528 141.27 464.51C141.219 464.796 141.389 465.113 141.254 465.12C141.161 465.128 141.37 465.217 141.374 465.178C141.389 465.039 141.463 465.109 141.544 465.159ZM141.641 465.19C141.648 465.186 141.656 465.186 141.664 465.183C141.695 465.175 141.695 465.194 141.695 465.225C141.679 465.21 141.66 465.198 141.641 465.19Z" fill="black"/>
<path fill-rule="evenodd" clip-rule="evenodd" d="M149.743 415.512C149.616 415.558 149.55 415.705 149.596 415.832C149.643 415.964 149.79 416.03 149.917 415.983C150.722 415.794 151.45 414.991 152.023 413.866C153.054 411.838 153.5 408.812 153.753 407.567C154.238 405.217 154.75 402.945 155.107 400.665C155.473 398.311 155.702 395.961 155.793 393.6C155.907 390.488 155.724 387.345 155.219 384.075C153.763 374.253 151.197 364.306 147.76 354.667C144.328 345.052 140.024 335.738 134.842 327.254C133.601 325.22 132.26 323.256 130.861 321.33C126.976 316.001 122.666 310.958 118.666 305.714C116.957 303.479 115.287 301.224 113.772 298.857C113.587 298.556 113.192 298.463 112.894 298.648C112.593 298.833 112.499 299.224 112.685 299.525C113.887 301.579 115.174 303.574 116.554 305.511C122.011 313.157 128.537 320.08 133.41 328.127C138.495 336.525 142.787 345.716 146.058 355.261C149.32 364.807 151.558 374.696 152.785 384.41C153.163 387.537 153.164 390.529 153.042 393.49C152.948 395.782 152.742 398.05 152.535 400.35C152.329 402.627 152.157 404.926 151.927 407.295C151.81 408.494 151.534 411.35 150.909 413.421C150.615 414.387 150.332 415.203 149.743 415.512Z" fill="black"/>
<path fill-rule="evenodd" clip-rule="evenodd" d="M147.201 422.958C147.239 423.086 147.375 423.159 147.502 423.121C147.634 423.078 147.704 422.943 147.665 422.815C147.565 422.151 147.341 421.54 146.97 420.96C146.634 420.43 146.158 419.974 145.659 419.513C144.24 418.198 142.411 417.041 140.884 415.842C140.25 415.347 139.67 414.856 139.245 414.299C137.699 412.272 136.389 410.041 135.175 407.737C133.325 404.233 131.733 400.549 130.169 397.038C129.346 395.217 128.616 393.342 127.936 391.44C126.33 386.94 125.002 382.289 123.489 377.812C122.357 374.599 121.28 371.386 120.218 368.177C118.62 363.345 117.091 358.52 115.837 353.606C114.455 348.19 113.364 342.693 112.722 337.034C112.126 331.676 111.994 326.756 112.109 321.924C112.288 314.515 113.032 307.322 113.436 299.124C113.451 298.915 113.293 298.737 113.088 298.726C112.879 298.71 112.701 298.868 112.689 299.077C112.057 307.275 111.147 314.456 110.736 321.873C110.466 326.766 110.408 331.756 110.818 337.21C111.344 344.45 112.565 351.467 114.255 358.387C115.937 365.283 118.092 372.072 120.343 378.896C121.683 382.727 122.871 386.694 124.242 390.575C125.177 393.22 126.2 395.822 127.39 398.327C129.086 401.846 130.782 405.565 132.815 409.045C134.198 411.42 135.74 413.678 137.487 415.72C138.063 416.393 138.806 417.019 139.668 417.565C141.288 418.594 143.292 419.4 144.854 420.506C145.337 420.85 145.759 421.229 146.145 421.62C146.563 422.038 146.946 422.44 147.201 422.958Z" fill="black"/>
<path fill-rule="evenodd" clip-rule="evenodd" d="M178.474 436.171C178.346 436.125 178.199 436.194 178.153 436.322C178.106 436.453 178.172 436.596 178.303 436.642C179.336 437.227 180.736 437.409 182.322 437.233C185.418 436.887 188.947 435.173 190.901 434.482C193.591 433.441 196.512 432.716 199.499 432.092C204.018 431.151 208.687 430.497 212.998 429.828C220.799 428.391 228.688 428.045 236.507 427.002C239.912 426.548 243.302 425.967 246.666 425.115C254.776 423.087 262.931 419.556 270.55 415.077C278.114 410.633 285.157 405.258 291.006 399.34C292.316 398.023 293.512 396.555 294.646 395.013C297.216 391.517 299.458 387.638 301.997 384.296C302.168 384.068 302.126 383.747 301.901 383.577C301.677 383.407 301.356 383.449 301.184 383.673C298.612 386.995 296.333 390.855 293.726 394.332C292.613 395.812 291.439 397.226 290.155 398.489C284.3 404.229 277.307 409.477 269.751 413.685C262.205 417.89 254.106 421.054 246.121 422.796C242.825 423.508 239.514 423.951 236.192 424.273C228.279 425.041 220.319 425.117 212.41 426.283C208.05 427.053 203.308 427.75 198.766 428.879C195.632 429.654 192.598 430.645 189.816 431.9C188.256 432.664 185.617 434.158 183.071 435.127C182.285 435.424 181.515 435.651 180.795 435.84C179.929 436.071 179.186 436.28 178.474 436.171Z" fill="black"/>
<path fill-rule="evenodd" clip-rule="evenodd" d="M216.115 430.727C217.679 430.666 220.296 430.698 220.702 430.768C222.051 430.92 223.388 431.18 224.717 431.494C227.881 432.238 230.996 433.303 234.113 434.09C236.668 434.721 239.204 435.396 241.747 436.004C247.783 437.446 253.817 438.687 259.915 439.383C265.72 440.044 271.592 440.171 277.614 439.383C291.076 437.672 301.63 430.199 310.105 420.113C316.12 412.955 321.125 404.501 325.305 395.845C329.678 386.788 333.155 377.529 336.193 369.453C336.313 369.144 336.158 368.796 335.847 368.676C335.536 368.556 335.187 368.71 335.067 369.019C331.91 377.006 328.233 386.134 323.794 395.11C319.595 403.595 314.723 411.96 308.766 418.987C300.557 428.672 290.355 435.847 277.37 437.419C271.51 438.111 265.809 437.895 260.178 437.191C254.169 436.445 248.25 435.089 242.283 433.72C239.734 433.135 237.171 432.576 234.6 432.01C231.45 431.332 228.292 430.379 225.097 429.743C223.692 429.464 222.28 429.243 220.859 429.133C220.319 429.121 216.263 429.586 215.096 429.976C214.273 430.25 213.937 431.003 215.837 431.009C215.975 431.024 216.1 430.924 216.116 430.788C216.118 430.765 216.117 430.746 216.115 430.727Z" fill="black"/>
<path fill-rule="evenodd" clip-rule="evenodd" d="M230.562 426.484C230.543 426.484 230.523 426.484 230.502 426.488C230.461 426.5 230.424 426.515 230.393 426.542C230.433 426.531 230.492 426.523 230.546 426.515C230.492 426.608 230.435 426.647 230.375 426.608C230.363 426.6 230.355 426.592 230.351 426.585C230.31 426.643 230.292 426.712 230.306 426.786C230.18 427.033 230.315 427.11 230.353 427.203C230.453 427.458 230.764 427.428 231.066 427.126C231.346 426.844 231.766 425.159 232.214 424.622L237.463 418.747C240.142 415.815 242.905 413.041 245.757 410.361C248.609 407.676 251.55 405.088 254.602 402.555C260.012 397.963 265.888 394.067 271.862 390.317C280.914 384.638 290.226 379.344 298.874 373.139C302.492 370.54 305.989 367.778 309.287 364.735C309.466 364.576 309.48 364.298 309.318 364.12C309.156 363.938 308.879 363.927 308.7 364.089C305.368 367.032 301.847 369.693 298.204 372.183C289.433 378.177 279.941 383.11 270.837 388.666C264.735 392.392 258.824 396.416 253.339 401.066C250.311 403.688 247.391 406.357 244.576 409.135C241.762 411.912 239.053 414.794 236.426 417.822C235.223 419.209 233.965 420.596 232.802 422.045C232.298 422.67 231.819 423.312 231.354 423.961C231.02 424.432 230.808 426.005 230.562 426.484ZM230.393 426.542C230.358 426.554 230.339 426.565 230.351 426.585C230.363 426.569 230.377 426.554 230.393 426.542ZM230.643 426.5C230.654 426.5 230.663 426.496 230.669 426.496C230.778 426.457 230.922 426.693 230.922 426.693C230.922 426.693 230.854 426.732 230.799 426.685C230.781 426.597 230.72 426.531 230.643 426.5Z" fill="black"/>
<path fill-rule="evenodd" clip-rule="evenodd" d="M218.081 389.976C218.111 390.108 218.245 390.193 218.38 390.166C218.516 390.135 218.601 390 218.571 389.865C218.574 389.536 218.641 389.231 218.681 388.887C218.762 388.176 218.899 387.437 219.085 386.657C219.714 384.029 220.814 381.127 221.025 378.819C221.28 373.965 221.009 369.206 220.218 364.525C219.429 359.863 218.124 355.29 216.516 350.739C214.239 344.294 211.715 337.78 208.984 331.35C206.254 324.92 203.319 318.579 200.15 312.512C193.721 300.166 186.882 288.253 181.412 275.707C177.8 267.409 174.769 258.834 172.914 249.642C172.876 249.437 172.678 249.301 172.473 249.344C172.268 249.382 172.133 249.579 172.171 249.784C173.894 259.077 176.779 267.772 180.321 276.174C185.651 288.813 192.456 300.78 198.8 313.207C201.887 319.27 204.761 325.592 207.384 332.014C210.009 338.443 212.38 344.973 214.53 351.422C216.016 355.88 217.137 360.372 217.894 364.914C218.648 369.441 219.039 374.025 218.852 378.721C218.854 381.307 217.478 384.735 217.562 387.607C217.587 388.484 217.781 389.261 218.081 389.976Z" fill="black"/>
<path fill-rule="evenodd" clip-rule="evenodd" d="M212.101 341.908C212.145 342.09 212.327 342.202 212.508 342.156C212.689 342.113 212.8 341.932 212.756 341.75C212.613 341.081 211.848 340.331 210.813 339.623C208.938 338.334 206.174 337.13 205.265 336.666C200.523 334.359 195.774 332.238 191.392 329.514C188.531 327.738 185.832 325.699 183.4 323.181C179.267 318.927 175.123 313.772 171.336 308.199C168.947 304.684 166.698 301.003 164.747 297.229C161.351 290.667 158.813 283.851 157.928 277.253C157.293 272.819 157.238 268.324 157.492 263.817C157.876 256.991 158.948 250.158 159.753 243.499C159.792 243.22 159.595 242.961 159.316 242.922C159.038 242.884 158.779 243.077 158.74 243.359C157.695 250.018 156.39 256.851 155.763 263.688C155.338 268.315 155.227 272.945 155.715 277.53C156.7 286.03 160.164 295.004 165.014 303.247C169.821 311.422 175.975 318.859 181.909 324.668C184.546 327.213 187.439 329.252 190.494 331.013C195.011 333.617 199.872 335.615 204.737 337.79C205.545 338.135 207.782 338.925 209.614 339.885C210.845 340.531 211.912 341.216 212.101 341.908Z" fill="black"/>
<path fill-rule="evenodd" clip-rule="evenodd" d="M211.025 339.909C211.017 340.044 211.123 340.164 211.261 340.172C211.4 340.18 211.518 340.075 211.526 339.936C211.607 339.666 211.768 339.426 211.895 339.117C212.316 338.105 212.859 336.864 213.333 335.69C213.623 334.975 213.843 334.268 213.936 333.622C214.404 330.345 214.697 326.785 214.772 323.221C214.847 319.646 214.7 316.07 214.332 312.773C213.113 302.955 209.013 292.744 203.47 282.969C195.336 268.631 184.11 255.23 174.511 245.364C174.348 245.197 174.085 245.193 173.919 245.352C173.753 245.51 173.748 245.777 173.907 245.943C183.344 255.852 194.349 269.299 202.29 283.629C207.634 293.276 211.594 303.321 212.7 312.965C213.111 316.197 213.294 319.699 213.288 323.205C213.282 326.711 213.087 330.224 212.7 333.463C212.54 334.974 211.43 336.848 211.088 338.463C210.975 338.989 210.973 339.472 211.025 339.909Z" fill="black"/>
<path fill-rule="evenodd" clip-rule="evenodd" d="M237.695 343.189C237.718 343.2 237.748 343.216 237.782 343.235C237.718 343.27 237.668 343.328 237.651 343.405C237.548 343.544 237.716 343.606 237.763 343.68C237.784 343.711 237.881 343.715 238.113 343.653C238.21 343.63 238.387 343.607 238.644 343.448C239.683 342.807 241.671 340.602 242.251 340.154C243.456 339.161 244.705 338.219 245.988 337.327C247.273 336.435 248.591 335.593 249.93 334.786L273.894 320.16C289.509 310.681 306.265 300.531 318.445 286.945C326.645 277.797 332.768 267.102 335.134 254.074C335.187 253.796 335.005 253.529 334.73 253.479C334.454 253.424 334.188 253.606 334.135 253.884C331.575 266.607 325.353 276.954 317.176 285.792C304.911 299.05 288.23 308.91 272.659 318.099C269.443 320.034 266.236 321.987 263.07 324.007C258.33 327.034 253.665 330.173 248.96 333.247C247.623 334.128 246.31 335.043 245.031 336.008C243.749 336.974 242.501 337.982 241.303 339.044C241 339.314 240.252 340.048 239.533 340.859C238.914 341.559 238.251 342.258 237.951 342.752C237.812 342.98 237.845 343.262 237.766 343.224C237.736 343.208 237.713 343.197 237.695 343.189ZM237.695 343.189C237.647 343.162 237.634 343.154 237.695 343.189V343.189Z" fill="black"/>
</g>
</svg>
