<svg width="1440" height="1065" viewBox="0 0 1440 1065" fill="none" xmlns="http://www.w3.org/2000/svg">
<g opacity="0.5">
<path fill-rule="evenodd" clip-rule="evenodd" d="M411.283 733.018C413.605 742.193 492.238 744.316 498.9 742.044C474.759 759.953 411.26 744.483 411.26 744.483L411.283 733.018Z" fill="#D7BFA9"/>
<path fill-rule="evenodd" clip-rule="evenodd" d="M60.8392 469.223C54.8458 471.674 45.7541 488.461 43.275 492.25C40.4829 496.517 23.5482 502.211 23.5482 502.211L40.1203 466.016C40.1203 466.016 54.562 468.465 60.8392 469.223Z" fill="#D7BFA9"/>
<path fill-rule="evenodd" clip-rule="evenodd" d="M186.086 726.573L189.592 748.314L183.408 746.424L186.086 726.573Z" fill="#D7BFA9"/>
<path fill-rule="evenodd" clip-rule="evenodd" d="M196.048 722.54L197.794 740.388L192.949 736.455L196.048 722.54Z" fill="#D7BFA9"/>
<path fill-rule="evenodd" clip-rule="evenodd" d="M436.754 337.71C425.351 340.187 422.239 355.591 427.615 357.126C433.668 358.855 438.36 360.481 500.699 361.691C563.038 362.902 777.937 332.928 777.937 332.928L577.566 335.955L714.424 320.596L490.936 329.198L764.034 310.992C805.807 300.663 856.54 315.077 880.094 304.606C903.64 294.133 941.33 304.696 944.859 301.027C948.387 297.358 956.613 296.858 960.321 295.421C964.035 293.986 973.905 303.613 972.607 304.046C971.303 304.478 967.737 310.899 971.763 310.388C975.789 309.877 980.818 314.148 982.071 312.883C983.325 311.617 981.779 316.533 971.657 315.478C961.529 314.422 929.307 323.97 932.522 327.878C935.738 331.786 976.036 323.355 979.157 323.3C982.277 323.245 992.4 315.55 1003.07 314.627C1013.76 313.706 1025.94 317.303 1026.16 318.979C1026.38 320.658 1024.15 322.662 1031.11 323.465C1038.05 324.267 1037.72 319.934 1044.08 316.8C1050.45 313.666 1047.72 309.623 1051.99 308.39C1056.26 307.155 1125.73 320.603 1127.28 316.36C1128.83 312.116 1274.04 313.789 1274.04 313.789L1210.48 323.332L1280.63 326.197L1205.14 336.678L1297.06 332.288L1258.71 334.507L1285.25 338.073L1254.47 340.916L1306.44 347.915L1284.08 349.275C1275.39 342.872 1152.75 353.773 1153.28 357.53C1153.82 361.29 1135.26 372.974 1179.99 366.132C1224.72 359.292 1246.24 372.404 1264.79 367.251C1283.33 362.098 1359.94 383.163 1359.94 383.163L1323.47 397.22C1309.94 401.929 1259.46 420.162 1235.67 418.317C1211.88 416.471 1178.8 441.464 1178.8 441.464L1220.23 437.614C1247.44 435.102 1302.76 432.611 1323.85 423.212C1344.94 413.813 1375.08 408.919 1390.56 405.161C1369.97 422.484 1339.36 431.857 1339.36 431.857L1420.59 438.617C1470.99 451.357 1455.92 439.001 1383.58 448.525C1383.07 447.747 1308.03 474.784 1296.4 459.368C1284.77 443.953 1236.58 455.269 1236.58 455.269L1243.12 491.659C1255.23 483.419 1345.99 494.461 1355.08 495.77C1364.16 497.077 1370.46 504.032 1370.46 504.032L1412.8 509.338L1409.23 520.482L1339.84 522.209C1339.84 522.209 1360.97 524.993 1378.37 527.041C1364.39 528.494 1354.13 534.091 1353.24 534.586C1353.2 534.594 1353.19 534.607 1353.18 534.622C1353.18 534.622 1353.2 534.609 1353.24 534.586C1355.5 534.008 1417.07 544.194 1417.07 544.194L1355.72 541.517C1350.29 537.165 1333.09 538.809 1308.11 534.643C1283.14 530.477 1250.14 539.765 1267.52 543.041C1284.9 546.318 1297.23 547.209 1312.43 546.453C1327.63 545.698 1330.94 548.802 1350.11 555.872C1369.28 562.941 1398.96 561.007 1407.06 560.568C1420.51 559.836 1425.48 576.512 1425.48 576.512L1415.85 609.959C1386.19 601.562 1281.86 629.224 1298.17 626.471C1308.61 624.709 1346.47 636.156 1346.47 636.156C1328.07 630.948 1137.52 644.13 1137.52 644.13C1133.2 644.03 1091.9 653.9 1100.52 641.387C1103.52 637.024 1101.32 640.848 1079.87 638.622C1077.28 638.353 1065.8 634.378 1059.17 627.689C1055.28 623.766 1034.45 620.944 1054.54 634.092C1059.93 637.619 1065.66 640.709 1071.39 643.758C1076.88 646.682 1082.61 649.213 1088.17 652.012C1089.4 652.632 1090.92 653.014 1091.79 654.018C1092.22 654.533 1090.38 653.867 1089.68 653.771C1085.58 653.243 1081.49 652.417 1077.38 652.15C1070.59 651.707 1063.8 651.53 1057.04 651.636C1037.05 651.939 1017.08 652.475 997.164 653.377C951.287 655.452 879.79 660.455 834.993 663.902C783.869 667.837 732.824 672.186 681.717 676.186C634.708 679.863 633.033 686.273 623.264 677.823C620.045 675.037 615.096 674.612 610.871 673.428C602.713 671.143 594.97 670.481 586.759 671.743C584.625 672.068 582.653 672.859 580.667 673.551C579.938 673.803 579.275 674.194 578.628 674.577C570.943 677.043 564.101 679.892 572.431 681.521C575.399 682.102 578.438 682.215 581.386 682.893C584.392 683.587 587.324 684.592 590.231 685.638C590.733 685.816 591.857 686.195 591.525 686.529C590.929 687.126 589.742 686.971 588.823 687.054C556.466 689.991 549.466 689.739 517.39 693.931C432.485 705.029 348.01 718.389 262.573 727.39C262.573 727.39 241.214 733.724 245.348 727.848C249.481 721.977 236.689 717.825 241.426 719.003C246.163 720.182 254.487 717.174 271.113 713.737C287.739 710.301 300.439 692.298 300.439 692.298L188.918 707.856C191.514 706.903 189.471 703.118 177.004 698.347C162.475 692.798 163.272 708.052 155.994 708.945C148.716 709.838 137.096 702.533 134.122 688.322C131.149 674.11 165.459 677.253 149.283 669.889C133.106 662.53 122.341 670.235 123.972 667.231C124.838 665.638 178.634 656.54 150.54 648.062C122.447 639.583 110.788 658.32 108.089 653.988C102.752 651.313 143.101 639.331 139.579 633.131C136.058 626.926 117.004 638.964 112.812 637.585C108.62 636.205 110.582 628.984 108.954 618.794C107.327 608.598 122.837 605.931 118.945 601.863C115.051 597.801 102.174 603.39 102.174 603.39L126.663 558.682C132.969 561.987 173.264 551.056 178.105 545.265C182.945 539.474 175.338 545.048 169.769 543.484C164.203 541.914 176.224 535.329 180.048 524.663C183.872 514.003 165.949 532.739 167.39 525.817C168.83 518.895 148.796 539.945 148.177 531.668C147.558 523.391 135.004 547.137 132.332 538.575C129.66 530.018 123.469 549.658 119.994 547.27C116.52 544.876 104.419 556.972 107.304 548.716C110.19 540.461 101.217 528.083 98.5854 520.008C95.9529 511.939 88.7132 523.277 86.1691 522.467C83.6273 521.65 69.2288 508.417 84.0971 476.688C98.9676 444.954 216.213 441.698 213.914 429.431C211.615 417.164 92.4664 457.544 90.6049 440.362C88.744 423.18 182.396 405.13 157.36 403.497C132.322 401.87 76.0497 429.013 73.1988 429.731C70.3478 430.449 59.0904 446.364 75.9018 410.61C92.7116 374.862 345.895 355.59 365.037 345.058C378.834 337.468 420.34 337.571 436.754 337.71ZM375.051 677.183L536.438 659.184L449.395 662.618L375.051 677.183ZM749.55 373.289L784.336 379.686L855.436 367.835L749.55 373.289ZM1163.42 496.053L1217.53 491.837L1204.97 485.091L1163.42 496.053Z" fill="#D7BFA9"/>
<path fill-rule="evenodd" clip-rule="evenodd" d="M240.561 755.095L246.722 767.997L235.95 766.641L240.561 755.095Z" fill="#D7BFA9"/>
<path fill-rule="evenodd" clip-rule="evenodd" d="M204.881 720.923L209.338 730.395L204.349 731.882L204.881 720.923Z" fill="#D7BFA9"/>
</g>
</svg>
