<svg width="1440" height="1219" viewBox="0 0 1440 1219" fill="none" xmlns="http://www.w3.org/2000/svg">
<g opacity="0.5">
<path fill-rule="evenodd" clip-rule="evenodd" d="M409.687 934.744C413.331 946.571 505.233 935.141 512.77 930.898C486.449 959.187 410.83 950.054 410.83 950.054L409.687 934.744Z" fill="#D7BFA9"/>
<path fill-rule="evenodd" clip-rule="evenodd" d="M146.45 966.995L152.756 995.383L145.353 993.983L146.45 966.995Z" fill="#D7BFA9"/>
<path fill-rule="evenodd" clip-rule="evenodd" d="M157.654 959.802L161.511 983.315L155.46 978.942L157.654 959.802Z" fill="#D7BFA9"/>
<path fill-rule="evenodd" clip-rule="evenodd" d="M399.042 402.372C385.998 407.748 383.943 428.877 390.367 429.951C397.601 431.162 403.238 432.48 476.049 422.786C548.86 413.093 796.373 334.091 796.373 334.091L563.049 374.483L721.059 329.149L461.35 381.178L777.924 307.327C825.577 285.959 886.203 295.998 912.597 277.746C938.984 259.493 984.009 266.756 987.748 261.218C991.488 255.679 1001.03 253.519 1005.2 250.928C1009.39 248.338 1021.88 259.401 1020.41 260.215C1018.93 261.027 1015.43 270.246 1020.07 268.834C1024.72 267.422 1031.02 272.211 1032.35 270.295C1033.68 268.377 1032.38 275.22 1020.47 275.649C1008.55 276.076 971.956 294.669 976.104 299.303C980.252 303.937 1026.38 285.37 1030.01 284.73C1033.65 284.091 1044.66 271.982 1057.02 268.813C1069.38 265.646 1083.95 268.236 1084.38 270.435C1084.81 272.636 1082.41 275.716 1090.6 275.527C1098.79 275.336 1097.96 269.612 1105.06 264.273C1112.15 258.936 1108.56 254.032 1113.41 251.612C1118.26 249.19 1200.64 254.54 1202.01 248.593C1203.39 242.647 1372.88 218.535 1372.88 218.535L1299.73 242.807L1381.83 233.904L1294.88 261.593L1401.6 239.056L1357.11 248.976L1388.43 248.921L1352.83 258.302L1414.13 258.217L1388.2 264.09C1377.42 257.118 1235.53 293.92 1236.53 298.84C1237.54 303.761 1217.09 322.727 1268.55 305.479C1320.02 288.23 1346.45 301.832 1367.54 291.588C1388.64 281.345 1480.11 295.568 1480.11 295.568L1439.03 320.951C1423.73 329.692 1366.74 363.192 1338.8 365.045C1310.87 366.897 1274.85 406.265 1274.85 406.265L1322.77 393.609C1354.24 385.32 1418.49 371.957 1442.12 355.583C1465.75 339.209 1500.4 327.207 1518.07 319.381C1495.83 346.242 1461.09 364.31 1461.09 364.31L1556.49 358.599C1616.56 366.463 1597.72 352.702 1514.35 378.54C1513.67 377.594 1428.94 427.303 1413.81 408.833C1398.67 390.362 1343.64 414.213 1343.64 414.213L1354.98 461.608C1368.25 448.411 1475.2 446.687 1485.94 446.785C1496.67 446.881 1504.72 455.024 1504.72 455.024L1554.63 454.427L1551.6 469.951L1470.87 484.847C1470.87 484.847 1495.79 484.73 1516.28 484.308C1500.13 488.783 1488.75 498.117 1487.76 498.938C1487.72 498.957 1487.7 498.977 1487.69 498.998C1487.69 498.998 1487.71 498.977 1487.76 498.938C1490.34 497.757 1563.17 500.185 1563.17 500.185L1491.36 507.743C1484.59 502.916 1464.69 508.233 1435.14 507.202C1405.6 506.172 1368.07 524.558 1388.67 525.778C1409.27 526.999 1423.74 525.952 1441.39 522.185C1459.03 518.42 1463.21 521.964 1486.28 527.924C1509.35 533.885 1543.76 525.918 1553.17 523.861C1568.77 520.445 1576.27 541.806 1576.27 541.806L1568.45 588.206C1533.01 582.376 1414.18 638.235 1432.92 631.6C1444.92 627.353 1490.22 635.767 1490.22 635.767C1468.25 632.152 1247.41 684.319 1247.41 684.319C1242.36 684.971 1195.22 705.64 1203.99 687.37C1207.04 681.002 1204.86 686.506 1179.63 687.425C1176.57 687.537 1162.79 684.313 1154.37 676.585C1149.44 672.054 1124.87 672.065 1149.63 685.973C1156.27 689.704 1163.27 692.789 1170.26 695.821C1176.96 698.728 1183.9 701.069 1190.67 703.796C1192.17 704.4 1193.98 704.635 1195.09 705.818C1195.65 706.427 1193.44 705.872 1192.61 705.871C1187.77 705.91 1182.92 705.549 1178.1 705.939C1170.14 706.577 1162.2 707.575 1154.33 708.943C1131.06 712.973 1107.82 717.312 1084.7 722.129C1031.42 733.223 948.561 752.872 896.68 765.602C837.471 780.13 778.396 795.197 719.213 809.809C664.776 823.246 663.477 832.107 651.224 822.598C647.187 819.463 641.372 819.794 636.325 818.979C626.58 817.408 617.484 817.93 608.039 821.105C605.584 821.924 603.365 823.339 601.119 824.623C600.296 825.091 599.562 825.734 598.847 826.363C590.138 831.049 582.451 836.094 592.33 836.757C595.85 836.995 599.404 836.594 602.911 836.964C606.487 837.346 610.009 838.156 613.505 839.025C614.109 839.172 615.458 839.473 615.104 839.979C614.471 840.884 613.071 840.892 612.008 841.17C574.579 850.962 566.392 851.895 529.418 863.311C431.552 893.531 334.418 926.693 235.717 954.209C235.717 954.209 211.459 966.54 215.68 957.945C219.899 949.358 204.56 946.135 210.204 946.849C215.847 947.563 225.246 942.037 244.281 934.433C263.316 926.828 276.287 900.49 276.287 900.49L147.842 941.493C150.771 939.75 148.003 935.067 132.979 930.959C115.472 926.188 117.958 946.407 109.563 948.92C101.169 951.432 86.874 943.789 81.9561 925.355C77.0381 906.921 117.365 904.893 97.7522 897.995C78.1388 891.106 66.3727 903.347 67.9687 899.04C68.8148 896.756 130.613 874.85 96.9903 868.628C63.3679 862.405 51.6863 889.536 48.0974 884.241C41.6009 881.639 87.4252 858.321 82.6858 850.684C77.9469 843.039 56.9586 862.567 51.9298 861.485C46.9017 860.404 48.4523 850.408 45.5135 837.099C42.576 823.783 60.3883 817.408 55.4351 812.683C50.4807 807.967 36.0368 817.764 36.0368 817.764L60.0278 753.635C67.718 756.902 113.586 734.998 118.639 726.389C123.692 717.78 115.391 726.602 108.738 725.524C102.088 724.437 115.432 713.465 118.803 698.533C122.173 683.607 103.187 711.872 104.161 702.37C105.134 692.867 83.9221 724.604 82.3556 713.666C80.7899 702.729 68.5751 736.709 64.5859 725.762C60.5962 714.823 55.3822 742.167 51.0865 739.609C46.7921 737.043 33.9164 755.386 36.4384 743.842C38.9605 732.298 27.2345 717.4 23.3421 707.097C19.4491 696.802 12.1647 713.253 9.11558 712.632C6.06853 712.003 -12.0707 696.949 2.02751 651.892C16.1277 606.828 152.503 581.21 148.571 565.25C144.638 549.291 9.83233 624.815 5.9082 602.214C1.98484 579.613 109.341 538.526 79.9824 540.888C50.6222 543.257 -12.2213 589.704 -15.4723 591.18C-18.7232 592.655 -30.2251 615.945 -14.272 565.162C1.67979 514.387 294.925 442.725 316.169 425.193C331.482 412.556 379.889 405.164 399.042 402.372ZM361.742 866.774L548.082 813.467L446.941 833.843L361.742 866.774ZM767.394 393.123L808.606 395.353L890.3 366.632L767.394 393.123ZM1262.49 481.934L1325.16 466.488L1309.82 459.761L1262.49 481.934Z" fill="#D7BFA9"/>
<path fill-rule="evenodd" clip-rule="evenodd" d="M212.878 995.189L221.379 1011.3L208.681 1011.44L212.878 995.189Z" fill="#D7BFA9"/>
<path fill-rule="evenodd" clip-rule="evenodd" d="M167.788 956.042L173.951 967.879L168.286 970.769L167.788 956.042Z" fill="#D7BFA9"/>
</g>
</svg>
