<svg width="1440" height="743" viewBox="0 0 1440 743" fill="none" xmlns="http://www.w3.org/2000/svg">
<path fill-rule="evenodd" clip-rule="evenodd" d="M399.042 184.372C385.998 189.748 383.943 210.877 390.367 211.951C397.601 213.162 403.238 214.48 476.049 204.786C548.86 195.093 796.373 116.091 796.373 116.091L563.049 156.483L721.059 111.149L461.35 163.178L777.924 89.3271C825.577 67.9593 886.203 77.9984 912.597 59.7457C938.984 41.4925 984.009 48.7561 987.748 43.2177C991.488 37.6792 1001.03 35.5194 1005.2 32.9278C1009.39 30.3383 1021.88 41.4009 1020.41 42.2146C1018.93 43.027 1015.43 52.2462 1020.07 50.8341C1024.72 49.4221 1031.02 54.2114 1032.35 52.2946C1033.68 50.377 1032.38 57.2202 1020.47 57.649C1008.55 58.0765 971.956 76.6692 976.104 81.3033C980.252 85.9366 1026.38 67.37 1030.01 66.7304C1033.65 66.0908 1044.66 53.9821 1057.02 50.8132C1069.38 47.6456 1083.95 50.2363 1084.38 52.435C1084.81 54.6358 1082.41 57.7163 1090.6 57.527C1098.79 57.3363 1097.96 51.6119 1105.06 46.2733C1112.15 40.9355 1108.56 36.0324 1113.41 33.6121C1118.26 31.1898 1200.64 36.5398 1202.01 30.5934C1203.39 24.6469 1372.88 0.535238 1372.88 0.535238L1299.73 24.8075L1381.83 15.9038L1294.88 43.5927L1401.6 21.0562L1357.11 30.9762L1388.43 30.9211L1352.83 40.3015L1414.13 40.2168L1388.2 46.0898C1377.42 39.1183 1235.53 75.9201 1236.53 80.84C1237.54 85.7613 1217.09 104.727 1268.55 87.4785C1320.02 70.2301 1346.45 83.8322 1367.54 73.588C1388.64 63.3446 1480.11 77.5682 1480.11 77.5682L1439.03 102.951C1423.73 111.692 1366.74 145.192 1338.8 147.045C1310.87 148.897 1274.85 188.265 1274.85 188.265L1322.77 175.609C1354.24 167.32 1418.49 153.957 1442.12 137.583C1465.75 121.209 1500.4 109.207 1518.07 101.381C1495.83 128.242 1461.09 146.31 1461.09 146.31L1556.49 140.599C1616.56 148.463 1597.72 134.702 1514.35 160.54C1513.67 159.594 1428.94 209.303 1413.81 190.833C1398.67 172.362 1343.64 196.213 1343.64 196.213L1354.98 243.608C1368.25 230.411 1475.2 228.687 1485.94 228.785C1496.67 228.881 1504.72 237.024 1504.72 237.024L1554.63 236.427L1551.6 251.951L1470.87 266.847C1470.87 266.847 1495.79 266.73 1516.28 266.308C1500.13 270.783 1488.75 280.117 1487.76 280.938C1487.72 280.957 1487.7 280.977 1487.69 280.998C1487.69 280.998 1487.71 280.977 1487.76 280.938C1490.34 279.757 1563.17 282.185 1563.17 282.185L1491.36 289.743C1484.59 284.916 1464.69 290.233 1435.14 289.202C1405.6 288.172 1368.07 306.558 1388.67 307.778C1409.27 308.999 1423.74 307.952 1441.39 304.185C1459.03 300.42 1463.21 303.964 1486.28 309.924C1509.35 315.885 1543.76 307.918 1553.17 305.861C1568.77 302.445 1576.27 323.806 1576.27 323.806L1568.45 370.206C1533.01 364.376 1414.18 420.235 1432.92 413.6C1444.92 409.353 1490.22 417.767 1490.22 417.767C1468.25 414.152 1247.41 466.319 1247.41 466.319C1242.36 466.971 1195.22 487.64 1203.99 469.37C1207.04 463.002 1204.86 468.506 1179.63 469.425C1176.57 469.537 1162.79 466.313 1154.37 458.585C1149.44 454.054 1124.87 454.065 1149.63 467.973C1156.27 471.704 1163.27 474.789 1170.26 477.821C1176.96 480.728 1183.9 483.069 1190.67 485.796C1192.17 486.4 1193.98 486.635 1195.09 487.818C1195.65 488.427 1193.44 487.872 1192.61 487.871C1187.77 487.91 1182.92 487.549 1178.1 487.939C1170.14 488.577 1162.2 489.575 1154.33 490.943C1131.06 494.973 1107.82 499.312 1084.7 504.129C1031.42 515.223 948.561 534.872 896.68 547.602C837.471 562.13 778.396 577.197 719.213 591.809C664.776 605.246 663.477 614.107 651.224 604.598C647.187 601.463 641.372 601.794 636.325 600.979C626.58 599.408 617.484 599.93 608.039 603.105C605.584 603.924 603.365 605.339 601.119 606.623C600.296 607.091 599.562 607.734 598.847 608.363C590.138 613.049 582.451 618.094 592.33 618.757C595.85 618.995 599.404 618.594 602.911 618.964C606.487 619.346 610.009 620.156 613.505 621.025C614.109 621.172 615.458 621.473 615.104 621.979C614.471 622.884 613.071 622.892 612.008 623.17C574.579 632.962 566.392 633.895 529.418 645.311C431.552 675.531 334.418 708.693 235.717 736.209C235.717 736.209 211.459 748.54 215.68 739.945C219.899 731.358 204.56 728.135 210.204 728.849C215.847 729.563 225.246 724.037 244.281 716.433C263.316 708.828 276.287 682.49 276.287 682.49L147.842 723.493C150.771 721.75 148.003 717.067 132.979 712.959C115.472 708.188 117.958 728.407 109.563 730.92C101.169 733.432 86.874 725.789 81.9561 707.355C77.0381 688.921 117.365 686.893 97.7522 679.995C78.1388 673.106 66.3727 685.347 67.9687 681.04C68.8148 678.756 130.613 656.85 96.9903 650.628C63.3679 644.405 51.6863 671.536 48.0974 666.241C41.6009 663.639 87.4252 640.321 82.6858 632.684C77.9469 625.039 56.9586 644.567 51.9298 643.485C46.9017 642.404 48.4523 632.408 45.5135 619.099C42.576 605.783 60.3883 599.408 55.4351 594.683C50.4807 589.967 36.0368 599.764 36.0368 599.764L60.0278 535.635C67.718 538.902 113.586 516.998 118.639 508.389C123.692 499.78 115.391 508.602 108.738 507.524C102.088 506.437 115.432 495.465 118.803 480.533C122.173 465.607 103.187 493.872 104.161 484.37C105.134 474.867 83.9221 506.604 82.3556 495.666C80.7899 484.729 68.5751 518.709 64.5859 507.762C60.5962 496.823 55.3822 524.167 51.0865 521.609C46.7921 519.043 33.9164 537.386 36.4384 525.842C38.9605 514.298 27.2345 499.4 23.3421 489.097C19.4491 478.802 12.1647 495.253 9.11558 494.632C6.06853 494.003 -12.0707 478.949 2.02751 433.892C16.1277 388.828 152.503 363.21 148.571 347.25C144.638 331.291 9.83233 406.815 5.9082 384.214C1.98484 361.613 109.341 320.526 79.9824 322.888C50.6222 325.257 -12.2213 371.704 -15.4723 373.18C-18.7232 374.655 -30.2251 397.945 -14.272 347.162C1.67979 296.387 294.925 224.725 316.169 207.193C331.482 194.556 379.889 187.164 399.042 184.372ZM361.742 648.774L548.082 595.467L446.941 615.843L361.742 648.774ZM767.394 175.123L808.606 177.353L890.3 148.632L767.394 175.123ZM1262.49 263.934L1325.16 248.488L1309.82 241.761L1262.49 263.934Z" fill="#D7BFA9"/>
</svg>
