<svg width="317" height="576" viewBox="0 0 317 576" fill="none" xmlns="http://www.w3.org/2000/svg">
<g opacity="0.5">
<path fill-rule="evenodd" clip-rule="evenodd" d="M100.098 483.337C99.988 483.27 99.8451 483.306 99.7779 483.416C99.7143 483.527 99.7499 483.671 99.8574 483.733C99.9681 483.815 101.042 483.943 102.788 483.938C103.926 483.932 105.354 483.86 106.975 483.77C116.519 483.241 132.686 481.816 134.803 481.555C144.375 480.274 153.522 481.332 162.252 483.276C176.938 486.545 190.449 492.431 202.496 495.221C202.855 495.308 203.217 495.088 203.304 494.729C203.391 494.37 203.17 494.008 202.811 493.921C190.798 490.89 177.419 484.552 162.729 481.171C153.778 479.111 144.353 478.193 134.529 479.56L100.098 483.337Z" fill="#B5BDA6"/>
<path fill-rule="evenodd" clip-rule="evenodd" d="M248.784 220.61C248.727 220.574 248.652 220.591 248.617 220.648C248.581 220.706 248.598 220.781 248.655 220.816C249.069 221.076 249.34 221.1 249.512 221.043C249.71 220.977 249.843 220.79 249.886 220.466C249.991 219.674 249.419 218.097 249.33 217.369C249.135 215.82 248.775 214.354 248.325 212.914C248.189 212.479 248.052 212.045 247.893 211.617C247.277 209.949 246.509 208.332 245.807 206.645C243.86 202.024 241.554 197.455 238.958 193.051C236.368 188.654 233.489 184.425 230.506 180.411C219.509 165.698 210.234 153.665 198.001 144.882C189.955 139.106 180.636 134.731 168.695 131.937C168.563 131.905 168.425 131.987 168.393 132.122C168.361 132.257 168.445 132.393 168.578 132.425C180.385 135.332 189.582 139.765 197.49 145.588C209.532 154.458 218.582 166.541 229.318 181.291C232.243 185.284 235.028 189.51 237.599 193.856C240.169 198.199 242.531 202.664 244.501 207.205C245.231 208.87 245.966 210.488 246.67 212.11C246.846 212.516 247.031 212.916 247.202 213.324C247.762 214.664 248.244 216.035 248.572 217.501C248.715 218.135 249.263 219.401 249.399 220.225C249.418 220.34 249.42 220.445 249.428 220.536C249.439 220.649 249.497 220.734 249.45 220.795C249.357 220.917 249.141 220.834 248.784 220.61Z" fill="#B5BDA6"/>
<path fill-rule="evenodd" clip-rule="evenodd" d="M257.671 354.171C257.437 354.137 257.218 354.299 257.183 354.537C257.149 354.772 257.311 354.989 257.546 355.024C258.653 355.228 259.769 355.313 260.893 355.342C263.41 355.407 265.956 355.186 268.49 355.49C274.929 356.126 281.126 356.954 287.397 357.24C291.591 357.432 295.817 357.375 300.163 356.9C307.789 355.999 317.163 351.632 325.468 345.707C333.708 339.827 340.888 332.433 344.367 325.593C346.924 320.521 349.395 313.808 351.219 307.032C353.11 300.01 354.308 292.923 354.166 287.52C354.163 287.343 354.018 287.203 353.842 287.206C353.667 287.209 353.526 287.355 353.529 287.528C353.561 292.872 352.24 299.856 350.223 306.752C348.279 313.397 345.685 319.959 343.048 324.904C339.562 331.498 332.428 338.509 324.361 344.129C316.292 349.749 307.278 353.983 299.924 354.802C295.689 355.311 291.567 355.391 287.472 355.267C281.229 355.082 275.048 354.412 268.63 353.912C265.667 353.744 262.73 354.26 259.808 354.274C259.095 354.274 258.383 354.252 257.671 354.171Z" fill="#B5BDA6"/>
<path fill-rule="evenodd" clip-rule="evenodd" d="M264.157 346.756C264.043 346.728 263.924 346.791 263.884 346.904C263.814 347.01 263.852 347.172 264.146 347.252C264.248 347.277 264.467 347.283 264.774 347.293C265.007 347.298 265.26 347.322 265.543 347.298C266.353 347.223 267.207 346.971 267.256 346.959C268.282 346.725 269.283 346.446 270.263 346.092C271.702 345.567 273.082 344.903 274.498 344.296C277.469 343.015 280.12 341.38 282.607 339.538C286.292 336.811 289.612 333.621 293.128 330.484C295.826 328.042 298.476 325.433 300.985 322.699C303.494 319.961 305.863 317.098 308.069 314.201C309.462 312.363 310.872 310.499 312.339 308.695C313.307 307.504 314.294 306.335 315.342 305.23C317.902 302.525 320.636 299.878 323.487 297.366C326.34 294.855 329.305 292.477 332.377 290.359C333.36 289.684 334.429 289.148 335.539 288.682C338.191 287.568 341.074 286.861 343.666 285.818C343.789 285.774 343.854 285.634 343.808 285.511C343.763 285.388 343.626 285.326 343.502 285.369C340.838 286.254 337.895 286.765 335.173 287.733C333.965 288.163 332.805 288.691 331.725 289.357C328.503 291.348 325.359 293.597 322.353 296.021C319.348 298.446 316.488 301.047 313.786 303.697C312.656 304.806 311.574 305.977 310.538 307.187C309.003 308.977 307.562 310.856 306.121 312.698C303.93 315.514 301.559 318.278 299.096 320.956C296.633 323.638 294.079 326.231 291.454 328.644C288.058 331.81 284.853 335.02 281.29 337.799C278.97 339.61 276.503 341.24 273.712 342.541L266.87 345.665C266.825 345.682 266.037 345.882 265.33 346.176C264.923 346.346 264.591 346.562 264.341 346.671C264.259 346.708 264.166 346.751 264.157 346.756Z" fill="#B5BDA6"/>
<path fill-rule="evenodd" clip-rule="evenodd" d="M256.942 298.033C256.889 298.146 256.939 298.285 257.056 298.339C257.171 298.396 257.31 298.345 257.364 298.228C257.648 297.926 258.018 297.758 258.413 297.424C258.616 297.254 258.793 297.035 259.012 296.836C259.757 296.162 260.728 295.506 261.814 294.797C263.172 293.908 264.72 292.978 266.369 292.07C271.975 288.992 278.598 286.089 281.495 284.583C285.875 282.145 289.741 280.033 293.199 277.924C297.368 275.379 300.974 272.869 304.273 269.979C310.173 264.809 315.079 258.418 320.436 248.268C320.599 247.978 320.497 247.61 320.207 247.447C319.918 247.284 319.55 247.387 319.387 247.677C313.655 257.261 308.534 263.177 302.581 267.955C299.273 270.609 295.701 272.892 291.623 275.273C288.15 277.303 284.33 279.42 279.969 281.815C276.716 283.729 268.546 287.65 262.816 291.657C260.561 293.236 258.698 294.84 257.577 296.277C257.501 296.375 257.411 296.462 257.358 296.568C257.144 296.999 257.17 297.378 257.057 297.768C257.03 297.865 256.976 297.945 256.942 298.033Z" fill="#B5BDA6"/>
<path fill-rule="evenodd" clip-rule="evenodd" d="M276.965 294.066C276.943 294.033 276.91 294.003 276.868 293.987C276.77 293.952 276.662 294.006 276.627 294.105C276.583 294.206 276.715 294.442 277.147 294.559C277.828 294.739 279.345 294.975 281.25 294.992C283.299 295.014 285.773 294.759 288.069 294.266C293.117 293.151 297.919 291.523 302.56 289.499C307.192 287.479 311.657 285.062 316.07 282.437C323.216 278.032 330.099 272.608 335.888 266.217C341.671 259.832 346.358 252.496 349.275 244.402C350.704 240.432 351.819 236.348 352.744 232.21C354.122 226.052 355.1 219.784 356.287 213.635C356.325 213.453 356.209 213.274 356.027 213.236C355.845 213.198 355.666 213.314 355.628 213.496C354.234 219.589 353.008 225.799 351.46 231.904C350.433 235.955 349.271 239.962 347.776 243.843C344.773 251.649 340.016 258.635 334.314 264.768C328.582 270.932 321.885 276.239 314.889 280.499C310.615 283.195 306.276 285.656 301.783 287.782C297.297 289.901 292.662 291.689 287.757 292.955C286.335 293.325 284.836 293.58 283.419 293.743C282.802 293.814 282.201 293.852 281.63 293.907C279.786 294.086 278.256 294.211 277.443 294.153C277.204 294.135 277.026 294.035 276.965 294.066Z" fill="#B5BDA6"/>
<path fill-rule="evenodd" clip-rule="evenodd" d="M276.235 277.906C276.23 277.902 276.225 277.901 276.22 277.896C276.125 277.854 276.013 277.893 275.969 277.986C275.637 278.601 275.476 278.992 275.394 279.183C275.267 279.475 275.441 279.61 275.5 279.667C275.567 279.725 275.694 279.726 275.884 279.638C276.018 279.575 276.29 279.328 276.642 278.93C277.002 278.522 277.441 277.937 277.923 277.266C279.873 274.542 282.479 270.367 282.493 270.348C285.403 266.174 288.076 262.131 291.103 258.293C293.075 255.793 295.189 253.372 297.674 251.098C301.618 247.468 305.903 243.964 310.352 240.69C314.805 237.414 319.424 234.367 324.081 231.72C330.331 228.124 336.948 225.042 343.23 221.454C347.46 219.038 351.537 216.394 355.255 213.222C355.455 213.055 355.482 212.758 355.316 212.559C355.15 212.359 354.853 212.332 354.654 212.499C351.854 214.784 348.861 216.77 345.759 218.587C338.487 222.848 330.623 226.181 323.243 230.222C318.497 232.855 313.769 235.87 309.238 239.162C304.712 242.451 300.382 246.017 296.382 249.69C293.828 252.049 291.626 254.535 289.63 257.148C286.64 261.063 284.097 265.24 281.277 269.52C281.263 269.543 278.726 273.773 276.991 276.648C276.712 277.113 276.456 277.535 276.235 277.906ZM275.595 279.094C275.567 279.132 275.541 279.148 275.519 279.125C275.466 279.074 275.521 279.078 275.595 279.094Z" fill="#B5BDA6"/>
<path fill-rule="evenodd" clip-rule="evenodd" d="M262.006 256.035C261.979 256.123 262.019 256.219 262.104 256.261C262.197 256.306 262.295 256.305 262.358 256.17C262.364 256.158 262.356 256.122 262.377 256.072C262.397 256.023 262.463 256.052 262.515 255.894C262.544 255.807 262.498 255.676 262.484 255.521C262.379 254.279 262.077 251.236 262.027 250.801C261.882 249.656 261.643 248.518 261.321 247.394C260.844 245.733 260.188 244.117 259.51 242.558C257.98 239.212 256.133 236.02 254.104 232.934C251.095 228.358 247.694 224.012 244.456 219.666C239.71 213.443 235.212 207.066 230.455 200.874C228.408 198.211 226.311 195.583 224.131 193.015C219.665 187.766 215.627 184.002 211.915 179.614C209.532 176.795 207.284 173.717 205.143 169.805C203.351 166.599 201.188 163.586 199.34 160.419C198.552 159.073 197.824 157.702 197.211 156.273C197.117 156.043 196.852 155.932 196.623 156.026C196.395 156.121 196.281 156.384 196.379 156.615C196.954 158.102 197.65 159.536 198.406 160.942C200.145 164.16 202.212 167.228 203.897 170.479C206.033 174.519 208.294 177.707 210.694 180.632C214.34 185.074 218.317 188.899 222.701 194.214C224.832 196.788 226.869 199.421 228.864 202.084C233.544 208.334 237.97 214.758 242.642 221.037C245.903 225.316 249.304 229.607 252.361 234.103C254.383 237.075 256.26 240.132 257.816 243.357C258.431 244.572 259.016 245.833 259.531 247.12C260.042 248.397 260.491 249.694 260.781 251.018C260.88 251.443 261.514 254.41 261.768 255.622C261.8 255.775 261.794 255.913 261.846 255.985C261.907 256.071 261.932 256.1 261.98 256.058C261.989 256.05 261.998 256.042 262.006 256.035Z" fill="#B5BDA6"/>
<path fill-rule="evenodd" clip-rule="evenodd" d="M264.379 184.203C264.277 184.181 264.178 184.247 264.156 184.348C264.135 184.45 264.2 184.55 264.302 184.572C264.506 184.662 264.79 184.472 265.031 184.099C265.33 183.639 265.535 182.872 265.591 182.763C266.097 181.702 266.575 180.641 266.989 179.551C267.406 178.451 267.75 177.327 268.036 176.173C268.659 173.719 269.24 171.292 269.675 168.849C270.117 166.367 270.429 163.881 270.634 161.387C271.04 156.431 270.98 151.443 270.515 146.333C269.832 139.031 268.107 131.991 265.768 125.145C262.278 114.927 257.386 105.148 252.201 95.7218C247.991 87.9735 242.989 80.6107 238.58 72.9401C236.705 69.6742 234.933 66.3517 233.386 62.9183C232.006 59.8875 231.057 56.7741 230.266 53.6229C229.064 48.8302 228.267 43.9372 227.321 39.0087C227.272 38.721 226.998 38.5285 226.709 38.5782C226.421 38.6284 226.231 38.9037 226.28 39.1913C227.057 44.1804 227.618 49.1479 228.736 53.9931C229.492 57.2561 230.515 60.4547 231.925 63.5823C233.508 67.0579 235.311 70.4208 237.226 73.7244C241.659 81.3675 246.697 88.6962 250.936 96.4152C256.025 105.79 260.901 115.486 264.232 125.661C266.437 132.396 267.944 139.34 268.469 146.505C268.848 151.502 268.738 156.365 268.365 161.207C268.176 163.65 267.911 166.087 267.607 168.537C267.306 170.966 266.997 173.405 266.581 175.866C266.425 176.761 266.222 177.637 265.994 178.506C265.646 179.829 265.241 181.129 264.777 182.425L264.379 184.203Z" fill="#B5BDA6"/>
<path fill-rule="evenodd" clip-rule="evenodd" d="M247.125 171.998C247.227 172.042 247.345 171.994 247.389 171.892C247.433 171.79 247.385 171.672 247.284 171.628C246.737 171.353 246.328 170.696 245.957 169.906C245.146 168.185 244.62 165.801 244.207 164.672C243.136 161.906 242.191 159.083 241.303 156.235C239.971 151.956 238.785 147.624 237.602 143.331C236.525 139.49 235.559 135.627 234.622 131.76C232.432 122.709 230.481 113.608 228.353 104.52C226.038 95.1369 224.129 85.4792 223.01 75.746C221.889 66.0109 221.558 56.2028 222.435 46.5145C222.455 46.2996 222.301 46.1079 222.086 46.086C221.872 46.0642 221.681 46.2211 221.658 46.4355C220.551 56.1756 220.645 66.0657 221.559 75.8981C222.47 85.7283 224.203 95.4959 226.339 104.997C228.182 112.787 229.837 120.598 231.727 128.356C232.988 133.542 234.366 138.7 235.899 143.827C237.207 148.104 238.497 152.423 239.967 156.675C240.95 159.521 242.014 162.333 243.192 165.088C243.69 166.195 244.355 168.584 245.341 170.235C245.857 171.1 246.46 171.761 247.125 171.998Z" fill="#B5BDA6"/>
<path fill-rule="evenodd" clip-rule="evenodd" d="M241.892 230.894C241.921 230.994 242.025 231.052 242.125 231.023C242.225 230.994 242.283 230.89 242.254 230.79C242.244 230.386 241.885 230.03 241.366 229.749C240.811 229.447 240.068 229.345 239.712 229.238C239.278 229.116 238.87 228.961 238.466 228.805C236.725 228.131 235.179 227.207 233.415 226.507C230.817 225.496 228.305 223.932 225.847 222.199C222.144 219.59 218.6 216.534 215.487 213.798C213.788 212.315 212.096 210.642 210.465 208.907C208.826 207.162 207.25 205.353 205.8 203.609C203.512 200.777 200.862 198.186 198.44 195.429C197.444 194.292 196.478 193.129 195.612 191.896C193.931 189.585 192.449 187.177 191.023 184.748C190.06 183.105 189.095 181.469 188.211 179.785C185.99 175.556 184.069 171.174 182.16 166.751C180.92 163.767 179.596 160.836 178.556 157.807C177.876 155.815 177.317 153.781 176.988 151.663C176.366 147.609 174.173 143.594 173.259 139.468C172.873 137.739 172.7 135.993 173.025 134.195C173.056 134.048 172.958 133.903 172.815 133.873C172.668 133.842 172.524 133.936 172.493 134.083C172.036 135.952 172.073 137.805 172.399 139.64C173.134 143.771 175.303 147.791 175.827 151.829C176.105 154.029 176.628 156.147 177.275 158.228C178.234 161.313 179.478 164.312 180.642 167.36C182.65 172.857 184.738 178.269 187.235 183.511C187.739 184.57 188.236 185.631 188.789 186.667C190.081 189.075 191.561 191.389 193.156 193.656C194.109 194.967 195.152 196.21 196.253 197.404C198.721 200.079 201.459 202.535 203.823 205.268C205.314 207.043 206.93 208.884 208.614 210.66C210.311 212.45 212.072 214.174 213.838 215.702C217.049 218.462 220.641 221.636 224.515 224.163C227.186 225.906 229.991 227.325 232.806 228.228C234.383 228.73 235.791 229.459 237.326 229.951C238.01 230.17 238.713 230.334 239.458 230.44C239.782 230.485 240.398 230.568 240.956 230.648C241.172 230.678 241.367 230.656 241.54 230.711C241.692 230.76 241.827 230.783 241.892 230.894Z" fill="#B5BDA6"/>
<path fill-rule="evenodd" clip-rule="evenodd" d="M0.0877719 513.456C0.0108383 513.56 0.0352871 513.705 0.13975 513.782C0.244953 513.855 0.389115 513.83 0.466048 513.726C1.02298 513.045 1.59648 512.389 2.15893 511.717C4.4025 509.022 6.6993 506.404 9.16078 503.942C13.7383 499.354 18.756 495.212 24.3042 491.606C32.9818 485.96 42.8732 481.549 53.9619 478.397C61.5999 476.155 69.5374 473.863 77.3764 471.535C82.6521 469.966 87.881 468.377 92.9463 466.801C112.784 460.649 133.464 453.451 152.705 443.88C165.622 437.455 177.893 429.964 188.811 420.978C201.491 410.467 210.864 399.683 218.802 387.845C226.702 376.066 233.185 363.24 239.925 348.472C243.043 341.644 246.3 335.038 249.214 328.243C251.159 323.709 252.953 319.087 254.45 314.264C262.159 289.53 264.85 263.187 264.449 236.603C264.39 232.683 264.267 228.757 264.057 224.832C262.131 188.863 254.996 152.927 248.493 120.326C248.473 120.211 248.362 120.135 248.247 120.157C248.129 120.178 248.055 120.29 248.078 120.405C253.848 153.059 259.831 189.065 261.321 224.964C261.483 228.862 261.617 232.758 261.686 236.65C262.153 262.97 259.815 289.076 252.366 313.62C250.914 318.383 249.171 322.941 247.277 327.417C244.401 334.209 241.176 340.814 238.093 347.639C231.459 362.327 225.137 375.135 217.278 386.82C209.426 398.493 200.043 409.037 187.458 419.33C176.669 428.222 164.547 435.65 151.772 441.995C132.63 451.506 112.034 458.601 92.2959 464.682L53.3228 476.208C42.0869 479.607 32.0772 484.25 23.3476 490.159C17.7751 493.932 12.6867 498.184 8.19439 503.009C5.79275 505.586 3.52648 508.302 1.5128 511.225C1.0115 511.955 0.55351 512.704 0.0877719 513.456Z" fill="#B5BDA6"/>
<path fill-rule="evenodd" clip-rule="evenodd" d="M68.8477 472.259C68.8518 472.205 68.8594 472.152 68.8705 472.099C68.8957 471.98 68.9783 471.866 69.0472 471.73C69.1108 471.619 69.0752 471.476 68.96 471.415C68.8491 471.351 68.709 471.391 68.6453 471.503C68.5759 471.623 68.5353 471.747 68.4676 471.842C68.0777 472.39 67.969 472.715 68.0034 472.968C68.068 473.425 68.6485 473.69 69.5493 473.338C70.0237 473.152 70.6498 472.698 71.3739 472.005C72.9391 470.515 74.9228 467.768 76.6383 463.728C77.6384 461.257 78.5134 458.999 79.1661 456.789C79.6512 455.148 80.0202 453.537 80.2714 451.912C80.861 448.059 80.7958 444.137 80.0269 439.459C79.0461 433.271 77.8522 427.192 76.7541 421.144C75.0861 411.954 73.5695 402.843 72.6309 393.646C72.0134 387.557 71.7199 381.422 71.8101 375.185C71.8697 371.139 72.0674 367.046 72.5459 362.887C72.5789 362.627 72.3955 362.387 72.1354 362.354C71.8726 362.317 71.6327 362.5 71.5989 362.764C70.9735 366.943 70.5762 371.064 70.4347 375.151C70.2154 381.445 70.5616 387.642 71.1553 393.793C72.0485 403.032 73.6666 412.164 75.1676 421.417C76.1485 427.466 77.0508 433.575 77.8209 439.774C78.2313 443.256 78.2206 446.272 77.8829 449.156C77.7155 450.557 77.4468 451.917 77.1526 453.295C76.508 456.316 75.6242 459.397 74.3983 462.885C73.5628 465.32 72.5571 467.262 71.6397 468.768C70.7687 470.192 69.9918 471.222 69.3511 471.798C69.1704 471.961 68.9707 472.179 68.8477 472.259ZM68.8477 472.259C68.7884 472.298 68.7476 472.301 68.732 472.253C68.709 472.172 68.7733 472.196 68.8477 472.259ZM68.8477 472.259C68.9653 472.361 69.1064 472.559 68.983 472.607C68.8879 472.641 68.8386 472.459 68.8477 472.259Z" fill="#B5BDA6"/>
<path fill-rule="evenodd" clip-rule="evenodd" d="M78.9542 434.054C78.9238 434.076 78.8961 434.104 78.881 434.141C78.8616 434.181 79.1092 434.584 79.3347 434.313C79.3823 434.261 79.4212 434.163 79.5245 434.09C79.7106 433.953 79.9537 433.997 80.2345 433.793C81.3191 433.003 82.5113 431.079 82.9501 430.351C83.6692 429.144 84.2232 427.887 84.6703 426.582C85.3103 424.71 85.7312 422.766 86.4077 420.894C87.8742 416.698 88.6214 412.358 88.9472 407.969C89.4285 401.456 88.9719 394.829 88.4226 388.399C86.7465 365.791 77.012 345.874 75.9707 324.418C75.7497 319.9 75.9442 315.318 76.6356 310.618C77.2748 306.27 78.3321 301.812 80.0127 297.226C80.1536 296.852 79.9636 296.435 79.5937 296.298C79.2211 296.158 78.805 296.345 78.6641 296.718C76.8578 301.38 75.641 305.918 74.9586 310.367C74.2183 315.178 74.0969 319.881 74.3511 324.502C75.5368 345.985 85.4521 365.858 87.3035 388.485C87.7524 394.854 88.1486 401.421 87.5383 407.852C87.1375 412.093 86.2889 416.272 84.7639 420.295C83.9682 422.489 83.4419 424.759 82.6897 426.956C82.3831 427.854 82.0555 428.748 81.6146 429.608C81.251 430.326 79.787 431.874 79.2915 433.044C79.1561 433.356 79.254 433.586 79.1591 433.793C79.1102 433.903 79.0239 433.966 78.9806 434.015C78.9706 434.028 78.9607 434.04 78.9542 434.054Z" fill="#B5BDA6"/>
<path fill-rule="evenodd" clip-rule="evenodd" d="M69.2334 429.905C69.1662 430.015 69.2019 430.158 69.3128 430.222C69.423 430.289 69.5659 430.253 69.6331 430.143C70.257 429.3 70.0405 428.28 69.3726 427.267C68.2179 425.511 65.5641 423.856 64.8353 423.029C62.5973 420.564 60.5771 417.171 58.9746 413.584C57.3803 410.01 56.2093 406.233 55.7011 402.972C54.9319 398.26 54.4975 393.678 54.3196 389.198C54.0371 382.11 54.4917 375.272 55.6596 368.555C57.5778 357.536 61.3935 346.833 67.2585 336.019C67.4445 335.692 67.3268 335.279 67.0038 335.094C66.6766 334.911 66.2647 335.026 66.0787 335.353C59.7482 346.171 55.3678 356.916 53.2049 368.107C51.8752 374.984 51.3804 382.029 51.7205 389.313C51.9387 393.897 52.5258 398.57 53.4078 403.371C54.0632 406.783 55.4186 410.71 57.2404 414.402C59.0588 418.093 61.3246 421.552 63.7666 424.038C64.548 424.807 67.1907 426.324 68.5658 427.885C69.156 428.555 69.5533 429.203 69.2334 429.905Z" fill="#B5BDA6"/>
<path fill-rule="evenodd" clip-rule="evenodd" d="M36.4519 484.681C36.6737 484.688 37.002 484.71 37.3026 484.758C37.7587 484.833 38.2566 485.003 38.8387 485.123C39.9565 485.355 41.2599 485.556 42.505 485.826C44.9778 486.362 47.222 486.942 47.4677 487.008C51.0134 487.903 54.4431 489.069 57.9009 490.172C60.2283 490.912 62.5695 491.604 64.9071 492.313C67.4343 493.077 69.9688 493.805 72.5263 494.495C88.3941 498.684 98.2079 500.381 108.2 499.759C117.824 499.163 127.614 496.411 143.201 491.63C143.505 491.544 143.681 491.226 143.596 490.922C143.506 490.618 143.189 490.441 142.885 490.527C127.348 494.689 117.606 497.073 108.092 497.338C98.3325 497.605 88.8336 495.612 73.5042 491.02C68.4456 489.565 63.5197 487.775 58.4695 486.384C55.0576 485.445 51.5927 484.74 48.0719 484.143C47.6788 484.083 42.4554 483.131 38.9496 483.157C37.6236 483.167 36.5687 483.347 36.021 483.569C35.5965 483.743 35.3557 483.948 35.3026 484.183C35.2479 484.442 35.2749 484.869 35.8556 485.237C36.0295 485.383 36.2909 485.358 36.4332 485.187C36.5597 485.037 36.5599 484.829 36.4519 484.681Z" fill="#B5BDA6"/>
<path fill-rule="evenodd" clip-rule="evenodd" d="M70.4113 495.609C70.4471 495.544 70.4529 495.464 70.4199 495.395C70.3636 495.281 70.2245 495.229 70.1102 495.286C69.684 495.364 69.6368 495.64 69.618 495.816C69.5976 496.016 69.7997 496.29 70.2411 496.555C71.067 497.044 73.0438 497.417 73.8324 497.91C75.9702 499.115 78.1078 500.269 80.2152 501.497C81.5991 502.306 82.9687 503.148 84.3102 504.053C88.1497 506.606 92.0729 508.555 96.1618 510.047C102.194 512.246 108.565 513.476 115.424 514.546C120.724 515.363 126.063 514.969 131.313 513.886C139.072 512.285 146.638 509.185 153.604 506.402C162.678 502.76 170.776 499.812 179.087 497.994C182.534 497.238 186.02 496.702 189.626 496.342C194.649 495.841 199.907 495.697 205.657 496.134C206.126 496.181 206.545 495.834 206.59 495.367C206.636 494.897 206.293 494.477 205.823 494.432C197.86 493.515 190.763 493.585 183.961 494.561C173.539 496.055 163.834 499.586 152.663 504.046C145.835 506.785 138.416 509.843 130.804 511.424C125.847 512.451 120.807 512.853 115.8 512.09C110.238 511.251 105.016 510.259 100.008 508.789C94.9481 507.304 90.1085 505.331 85.3881 502.376C83.974 501.503 82.5373 500.701 81.0827 499.933C78.9211 498.789 76.7335 497.716 74.5422 496.591C74.1658 496.416 73.5941 496.248 72.9715 496.113C72.1381 495.937 71.2261 495.752 70.6476 495.634C70.5698 495.621 70.4843 495.61 70.4113 495.609Z" fill="#B5BDA6"/>
<path fill-rule="evenodd" clip-rule="evenodd" d="M121.541 457.053C121.514 457.044 121.489 457.042 121.459 457.043C121.33 457.049 121.233 457.16 121.24 457.286C121.043 457.49 121.363 457.429 121.456 457.559C121.51 457.633 121.534 457.572 121.866 457.488C122.013 457.453 122.197 457.327 122.43 457.105C123.109 456.468 123.918 455.097 124.181 454.749C125.215 453.319 126.369 451.973 127.43 450.549C128.164 449.568 128.844 448.546 129.454 447.489C131.196 444.435 132.691 441.267 133.891 437.986C135.68 433.092 136.864 427.983 137.899 422.884C138.727 418.784 138.836 414.525 138.591 410.203C138.044 400.539 135.712 390.56 136.113 381.426C136.418 374.414 135.233 368.139 134.329 362.157C133.911 359.406 133.537 356.72 133.455 354.04C133.387 351.798 133.508 349.56 133.933 347.299C133.976 347.095 133.847 346.896 133.643 346.853C133.44 346.81 133.241 346.94 133.198 347.143C132.389 350.599 132.268 354.031 132.493 357.525C132.964 364.902 134.917 372.548 134.352 381.333C133.78 390.512 135.927 400.587 136.304 410.314C136.464 414.428 136.298 418.477 135.441 422.365C134.538 426.508 133.446 430.625 132.151 434.667C130.863 438.677 129.376 442.623 127.405 446.368C127.014 447.128 126.575 447.859 126.125 448.588C125.032 450.354 123.847 452.067 122.796 453.842C122.588 454.223 121.759 455.553 121.417 456.411C121.317 456.661 121.41 456.981 121.286 456.963C121.2 456.952 121.373 457.072 121.383 457.038C121.424 456.915 121.477 456.992 121.541 457.053ZM121.623 457.1C121.631 457.098 121.638 457.099 121.645 457.097C121.675 457.096 121.671 457.113 121.665 457.142C121.654 457.125 121.639 457.11 121.623 457.1Z" fill="#B5BDA6"/>
<path fill-rule="evenodd" clip-rule="evenodd" d="M138.435 413.565C138.31 413.583 138.222 413.703 138.24 413.828C138.257 413.956 138.378 414.044 138.502 414.026C139.267 414.008 140.079 413.417 140.812 412.506C142.132 410.862 143.114 408.201 143.58 407.12C144.467 405.08 145.364 403.115 146.123 401.114C146.902 399.048 147.558 396.96 148.091 394.834C148.788 392.033 149.221 389.146 149.388 386.083C149.944 376.893 149.518 367.379 148.246 357.98C146.972 348.602 144.853 339.331 141.78 330.647C141.045 328.566 140.205 326.528 139.306 324.514C136.806 318.94 133.866 313.543 131.245 308.024C130.124 305.671 129.043 303.307 128.123 300.872C128.012 300.563 127.673 300.403 127.368 300.515C127.059 300.625 126.9 300.962 127.011 301.271C127.707 303.362 128.492 305.418 129.371 307.438C132.853 315.414 137.44 322.938 140.317 331.167C143.319 339.755 145.451 348.911 146.591 358.195C147.724 367.477 147.863 376.875 147.121 385.923C146.866 388.833 146.297 391.548 145.622 394.211C145.099 396.273 144.48 398.292 143.854 400.339C143.233 402.366 142.638 404.42 141.978 406.526C141.644 407.591 140.849 410.13 139.889 411.89C139.438 412.711 139.026 413.397 138.435 413.565Z" fill="#B5BDA6"/>
<path fill-rule="evenodd" clip-rule="evenodd" d="M134.712 419.838C134.723 419.961 134.831 420.054 134.954 420.043C135.081 420.029 135.17 419.92 135.16 419.797C135.196 419.174 135.11 418.578 134.884 417.981C134.681 417.436 134.338 416.931 133.974 416.419C132.94 414.955 131.505 413.558 130.351 412.179C129.872 411.609 129.44 411.053 129.162 410.466C128.148 408.333 127.388 406.06 126.729 403.738C125.722 400.207 124.984 396.561 124.238 393.078C123.84 391.269 123.537 389.428 123.285 387.573C122.689 383.184 122.374 378.711 121.858 374.361C121.446 371.231 121.084 368.11 120.735 364.997C120.21 360.308 119.746 355.639 119.548 350.942C119.331 345.764 119.391 340.569 119.89 335.312C120.372 330.337 121.191 325.847 122.217 321.485C123.792 314.796 125.838 308.411 127.767 301.049C127.821 300.863 127.711 300.671 127.528 300.622C127.342 300.568 127.151 300.677 127.1 300.865C124.964 308.183 122.77 314.525 120.983 321.177C119.805 325.566 118.802 330.083 118.133 335.11C117.227 341.779 116.995 348.378 117.205 354.978C117.412 361.556 118.067 368.126 118.803 374.746C119.285 378.477 119.605 382.303 120.105 386.086C120.447 388.663 120.877 391.219 121.476 393.719C122.341 397.234 123.166 400.932 124.343 404.476C125.142 406.894 126.107 409.236 127.3 411.422C127.693 412.142 128.245 412.852 128.922 413.511C130.192 414.753 131.852 415.865 133.056 417.166C133.427 417.571 133.737 417.995 134.012 418.423C134.31 418.881 134.58 419.319 134.712 419.838Z" fill="#B5BDA6"/>
<path fill-rule="evenodd" clip-rule="evenodd" d="M160.503 437.778C160.396 437.712 160.25 437.747 160.183 437.854C160.116 437.964 160.148 438.107 160.259 438.174C161.082 438.901 162.315 439.333 163.784 439.474C166.652 439.749 170.174 438.866 172.075 438.611C174.709 438.178 177.491 438.076 180.315 438.078C184.585 438.085 188.937 438.38 192.967 438.593C200.303 438.774 207.511 439.961 214.788 440.504C217.957 440.74 221.137 440.857 224.345 440.724C232.074 440.428 240.13 438.776 247.882 436.162C255.577 433.569 262.979 430.032 269.402 425.775C270.84 424.83 272.202 423.725 273.522 422.542C276.516 419.859 279.286 416.766 282.221 414.217C282.42 414.043 282.443 413.743 282.272 413.546C282.102 413.349 281.802 413.326 281.604 413.497C278.642 416.022 275.843 419.091 272.82 421.75C271.53 422.88 270.197 423.94 268.794 424.842C262.398 428.935 255.066 432.367 247.424 434.747C239.791 437.126 231.855 438.455 224.294 438.516C221.175 438.536 218.092 438.307 215.024 437.967C207.713 437.158 200.493 435.712 193.111 435.265C189.017 435.134 184.592 434.863 180.264 435.024C177.279 435.13 174.343 435.453 171.585 436.061C170.028 436.458 167.353 437.311 164.863 437.706C164.096 437.826 163.355 437.886 162.668 437.92C161.839 437.965 161.127 438.013 160.503 437.778Z" fill="#B5BDA6"/>
<path fill-rule="evenodd" clip-rule="evenodd" d="M195.617 440.002C197.044 440.244 199.407 440.772 199.762 440.913C200.955 441.307 202.115 441.797 203.258 442.335C205.98 443.612 208.598 445.172 211.27 446.479C213.461 447.538 215.629 448.633 217.815 449.669C223.004 452.126 228.23 454.4 233.618 456.192C238.747 457.896 244.038 459.13 249.641 459.56C262.154 460.57 273.133 455.798 282.729 448.259C289.541 442.908 295.684 436.19 301.119 429.132C306.805 421.746 311.72 414.007 316.01 407.257C316.178 406.999 316.103 406.654 315.845 406.486C315.587 406.318 315.241 406.391 315.074 406.649C310.692 413.295 305.622 420.877 299.891 428.177C294.472 435.077 288.465 441.74 281.732 446.983C272.453 454.208 261.849 458.777 249.794 457.732C244.357 457.245 239.238 455.963 234.273 454.253C228.976 452.433 223.877 450.076 218.736 447.698C216.54 446.682 214.326 445.688 212.106 444.685C209.385 443.47 206.708 442.004 203.936 440.819C202.717 440.298 201.482 439.829 200.216 439.459C199.729 439.346 195.969 438.996 194.838 439.127C194.041 439.219 193.593 439.839 195.312 440.205C195.434 440.245 195.566 440.178 195.606 440.058C195.613 440.038 195.616 440.02 195.617 440.002Z" fill="#B5BDA6"/>
<path fill-rule="evenodd" clip-rule="evenodd" d="M209.506 438.902C209.488 438.898 209.469 438.895 209.45 438.894C209.411 438.897 209.374 438.904 209.341 438.922C209.379 438.919 209.434 438.924 209.485 438.927C209.418 439.001 209.36 439.025 209.313 438.979C209.303 438.969 209.298 438.961 209.295 438.953C209.247 438.998 209.217 439.057 209.216 439.127C209.055 439.327 209.162 439.423 209.179 439.514C209.221 439.765 209.509 439.796 209.839 439.581C210.147 439.378 210.848 437.929 211.356 437.527L217.228 433.195C220.213 431.044 223.243 429.053 226.336 427.164C229.43 425.271 232.586 423.483 235.833 421.765C241.606 418.627 247.669 416.21 253.792 413.945C263.071 410.515 272.51 407.484 281.522 403.499C285.294 401.829 288.987 399.989 292.553 397.855C292.745 397.746 292.81 397.496 292.698 397.303C292.586 397.108 292.338 397.044 292.144 397.157C288.567 399.194 284.871 400.938 281.098 402.505C272.015 406.273 262.481 408.943 253.18 412.252C246.945 414.472 240.826 416.998 234.973 420.173C231.732 421.976 228.58 423.843 225.502 425.827C222.424 427.811 219.422 429.91 216.466 432.158C215.112 433.188 213.709 434.207 212.38 435.3C211.804 435.772 211.248 436.263 210.704 436.763C210.312 437.127 209.82 438.514 209.506 438.902ZM209.341 438.922C209.308 438.926 209.288 438.933 209.295 438.953C209.309 438.941 209.325 438.93 209.341 438.922ZM209.575 438.932C209.585 438.934 209.594 438.932 209.6 438.933C209.706 438.919 209.792 439.16 209.792 439.16C209.792 439.16 209.722 439.182 209.681 439.13C209.682 439.046 209.64 438.974 209.575 438.932Z" fill="#B5BDA6"/>
<path fill-rule="evenodd" clip-rule="evenodd" d="M205.17 403.401C205.173 403.526 205.278 403.629 205.405 403.63C205.534 403.628 205.637 403.521 205.636 403.393C205.701 403.095 205.82 402.831 205.921 402.526C206.13 401.897 206.395 401.253 206.713 400.58C207.783 398.315 209.333 395.891 209.964 393.838C211.121 389.481 211.783 385.112 211.959 380.714C212.135 376.334 211.826 371.935 211.238 367.501C210.406 361.219 209.364 354.828 208.118 348.474C206.874 342.12 205.425 335.808 203.715 329.7C200.249 317.275 196.33 305.163 193.772 292.738C192.085 284.522 190.976 276.164 191.051 267.47C191.055 267.277 190.902 267.117 190.709 267.116C190.516 267.112 190.355 267.265 190.351 267.458C190.138 276.218 191.091 284.657 192.695 292.954C195.109 305.437 198.987 317.591 202.359 330.074C203.997 336.163 205.393 342.446 206.543 348.772C207.693 355.105 208.594 361.482 209.31 367.742C209.805 372.07 209.963 376.359 209.782 380.624C209.6 384.875 209.08 389.11 208.015 393.335C207.524 395.682 205.624 398.53 205.152 401.152C205.008 401.953 205.035 402.695 205.17 403.401Z" fill="#B5BDA6"/>
<path fill-rule="evenodd" clip-rule="evenodd" d="M208.926 358.647C208.931 358.82 209.075 358.957 209.247 358.949C209.419 358.945 209.555 358.802 209.549 358.629C209.547 357.994 208.998 357.168 208.196 356.329C206.744 354.803 204.472 353.184 203.737 352.59C199.884 349.594 195.99 346.766 192.543 343.46C190.291 341.304 188.237 338.94 186.515 336.193C183.586 331.546 180.818 326.08 178.452 320.303C176.96 316.659 175.626 312.891 174.58 309.095C172.757 302.495 171.76 295.827 172.217 289.672C172.488 285.528 173.295 281.438 174.385 277.397C176.035 271.277 178.309 265.281 180.308 259.392C180.396 259.147 180.267 258.874 180.023 258.786C179.778 258.697 179.506 258.823 179.417 259.072C177.201 264.915 174.717 270.867 172.845 276.951C171.578 281.068 170.593 285.249 170.161 289.502C169.431 297.402 170.855 306.204 173.673 314.607C176.466 322.939 180.618 330.858 184.883 337.259C186.784 340.07 189.014 342.47 191.443 344.649C195.036 347.872 199.056 350.61 203.045 353.51C203.711 353.976 205.585 355.119 207.06 356.338C208.052 357.159 208.887 357.983 208.926 358.647Z" fill="#B5BDA6"/>
<path fill-rule="evenodd" clip-rule="evenodd" d="M208.333 356.628C208.3 356.75 208.373 356.879 208.497 356.912C208.621 356.946 208.748 356.874 208.782 356.749C208.906 356.519 209.098 356.332 209.272 356.076C209.846 355.237 210.575 354.215 211.228 353.239C211.627 352.646 211.96 352.046 212.167 351.478C213.217 348.593 214.161 345.419 214.908 342.2C215.658 338.97 216.207 335.698 216.503 332.636C217.273 323.495 215.509 313.45 212.355 303.525C207.727 288.968 200.12 274.672 193.312 263.893C193.197 263.711 192.96 263.657 192.779 263.769C192.598 263.881 192.543 264.122 192.655 264.303C199.308 275.09 206.706 289.386 211.161 303.9C214.159 313.67 215.827 323.538 214.989 332.5C214.745 335.51 214.243 338.723 213.568 341.903C212.894 345.082 212.047 348.233 211.079 351.098C210.646 352.439 209.284 353.928 208.666 355.329C208.464 355.784 208.37 356.222 208.333 356.628Z" fill="#B5BDA6"/>
<path fill-rule="evenodd" clip-rule="evenodd" d="M231.852 364.68C231.803 364.637 231.813 364.646 231.852 364.68ZM231.852 364.68C231.87 364.695 231.894 364.715 231.922 364.739C231.856 364.758 231.8 364.801 231.771 364.868C231.65 364.975 231.791 365.063 231.82 365.139C231.832 365.171 231.92 365.193 232.141 365.181C232.233 365.178 232.398 365.191 232.661 365.096C233.724 364.713 235.944 363.09 236.555 362.793C237.835 362.122 239.145 361.505 240.478 360.94C241.81 360.375 243.164 359.862 244.531 359.384L269.015 350.674C284.959 345.045 302.064 339.024 315.682 329.014C324.85 322.275 332.433 313.736 337.06 302.364C337.161 302.122 337.048 301.845 336.808 301.747C336.569 301.645 336.293 301.759 336.192 302.002C331.448 313.059 323.841 321.263 314.753 327.727C301.121 337.422 284.139 343.195 268.29 348.569C265.009 349.712 261.733 350.874 258.482 352.104C253.614 353.949 248.791 355.91 243.946 357.803C242.567 358.348 241.204 358.928 239.862 359.561C238.517 360.193 237.196 360.87 235.908 361.606C235.583 361.794 234.765 362.317 233.96 362.916C233.266 363.433 232.532 363.941 232.167 364.333C231.997 364.513 231.973 364.776 231.909 364.725C231.885 364.706 231.866 364.691 231.852 364.68Z" fill="#B5BDA6"/>
</g>
<g opacity="0.5">
<path fill-rule="evenodd" clip-rule="evenodd" d="M92.3847 462.633C92.2636 462.588 92.1302 462.651 92.0855 462.772C92.0444 462.894 92.1069 463.027 92.2244 463.068C92.3488 463.127 93.4273 463.046 95.1395 462.705C96.2559 462.481 97.6425 462.136 99.2159 461.736C108.481 459.383 124.072 454.878 126.101 454.216C135.247 451.119 144.428 450.399 153.369 450.629C168.409 451.016 182.8 454.196 195.158 454.619C195.527 454.635 195.84 454.349 195.856 453.98C195.872 453.611 195.586 453.299 195.217 453.283C182.845 452.616 168.498 448.967 153.432 448.472C144.252 448.171 134.826 449.08 125.448 452.31L92.3847 462.633Z" fill="#4B5C49"/>
<path fill-rule="evenodd" clip-rule="evenodd" d="M187.814 176.231C187.751 176.206 187.681 176.238 187.657 176.3C187.633 176.364 187.664 176.434 187.727 176.458C188.183 176.634 188.454 176.605 188.612 176.515C188.793 176.413 188.887 176.204 188.868 175.877C188.819 175.08 187.954 173.642 187.726 172.945C187.238 171.462 186.602 170.093 185.884 168.766C185.668 168.365 185.449 167.966 185.212 167.577C184.287 166.058 183.222 164.618 182.209 163.098C179.41 158.937 176.269 154.896 172.876 151.073C169.488 147.257 165.85 143.66 162.152 140.293C148.533 127.968 137.118 117.941 123.425 111.673C114.419 107.551 104.434 105.048 92.1781 104.6C92.0422 104.594 91.9226 104.701 91.917 104.84C91.9114 104.978 92.0207 105.096 92.1566 105.101C104.303 105.686 114.18 108.269 123.06 112.464C136.582 118.854 147.785 128.973 161.155 141.385C164.793 144.742 168.338 148.354 171.696 152.125C175.053 155.893 178.229 159.82 181.035 163.899C182.071 165.392 183.103 166.839 184.106 168.296C184.357 168.66 184.616 169.017 184.861 169.385C185.668 170.592 186.405 171.844 187.008 173.221C187.27 173.815 188.052 174.952 188.343 175.735C188.384 175.844 188.406 175.947 188.432 176.035C188.464 176.143 188.537 176.215 188.503 176.284C188.435 176.422 188.208 176.382 187.814 176.231Z" fill="#4B5C49"/>
<path fill-rule="evenodd" clip-rule="evenodd" d="M222.201 305.595C221.964 305.606 221.781 305.808 221.792 306.048C221.803 306.285 222.005 306.467 222.241 306.456C223.367 306.444 224.478 306.313 225.587 306.125C228.07 305.705 230.526 304.999 233.071 304.81C239.512 304.198 245.753 303.819 251.962 302.894C256.115 302.277 260.251 301.409 264.425 300.107C271.735 297.758 280.096 291.672 287.108 284.261C294.064 276.907 299.689 268.271 301.789 260.89C303.323 255.421 304.459 248.358 304.947 241.358C305.453 234.104 305.267 226.918 304.089 221.643C304.053 221.471 303.883 221.361 303.711 221.398C303.54 221.435 303.43 221.605 303.466 221.774C304.524 227.012 304.57 234.12 303.915 241.275C303.284 248.169 302 255.108 300.363 260.467C298.208 267.608 292.555 275.86 285.718 282.925C278.879 289.991 270.847 295.878 263.787 298.095C259.729 299.408 255.699 300.278 251.657 300.944C245.494 301.962 239.299 302.492 232.905 303.234C229.965 303.64 227.182 304.71 224.317 305.285C223.617 305.422 222.914 305.537 222.201 305.595Z" fill="#4B5C49"/>
<path fill-rule="evenodd" clip-rule="evenodd" d="M227.141 297.072C227.023 297.067 226.919 297.151 226.901 297.269C226.853 297.387 226.922 297.538 227.226 297.56C227.33 297.566 227.546 297.529 227.849 297.48C228.078 297.44 228.332 297.415 228.605 297.337C229.385 297.108 230.175 296.696 230.221 296.676C231.183 296.249 232.112 295.782 233.005 295.246C234.316 294.455 235.543 293.538 236.816 292.671C239.486 290.842 241.773 288.729 243.86 286.443C246.952 283.058 249.597 279.29 252.445 275.536C254.623 272.621 256.722 269.551 258.66 266.386C260.596 263.217 262.37 259.952 263.979 256.685C264.992 254.614 266.018 252.514 267.111 250.462C267.832 249.106 268.576 247.77 269.392 246.484C271.385 243.337 273.559 240.215 275.874 237.202C278.192 234.189 280.645 231.285 283.252 228.617C284.087 227.765 285.033 227.033 286.033 226.363C288.421 224.76 291.115 223.512 293.458 221.991C293.571 221.924 293.607 221.774 293.539 221.662C293.47 221.55 293.324 221.516 293.211 221.582C290.767 222.962 287.977 224.029 285.492 225.502C284.389 226.157 283.351 226.898 282.419 227.759C279.64 230.331 276.987 233.142 274.503 236.099C272.02 239.056 269.713 242.159 267.571 245.278C266.675 246.584 265.838 247.941 265.053 249.328C263.891 251.379 262.838 253.5 261.778 255.585C260.169 258.77 258.373 261.937 256.471 265.038C254.569 268.144 252.561 271.179 250.448 274.051C247.725 277.811 245.196 281.577 242.233 284.99C240.305 287.213 238.196 289.286 235.708 291.099L229.593 295.48C229.553 295.505 228.818 295.852 228.18 296.277C227.814 296.522 227.529 296.798 227.305 296.952C227.231 297.005 227.149 297.065 227.141 297.072Z" fill="#4B5C49"/>
<path fill-rule="evenodd" clip-rule="evenodd" d="M210.698 250.643C210.667 250.765 210.743 250.891 210.868 250.922C210.992 250.956 211.118 250.879 211.149 250.754C211.37 250.402 211.701 250.167 212.024 249.763C212.191 249.557 212.323 249.308 212.499 249.071C213.101 248.266 213.927 247.435 214.856 246.531C216.019 245.398 217.359 244.188 218.803 242.979C223.713 238.882 229.655 234.76 232.208 232.726C236.038 229.491 239.426 226.676 242.414 223.942C246.017 220.643 249.073 217.487 251.756 214.017C256.552 207.809 260.138 200.595 263.446 189.604C263.55 189.288 263.378 188.947 263.063 188.843C262.748 188.738 262.407 188.91 262.302 189.226C258.519 199.733 254.63 206.523 249.706 212.356C246.97 215.596 243.903 218.523 240.358 221.643C237.34 224.302 233.998 227.114 230.179 230.302C227.354 232.806 220.09 238.224 215.236 243.257C213.327 245.24 211.807 247.172 210.984 248.798C210.927 248.908 210.856 249.011 210.825 249.125C210.696 249.589 210.795 249.956 210.76 250.361C210.751 250.461 210.714 250.55 210.698 250.643Z" fill="#4B5C49"/>
<path fill-rule="evenodd" clip-rule="evenodd" d="M229.585 242.903C229.557 242.874 229.519 242.852 229.475 242.844C229.372 242.828 229.276 242.902 229.26 243.006C229.237 243.113 229.412 243.32 229.858 243.351C230.561 243.397 232.095 243.337 233.968 242.988C235.983 242.616 238.362 241.89 240.521 240.965C245.26 238.901 249.66 236.381 253.826 233.502C257.983 230.63 261.9 227.4 265.726 223.976C271.893 218.28 277.606 211.634 282.059 204.249C286.507 196.873 289.696 188.773 291.004 180.269C291.643 176.098 291.953 171.877 292.066 167.638C292.234 161.33 291.989 154.99 291.973 148.728C291.976 148.542 291.827 148.389 291.641 148.386C291.455 148.384 291.302 148.532 291.3 148.718C291.102 154.965 291.093 161.295 290.747 167.584C290.517 171.757 290.146 175.912 289.425 180.009C287.979 188.246 284.653 196.016 280.235 203.13C275.795 210.281 270.243 216.776 264.195 222.301C260.519 225.767 256.734 229.017 252.733 231.966C248.738 234.908 244.532 237.553 239.962 239.738C238.638 240.375 237.216 240.913 235.857 241.345C235.265 241.534 234.682 241.687 234.132 241.851C232.358 242.38 230.88 242.796 230.071 242.896C229.833 242.924 229.639 242.861 229.585 242.903Z" fill="#4B5C49"/>
<path fill-rule="evenodd" clip-rule="evenodd" d="M225.764 227.184C225.758 227.181 225.752 227.181 225.747 227.177C225.646 227.154 225.543 227.213 225.517 227.313C225.31 227.981 225.227 228.395 225.183 228.599C225.115 228.91 225.311 229.009 225.38 229.053C225.457 229.097 225.582 229.074 225.752 228.951C225.871 228.863 226.09 228.569 226.359 228.111C226.634 227.641 226.953 226.983 227.296 226.232C228.687 223.184 230.442 218.586 230.452 218.564C232.506 213.909 234.352 209.428 236.585 205.08C238.04 202.247 239.65 199.465 241.651 196.756C244.824 192.436 248.356 188.173 252.093 184.106C255.834 180.035 259.781 176.158 263.843 172.665C269.285 167.935 275.186 163.639 280.662 158.91C284.349 155.727 287.842 152.349 290.881 148.521C291.045 148.319 291.015 148.022 290.813 147.858C290.612 147.694 290.316 147.725 290.152 147.927C287.844 150.707 285.288 153.231 282.593 155.611C276.276 161.189 269.198 165.972 262.732 171.356C258.58 174.851 254.52 178.719 250.707 182.82C246.896 186.918 243.333 191.249 240.113 195.622C238.059 198.428 236.376 201.291 234.92 204.239C232.738 208.655 231.044 213.243 229.1 217.985C229.091 218.01 227.414 222.649 226.264 225.804C226.079 226.314 225.909 226.778 225.764 227.184ZM225.363 228.472C225.343 228.515 225.321 228.536 225.295 228.518C225.233 228.478 225.288 228.471 225.363 228.472Z" fill="#4B5C49"/>
<path fill-rule="evenodd" clip-rule="evenodd" d="M207.597 208.455C207.587 208.546 207.645 208.633 207.736 208.657C207.836 208.684 207.932 208.664 207.968 208.52C207.971 208.506 207.957 208.473 207.968 208.42C207.978 208.368 208.048 208.384 208.069 208.219C208.081 208.128 208.01 208.008 207.968 207.859C207.625 206.659 206.744 203.732 206.611 203.314C206.249 202.219 205.796 201.147 205.264 200.107C204.477 198.568 203.523 197.109 202.557 195.709C200.413 192.719 197.987 189.941 195.403 187.303C191.57 183.39 187.398 179.779 183.385 176.136C177.531 170.941 171.893 165.547 166.034 160.385C163.514 158.165 160.951 155.989 158.318 153.887C152.926 149.594 148.24 146.677 143.754 143.083C140.874 140.775 138.077 138.186 135.224 134.758C132.848 131.957 130.147 129.415 127.725 126.662C126.693 125.493 125.716 124.287 124.839 123.003C124.703 122.795 124.421 122.737 124.215 122.874C124.009 123.011 123.948 123.29 124.088 123.498C124.938 124.847 125.897 126.121 126.909 127.356C129.234 130.179 131.852 132.793 134.13 135.66C137.002 139.214 139.834 141.908 142.752 144.317C147.183 147.975 151.821 150.965 157.145 155.339C159.73 157.456 162.236 159.647 164.706 161.878C170.499 167.112 176.077 172.566 181.869 177.829C185.891 181.403 190.053 184.96 193.917 188.785C196.472 191.313 198.902 193.952 201.049 196.818C201.885 197.893 202.702 199.018 203.455 200.182C204.202 201.337 204.892 202.523 205.431 203.767C205.61 204.164 206.802 206.955 207.284 208.095C207.345 208.239 207.365 208.376 207.43 208.437C207.506 208.509 207.536 208.533 207.576 208.482C207.583 208.473 207.59 208.464 207.597 208.455Z" fill="#4B5C49"/>
<path fill-rule="evenodd" clip-rule="evenodd" d="M196.123 137.505C196.018 137.504 195.933 137.587 195.932 137.691C195.93 137.795 196.013 137.881 196.117 137.882C196.335 137.932 196.577 137.69 196.743 137.278C196.947 136.769 197.001 135.977 197.035 135.859C197.327 134.721 197.593 133.588 197.79 132.438C197.988 131.279 198.109 130.11 198.168 128.922C198.308 126.395 198.412 123.901 198.369 121.42C198.326 118.899 198.154 116.399 197.876 113.913C197.323 108.971 196.305 104.087 194.867 99.1622C192.793 92.1278 189.747 85.5499 186.137 79.2811C180.748 69.9244 174.068 61.2672 167.169 53.0133C161.548 46.2185 155.225 39.954 149.424 33.2737C146.956 30.429 144.579 27.5088 142.401 24.4367C140.464 21.7276 138.935 18.8545 137.553 15.914C135.452 11.4416 133.73 6.79294 131.854 2.13811C131.751 1.86529 131.445 1.72895 131.172 1.83322C130.898 1.93786 130.765 2.24452 130.868 2.51735C132.589 7.26419 134.094 12.0312 136.122 16.5714C137.492 19.6282 139.11 22.5707 141.095 25.369C143.316 28.4758 145.732 31.4295 148.245 34.3036C154.065 40.9522 160.418 47.1763 166.06 53.937C172.856 62.1586 179.505 70.7375 184.729 80.0825C188.187 86.2681 191 92.7939 192.892 99.7243C194.224 104.555 195.051 109.349 195.615 114.172C195.899 116.606 196.107 119.048 196.28 121.511C196.451 123.952 196.616 126.406 196.681 128.901C196.7 129.809 196.669 130.708 196.612 131.605C196.526 132.97 196.377 134.323 196.171 135.684L196.123 137.505Z" fill="#4B5C49"/>
<path fill-rule="evenodd" clip-rule="evenodd" d="M176.845 128.843C176.953 128.867 177.06 128.797 177.083 128.689C177.106 128.58 177.037 128.473 176.929 128.45C176.339 128.285 175.813 127.719 175.296 127.015C174.169 125.482 173.195 123.243 172.573 122.215C170.99 119.706 169.521 117.117 168.102 114.493C165.973 110.55 163.977 106.527 161.991 102.54C160.196 98.9782 158.505 95.373 156.843 91.7582C152.953 83.296 149.291 74.74 145.456 66.2298C141.381 57.4667 137.651 48.356 134.684 39.019C131.712 29.6809 129.503 20.1191 128.502 10.4429C128.48 10.2282 128.292 10.0696 128.077 10.0894C127.862 10.1092 127.706 10.2998 127.724 10.5147C128.509 20.286 130.502 29.9737 133.289 39.4471C136.072 48.9191 139.649 58.1717 143.571 67.0853C146.877 74.3755 150.002 81.723 153.347 88.9741C155.582 93.8209 157.925 98.6176 160.415 103.355C162.519 107.301 164.616 111.291 166.876 115.182C168.388 117.786 169.972 120.341 171.657 122.818C172.359 123.808 173.47 126.025 174.755 127.456C175.428 128.205 176.146 128.738 176.845 128.843Z" fill="#4B5C49"/>
<path fill-rule="evenodd" clip-rule="evenodd" d="M183.026 187.647C183.074 187.74 183.187 187.776 183.28 187.729C183.372 187.682 183.409 187.568 183.362 187.475C183.274 187.082 182.854 186.801 182.291 186.624C181.688 186.435 180.939 186.477 180.568 186.441C180.12 186.405 179.69 186.331 179.263 186.255C177.425 185.929 175.73 185.319 173.865 184.971C171.12 184.478 168.355 183.426 165.61 182.198C161.474 180.349 157.409 178.031 153.828 175.944C151.876 174.815 149.895 173.498 147.961 172.109C146.016 170.711 144.122 169.239 142.364 167.806C139.574 165.466 136.476 163.433 133.57 161.193C132.373 160.269 131.202 159.313 130.115 158.269C128.021 156.324 126.104 154.246 124.238 152.136C122.977 150.709 121.716 149.289 120.525 147.806C117.533 144.082 114.805 140.152 112.082 136.177C110.292 133.487 108.429 130.866 106.827 128.093C105.776 126.269 104.837 124.38 104.107 122.365C102.717 118.506 99.7942 114.988 98.1038 111.114C97.3936 109.491 96.8883 107.811 96.8611 105.984C96.8633 105.834 96.7398 105.71 96.5931 105.708C96.4428 105.706 96.3194 105.826 96.3172 105.976C96.2285 107.898 96.6209 109.709 97.2937 111.448C98.8081 115.361 101.71 118.889 102.999 122.751C103.696 124.856 104.615 126.835 105.65 128.752C107.184 131.596 108.981 134.299 110.709 137.067C113.736 142.076 116.825 146.986 120.283 151.65C120.981 152.593 121.673 153.538 122.415 154.448C124.145 156.564 126.042 158.55 128.043 160.468C129.23 161.572 130.493 162.591 131.803 163.552C134.739 165.703 137.897 167.587 140.742 169.814C142.547 171.27 144.486 172.766 146.481 174.186C148.489 175.615 150.549 176.969 152.576 178.129C156.257 180.221 160.392 182.645 164.68 184.381C167.637 185.578 170.662 186.432 173.597 186.777C175.241 186.966 176.763 187.411 178.364 187.599C179.077 187.682 179.8 187.709 180.551 187.669C180.877 187.651 181.498 187.615 182.06 187.586C182.279 187.574 182.465 187.514 182.646 187.536C182.804 187.554 182.941 187.551 183.026 187.647Z" fill="#4B5C49"/>
<path fill-rule="evenodd" clip-rule="evenodd" d="M0.025568 511.408C-0.0298237 511.526 0.0219048 511.662 0.139212 511.718C0.256572 511.77 0.393326 511.718 0.448718 511.601C0.864411 510.825 1.30125 510.072 1.724 509.304C3.40788 506.228 5.15882 503.217 7.10128 500.328C10.712 494.947 14.8401 489.917 19.592 485.312C27.0231 478.104 35.8825 471.874 46.1589 466.651C53.2237 462.983 60.5727 459.207 67.8182 455.417C72.6943 452.864 77.5204 450.299 82.1884 447.779C100.474 437.93 119.385 426.892 136.43 413.803C147.871 405.015 158.473 395.305 167.462 384.389C177.886 371.637 185.011 359.253 190.527 346.111C196.015 333.032 199.913 319.2 203.69 303.413C205.438 296.112 207.364 289.003 208.918 281.775C209.956 276.951 210.828 272.072 211.371 267.051C214.183 241.296 211.762 214.927 206.261 188.916C205.449 185.079 204.574 181.25 203.614 177.439C194.811 142.511 180.904 108.616 168.258 77.8714C168.217 77.7626 168.092 77.7092 167.984 77.7527C167.872 77.7963 167.821 77.9199 167.866 78.0288C179.803 108.966 192.593 143.15 200.954 178.094C201.862 181.889 202.742 185.687 203.557 189.493C209.074 215.232 211.796 241.301 209.202 266.819C208.692 271.772 207.858 276.58 206.859 281.337C205.342 288.555 203.446 295.656 201.733 302.947C198.044 318.635 194.301 332.42 188.834 345.398C183.371 358.362 176.19 370.512 165.817 383.032C156.938 393.831 146.469 403.45 135.151 412.132C118.194 425.144 99.345 436.064 81.143 445.825L45.1109 464.625C34.7376 470.119 25.8066 476.599 18.3752 484.076C13.6315 488.849 9.45509 494 5.97367 499.598C4.11207 502.589 2.40992 505.69 0.995451 508.945C0.643649 509.758 0.338216 510.581 0.025568 511.408Z" fill="#4B5C49"/>
<path fill-rule="evenodd" clip-rule="evenodd" d="M59.5878 457.767C59.5815 457.713 59.5787 457.659 59.5795 457.605C59.5812 457.484 59.6403 457.355 59.6818 457.209C59.723 457.088 59.6605 456.954 59.5358 456.917C59.4147 456.875 59.2848 456.942 59.2437 457.063C59.1988 457.195 59.1827 457.324 59.1346 457.43C58.8573 458.043 58.813 458.383 58.8954 458.624C59.0465 459.06 59.6671 459.209 60.4836 458.69C60.9134 458.417 61.4406 457.851 62.018 457.031C63.2677 455.268 64.6867 452.192 65.5937 447.897C66.1005 445.281 66.5253 442.896 66.7411 440.602C66.9018 438.898 66.9544 437.246 66.8887 435.604C66.7269 431.709 65.9093 427.873 64.2557 423.429C62.1041 417.545 59.7643 411.809 57.5244 406.084C54.1216 397.386 50.8827 388.737 48.1942 379.892C46.418 374.034 44.9512 368.07 43.8412 361.932C43.1223 357.951 42.5298 353.895 42.2002 349.722C42.1825 349.46 41.9564 349.26 41.6948 349.278C41.4298 349.292 41.2296 349.518 41.2472 349.784C41.4365 354.005 41.8385 358.125 42.485 362.164C43.4792 368.382 45.0097 374.397 46.7742 380.319C49.4262 389.214 52.7689 397.865 56.0201 406.658C58.145 412.405 60.2045 418.227 62.1513 424.162C63.2231 427.5 63.7922 430.462 64.015 433.358C64.1199 434.764 64.1177 436.151 64.0937 437.56C64.0417 440.649 63.7663 443.842 63.2336 447.501C62.8817 450.051 62.2678 452.15 61.6568 453.804C61.0758 455.369 60.5114 456.529 59.9931 457.217C59.8471 457.412 59.6931 457.664 59.5878 457.767ZM59.5878 457.767C59.537 457.816 59.4975 457.826 59.4731 457.783C59.4348 457.707 59.5026 457.719 59.5878 457.767ZM59.5878 457.767C59.7227 457.844 59.8993 458.011 59.7873 458.082C59.7006 458.134 59.6172 457.964 59.5878 457.767Z" fill="#4B5C49"/>
<path fill-rule="evenodd" clip-rule="evenodd" d="M62.1643 418.331C62.1389 418.359 62.1169 418.391 62.1092 418.431C62.0978 418.473 62.4185 418.822 62.5876 418.513C62.6242 418.452 62.6437 418.349 62.7309 418.257C62.8873 418.087 63.1343 418.083 63.3706 417.829C64.2832 416.846 65.0835 414.728 65.3742 413.929C65.848 412.607 66.1502 411.267 66.3382 409.9C66.6065 407.94 66.646 405.952 66.9502 403.985C67.5831 399.585 67.4823 395.182 66.9587 390.813C66.1795 384.328 64.458 377.913 62.6832 371.708C56.694 349.843 43.3138 332.168 38.169 311.312C37.0838 306.92 36.3943 302.387 36.1697 297.642C35.9614 293.252 36.1423 288.674 36.9102 283.85C36.9768 283.456 36.7102 283.083 36.321 283.02C35.9282 282.954 35.5558 283.217 35.4892 283.61C34.6125 288.533 34.2904 293.22 34.4756 297.717C34.6735 302.581 35.4581 307.219 36.5956 311.705C41.8872 332.56 55.4367 350.158 61.6016 372.007C63.2659 378.171 64.9166 384.539 65.5535 390.968C65.9752 395.207 65.9455 399.472 65.2218 403.712C64.8627 406.019 64.7824 408.347 64.4662 410.647C64.3381 411.588 64.1884 412.529 63.9208 413.457C63.702 414.231 62.5627 416.032 62.3013 417.276C62.2285 417.608 62.3686 417.814 62.3153 418.036C62.2886 418.154 62.2158 418.231 62.1828 418.288C62.1754 418.302 62.1681 418.317 62.1643 418.331Z" fill="#4B5C49"/>
<path fill-rule="evenodd" clip-rule="evenodd" d="M51.8274 416.127C51.7827 416.248 51.8452 416.382 51.9663 416.423C52.0873 416.468 52.2207 416.405 52.2654 416.284C52.7158 415.337 52.3073 414.378 51.4573 413.513C49.9866 412.011 47.0643 410.897 46.19 410.225C43.5202 408.236 40.8856 405.295 38.6237 402.083C36.3723 398.881 34.4973 395.399 33.3719 392.297C31.7117 387.821 30.4049 383.408 29.3693 379.045C27.73 372.143 26.8623 365.346 26.7178 358.53C26.4827 347.347 28.1705 336.11 31.8484 324.371C31.9681 324.015 31.7732 323.632 31.4206 323.512C31.0644 323.396 30.6822 323.587 30.5625 323.944C26.4287 335.776 24.1947 347.163 24.2226 358.562C24.2391 365.566 25.1074 372.575 26.8408 379.657C27.9358 384.114 29.4099 388.587 31.198 393.129C32.497 396.352 34.5816 399.945 37.0789 403.218C39.5726 406.491 42.461 409.45 45.3351 411.42C46.2498 412.025 49.1346 413.006 50.7841 414.273C51.4921 414.818 52.0065 415.377 51.8274 416.127Z" fill="#4B5C49"/>
<path fill-rule="evenodd" clip-rule="evenodd" d="M30.1828 476.182C30.4016 476.146 30.7279 476.104 31.0323 476.094C31.4942 476.08 32.0157 476.152 32.6098 476.157C33.7514 476.17 35.0693 476.117 36.3431 476.143C38.8728 476.194 41.1865 476.331 41.4404 476.349C45.0918 476.546 48.6818 477.031 52.2872 477.449C54.7134 477.728 57.1439 477.957 59.5741 478.204C62.201 478.468 64.8283 478.696 67.4706 478.881C83.8478 479.943 93.8046 479.722 103.491 477.192C112.821 474.758 121.9 470.176 136.278 462.489C136.559 462.346 136.672 462 136.529 461.718C136.383 461.436 136.037 461.324 135.756 461.467C121.308 468.537 112.206 472.749 102.92 474.836C93.3935 476.974 83.6887 476.844 67.7626 475.283C62.5186 474.827 57.3406 474.017 52.1172 473.623C48.5884 473.356 45.0526 473.33 41.4829 473.422C41.0853 473.437 35.7764 473.507 32.341 474.207C31.0415 474.471 30.041 474.851 29.546 475.173C29.1629 475.426 28.9661 475.674 28.959 475.914C28.9552 476.179 29.0637 476.593 29.7043 476.842C29.9032 476.953 30.1548 476.877 30.2614 476.682C30.357 476.511 30.317 476.306 30.1828 476.182Z" fill="#4B5C49"/>
<path fill-rule="evenodd" clip-rule="evenodd" d="M65.6092 480.381C65.6317 480.31 65.6221 480.231 65.5765 480.169C65.4992 480.068 65.3528 480.044 65.2515 480.121C64.8483 480.28 64.855 480.56 64.8703 480.736C64.8889 480.937 65.1397 481.166 65.6239 481.342C66.5284 481.663 68.54 481.649 69.4085 481.981C71.7381 482.753 74.0577 483.475 76.3618 484.275C77.8753 484.803 79.3811 485.366 80.8716 485.997C85.1302 487.765 89.3547 488.923 93.6541 489.602C99.9962 490.6 106.485 490.583 113.422 490.315C118.78 490.099 123.943 488.686 128.888 486.615C136.194 483.552 143.024 479.056 149.325 474.986C157.531 469.668 164.911 465.22 172.718 461.838C175.956 460.434 179.273 459.238 182.743 458.192C187.576 456.735 192.709 455.583 198.435 454.907C198.905 454.863 199.249 454.442 199.203 453.975C199.158 453.505 198.741 453.158 198.272 453.205C190.28 453.835 183.329 455.268 176.842 457.532C166.901 461.001 158.055 466.332 147.949 472.855C141.775 476.855 135.082 481.281 127.916 484.296C123.249 486.257 118.379 487.62 113.319 487.833C107.699 488.078 102.384 488.108 97.1867 487.628C91.936 487.143 86.8074 486.137 81.6071 484.144C80.0516 483.558 78.4877 483.048 76.9126 482.574C74.5713 481.866 72.2183 481.233 69.8517 480.55C69.4486 480.451 68.8553 480.396 68.2184 480.383C67.3667 480.371 66.4362 480.364 65.8457 480.359C65.767 480.362 65.681 480.368 65.6092 480.381Z" fill="#4B5C49"/>
<path fill-rule="evenodd" clip-rule="evenodd" d="M108.377 432.718C108.349 432.714 108.324 432.717 108.295 432.724C108.169 432.755 108.096 432.883 108.126 433.005C107.972 433.243 108.275 433.122 108.391 433.231C108.458 433.293 108.47 433.229 108.78 433.083C108.917 433.02 109.073 432.861 109.259 432.598C109.804 431.843 110.334 430.342 110.526 429.95C111.265 428.348 112.139 426.805 112.907 425.203C113.438 424.1 113.909 422.967 114.305 421.811C115.427 418.48 116.285 415.084 116.833 411.633C117.648 406.487 117.828 401.246 117.864 396.042C117.889 391.86 117.177 387.659 116.107 383.465C113.713 374.086 109.507 364.742 108.145 355.7C107.097 348.76 104.728 342.83 102.692 337.134C101.753 334.514 100.87 331.95 100.274 329.335C99.7763 327.149 99.4649 324.929 99.4482 322.628C99.4512 322.42 99.2855 322.249 99.0779 322.246C98.8704 322.243 98.6997 322.409 98.6967 322.617C98.5665 326.163 99.1079 329.555 100 332.941C101.879 340.09 105.265 347.218 106.399 355.947C107.601 365.065 111.644 374.54 113.884 384.013C114.831 388.02 115.446 392.025 115.352 396.006C115.262 400.245 114.982 404.495 114.488 408.71C113.994 412.893 113.293 417.051 112.078 421.105C111.841 421.926 111.55 422.728 111.249 423.531C110.515 425.473 109.682 427.382 108.992 429.326C108.861 429.74 108.303 431.205 108.132 432.113C108.082 432.377 108.235 432.673 108.109 432.679C108.023 432.684 108.215 432.77 108.22 432.734C108.236 432.605 108.303 432.671 108.377 432.718ZM108.466 432.748C108.474 432.745 108.481 432.745 108.488 432.741C108.517 432.735 108.516 432.753 108.516 432.781C108.502 432.767 108.484 432.756 108.466 432.748Z" fill="#4B5C49"/>
<path fill-rule="evenodd" clip-rule="evenodd" d="M116.599 386.795C116.48 386.836 116.418 386.971 116.459 387.09C116.5 387.212 116.635 387.275 116.754 387.234C117.501 387.069 118.184 386.334 118.729 385.299C119.708 383.431 120.16 380.631 120.41 379.481C120.889 377.308 121.391 375.208 121.751 373.099C122.119 370.921 122.362 368.745 122.476 366.557C122.622 363.674 122.492 360.758 122.068 357.72C120.847 348.594 118.601 339.34 115.546 330.36C112.494 321.401 108.633 312.711 103.948 304.779C102.827 302.878 101.612 301.039 100.342 299.236C96.8177 294.246 92.8956 289.515 89.2624 284.602C87.7108 282.508 86.1953 280.396 84.8244 278.183C84.6566 277.901 84.2929 277.809 84.0149 277.977C83.7332 278.145 83.6421 278.506 83.8098 278.788C84.8951 280.707 86.0599 282.573 87.3113 284.387C92.2612 291.545 98.2085 298.047 102.613 305.57C107.209 313.422 111.061 321.997 113.964 330.889C116.859 339.78 118.801 348.977 119.812 357.999C120.121 360.903 120.084 363.677 119.933 366.42C119.817 368.544 119.597 370.644 119.376 372.774C119.156 374.882 118.967 377.012 118.724 379.205C118.601 380.315 118.308 382.959 117.704 384.871C117.419 385.763 117.147 386.516 116.599 386.795Z" fill="#4B5C49"/>
<path fill-rule="evenodd" clip-rule="evenodd" d="M114.152 393.666C114.186 393.785 114.31 393.854 114.428 393.82C114.551 393.783 114.617 393.658 114.583 393.539C114.499 392.922 114.299 392.352 113.964 391.81C113.659 391.314 113.225 390.885 112.77 390.452C111.474 389.215 109.797 388.119 108.4 386.987C107.82 386.52 107.29 386.057 106.904 385.535C105.499 383.637 104.316 381.552 103.224 379.4C101.557 376.128 100.132 372.692 98.73 369.417C97.9923 367.718 97.3411 365.97 96.7369 364.198C95.3088 360.005 94.1404 355.676 92.7979 351.506C91.7926 348.513 90.8374 345.521 89.8965 342.532C88.4801 338.031 87.1279 333.539 86.031 328.967C84.8228 323.928 83.884 318.818 83.3626 313.563C82.88 308.588 82.8209 304.025 82.9897 299.547C83.2504 292.68 84.0306 286.021 84.5094 278.425C84.5266 278.232 84.3822 278.065 84.1927 278.052C83.9997 278.034 83.833 278.179 83.8194 278.372C83.1294 285.964 82.1955 292.61 81.72 299.482C81.4073 304.015 81.29 308.64 81.5996 313.702C81.9924 320.421 83.0324 326.942 84.5067 333.379C85.9742 339.794 87.8796 346.116 89.8741 352.471C91.0642 356.04 92.113 359.733 93.3312 363.349C94.1616 365.813 95.0749 368.238 96.1433 370.576C97.6669 373.86 99.1878 377.33 101.023 380.583C102.272 382.802 103.67 384.915 105.26 386.831C105.784 387.462 106.463 388.052 107.253 388.569C108.739 389.544 110.582 390.316 112.012 391.362C112.455 391.688 112.84 392.045 113.193 392.412C113.573 392.804 113.922 393.182 114.152 393.666Z" fill="#4B5C49"/>
<path fill-rule="evenodd" clip-rule="evenodd" d="M142.909 406.316C142.792 406.271 142.655 406.334 142.61 406.451C142.565 406.573 142.624 406.706 142.745 406.751C143.693 407.306 144.986 407.493 146.455 407.35C149.323 407.069 152.609 405.525 154.426 404.91C156.927 403.978 159.638 403.344 162.409 402.803C166.601 401.989 170.929 401.443 174.925 400.877C182.159 399.645 189.461 399.425 196.706 398.559C199.862 398.182 203.005 397.686 206.127 396.939C213.655 395.163 221.244 391.994 228.349 387.939C235.403 383.916 241.986 379.022 247.472 373.611C248.701 372.406 249.826 371.061 250.894 369.646C253.317 366.437 255.441 362.87 257.832 359.804C257.993 359.595 257.958 359.297 257.752 359.136C257.547 358.975 257.249 359.011 257.087 359.216C254.666 362.263 252.509 365.813 250.053 369.003C249.004 370.361 247.9 371.656 246.696 372.811C241.206 378.057 234.67 382.834 227.628 386.638C220.594 390.439 213.062 393.269 205.653 394.782C202.596 395.401 199.527 395.768 196.45 396.025C189.12 396.635 181.757 396.604 174.426 397.583C170.384 398.241 165.989 398.826 161.772 399.815C158.863 400.494 156.045 401.374 153.455 402.501C152.002 403.19 149.542 404.541 147.174 405.407C146.444 405.672 145.729 405.873 145.061 406.039C144.256 406.242 143.566 406.426 142.909 406.316Z" fill="#4B5C49"/>
<path fill-rule="evenodd" clip-rule="evenodd" d="M177.796 401.751C179.243 401.714 181.664 401.778 182.039 401.848C183.285 402.006 184.518 402.264 185.743 402.572C188.66 403.302 191.528 404.33 194.401 405.099C196.756 405.717 199.093 406.375 201.438 406.972C207.003 408.386 212.568 409.613 218.2 410.337C223.561 411.024 228.99 411.217 234.571 410.563C247.045 409.149 256.903 402.357 264.872 393.114C270.528 386.555 275.266 378.781 279.243 370.81C283.404 362.469 286.74 353.93 289.653 346.481C289.768 346.196 289.629 345.871 289.343 345.756C289.057 345.641 288.732 345.779 288.617 346.064C285.595 353.429 282.076 361.844 277.855 370.109C273.862 377.922 269.248 385.615 263.648 392.053C255.93 400.927 246.401 407.448 234.37 408.74C228.941 409.306 223.671 409.033 218.47 408.308C212.922 407.54 207.465 406.206 201.963 404.861C199.613 404.286 197.249 403.735 194.878 403.178C191.974 402.508 189.065 401.584 186.117 400.954C184.821 400.677 183.518 400.454 182.205 400.334C181.706 400.316 177.948 400.695 176.863 401.042C176.099 401.285 175.778 401.979 177.536 402.008C177.663 402.025 177.78 401.933 177.796 401.808C177.799 401.786 177.798 401.768 177.796 401.751Z" fill="#4B5C49"/>
<path fill-rule="evenodd" clip-rule="evenodd" d="M191.214 398.002C191.196 398.002 191.178 398.002 191.159 398.005C191.12 398.015 191.086 398.029 191.057 398.054C191.094 398.044 191.148 398.037 191.199 398.031C191.147 398.116 191.095 398.151 191.04 398.115C191.029 398.107 191.021 398.1 191.018 398.093C190.979 398.146 190.961 398.21 190.974 398.278C190.853 398.506 190.978 398.58 191.011 398.666C191.101 398.904 191.389 398.879 191.672 398.604C191.935 398.346 192.344 396.789 192.766 396.297L197.696 390.917C200.212 388.233 202.804 385.697 205.476 383.249C208.149 380.796 210.902 378.435 213.758 376.125C218.821 371.937 224.306 368.4 229.88 365.001C238.326 359.851 247.007 355.063 255.086 349.42C258.466 347.057 261.737 344.542 264.826 341.762C264.994 341.618 265.01 341.36 264.863 341.193C264.715 341.022 264.459 341.008 264.292 341.156C261.172 343.842 257.88 346.263 254.479 348.526C246.289 353.97 237.445 358.422 228.953 363.457C223.261 366.833 217.742 370.488 212.608 374.729C209.774 377.121 207.039 379.558 204.4 382.097C201.761 384.636 199.218 387.273 196.749 390.047C195.619 391.317 194.437 392.587 193.343 393.915C192.868 394.489 192.417 395.077 191.979 395.673C191.664 396.106 191.448 397.561 191.214 398.002ZM191.057 398.054C191.025 398.064 191.007 398.075 191.018 398.093C191.029 398.079 191.042 398.064 191.057 398.054ZM191.289 398.018C191.299 398.018 191.307 398.014 191.313 398.015C191.414 397.98 191.545 398.201 191.545 398.201C191.545 398.201 191.481 398.236 191.43 398.192C191.415 398.109 191.36 398.048 191.289 398.018Z" fill="#4B5C49"/>
<path fill-rule="evenodd" clip-rule="evenodd" d="M180.138 363.996C180.164 364.118 180.287 364.199 180.413 364.175C180.538 364.148 180.619 364.024 180.593 363.898C180.6 363.594 180.666 363.312 180.707 362.993C180.791 362.335 180.927 361.652 181.11 360.931C181.725 358.503 182.78 355.826 183.004 353.69C183.303 349.192 183.114 344.777 182.441 340.427C181.771 336.095 180.623 331.838 179.194 327.598C177.171 321.594 174.919 315.522 172.476 309.526C170.034 303.53 167.4 297.614 164.547 291.949C158.759 280.42 152.585 269.288 147.687 257.586C144.453 249.847 141.759 241.858 140.161 233.311C140.128 233.121 139.948 232.993 139.757 233.03C139.567 233.063 139.439 233.244 139.472 233.434C140.947 242.072 143.503 250.17 146.671 258.005C151.44 269.791 157.58 280.973 163.289 292.575C166.067 298.236 168.644 304.133 170.988 310.121C173.333 316.116 175.442 322.2 177.348 328.206C178.666 332.358 179.645 336.537 180.287 340.758C180.926 344.964 181.229 349.219 180.996 353.571C180.964 355.968 179.648 359.128 179.688 361.792C179.7 362.606 179.87 363.329 180.138 363.996Z" fill="#4B5C49"/>
<path fill-rule="evenodd" clip-rule="evenodd" d="M175.224 319.355C175.262 319.524 175.43 319.63 175.597 319.589C175.765 319.552 175.87 319.385 175.832 319.216C175.708 318.595 175.01 317.889 174.062 317.219C172.344 316.001 169.803 314.849 168.968 314.407C164.611 312.208 160.245 310.18 156.228 307.599C153.603 305.915 151.133 303.991 148.916 301.625C145.148 297.628 141.381 292.795 137.949 287.581C135.785 284.291 133.752 280.85 131.996 277.326C128.938 271.199 126.679 264.847 125.945 258.718C125.414 254.599 125.421 250.431 125.714 246.256C126.157 239.933 127.236 233.612 128.066 227.448C128.106 227.19 127.927 226.948 127.67 226.908C127.413 226.869 127.17 227.044 127.131 227.305C126.079 233.466 124.784 239.784 124.116 246.115C123.664 250.398 123.502 254.69 123.894 258.947C124.696 266.84 127.785 275.204 132.165 282.909C136.507 290.549 142.104 297.523 147.518 302.985C149.925 305.378 152.574 307.305 155.377 308.977C159.522 311.449 163.993 313.364 168.465 315.443C169.208 315.773 171.267 316.534 172.949 317.447C174.08 318.062 175.058 318.711 175.224 319.355Z" fill="#4B5C49"/>
<path fill-rule="evenodd" clip-rule="evenodd" d="M174.254 317.487C174.245 317.613 174.342 317.725 174.469 317.734C174.597 317.743 174.708 317.648 174.717 317.519C174.795 317.269 174.947 317.049 175.069 316.764C175.471 315.831 175.99 314.688 176.444 313.605C176.721 312.946 176.933 312.293 177.027 311.696C177.503 308.664 177.819 305.367 177.934 302.064C178.049 298.75 177.96 295.434 177.661 292.372C176.66 283.253 172.999 273.734 167.997 264.601C160.657 251.204 150.446 238.636 141.693 229.366C141.545 229.21 141.302 229.203 141.146 229.347C140.99 229.492 140.983 229.739 141.127 229.895C149.729 239.203 159.736 251.811 166.897 265.198C171.717 274.21 175.25 283.573 176.15 292.529C176.488 295.531 176.613 298.78 176.562 302.03C176.511 305.28 176.286 308.535 175.886 311.533C175.719 312.932 174.668 314.655 174.331 316.148C174.22 316.634 174.212 317.082 174.254 317.487Z" fill="#4B5C49"/>
<path fill-rule="evenodd" clip-rule="evenodd" d="M198.882 320.87C198.826 320.837 198.837 320.844 198.882 320.87ZM198.882 320.87C198.902 320.881 198.93 320.896 198.961 320.914C198.901 320.945 198.854 320.998 198.838 321.07C198.741 321.197 198.896 321.257 198.938 321.326C198.957 321.355 199.047 321.36 199.262 321.305C199.352 321.285 199.516 321.266 199.756 321.123C200.725 320.542 202.592 318.522 203.135 318.114C204.262 317.209 205.429 316.352 206.628 315.541C207.827 314.731 209.057 313.967 210.307 313.236L232.661 299.983C247.226 291.395 262.855 282.199 274.296 269.759C281.998 261.384 287.799 251.547 290.155 239.498C290.207 239.241 290.043 238.991 289.789 238.941C289.534 238.887 289.285 239.052 289.233 239.309C286.702 251.072 280.814 260.585 273.137 268.675C261.622 280.809 246.066 289.737 231.544 298.057C228.545 299.809 225.553 301.579 222.599 303.411C218.176 306.157 213.82 309.008 209.429 311.797C208.181 312.596 206.954 313.428 205.759 314.306C204.561 315.185 203.394 316.104 202.272 317.073C201.989 317.32 201.287 317.991 200.612 318.734C200.03 319.374 199.408 320.014 199.124 320.468C198.992 320.678 199.019 320.94 198.947 320.903C198.919 320.888 198.898 320.877 198.882 320.87Z" fill="#4B5C49"/>
</g>
</svg>
