<svg width="368" height="621" viewBox="0 0 368 621" fill="none" xmlns="http://www.w3.org/2000/svg">
<g opacity="0.5">
<path fill-rule="evenodd" clip-rule="evenodd" d="M261.858 141.995C261.946 142.09 262.093 142.094 262.188 142.006C262.279 141.916 262.284 141.769 262.198 141.679C262.113 141.57 261.114 141.156 259.433 140.686C258.336 140.382 256.943 140.064 255.358 139.71C246.03 137.624 230.084 134.601 227.975 134.275C218.416 132.906 209.901 129.402 202.028 125.158C188.784 118.019 177.382 108.682 166.547 102.722C166.225 102.541 165.817 102.655 165.636 102.977C165.455 103.298 165.569 103.707 165.891 103.888C176.627 110.071 187.78 119.807 200.997 127.054C209.051 131.469 217.871 134.915 227.697 136.27L261.858 141.995Z" fill="#B5BDA6"/>
<path fill-rule="evenodd" clip-rule="evenodd" d="M47.3503 354.409C47.3952 354.459 47.4724 354.463 47.5219 354.417C47.572 354.372 47.576 354.295 47.531 354.245C47.2028 353.882 46.9487 353.786 46.7673 353.794C46.5593 353.804 46.3806 353.948 46.2507 354.248C45.9343 354.981 46.0558 356.655 45.9444 357.379C45.71 358.923 45.6589 360.432 45.7001 361.94C45.7124 362.396 45.727 362.85 45.7628 363.305C45.9025 365.077 46.2015 366.843 46.4189 368.657C47.0364 373.634 48.0138 378.658 49.3141 383.601C50.6123 388.536 52.2332 393.389 54.0123 398.063C60.5952 415.211 66.2505 429.312 75.6349 441.09C81.808 448.835 89.586 455.579 100.318 461.515C100.436 461.581 100.592 461.539 100.659 461.418C100.727 461.297 100.682 461.143 100.564 461.077C89.9909 455.069 82.3461 448.303 76.3186 440.549C67.1407 428.74 61.7171 414.651 55.3948 397.538C53.6653 392.901 52.1346 388.077 50.8417 383.195C49.5486 378.318 48.4893 373.379 47.8283 368.473C47.5781 366.673 47.3106 364.916 47.0742 363.163C47.015 362.724 46.9456 362.289 46.8926 361.85C46.7178 360.409 46.6259 358.958 46.7095 357.458C46.7443 356.809 46.5604 355.442 46.654 354.612C46.667 354.496 46.6937 354.394 46.7103 354.304C46.7309 354.193 46.6985 354.096 46.7593 354.05C46.8825 353.958 47.0674 354.096 47.3503 354.409Z" fill="#B5BDA6"/>
<path fill-rule="evenodd" clip-rule="evenodd" d="M75.1057 223.461C75.3222 223.558 75.5765 223.461 75.6751 223.242C75.772 223.025 75.6746 222.772 75.4585 222.675C74.4485 222.177 73.3981 221.792 72.3236 221.459C69.9191 220.712 67.409 220.232 65.0531 219.251C59.03 216.888 53.291 214.408 47.3341 212.428C43.3499 211.102 39.2675 210.009 34.9561 209.285C27.3728 208.078 17.1645 209.732 7.56111 213.176C-1.96688 216.596 -10.8859 221.759 -16.0938 227.396C-19.9332 231.582 -24.136 237.37 -27.7337 243.395C-31.462 249.638 -34.5415 256.133 -35.874 261.371C-35.9193 261.542 -35.8178 261.716 -35.6477 261.761C-35.4776 261.806 -35.3026 261.703 -35.2589 261.536C-33.8369 256.385 -30.6669 250.023 -26.8508 243.935C-23.1739 238.069 -18.894 232.459 -15.012 228.417C-9.86434 223.019 -1.09368 218.211 8.19803 214.996C17.4904 211.781 27.316 210.157 34.6158 211.368C38.8301 212.029 42.8181 213.073 46.725 214.306C52.6827 216.181 58.4492 218.506 64.4892 220.732C67.2957 221.699 70.2619 222 73.0775 222.781C73.7637 222.976 74.4431 223.19 75.1057 223.461Z" fill="#B5BDA6"/>
<path fill-rule="evenodd" clip-rule="evenodd" d="M66.8485 228.834C66.9508 228.892 67.0824 228.864 67.1513 228.766C67.2474 228.683 67.2546 228.517 66.9935 228.36C66.903 228.308 66.6939 228.243 66.4008 228.15C66.1783 228.082 65.9406 227.989 65.6618 227.936C64.8623 227.788 63.9717 227.798 63.9212 227.796C62.8706 227.743 61.8308 227.739 60.792 227.814C59.265 227.927 57.7554 228.191 56.2286 228.39C53.0208 228.816 50.0256 229.668 47.1316 230.764C42.8438 232.388 38.7817 234.555 34.5446 236.618C31.2853 238.234 28.0256 240.025 24.8672 241.974C21.7084 243.927 18.6511 246.038 15.7399 248.226C13.9 249.616 12.0366 251.026 10.134 252.363C8.8791 253.247 7.61163 254.104 6.30249 254.882C3.10327 256.789 -0.246966 258.593 -3.67368 260.235C-7.10198 261.877 -10.602 263.359 -14.1339 264.562C-15.2634 264.944 -16.4375 265.17 -17.6328 265.316C-20.4872 265.668 -23.4545 265.564 -26.2319 265.863C-26.3625 265.872 -26.4625 265.989 -26.4523 266.12C-26.4421 266.251 -26.3269 266.348 -26.1964 266.339C-23.3919 266.212 -20.4211 266.52 -17.5385 266.329C-16.259 266.243 -14.9987 266.05 -13.7783 265.703C-10.1363 264.664 -6.49982 263.354 -2.94818 261.838C0.602823 260.322 4.0626 258.596 7.38263 256.78C8.77211 256.02 10.1314 255.187 11.458 254.304C13.4211 252.999 15.3189 251.583 17.2066 250.202C20.0802 248.087 23.1138 246.073 26.2115 244.165C29.3112 242.254 32.4733 240.452 35.6557 238.844C39.7841 236.72 43.7415 234.502 47.926 232.796C50.6506 231.684 53.4683 230.787 56.5074 230.293L63.9414 229.146C63.9886 229.143 64.8013 229.164 65.5624 229.074C66 229.02 66.3783 228.903 66.6477 228.866C66.7377 228.853 66.8382 228.837 66.8485 228.834Z" fill="#B5BDA6"/>
<path fill-rule="evenodd" clip-rule="evenodd" d="M60.5466 277.684C60.6285 277.589 60.6177 277.442 60.5204 277.358C60.4248 277.272 60.2776 277.283 60.194 277.381C59.838 277.595 59.4365 277.656 58.9652 277.87C58.7238 277.978 58.4938 278.14 58.2289 278.273C57.3287 278.719 56.2167 279.087 54.9789 279.473C53.4296 279.96 51.6876 280.434 49.8533 280.86C43.6217 282.297 36.4592 283.291 33.262 283.952C28.3843 285.109 24.0899 286.089 20.1888 287.179C15.4844 288.495 11.332 289.93 7.3714 291.815C0.288043 295.186 -6.16976 300.003 -14.0848 308.314C-14.3208 308.549 -14.3219 308.931 -14.0879 309.166C-13.8535 309.402 -13.4717 309.403 -13.2361 309.168C-5.11395 301.503 1.42203 297.202 8.44996 294.222C12.3547 292.567 16.413 291.342 20.9849 290.159C24.8783 289.15 29.1305 288.151 33.9779 287.032C37.6288 286.074 46.5569 284.521 53.1609 282.223C55.7604 281.316 57.9887 280.28 59.4579 279.201C59.558 279.128 59.6681 279.068 59.7477 278.98C60.0716 278.624 60.1492 278.252 60.3637 277.907C60.4166 277.822 60.4896 277.759 60.5466 277.684Z" fill="#B5BDA6"/>
<path fill-rule="evenodd" clip-rule="evenodd" d="M40.1991 276.058C40.2111 276.096 40.2353 276.133 40.2713 276.16C40.3559 276.221 40.4749 276.198 40.5355 276.113C40.6045 276.027 40.5425 275.764 40.1583 275.534C39.5519 275.176 38.156 274.536 36.3279 274.002C34.3619 273.424 31.9117 272.996 29.5675 272.847C24.4069 272.548 19.3433 272.809 14.3262 273.495C9.32009 274.18 4.36618 275.292 -0.593974 276.619C-8.66882 278.915 -16.7672 282.264 -24.0758 286.841C-31.3764 291.413 -37.8808 297.199 -42.8884 304.194C-45.343 307.627 -47.5257 311.253 -49.5414 314.985C-52.5408 320.536 -55.1861 326.303 -58.0002 331.897C-58.0866 332.061 -58.023 332.265 -57.8585 332.351C-57.6937 332.438 -57.4902 332.374 -57.4038 332.21C-54.4057 326.725 -51.5379 321.082 -48.3891 315.628C-46.2987 312.009 -44.0914 308.469 -41.5976 305.14C-36.5862 298.444 -30.109 293.014 -22.9541 288.663C-15.7627 284.289 -7.87556 281.002 0.0157281 278.805C4.86078 277.372 9.70608 276.183 14.6074 275.359C19.5007 274.539 24.4476 274.079 29.5116 274.194C30.9807 274.224 32.4928 274.386 33.9005 274.615C34.5134 274.714 35.1027 274.841 35.6672 274.943C37.4898 275.272 38.9958 275.568 39.7627 275.845C39.9878 275.926 40.1319 276.071 40.1991 276.058Z" fill="#B5BDA6"/>
<path fill-rule="evenodd" clip-rule="evenodd" d="M36.5087 291.807C36.5121 291.813 36.5172 291.816 36.5206 291.822C36.6003 291.888 36.7186 291.881 36.7868 291.804C37.2734 291.302 37.5343 290.97 37.6657 290.808C37.867 290.561 37.7367 290.384 37.6948 290.313C37.6464 290.239 37.5247 290.204 37.3172 290.236C37.1713 290.261 36.8426 290.425 36.3956 290.712C35.9384 291.006 35.3569 291.45 34.7108 291.965C32.0936 294.056 28.4509 297.366 28.4323 297.381C24.4973 300.606 20.8259 303.77 16.8696 306.641C14.2921 308.511 11.5989 310.265 8.58982 311.778C3.80735 314.199 -1.26866 316.407 -6.44066 318.348C-11.6164 320.29 -16.8895 321.966 -22.0909 323.248C-29.0825 325.009 -36.288 326.177 -43.3091 327.922C-48.0366 329.097 -52.6793 330.533 -57.1198 332.575C-57.3571 332.681 -57.4638 332.96 -57.3582 333.197C-57.2527 333.434 -56.9744 333.54 -56.7374 333.435C-53.4222 331.996 -50.002 330.899 -46.5228 329.993C-38.3666 327.87 -29.892 326.8 -21.6915 324.917C-16.4083 323.674 -11.0391 322.058 -5.78409 320.121C-0.533421 318.186 4.60197 315.932 9.44997 313.485C12.5495 311.909 15.3445 310.115 17.9751 308.143C21.9166 305.188 25.5001 301.86 29.3772 298.508C29.3964 298.489 32.9881 295.108 35.439 292.813C35.834 292.441 36.1953 292.104 36.5087 291.807ZM37.4479 290.839C37.4853 290.81 37.5143 290.801 37.5295 290.829C37.5663 290.893 37.5148 290.874 37.4479 290.839Z" fill="#B5BDA6"/>
<path fill-rule="evenodd" clip-rule="evenodd" d="M44.2563 316.723C44.3064 316.646 44.2941 316.543 44.2236 316.48C44.1465 316.411 44.0518 316.385 43.9547 316.498C43.9455 316.508 43.943 316.544 43.91 316.587C43.8767 316.629 43.8215 316.583 43.7283 316.72C43.6768 316.796 43.6857 316.935 43.6564 317.088C43.4204 318.312 42.8837 321.322 42.8137 321.755C42.6416 322.896 42.5618 324.056 42.567 325.225C42.574 326.953 42.7662 328.687 42.9951 330.372C43.5581 334.008 44.4676 337.581 45.5813 341.103C47.2329 346.325 49.3243 351.431 51.259 356.493C54.1347 363.773 56.7289 371.132 59.6246 378.384C60.8698 381.503 62.1737 384.602 63.5729 387.666C66.4447 393.932 69.3073 398.652 71.6866 403.884C73.2134 407.244 74.5393 410.818 75.5365 415.164C76.3904 418.736 77.652 422.224 78.5699 425.774C78.9621 427.284 79.2897 428.801 79.4911 430.343C79.5191 430.59 79.7445 430.769 79.99 430.74C80.2356 430.711 80.4167 430.489 80.3855 430.24C80.2365 428.653 79.9564 427.083 79.6105 425.524C78.8118 421.955 77.657 418.44 76.9196 414.854C75.9624 410.385 74.6531 406.703 73.1382 403.236C70.8367 397.97 68.0494 393.207 65.2757 386.901C63.925 383.845 62.6794 380.757 61.4839 377.652C58.6788 370.365 56.1663 362.98 53.3766 355.668C51.4025 350.663 49.2961 345.609 47.5759 340.451C46.4386 337.042 45.463 333.59 44.8421 330.063C44.5809 328.726 44.361 327.354 44.2149 325.975C44.0698 324.607 43.9902 323.238 44.0716 321.884C44.0914 321.449 44.2879 318.421 44.3731 317.185C44.3837 317.029 44.4274 316.899 44.3973 316.815C44.3618 316.716 44.3456 316.681 44.2877 316.709C44.277 316.714 44.2664 316.719 44.2563 316.723Z" fill="#B5BDA6"/>
<path fill-rule="evenodd" clip-rule="evenodd" d="M22.4452 385.205C22.5375 385.254 22.6512 385.218 22.6995 385.126C22.748 385.033 22.7126 384.92 22.6204 384.871C22.4487 384.729 22.1235 384.835 21.7895 385.128C21.3769 385.49 20.9715 386.172 20.8882 386.262C20.1129 387.145 19.3639 388.036 18.6693 388.973C17.9692 389.917 17.3327 390.906 16.7431 391.938C15.477 394.131 14.258 396.308 13.1751 398.541C12.075 400.81 11.0989 403.118 10.224 405.462C8.48536 410.12 7.1879 414.937 6.24601 419.981C4.91834 427.193 4.66462 434.438 5.05391 441.661C5.63539 452.443 7.68445 463.184 10.1115 473.665C12.0571 482.266 14.8685 490.711 17.027 499.291C17.9436 502.944 18.7454 506.623 19.3009 510.348C19.8048 513.639 19.8717 516.894 19.7763 520.141C19.6301 525.08 19.0667 530.005 18.6378 535.006C18.6068 535.296 18.8181 535.556 19.1092 535.586C19.4005 535.616 19.6579 535.403 19.6889 535.113C20.2979 530.101 21.1079 525.167 21.3494 520.201C21.5084 516.855 21.394 513.499 20.8869 510.106C20.3091 506.331 19.4878 502.604 18.5433 498.905C16.3542 490.344 13.4984 481.922 11.5178 473.341C9.16835 462.937 7.11201 452.28 6.67229 441.583C6.38133 434.502 6.81902 427.409 8.26152 420.371C9.25535 415.46 10.6831 410.81 12.3587 406.252C13.2046 403.952 14.1222 401.679 15.0805 399.403C16.0304 397.148 16.9912 394.885 18.0602 392.63C18.4536 391.81 18.887 391.023 19.3431 390.248C20.0369 389.07 20.7804 387.929 21.5793 386.808L22.4452 385.205Z" fill="#B5BDA6"/>
<path fill-rule="evenodd" clip-rule="evenodd" d="M35.7315 401.641C35.6453 401.571 35.5188 401.585 35.4494 401.671C35.3794 401.758 35.393 401.884 35.4789 401.954C35.9303 402.367 36.1447 403.111 36.2878 403.972C36.6003 405.849 36.4581 408.286 36.5488 409.484C36.8276 412.437 36.9688 415.411 37.0493 418.393C37.1682 422.873 37.1317 427.364 37.1029 431.817C37.0954 435.806 36.9754 439.786 36.8253 443.762C36.473 453.069 35.8759 462.356 35.4534 471.681C35.1305 481.34 34.3426 491.153 32.7728 500.824C31.2055 510.497 28.8574 520.026 25.3801 529.111C25.3027 529.312 25.3982 529.538 25.599 529.618C25.7998 529.697 26.0257 529.598 26.1064 529.398C29.8195 520.326 32.4177 510.783 34.2107 501.072C36.0061 491.364 36.9939 481.493 37.5209 471.769C37.8651 463.772 38.3957 455.805 38.6866 447.825C38.8822 442.491 38.9588 437.154 38.8767 431.802C38.7815 427.331 38.7134 422.824 38.4551 418.332C38.2823 415.327 38.023 412.331 37.6382 409.36C37.4597 408.159 37.4693 405.68 36.9694 403.822C36.7076 402.85 36.3074 402.05 35.7315 401.641Z" fill="#B5BDA6"/>
<path fill-rule="evenodd" clip-rule="evenodd" d="M56.7784 346.386C56.7781 346.282 56.6934 346.198 56.5894 346.198C56.4857 346.198 56.4012 346.283 56.4015 346.387C56.3019 346.778 56.5503 347.219 56.973 347.631C57.4254 348.072 58.1122 348.372 58.4267 348.572C58.8106 348.807 59.1609 349.067 59.5074 349.327C60.9998 350.449 62.2362 351.758 63.7435 352.912C65.9692 354.591 67.9612 356.779 69.8556 359.115C72.71 362.633 75.2893 366.536 77.5419 370.015C78.7734 371.905 79.9466 373.975 81.0447 376.087C82.1482 378.213 83.1723 380.382 84.0936 382.455C85.5259 385.802 87.3721 389.016 88.9527 392.327C89.6026 393.692 90.2157 395.073 90.714 396.496C91.7038 399.177 92.4753 401.897 93.1875 404.623C93.6677 406.465 94.151 408.301 94.5443 410.163C95.5315 414.837 96.1895 419.575 96.824 424.351C97.2057 427.56 97.6834 430.74 97.8607 433.937C97.9743 436.04 97.9589 438.149 97.6992 440.277C97.1965 444.347 98.2151 448.807 97.9735 453.026C97.8742 454.794 97.566 456.522 96.7651 458.164C96.6953 458.297 96.7496 458.463 96.8795 458.531C97.0126 458.601 97.177 458.55 97.2467 458.417C98.1941 456.742 98.662 454.949 98.8471 453.094C99.2634 448.919 98.2683 444.461 98.862 440.433C99.1921 438.24 99.2654 436.059 99.208 433.881C99.124 430.651 98.7422 427.428 98.4508 424.178C98.0126 418.342 97.4748 412.565 96.4965 406.843C96.2991 405.686 96.1094 404.53 95.8585 403.383C95.2702 400.715 94.4751 398.086 93.5559 395.47C92.9958 393.95 92.3295 392.47 91.5943 391.021C89.9465 387.776 87.98 384.668 86.4476 381.396C85.4956 379.282 84.4408 377.071 83.3026 374.904C82.1564 372.721 80.9301 370.583 79.646 368.632C77.3066 365.103 74.7129 361.072 71.6717 357.587C69.5743 355.183 67.2609 353.055 64.7975 351.421C63.4167 350.51 62.2596 349.425 60.9163 348.535C60.3177 348.138 59.6854 347.788 58.9972 347.485C58.698 347.353 58.1273 347.105 57.6124 346.877C57.4126 346.789 57.2192 346.758 57.0672 346.657C56.9346 346.569 56.8109 346.51 56.7784 346.386Z" fill="#B5BDA6"/>
<path fill-rule="evenodd" clip-rule="evenodd" d="M366.29 140.198C366.392 140.119 366.408 139.973 366.328 139.871C366.247 139.771 366.102 139.756 365.999 139.836C365.278 140.339 364.548 140.814 363.824 141.309C360.932 143.292 358.01 145.187 354.972 146.888C349.32 150.058 343.365 152.68 337.045 154.642C327.16 157.716 316.442 159.272 304.914 159.291C296.954 159.372 288.692 159.421 280.516 159.53C275.012 159.605 269.548 159.713 264.245 159.853C243.482 160.381 221.625 161.686 200.506 165.665C186.329 168.337 172.483 172.21 159.534 177.89C144.474 184.558 132.523 192.388 121.665 201.622C110.861 210.81 101.135 221.391 90.6349 233.77C85.7773 239.494 80.8478 244.965 76.1963 250.712C73.0915 254.547 70.1092 258.507 67.3573 262.741C53.2148 284.449 43.464 309.067 36.6226 334.759C35.6136 338.548 34.6649 342.36 33.8 346.194C25.8761 381.332 22.9732 417.854 20.3685 450.995C20.3563 451.111 20.4432 451.215 20.5593 451.225C20.6785 451.236 20.7806 451.15 20.7897 451.032C24.1136 418.039 28.144 381.763 36.4691 346.811C37.3729 343.015 38.3034 339.229 39.295 335.465C46.0004 310.01 55.3466 285.523 69.1877 263.928C71.8794 259.739 74.7958 255.826 77.836 252.034C82.4499 246.279 87.3491 240.8 92.1707 235.069C102.548 222.739 112.114 212.131 122.854 203.022C133.583 193.924 145.479 186.328 160.388 179.843C173.188 174.219 186.873 170.366 200.892 167.733C221.898 163.784 243.647 162.555 264.295 162.069L304.934 161.572C316.671 161.355 327.565 159.608 337.573 156.295C343.961 154.179 350.014 151.47 355.648 148.048C358.66 146.22 361.58 144.223 364.312 141.957C364.993 141.392 365.637 140.795 366.29 140.198Z" fill="#B5BDA6"/>
<path fill-rule="evenodd" clip-rule="evenodd" d="M288.92 161.151C288.902 161.202 288.88 161.251 288.855 161.299C288.798 161.407 288.688 161.494 288.584 161.606C288.493 161.696 288.488 161.843 288.583 161.933C288.672 162.025 288.818 162.024 288.909 161.935C289.009 161.837 289.081 161.729 289.173 161.656C289.697 161.235 289.89 160.951 289.925 160.699C289.987 160.242 289.501 159.829 288.538 159.923C288.031 159.972 287.305 160.239 286.42 160.709C284.509 161.718 281.853 163.822 279.104 167.244C277.47 169.349 276.014 171.285 274.785 173.234C273.872 174.682 273.079 176.131 272.396 177.626C270.781 181.174 269.777 184.966 269.245 189.677C268.507 195.899 268.003 202.074 267.416 208.193C266.523 217.49 265.506 226.669 263.909 235.775C262.848 241.803 261.462 247.787 259.68 253.764C258.523 257.641 257.22 261.527 255.629 265.399C255.526 265.641 255.638 265.922 255.879 266.024C256.122 266.131 256.403 266.02 256.507 265.775C258.245 261.923 259.747 258.065 260.995 254.171C262.917 248.173 264.268 242.116 265.369 236.035C267.021 226.902 267.946 217.674 269.017 208.361C269.718 202.273 270.51 196.148 271.454 189.974C272.006 186.512 272.836 183.612 273.945 180.928C274.487 179.626 275.115 178.389 275.773 177.144C277.214 174.412 278.902 171.687 281.03 168.663C282.496 166.547 283.992 164.952 285.284 163.752C286.51 162.618 287.537 161.838 288.31 161.458C288.529 161.35 288.78 161.195 288.92 161.151ZM288.92 161.151C288.988 161.13 289.028 161.139 289.03 161.188C289.03 161.273 288.975 161.232 288.92 161.151ZM288.92 161.151C288.835 161.021 288.753 160.792 288.884 160.78C288.985 160.772 288.983 160.962 288.92 161.151Z" fill="#B5BDA6"/>
<path fill-rule="evenodd" clip-rule="evenodd" d="M268.808 195.171C268.844 195.157 268.878 195.138 268.902 195.107C268.932 195.074 268.803 194.618 268.513 194.817C268.453 194.855 268.389 194.938 268.269 194.981C268.053 195.062 267.831 194.953 267.505 195.074C266.247 195.539 264.577 197.066 263.956 197.648C262.936 198.614 262.061 199.673 261.276 200.807C260.152 202.434 259.218 204.191 258.058 205.808C255.506 209.447 253.607 213.421 252.101 217.556C249.867 223.693 248.505 230.195 247.285 236.532C242.752 258.745 246.706 280.557 241.876 301.488C240.86 305.897 239.427 310.253 237.484 314.588C235.687 318.599 233.458 322.601 230.594 326.558C230.357 326.879 230.426 327.332 230.745 327.564C231.065 327.801 231.516 327.734 231.753 327.413C234.759 323.418 237.164 319.381 239.03 315.285C241.05 310.857 242.445 306.364 243.457 301.848C248.156 280.852 244.017 259.031 248.386 236.753C249.685 230.502 251.089 224.075 253.425 218.052C254.963 214.08 256.916 210.288 259.477 206.832C260.839 204.936 261.963 202.895 263.284 200.986C263.823 200.204 264.382 199.433 265.04 198.726C265.585 198.134 267.414 197.042 268.209 196.05C268.424 195.787 268.393 195.539 268.54 195.366C268.617 195.273 268.717 195.236 268.772 195.2C268.785 195.191 268.798 195.182 268.808 195.171Z" fill="#B5BDA6"/>
<path fill-rule="evenodd" clip-rule="evenodd" d="M277.035 201.806C277.13 201.718 277.134 201.571 277.045 201.479C276.957 201.385 276.81 201.38 276.715 201.468C275.886 202.109 275.817 203.15 276.184 204.306C276.818 206.31 278.922 208.624 279.398 209.619C280.882 212.599 281.904 216.413 282.471 220.3C283.034 224.173 283.133 228.127 282.736 231.403C282.196 236.146 281.368 240.674 280.321 245.034C278.666 251.932 276.37 258.389 273.42 264.535C268.579 274.618 261.997 283.881 253.413 292.692C253.145 292.957 253.146 293.386 253.407 293.652C253.672 293.917 254.1 293.919 254.368 293.654C263.4 284.965 270.537 275.815 275.661 265.633C278.81 259.377 281.201 252.732 282.854 245.63C283.89 241.159 284.595 236.503 285.052 231.643C285.349 228.18 285.112 224.033 284.362 219.985C283.616 215.939 282.375 211.994 280.701 208.938C280.158 207.985 278.027 205.807 277.128 203.931C276.743 203.126 276.536 202.394 277.035 201.806Z" fill="#B5BDA6"/>
<path fill-rule="evenodd" clip-rule="evenodd" d="M323.473 158.003C323.261 157.937 322.951 157.827 322.675 157.698C322.256 157.503 321.824 157.203 321.296 156.93C320.283 156.403 319.084 155.855 317.959 155.256C315.725 154.068 313.723 152.9 313.505 152.77C310.336 150.945 307.352 148.89 304.324 146.889C302.286 145.544 300.221 144.242 298.164 142.924C295.94 141.502 293.699 140.112 291.425 138.753C277.293 130.408 268.31 126.107 258.526 123.989C249.102 121.947 238.933 121.933 222.633 122.297C222.317 122.298 222.061 122.556 222.061 122.871C222.064 123.189 222.321 123.445 222.637 123.445C238.72 123.663 248.743 124.017 257.971 126.349C267.436 128.745 276.035 133.244 289.539 141.831C294.012 144.606 298.266 147.668 302.747 150.38C305.775 152.211 308.918 153.832 312.144 155.362C312.506 155.528 317.274 157.863 320.655 158.791C321.934 159.143 322.998 159.256 323.585 159.192C324.041 159.139 324.329 159.007 324.443 158.796C324.567 158.561 324.657 158.143 324.198 157.631C324.07 157.443 323.812 157.396 323.628 157.522C323.466 157.632 323.409 157.832 323.473 158.003Z" fill="#B5BDA6"/>
<path fill-rule="evenodd" clip-rule="evenodd" d="M293.763 138.255C293.711 138.309 293.684 138.384 293.697 138.459C293.72 138.585 293.84 138.672 293.965 138.649C294.396 138.689 294.517 138.436 294.583 138.273C294.657 138.085 294.537 137.767 294.184 137.392C293.522 136.696 291.721 135.8 291.096 135.112C289.367 133.371 287.623 131.679 285.929 129.924C284.817 128.77 283.728 127.587 282.683 126.351C279.682 122.85 276.436 119.909 272.907 117.361C267.7 113.605 261.903 110.689 255.593 107.796C250.715 105.568 245.471 104.496 240.124 104.111C232.222 103.543 224.097 104.469 216.637 105.254C206.915 106.292 198.321 106.927 189.828 106.418C186.305 106.208 182.805 105.776 179.237 105.143C174.267 104.259 169.168 102.968 163.753 100.985C163.315 100.812 162.817 101.032 162.647 101.469C162.475 101.909 162.691 102.407 163.131 102.577C170.545 105.625 177.393 107.486 184.204 108.396C194.64 109.792 204.94 109.032 216.902 107.776C224.218 106.997 232.188 106.071 239.944 106.619C244.993 106.977 249.953 107.961 254.564 110.057C259.688 112.376 264.444 114.75 268.864 117.527C273.33 120.331 277.451 123.545 281.19 127.672C282.313 128.897 283.478 130.059 284.669 131.193C286.438 132.882 288.252 134.51 290.054 136.188C290.369 136.459 290.874 136.776 291.436 137.075C292.19 137.471 293.018 137.897 293.542 138.168C293.614 138.201 293.693 138.235 293.763 138.255Z" fill="#B5BDA6"/>
<path fill-rule="evenodd" clip-rule="evenodd" d="M234.077 161.46C234.101 161.477 234.125 161.485 234.154 161.492C234.279 161.522 234.403 161.441 234.431 161.318C234.676 161.175 234.351 161.146 234.296 160.996C234.265 160.911 234.225 160.963 233.883 160.953C233.732 160.947 233.521 161.019 233.236 161.169C232.409 161.597 231.258 162.697 230.91 162.959C229.527 164.055 228.05 165.037 226.642 166.119C225.669 166.863 224.737 167.661 223.862 168.513C221.356 170.979 219.057 173.621 217.009 176.452C213.957 180.675 211.429 185.27 209.047 189.896C207.135 193.616 205.873 197.685 204.933 201.911C202.833 211.36 202.365 221.597 199.495 230.278C197.296 236.943 196.731 243.304 195.974 249.306C195.629 252.067 195.258 254.754 194.608 257.355C194.065 259.531 193.34 261.652 192.316 263.713C192.219 263.897 192.29 264.124 192.473 264.22C192.657 264.317 192.884 264.246 192.981 264.062C194.699 260.957 195.748 257.686 196.481 254.263C198.034 247.036 198.233 239.147 201.165 230.846C204.211 222.169 204.883 211.889 207.165 202.426C208.129 198.424 209.39 194.573 211.271 191.063C213.266 187.322 215.436 183.657 217.781 180.119C220.111 176.611 222.615 173.217 225.53 170.149C226.112 169.524 226.734 168.94 227.365 168.36C228.897 166.958 230.503 165.631 231.997 164.209C232.301 163.899 233.46 162.844 234.023 162.111C234.187 161.898 234.184 161.565 234.298 161.617C234.378 161.65 234.245 161.487 234.225 161.517C234.153 161.625 234.122 161.536 234.077 161.46ZM234.011 161.393C234.003 161.393 233.997 161.39 233.989 161.39C233.96 161.383 233.969 161.367 233.982 161.341C233.988 161.361 233.999 161.379 234.011 161.393Z" fill="#B5BDA6"/>
<path fill-rule="evenodd" clip-rule="evenodd" d="M205.998 198.718C206.123 198.735 206.24 198.643 206.257 198.518C206.275 198.39 206.183 198.273 206.059 198.256C205.318 198.066 204.376 198.413 203.422 199.091C201.705 200.315 200.037 202.608 199.295 203.522C197.886 205.244 196.489 206.891 195.215 208.61C193.903 210.386 192.704 212.218 191.614 214.119C190.181 216.625 188.98 219.285 187.986 222.188C184.953 230.88 182.777 240.152 181.446 249.543C180.122 258.914 179.642 268.412 180.238 277.604C180.38 279.807 180.634 281.996 180.952 284.179C181.842 290.223 183.204 296.215 184.227 302.239C184.665 304.808 185.063 307.377 185.286 309.971C185.309 310.298 185.592 310.544 185.916 310.52C186.243 310.497 186.487 310.217 186.465 309.889C186.364 307.687 186.167 305.496 185.87 303.312C184.687 294.69 182.318 286.203 181.787 277.502C181.233 268.421 181.67 259.03 183.097 249.786C184.53 240.546 186.951 231.463 190.124 222.958C191.161 220.227 192.447 217.769 193.82 215.39C194.884 213.548 196.029 211.773 197.188 209.973C198.336 208.192 199.466 206.376 200.674 204.529C201.285 203.595 202.741 201.368 204.144 199.935C204.801 199.268 205.383 198.719 205.998 198.718Z" fill="#B5BDA6"/>
<path fill-rule="evenodd" clip-rule="evenodd" d="M211.286 193.693C211.309 193.572 211.23 193.454 211.108 193.43C210.982 193.409 210.867 193.49 210.844 193.611C210.64 194.2 210.561 194.798 210.615 195.434C210.663 196.013 210.856 196.592 211.067 197.185C211.664 198.874 212.665 200.609 213.4 202.25C213.707 202.929 213.971 203.581 214.08 204.221C214.475 206.549 214.588 208.944 214.591 211.357C214.601 215.029 214.319 218.738 214.091 222.293C213.982 224.142 213.773 225.996 213.512 227.85C212.892 232.236 211.979 236.625 211.293 240.952C210.838 244.077 210.339 247.178 209.828 250.269C209.059 254.924 208.236 259.543 207.149 264.117C205.951 269.159 204.48 274.142 202.572 279.066C200.755 283.722 198.747 287.821 196.574 291.739C193.239 297.748 189.535 303.337 185.677 309.897C185.574 310.061 185.628 310.276 185.791 310.373C185.955 310.476 186.169 310.422 186.269 310.256C190.314 303.794 194.149 298.286 197.677 292.371C200.004 288.468 202.198 284.394 204.208 279.738C206.892 273.566 208.91 267.279 210.502 260.87C212.091 254.483 213.246 247.983 214.338 241.412C214.888 237.69 215.62 233.922 216.167 230.145C216.539 227.572 216.82 224.996 216.923 222.427C217.046 218.809 217.257 215.027 217.089 211.296C216.976 208.752 216.684 206.235 216.131 203.808C215.949 203.008 215.61 202.175 215.138 201.356C214.253 199.816 212.958 198.294 212.154 196.715C211.906 196.224 211.723 195.732 211.575 195.245C211.412 194.723 211.272 194.228 211.286 193.693Z" fill="#B5BDA6"/>
<path fill-rule="evenodd" clip-rule="evenodd" d="M191.343 169.418C191.428 169.51 191.578 169.517 191.671 169.432C191.766 169.344 191.774 169.198 191.686 169.103C191.091 168.18 190.022 167.429 188.646 166.894C185.961 165.849 182.332 165.742 180.433 165.47C177.781 165.171 175.075 164.513 172.359 163.743C168.251 162.576 164.144 161.109 160.323 159.808C153.312 157.64 146.699 154.538 139.843 152.038C136.857 150.949 133.829 149.971 130.706 149.227C123.188 147.411 114.986 146.811 106.816 147.219C98.7051 147.623 90.6209 149.015 83.2825 151.365C81.6416 151.884 80.03 152.576 78.438 153.356C74.8278 155.125 71.3212 157.348 67.8033 159.003C67.5647 159.117 67.4613 159.399 67.5722 159.635C67.6828 159.871 67.9644 159.974 68.2017 159.864C71.7385 158.239 75.2663 156.047 78.8986 154.31C80.4471 153.572 82.0177 152.915 83.613 152.429C90.8812 150.228 98.8696 148.919 106.871 148.706C114.864 148.492 122.862 149.369 130.155 151.366C133.162 152.195 136.066 153.253 138.927 154.414C145.742 157.181 152.297 160.535 159.28 162.972C163.184 164.211 167.369 165.674 171.578 166.696C174.479 167.405 177.392 167.893 180.211 168.057C181.818 168.099 184.624 168.005 187.127 168.302C187.899 168.395 188.627 168.539 189.299 168.693C190.108 168.875 190.807 169.023 191.343 169.418Z" fill="#B5BDA6"/>
<path fill-rule="evenodd" clip-rule="evenodd" d="M158.156 157.732C156.848 157.111 154.718 155.961 154.414 155.729C153.374 155.025 152.391 154.238 151.437 153.41C149.164 151.44 147.069 149.228 144.854 147.244C143.032 145.629 141.244 143.986 139.422 142.395C135.096 138.62 130.685 135.01 125.987 131.821C121.515 128.787 116.758 126.162 111.484 124.224C99.7162 119.851 87.8529 121.458 76.5686 126.105C68.5595 129.402 60.8209 134.197 53.6724 139.513C46.1922 145.075 39.3588 151.186 33.3949 156.516C33.1638 156.718 33.1413 157.071 33.3442 157.303C33.5471 157.535 33.8998 157.558 34.131 157.355C40.1545 152.15 47.0945 146.232 54.5939 140.765C61.6853 135.598 69.2768 130.819 77.1812 127.604C88.0749 123.173 99.5223 121.66 110.839 125.942C115.939 127.889 120.517 130.514 124.83 133.509C129.432 136.701 133.699 140.356 138 144.041C139.837 145.616 141.697 147.175 143.561 148.743C145.849 150.652 148.027 152.79 150.372 154.684C151.404 155.517 152.465 156.304 153.582 157.004C154.02 157.246 157.544 158.605 158.668 158.786C159.46 158.914 160.059 158.44 158.504 157.62C158.398 157.548 158.253 157.577 158.182 157.681C158.17 157.699 158.162 157.715 158.156 157.732Z" fill="#B5BDA6"/>
<path fill-rule="evenodd" clip-rule="evenodd" d="M144.491 155.015C144.508 155.023 144.524 155.032 144.543 155.038C144.581 155.046 144.618 155.049 144.655 155.04C144.618 155.033 144.566 155.014 144.518 154.997C144.603 154.944 144.665 154.936 144.698 154.994C144.705 155.005 144.708 155.015 144.708 155.023C144.766 154.993 144.811 154.944 144.831 154.877C145.041 154.729 144.963 154.607 144.973 154.515C145 154.262 144.732 154.153 144.355 154.271C144.004 154.383 142.935 155.587 142.337 155.835L135.508 158.408C132.051 159.666 128.594 160.758 125.103 161.736C121.611 162.716 118.088 163.579 114.497 164.35C108.088 165.8 101.596 166.478 95.0882 166.993C85.2265 167.772 75.3189 168.123 65.5624 169.508C61.4794 170.089 57.4253 170.856 53.4135 171.94C53.1985 171.993 53.0675 172.216 53.1237 172.432C53.1779 172.65 53.3998 172.779 53.6165 172.723C57.6132 171.736 61.6436 171.062 65.7003 170.58C75.466 169.422 85.367 169.445 95.2174 168.789C101.821 168.348 108.396 167.58 114.892 166.116C118.501 165.261 122.042 164.322 125.543 163.249C129.045 162.177 132.504 160.973 135.96 159.613C137.542 158.99 139.17 158.391 140.746 157.7C141.429 157.403 142.097 157.081 142.757 156.748C143.233 156.504 144.084 155.303 144.491 155.015ZM144.655 155.04C144.688 155.045 144.709 155.044 144.708 155.023C144.691 155.031 144.673 155.037 144.655 155.04ZM144.432 154.968C144.423 154.963 144.414 154.962 144.409 154.96C144.303 154.945 144.286 154.689 144.286 154.689C144.286 154.689 144.359 154.686 144.384 154.748C144.361 154.829 144.382 154.909 144.432 154.968Z" fill="#B5BDA6"/>
<path fill-rule="evenodd" clip-rule="evenodd" d="M139.012 190.358C139.044 190.237 138.971 190.109 138.849 190.074C138.725 190.041 138.596 190.115 138.563 190.239C138.419 190.508 138.233 190.73 138.052 190.995C137.68 191.544 137.25 192.092 136.761 192.653C135.115 194.542 132.966 196.453 131.8 198.258C129.502 202.136 127.677 206.16 126.312 210.345C124.952 214.513 124.054 218.829 123.414 223.257C122.507 229.528 121.773 235.962 121.244 242.415C120.715 248.868 120.392 255.336 120.378 261.678C120.335 274.578 120.814 287.299 119.899 299.952C119.289 308.317 118.083 316.661 115.648 325.008C115.592 325.193 115.695 325.389 115.881 325.442C116.066 325.498 116.262 325.394 116.318 325.21C118.904 316.837 120.282 308.458 120.994 300.037C122.064 287.368 121.636 274.618 121.784 261.687C121.863 255.383 122.227 248.957 122.841 242.556C123.456 236.149 124.323 229.768 125.335 223.548C126.035 219.249 127.049 215.078 128.383 211.023C129.713 206.981 131.365 203.048 133.538 199.271C134.649 197.146 137.252 194.922 138.419 192.527C138.775 191.796 138.951 191.074 139.012 190.358Z" fill="#B5BDA6"/>
<path fill-rule="evenodd" clip-rule="evenodd" d="M123.232 232.405C123.274 232.237 123.173 232.066 123.005 232.027C122.839 231.984 122.669 232.085 122.627 232.254C122.457 232.865 122.761 233.809 123.304 234.835C124.287 236.698 126.034 238.873 126.579 239.645C129.472 243.575 132.452 247.356 134.87 251.474C136.451 254.161 137.785 256.994 138.695 260.106C140.251 265.374 141.429 271.387 142.135 277.59C142.58 281.502 142.839 285.491 142.815 289.428C142.775 296.275 141.921 302.963 139.808 308.762C138.421 312.677 136.532 316.393 134.385 319.985C131.133 325.427 127.315 330.578 123.79 335.702C123.639 335.914 123.689 336.212 123.9 336.363C124.112 336.515 124.407 336.467 124.561 336.252C128.282 331.231 132.29 326.179 135.746 320.833C138.085 317.215 140.168 313.46 141.74 309.485C144.591 302.08 145.613 293.223 145.185 284.37C144.763 275.593 142.919 266.843 140.556 259.524C139.49 256.302 137.997 253.386 136.251 250.628C133.67 246.551 130.546 242.823 127.495 238.948C126.981 238.318 125.488 236.709 124.4 235.134C123.669 234.075 123.089 233.054 123.232 232.405Z" fill="#B5BDA6"/>
<path fill-rule="evenodd" clip-rule="evenodd" d="M123.254 234.509C123.319 234.401 123.283 234.257 123.174 234.191C123.064 234.126 122.921 234.16 122.855 234.271C122.673 234.459 122.438 234.587 122.2 234.786C121.42 235.437 120.441 236.222 119.547 236.983C119.002 237.446 118.518 237.933 118.164 238.423C116.37 240.914 114.598 243.712 113.004 246.607C111.405 249.511 109.986 252.511 108.87 255.377C105.644 263.965 104.611 274.111 104.948 284.519C105.444 299.787 108.878 315.612 112.499 327.836C112.561 328.042 112.775 328.158 112.979 328.1C113.184 328.041 113.302 327.824 113.243 327.619C109.774 315.43 106.541 299.662 106.199 284.483C105.97 274.266 107.046 264.316 110.289 255.92C111.343 253.089 112.699 250.134 114.213 247.257C115.726 244.381 117.398 241.579 119.108 239.084C119.889 237.912 121.605 236.849 122.581 235.669C122.899 235.286 123.108 234.89 123.254 234.509Z" fill="#B5BDA6"/>
<path fill-rule="evenodd" clip-rule="evenodd" d="M102.81 220.367C102.845 220.422 102.838 220.41 102.81 220.367ZM102.81 220.367C102.797 220.348 102.779 220.322 102.759 220.291C102.827 220.291 102.893 220.265 102.939 220.208C103.084 220.138 102.972 220.015 102.965 219.934C102.962 219.9 102.884 219.855 102.667 219.806C102.578 219.784 102.423 219.727 102.144 219.746C101.017 219.827 98.4389 220.785 97.7707 220.904C96.3566 221.202 94.9276 221.44 93.4921 221.622C92.056 221.803 90.6136 221.929 89.1688 222.017L63.2389 223.743C46.3649 224.826 28.2672 225.971 12.4413 231.901C1.786 235.895 -7.83287 242.05 -15.3767 251.736C-15.5397 251.941 -15.5059 252.238 -15.3019 252.398C-15.0993 252.561 -14.8027 252.526 -14.6397 252.321C-7.06866 242.969 2.48213 237.142 12.9852 233.393C28.7396 227.768 46.651 226.829 63.3646 225.966C66.8323 225.758 70.3011 225.53 73.7642 225.23C78.9501 224.778 84.1242 224.202 89.3019 223.697C90.7764 223.548 92.2463 223.36 93.7096 223.116C95.1755 222.873 96.6315 222.581 98.0705 222.223C98.4346 222.131 99.3639 221.849 100.302 221.491C101.11 221.183 101.954 220.893 102.412 220.616C102.625 220.488 102.719 220.242 102.767 220.308C102.785 220.334 102.799 220.353 102.81 220.367Z" fill="#B5BDA6"/>
</g>
<path fill-rule="evenodd" clip-rule="evenodd" d="M264.556 155.502C264.656 155.583 264.802 155.568 264.884 155.468C264.962 155.366 264.947 155.22 264.849 155.143C264.75 155.046 263.704 154.772 261.974 154.537C260.846 154.385 259.422 154.261 257.804 154.127C248.278 153.336 232.069 152.521 229.936 152.487C220.279 152.438 211.365 150.131 202.985 147.003C188.89 141.742 176.318 134.051 164.77 129.629C164.426 129.493 164.038 129.662 163.902 130.005C163.767 130.349 163.936 130.737 164.28 130.873C175.761 135.53 188.139 143.65 202.223 149.022C210.805 152.295 220.014 154.503 229.932 154.501L264.556 155.502Z" fill="#4B5C49"/>
<path fill-rule="evenodd" clip-rule="evenodd" d="M81.1031 395.248C81.1545 395.291 81.2314 395.285 81.2744 395.233C81.3178 395.182 81.3112 395.105 81.2598 395.062C80.8851 394.747 80.6202 394.686 80.4416 394.719C80.2369 394.758 80.0795 394.924 79.992 395.24C79.7788 396.009 80.1279 397.65 80.1166 398.383C80.0955 399.945 80.2511 401.446 80.4981 402.934C80.5726 403.384 80.6492 403.832 80.7469 404.278C81.1276 406.015 81.6652 407.723 82.1285 409.49C83.4206 414.335 85.0757 419.179 87.0397 423.898C89.0004 428.609 91.2695 433.195 93.6709 437.582C102.536 453.668 110.067 466.864 120.973 477.248C128.147 484.077 136.774 489.694 148.217 494.107C148.343 494.157 148.491 494.094 148.542 493.965C148.592 493.836 148.527 493.689 148.4 493.64C137.106 489.134 128.607 483.476 121.576 476.619C110.87 466.176 103.571 452.961 94.9687 436.873C92.6214 432.515 90.4456 427.946 88.4974 423.287C86.5496 418.632 84.8251 413.885 83.4995 409.115C83.0055 407.366 82.5003 405.662 82.0266 403.958C81.9079 403.532 81.7797 403.11 81.6671 402.682C81.2969 401.278 81.0076 399.854 80.8853 398.356C80.8311 397.709 80.462 396.38 80.4412 395.545C80.4383 395.428 80.4508 395.324 80.4549 395.232C80.4602 395.12 80.4147 395.027 80.4686 394.974C80.5781 394.865 80.7801 394.977 81.1031 395.248Z" fill="#4B5C49"/>
<path fill-rule="evenodd" clip-rule="evenodd" d="M90.695 261.736C90.9227 261.802 91.1613 261.671 91.2289 261.44C91.2954 261.213 91.1642 260.975 90.9369 260.908C89.8683 260.554 88.7752 260.316 87.6652 260.133C85.1811 259.721 82.6291 259.589 80.1612 258.94C73.8715 257.423 67.8472 255.75 61.6756 254.603C57.5476 253.834 53.354 253.309 48.9841 253.181C41.3071 253.023 31.4208 256.057 22.3784 260.782C13.4074 265.472 5.27803 271.806 0.889766 278.102C-2.3413 282.774 -5.71324 289.082 -8.45353 295.542C-11.2933 302.237 -13.4558 309.092 -14.0596 314.463C-14.0813 314.638 -13.9568 314.797 -13.7822 314.818C-13.6076 314.839 -13.4482 314.714 -13.4278 314.542C-12.7233 309.245 -10.453 302.509 -7.50502 295.956C-4.66464 289.643 -1.19194 283.501 2.10097 278.966C6.46233 272.915 14.4933 266.953 23.2581 262.497C32.0237 258.042 41.535 255.09 48.9319 255.292C53.197 255.371 57.2902 255.86 61.329 256.546C67.4871 257.589 73.5173 259.104 79.805 260.484C82.7172 261.058 85.6968 260.951 88.5928 261.34C89.2992 261.438 90.0016 261.558 90.695 261.736Z" fill="#4B5C49"/>
<path fill-rule="evenodd" clip-rule="evenodd" d="M83.2499 268.187C83.3591 268.23 83.4856 268.184 83.5405 268.078C83.6244 267.983 83.6088 267.817 83.3287 267.697C83.2319 267.659 83.0159 267.623 82.7128 267.57C82.4831 267.533 82.2351 267.474 81.9516 267.46C81.1392 267.422 80.2585 267.554 80.2081 267.559C79.16 267.65 78.1296 267.789 77.1107 268.004C75.6135 268.325 74.1543 268.794 72.669 269.199C69.5495 270.059 66.699 271.313 63.982 272.795C59.9564 274.989 56.2288 277.691 52.3135 280.314C49.3058 282.361 46.3216 284.581 43.4593 286.943C40.5971 289.31 37.8572 291.819 35.2724 294.384C33.6398 296.013 31.9868 297.665 30.2848 299.249C29.1625 300.296 28.0241 301.318 26.8336 302.268C23.9252 304.595 20.8531 306.84 17.683 308.935C14.5113 311.03 11.2468 312.977 7.91253 314.651C6.84593 315.184 5.71374 315.569 4.54968 315.877C1.77018 316.615 -1.18345 316.918 -3.89392 317.594C-4.02206 317.621 -4.10507 317.751 -4.07711 317.879C-4.04914 318.007 -3.92173 318.087 -3.79359 318.061C-1.03289 317.552 1.9522 317.451 4.78154 316.867C6.03735 316.607 7.25939 316.244 8.42087 315.733C11.8865 314.205 15.3099 312.411 18.6209 310.424C21.9312 308.436 25.1225 306.253 28.1632 304.001C29.4356 303.058 30.6682 302.047 31.8617 300.991C33.628 299.43 35.3143 297.767 36.9955 296.141C39.5529 293.653 42.2826 291.243 45.0904 288.929C47.8997 286.613 50.7859 284.396 53.7185 282.367C57.5178 279.699 61.1348 276.961 65.0467 274.699C67.5937 273.225 70.2622 271.95 73.2053 271.046L80.4128 268.894C80.459 268.884 81.267 268.794 82.0086 268.6C82.4348 268.487 82.7935 268.32 83.0554 268.246C83.1427 268.221 83.2401 268.191 83.2499 268.187Z" fill="#4B5C49"/>
<path fill-rule="evenodd" clip-rule="evenodd" d="M83.6858 317.439C83.7541 317.334 83.7232 317.19 83.6154 317.121C83.5089 317.048 83.3646 317.08 83.2952 317.188C82.9718 317.449 82.5823 317.563 82.1448 317.84C81.9204 317.98 81.7148 318.173 81.4704 318.34C80.6397 318.905 79.5885 319.421 78.4151 319.974C76.9469 320.667 75.286 321.375 73.5271 322.048C67.5507 324.324 60.5912 326.287 57.5145 327.38C52.8407 329.192 48.7207 330.75 45.0052 332.363C40.5249 334.31 36.6078 336.3 32.9419 338.708C26.386 343.016 20.6474 348.67 13.943 357.986C13.7414 358.251 13.7925 358.629 14.0565 358.831C14.3209 359.032 14.6993 358.981 14.9006 358.716C21.8984 350.012 27.785 344.858 34.3395 340.945C37.9814 338.772 41.8339 337.003 46.2012 335.206C49.9202 333.674 53.9959 332.104 58.6447 330.332C62.1303 328.884 70.7624 326.125 76.9901 322.946C79.4412 321.692 81.5069 320.361 82.8148 319.091C82.904 319.005 83.0049 318.931 83.0718 318.833C83.3439 318.436 83.3699 318.057 83.5352 317.686C83.576 317.594 83.6397 317.522 83.6858 317.439Z" fill="#4B5C49"/>
<path fill-rule="evenodd" clip-rule="evenodd" d="M63.3071 318.611C63.3243 318.647 63.3534 318.681 63.3927 318.702C63.4848 318.751 63.5995 318.712 63.6479 318.619C63.7046 318.525 63.6072 318.273 63.1952 318.098C62.5455 317.825 61.0753 317.383 59.1913 317.104C57.1647 316.8 54.679 316.711 52.3365 316.884C47.1834 317.293 42.2031 318.244 37.3269 319.61C32.4613 320.972 27.706 322.751 22.9739 324.744C15.2887 328.122 7.72422 332.547 1.11008 338.08C-5.49689 343.607 -11.1491 350.228 -15.1533 357.843C-17.1155 361.579 -18.7819 365.47 -20.2686 369.441C-22.4809 375.351 -24.3129 381.425 -26.3358 387.351C-26.3989 387.526 -26.308 387.719 -26.1333 387.782C-25.9582 387.845 -25.7653 387.754 -25.7022 387.579C-23.482 381.737 -21.4127 375.755 -19.0391 369.921C-17.4633 366.05 -15.7606 362.242 -13.7453 358.603C-9.69647 351.285 -4.02246 345.02 2.47037 339.732C8.99626 334.416 16.36 330.082 23.8767 326.826C28.4804 324.744 33.1176 322.904 37.8603 321.417C42.5955 319.936 47.433 318.804 52.4652 318.226C53.9246 318.055 55.4447 318.008 56.8705 318.042C57.4911 318.057 58.0922 318.102 58.6653 318.126C60.5159 318.202 62.0482 318.29 62.8457 318.459C63.0799 318.51 63.2424 318.633 63.3071 318.611Z" fill="#4B5C49"/>
<path fill-rule="evenodd" clip-rule="evenodd" d="M61.8045 334.717C61.8087 334.722 61.8141 334.724 61.8182 334.73C61.9062 334.784 62.0225 334.761 62.0794 334.675C62.4929 334.112 62.706 333.747 62.814 333.569C62.9796 333.297 62.8263 333.139 62.7752 333.075C62.7171 333.008 62.5918 332.989 62.3906 333.05C62.2495 333.095 61.9463 333.302 61.5427 333.647C61.1301 334.002 60.6147 334.521 60.0451 335.119C57.7384 337.548 54.5823 341.325 54.5659 341.342C51.1087 345.075 47.9045 348.712 44.3778 352.096C42.0802 354.301 39.6522 356.407 36.8781 358.317C32.4716 361.37 27.7451 364.251 22.887 366.88C18.0255 369.512 13.031 371.893 8.05369 373.874C1.36859 376.575 -5.60974 378.716 -12.3262 381.405C-16.8487 383.215 -21.2515 385.272 -25.3711 387.903C-25.5918 388.04 -25.6593 388.331 -25.5223 388.551C-25.3853 388.771 -25.0951 388.839 -24.8748 388.702C-21.7873 386.824 -18.5493 385.269 -15.2266 383.896C-7.43726 380.678 0.811407 378.459 8.67756 375.473C13.7412 373.519 18.839 371.184 23.7799 368.547C28.7167 365.913 33.4956 362.977 37.9636 359.89C40.8186 357.906 43.3421 355.746 45.6784 353.433C49.1789 349.967 52.2737 346.181 55.656 342.329C55.6726 342.309 58.7683 338.468 60.8823 335.859C61.2228 335.437 61.5347 335.054 61.8045 334.717ZM62.6026 333.63C62.6357 333.596 62.6631 333.583 62.682 333.609C62.7272 333.667 62.6736 333.655 62.6026 333.63Z" fill="#4B5C49"/>
<path fill-rule="evenodd" clip-rule="evenodd" d="M72.886 358.339C72.925 358.256 72.8987 358.155 72.8202 358.103C72.7345 358.045 72.6371 358.033 72.5563 358.157C72.5487 358.169 72.5512 358.205 72.5242 358.252C72.4969 358.298 72.436 358.26 72.3625 358.409C72.3219 358.491 72.3496 358.627 72.3415 358.783C72.2752 360.028 72.155 363.083 72.1448 363.522C72.1303 364.675 72.2099 365.835 72.3748 366.992C72.6181 368.703 73.0455 370.394 73.5026 372.032C74.5574 375.557 75.947 378.973 77.5316 382.309C79.8817 387.256 82.6515 392.029 85.2602 396.779C89.1042 403.597 92.6802 410.533 96.5401 417.32C98.2 420.24 99.9154 423.132 101.72 425.976C105.422 431.79 108.903 436.074 111.975 440.932C113.947 444.051 115.749 447.41 117.331 451.58C118.665 455.001 120.392 458.284 121.787 461.675C122.382 463.117 122.914 464.575 123.324 466.075C123.385 466.316 123.633 466.462 123.872 466.4C124.112 466.338 124.261 466.093 124.196 465.851C123.831 464.299 123.339 462.783 122.783 461.285C121.504 457.859 119.88 454.535 118.659 451.083C117.1 446.787 115.299 443.319 113.325 440.091C110.325 435.19 106.912 430.853 103.303 424.985C101.547 422.142 99.8908 419.254 98.2819 416.341C94.5069 409.506 91.0082 402.533 87.2451 395.672C84.6052 390.984 81.8276 386.265 79.4185 381.391C77.8257 378.169 76.3873 374.883 75.2901 371.475C74.8486 370.186 74.443 368.856 74.1099 367.511C73.7791 366.175 73.513 364.829 73.4085 363.477C73.3686 363.044 73.1493 360.017 73.0648 358.781C73.054 358.626 73.0794 358.49 73.0382 358.411C72.9895 358.318 72.9686 358.285 72.9151 358.321C72.9052 358.327 72.8953 358.334 72.886 358.339Z" fill="#4B5C49"/>
<path fill-rule="evenodd" clip-rule="evenodd" d="M60.6424 429.161C60.7404 429.196 60.8482 429.145 60.8834 429.047C60.9188 428.949 60.8683 428.841 60.7703 428.806C60.5807 428.688 60.273 428.838 59.9822 429.174C59.623 429.589 59.3148 430.32 59.2445 430.42C58.5972 431.401 57.977 432.386 57.417 433.409C56.8526 434.441 56.3572 435.507 55.9144 436.61C54.9599 438.955 54.0501 441.279 53.2826 443.639C52.503 446.036 51.8516 448.456 51.3054 450.898C50.22 455.75 49.5933 460.7 49.3498 465.825C49.0207 473.151 49.7598 480.362 51.133 487.464C53.1832 498.066 56.6815 508.426 60.5186 518.476C63.6218 526.73 67.5615 534.711 70.8728 542.916C72.2802 546.409 73.5775 549.944 74.637 553.558C75.5862 556.75 76.0973 559.964 76.4468 563.194C76.9773 568.107 77.0925 573.063 77.3513 578.075C77.3603 578.367 77.6051 578.595 77.8976 578.586C78.1903 578.576 78.4162 578.329 78.4072 578.037C78.3252 572.989 78.4531 567.991 78.0134 563.038C77.7135 559.702 77.1413 556.393 76.175 553.101C75.0866 549.441 73.7635 545.862 72.322 542.326C68.9831 534.145 65.0026 526.192 61.8675 517.963C58.1176 507.977 54.6235 497.702 52.7254 487.165C51.4691 480.191 50.933 473.105 51.3998 465.936C51.7128 460.935 52.4914 456.133 53.5281 451.389C54.0516 448.994 54.6498 446.618 55.288 444.232C55.9207 441.869 56.563 439.495 57.3136 437.115C57.5913 436.249 57.913 435.41 58.2589 434.58C58.7851 433.318 59.3657 432.087 60.0037 430.867L60.6424 429.161Z" fill="#4B5C49"/>
<path fill-rule="evenodd" clip-rule="evenodd" d="M76.051 443.626C75.9561 443.568 75.8327 443.599 75.7756 443.694C75.7182 443.789 75.749 443.913 75.8435 443.97C76.3473 444.318 76.6612 445.025 76.9207 445.858C77.4869 447.675 77.6792 450.109 77.9329 451.283C78.6129 454.171 79.1594 457.097 79.6468 460.04C80.377 464.462 80.9549 468.915 81.5352 473.331C82.0731 477.283 82.4984 481.243 82.8933 485.202C83.8167 494.469 84.495 503.751 85.3513 513.046C86.352 522.658 86.9132 532.487 86.6802 542.281C86.4502 552.078 85.4269 561.838 83.2243 571.314C83.1752 571.524 83.3007 571.735 83.5105 571.786C83.7203 571.837 83.9305 571.708 83.9831 571.499C86.421 562.004 87.6901 552.195 88.1385 542.331C88.5899 532.469 88.2189 522.555 87.4114 512.851C86.6591 504.882 86.0954 496.917 85.2926 488.972C84.7572 483.662 84.1032 478.364 83.2903 473.074C82.5847 468.658 81.9011 464.202 81.0311 459.788C80.4489 456.834 79.7826 453.902 78.9952 451.012C78.6541 449.846 78.3247 447.389 77.5756 445.617C77.1833 444.69 76.6774 443.952 76.051 443.626Z" fill="#4B5C49"/>
<path fill-rule="evenodd" clip-rule="evenodd" d="M89.346 386.012C89.3315 385.909 89.236 385.837 89.1331 385.851C89.0303 385.866 88.9582 385.962 88.9728 386.065C88.9276 386.466 89.234 386.868 89.7089 387.218C90.2174 387.593 90.9389 387.797 91.2776 387.952C91.6901 388.132 92.0726 388.342 92.4515 388.553C94.0833 389.46 95.4871 390.588 97.1379 391.524C99.5722 392.883 101.845 394.778 104.041 396.833C107.349 399.928 110.438 403.442 113.145 406.581C114.623 408.284 116.069 410.174 117.445 412.117C118.829 414.072 120.14 416.08 121.336 418.007C123.212 421.128 125.481 424.059 127.499 427.123C128.33 428.386 129.126 429.671 129.814 431.012C131.161 433.533 132.297 436.122 133.375 438.724C134.103 440.483 134.833 442.236 135.477 444.027C137.094 448.522 138.393 453.126 139.675 457.77C140.492 460.896 141.4 463.981 142.012 467.125C142.412 469.191 142.686 471.283 142.719 473.426C142.778 477.527 144.396 481.806 144.734 486.018C144.877 487.784 144.808 489.537 144.239 491.273C144.188 491.415 144.265 491.572 144.403 491.622C144.544 491.673 144.7 491.599 144.751 491.458C145.461 489.669 145.679 487.829 145.609 485.967C145.45 481.774 143.855 477.493 143.892 473.422C143.92 471.205 143.694 469.034 143.339 466.884C142.815 463.697 141.996 460.555 141.263 457.376C140.031 451.655 138.708 446.006 136.957 440.471C136.603 439.352 136.257 438.233 135.852 437.131C134.904 434.568 133.757 432.072 132.489 429.607C131.726 428.177 130.864 426.802 129.937 425.467C127.861 422.478 125.489 419.669 123.523 416.636C122.291 414.673 120.944 412.627 119.52 410.635C118.086 408.63 116.579 406.679 115.04 404.922C112.24 401.746 109.12 398.108 105.631 395.071C103.224 392.977 100.642 391.185 97.9782 389.904C96.4857 389.19 95.1912 388.273 93.7388 387.575C93.0916 387.264 92.4173 387.003 91.6941 386.797C91.3797 386.707 90.7805 386.54 90.2393 386.384C90.0293 386.324 89.8334 386.32 89.6691 386.241C89.5257 386.172 89.3951 386.13 89.346 386.012Z" fill="#4B5C49"/>
<path fill-rule="evenodd" clip-rule="evenodd" d="M367.761 139.444C367.852 139.351 367.847 139.205 367.755 139.114C367.66 139.027 367.514 139.032 367.424 139.125C366.778 139.722 366.12 140.293 365.47 140.881C362.877 143.242 360.241 145.518 357.464 147.618C352.299 151.531 346.758 154.943 340.766 157.751C331.394 162.147 320.989 165.154 309.572 166.749C301.698 167.918 293.52 169.095 285.436 170.321C279.994 171.148 274.596 172.002 269.362 172.866C248.866 176.227 227.392 180.508 207.016 187.338C193.337 191.923 180.151 197.653 168.1 205.049C154.093 213.714 143.325 223.104 133.832 233.736C124.385 244.315 116.197 256.126 107.488 269.824C103.458 276.159 99.3232 282.253 95.501 288.582C92.9497 292.805 90.5367 297.135 88.3896 301.706C77.3478 325.143 71.0544 350.864 67.7898 377.25C67.3082 381.141 66.8896 385.047 66.557 388.963C63.5116 424.855 65.6292 461.431 67.58 494.617C67.5837 494.733 67.684 494.824 67.8003 494.818C67.92 494.813 68.0093 494.713 68.0023 494.596C66.7842 461.458 65.8171 424.972 69.2853 389.209C69.6617 385.326 70.066 381.448 70.5336 377.584C73.6957 351.451 79.6064 325.916 90.3651 302.632C92.4588 298.114 94.8128 293.839 97.306 289.667C101.09 283.336 105.194 277.238 109.187 270.902C117.781 257.268 125.806 245.453 135.2 234.961C144.585 224.481 155.33 215.33 169.213 206.868C181.124 199.546 194.153 193.859 207.681 189.334C227.95 182.549 249.326 178.359 269.714 175.054L309.904 169.006C321.5 167.186 332.054 163.966 341.514 159.316C347.553 156.346 353.179 152.835 358.293 148.675C361.027 146.453 363.645 144.075 366.042 141.457C366.639 140.804 367.196 140.125 367.761 139.444Z" fill="#4B5C49"/>
<path fill-rule="evenodd" clip-rule="evenodd" d="M293.983 170.778C293.971 170.831 293.956 170.883 293.938 170.933C293.897 171.048 293.799 171.15 293.712 171.275C293.634 171.376 293.65 171.523 293.755 171.599C293.856 171.677 294.001 171.657 294.079 171.556C294.164 171.446 294.222 171.329 294.302 171.244C294.763 170.755 294.916 170.448 294.917 170.193C294.916 169.731 294.377 169.389 293.436 169.613C292.941 169.732 292.258 170.095 291.446 170.682C289.69 171.943 287.347 174.39 285.091 178.156C283.761 180.465 282.583 182.581 281.632 184.68C280.926 186.239 280.338 187.783 279.866 189.358C278.751 193.093 278.276 196.987 278.393 201.726C278.512 207.991 278.857 214.176 279.112 220.318C279.498 229.65 279.746 238.882 279.409 248.121C279.182 254.238 278.628 260.354 277.679 266.519C277.063 270.518 276.303 274.546 275.257 278.599C275.188 278.852 275.337 279.115 275.59 279.184C275.845 279.257 276.108 279.108 276.178 278.851C277.373 274.798 278.334 270.771 279.037 266.742C280.121 260.539 280.632 254.353 280.891 248.179C281.278 238.905 280.933 229.638 280.721 220.266C280.583 214.139 280.53 207.964 280.621 201.718C280.694 198.213 281.12 195.228 281.852 192.417C282.211 191.053 282.664 189.742 283.145 188.418C284.2 185.515 285.499 182.585 287.194 179.299C288.357 177.002 289.62 175.217 290.737 173.852C291.795 172.561 292.707 171.648 293.421 171.166C293.622 171.029 293.85 170.841 293.983 170.778ZM293.983 170.778C294.047 170.748 294.088 170.751 294.097 170.8C294.108 170.884 294.048 170.851 293.983 170.778ZM293.983 170.778C293.88 170.661 293.768 170.445 293.897 170.416C293.996 170.394 294.019 170.582 293.983 170.778Z" fill="#4B5C49"/>
<path fill-rule="evenodd" clip-rule="evenodd" d="M278.711 207.228C278.744 207.209 278.775 207.186 278.795 207.152C278.82 207.115 278.63 206.681 278.37 206.918C278.315 206.963 278.263 207.055 278.151 207.114C277.948 207.223 277.713 207.146 277.407 207.31C276.224 207.943 274.778 209.684 274.243 210.345C273.364 211.442 272.643 212.61 272.02 213.841C271.128 215.607 270.444 217.475 269.516 219.235C267.486 223.189 266.148 227.385 265.221 231.687C263.847 238.072 263.386 244.699 263.045 251.144C261.591 273.767 268.49 294.834 266.567 316.229C266.163 320.735 265.34 325.246 264.007 329.806C262.775 334.025 261.114 338.295 258.818 342.606C258.627 342.956 258.758 343.396 259.105 343.582C259.455 343.773 259.893 343.645 260.084 343.295C262.515 338.926 264.345 334.599 265.634 330.286C267.03 325.623 267.798 320.982 268.182 316.37C269.967 294.928 262.883 273.878 264.165 251.212C264.598 244.842 265.11 238.284 266.6 231.998C267.581 227.852 268.997 223.829 271.062 220.056C272.152 217.991 272.986 215.816 274.033 213.744C274.461 212.896 274.908 212.055 275.463 211.265C275.922 210.604 277.586 209.272 278.238 208.181C278.415 207.891 278.349 207.65 278.472 207.458C278.536 207.355 278.63 207.305 278.679 207.262C278.691 207.251 278.703 207.24 278.711 207.228Z" fill="#4B5C49"/>
<path fill-rule="evenodd" clip-rule="evenodd" d="M287.768 212.676C287.849 212.576 287.834 212.43 287.733 212.351C287.633 212.27 287.486 212.285 287.404 212.385C286.67 213.134 286.744 214.174 287.266 215.269C288.168 217.168 290.569 219.172 291.177 220.092C293.054 222.842 294.588 226.48 295.681 230.254C296.768 234.013 297.407 237.916 297.462 241.216C297.575 245.988 297.374 250.587 296.933 255.049C296.237 262.109 294.845 268.818 292.763 275.31C289.345 285.96 284.092 296.036 276.794 305.939C276.564 306.237 276.624 306.662 276.918 306.89C277.217 307.116 277.641 307.06 277.87 306.761C285.63 296.919 291.449 286.879 295.132 276.092C297.397 269.464 298.857 262.554 299.523 255.293C299.938 250.723 300 246.013 299.788 241.137C299.609 237.666 298.807 233.59 297.511 229.683C296.218 225.777 294.451 222.038 292.374 219.24C291.706 218.371 289.298 216.504 288.151 214.769C287.658 214.024 287.354 213.327 287.768 212.676Z" fill="#4B5C49"/>
<path fill-rule="evenodd" clip-rule="evenodd" d="M327.781 162.936C327.562 162.899 327.24 162.833 326.949 162.743C326.507 162.606 326.037 162.369 325.477 162.17C324.402 161.787 323.139 161.407 321.943 160.969C319.567 160.097 317.424 159.214 317.19 159.114C313.802 157.74 310.565 156.112 307.292 154.544C305.089 153.49 302.865 152.483 300.648 151.458C298.25 150.354 295.84 149.283 293.402 148.248C278.262 141.913 268.775 138.881 258.793 138.121C249.178 137.386 239.103 138.763 223.005 141.352C222.693 141.395 222.474 141.686 222.517 141.999C222.564 142.313 222.854 142.532 223.166 142.488C239.129 140.506 249.106 139.486 258.566 140.534C268.27 141.613 277.403 144.895 291.954 151.555C296.764 153.693 301.397 156.144 306.207 158.217C309.457 159.618 312.792 160.793 316.197 161.869C316.578 161.983 321.621 163.645 325.097 164.102C326.411 164.275 327.481 164.242 328.054 164.098C328.499 163.984 328.765 163.813 328.85 163.588C328.94 163.339 328.972 162.912 328.448 162.468C328.296 162.299 328.033 162.288 327.869 162.438C327.723 162.569 327.694 162.775 327.781 162.936Z" fill="#4B5C49"/>
<path fill-rule="evenodd" clip-rule="evenodd" d="M295.65 147.435C295.605 147.496 295.589 147.573 295.612 147.646C295.652 147.768 295.783 147.838 295.904 147.797C296.337 147.778 296.421 147.512 296.464 147.34C296.512 147.144 296.349 146.846 295.949 146.522C295.198 145.924 293.291 145.282 292.578 144.686C290.627 143.198 288.668 141.76 286.75 140.253C285.491 139.262 284.25 138.24 283.046 137.158C279.595 134.1 275.978 131.63 272.133 129.589C266.462 126.58 260.32 124.484 253.674 122.48C248.538 120.941 243.195 120.596 237.846 120.945C229.94 121.463 222.019 123.491 214.737 125.288C205.247 127.646 196.821 129.45 188.338 130.106C184.82 130.381 181.293 130.431 177.672 130.291C172.628 130.096 167.4 129.514 161.765 128.29C161.307 128.178 160.844 128.465 160.735 128.921C160.625 129.38 160.907 129.843 161.366 129.952C169.128 131.958 176.166 132.865 183.038 132.835C193.566 132.791 203.665 130.63 215.344 127.751C222.484 125.979 230.253 123.972 238.01 123.454C243.062 123.119 248.11 123.415 252.964 124.86C258.357 126.458 263.393 128.159 268.15 130.305C272.958 132.473 277.479 135.094 281.748 138.671C283.028 139.73 284.341 140.722 285.676 141.683C287.659 143.114 289.678 144.478 291.693 145.895C292.042 146.119 292.585 146.365 293.183 146.584C293.985 146.873 294.862 147.182 295.419 147.379C295.494 147.402 295.578 147.425 295.65 147.435Z" fill="#4B5C49"/>
<path fill-rule="evenodd" clip-rule="evenodd" d="M239.697 178.582C239.723 178.596 239.748 178.601 239.777 178.604C239.906 178.616 240.017 178.519 240.028 178.393C240.251 178.218 239.925 178.234 239.851 178.093C239.807 178.013 239.775 178.07 239.435 178.107C239.285 178.121 239.086 178.221 238.824 178.409C238.063 178.946 237.074 180.193 236.765 180.501C235.545 181.775 234.216 182.949 232.968 184.214C232.107 185.084 231.293 186.002 230.542 186.966C228.397 189.751 226.48 192.683 224.839 195.767C222.393 200.368 220.517 205.265 218.789 210.173C217.404 214.12 216.711 218.323 216.357 222.638C215.568 232.286 216.504 242.49 214.848 251.482C213.581 258.385 213.891 264.764 213.962 270.813C213.997 273.595 213.997 276.308 213.709 278.973C213.469 281.203 213.041 283.403 212.307 285.584C212.237 285.78 212.338 285.995 212.533 286.066C212.728 286.136 212.944 286.035 213.014 285.839C214.292 282.528 214.884 279.145 215.142 275.654C215.692 268.282 214.81 260.44 216.58 251.817C218.411 242.804 217.672 232.53 218.638 222.843C219.046 218.746 219.768 214.759 221.153 211.026C222.617 207.047 224.266 203.119 226.105 199.294C227.933 195.5 229.949 191.796 232.418 188.358C232.909 187.659 233.445 186.996 233.992 186.335C235.317 184.737 236.726 183.203 238.012 181.59C238.271 181.242 239.275 180.038 239.732 179.235C239.866 179.001 239.817 178.671 239.937 178.707C240.021 178.73 239.867 178.586 239.851 178.619C239.794 178.735 239.752 178.652 239.697 178.582ZM239.623 178.525C239.615 178.526 239.608 178.524 239.6 178.525C239.571 178.522 239.577 178.505 239.587 178.478C239.595 178.496 239.608 178.512 239.623 178.525Z" fill="#4B5C49"/>
<path fill-rule="evenodd" clip-rule="evenodd" d="M216.976 219.329C217.101 219.329 217.205 219.222 217.204 219.096C217.205 218.967 217.098 218.863 216.972 218.864C216.212 218.776 215.327 219.249 214.475 220.051C212.941 221.498 211.602 223.998 210.992 225.005C209.832 226.903 208.673 228.725 207.646 230.603C206.589 232.542 205.652 234.52 204.831 236.552C203.755 239.231 202.929 242.03 202.341 245.041C200.525 254.067 199.637 263.549 199.603 273.034C199.573 282.498 200.395 291.972 202.243 300.996C202.684 303.159 203.235 305.293 203.848 307.412C205.557 313.277 207.725 319.027 209.562 324.855C210.347 327.34 211.093 329.83 211.669 332.369C211.735 332.691 212.05 332.895 212.367 332.827C212.688 332.76 212.892 332.448 212.825 332.127C212.423 329.959 211.929 327.816 211.337 325.693C208.986 317.314 205.479 309.23 203.763 300.684C201.973 291.763 201.122 282.401 201.271 273.049C201.427 263.699 202.584 254.371 204.565 245.511C205.218 242.665 206.156 240.054 207.191 237.509C207.993 235.539 208.885 233.625 209.786 231.683C210.681 229.761 211.552 227.809 212.496 225.814C212.974 224.805 214.111 222.4 215.305 220.788C215.864 220.037 216.367 219.415 216.976 219.329Z" fill="#4B5C49"/>
<path fill-rule="evenodd" clip-rule="evenodd" d="M221.526 213.629C221.533 213.506 221.438 213.399 221.315 213.393C221.187 213.389 221.084 213.485 221.077 213.608C220.956 214.22 220.959 214.823 221.1 215.445C221.226 216.012 221.497 216.559 221.787 217.117C222.609 218.709 223.838 220.291 224.791 221.816C225.187 222.446 225.538 223.057 225.733 223.676C226.443 225.928 226.883 228.285 227.216 230.675C227.727 234.311 227.956 238.024 228.215 241.577C228.36 243.423 228.407 245.288 228.401 247.16C228.387 251.59 228.083 256.063 227.995 260.443C227.971 263.6 227.9 266.741 227.817 269.873C227.692 274.589 227.508 279.278 227.057 283.957C226.56 289.115 225.784 294.253 224.567 299.391C223.404 304.252 221.974 308.587 220.357 312.766C217.875 319.174 214.97 325.216 212.045 332.242C211.966 332.419 212.048 332.624 212.223 332.699C212.4 332.778 212.605 332.695 212.681 332.517C215.804 325.563 218.85 319.583 221.536 313.24C223.308 309.056 224.924 304.72 226.279 299.833C228.094 293.352 229.233 286.849 229.934 280.282C230.635 273.738 230.891 267.141 231.074 260.482C231.11 256.72 231.32 252.887 231.345 249.071C231.362 246.472 231.288 243.881 231.039 241.322C230.667 237.722 230.358 233.945 229.681 230.273C229.222 227.768 228.589 225.315 227.709 222.986C227.419 222.219 226.969 221.439 226.39 220.693C225.303 219.288 223.812 217.958 222.799 216.503C222.487 216.052 222.239 215.589 222.025 215.127C221.793 214.632 221.586 214.161 221.526 213.629Z" fill="#4B5C49"/>
<path fill-rule="evenodd" clip-rule="evenodd" d="M198.452 192.308C198.549 192.388 198.698 192.374 198.779 192.277C198.861 192.177 198.848 192.031 198.749 191.95C198.033 191.116 196.872 190.519 195.435 190.176C192.633 189.508 189.023 189.898 187.105 189.889C184.437 189.956 181.666 189.673 178.871 189.282C174.642 188.687 170.372 187.795 166.409 187.029C159.168 185.84 152.192 183.671 145.059 182.132C141.953 181.462 138.82 180.907 135.624 180.597C127.928 179.826 119.721 180.353 111.683 181.875C103.704 183.383 95.8862 185.867 88.938 189.198C87.3835 189.937 85.8817 190.843 84.4113 191.833C81.0768 194.079 77.9071 196.761 74.6485 198.881C74.4277 199.027 74.3638 199.32 74.5059 199.539C74.6477 199.757 74.9408 199.821 75.1608 199.679C78.4423 197.586 81.6372 194.932 84.9979 192.715C86.4311 191.773 87.8971 190.907 89.4109 190.207C96.3099 187.033 104.044 184.644 111.942 183.339C119.83 182.034 127.873 181.81 135.37 182.791C138.463 183.202 141.484 183.853 144.477 184.612C151.606 186.42 158.558 188.847 165.809 190.306C169.845 191 174.191 191.877 178.5 192.314C181.471 192.62 184.423 192.705 187.239 192.482C188.836 192.304 191.603 191.827 194.123 191.779C194.9 191.766 195.642 191.809 196.328 191.869C197.155 191.939 197.867 191.99 198.452 192.308Z" fill="#4B5C49"/>
<path fill-rule="evenodd" clip-rule="evenodd" d="M163.979 185.269C162.598 184.833 160.331 183.984 159.999 183.796C158.872 183.241 157.79 182.596 156.732 181.906C154.212 180.266 151.834 178.361 149.368 176.698C147.342 175.347 145.346 173.965 143.324 172.637C138.522 169.489 133.659 166.517 128.57 164C123.724 161.605 118.653 159.655 113.164 158.457C100.909 155.734 89.3767 158.948 78.8337 165.094C71.3505 169.455 64.3402 175.263 57.9855 181.506C51.3361 188.038 45.4024 195.027 40.2232 201.122C40.0219 201.354 40.0478 201.706 40.2805 201.908C40.5132 202.11 40.8658 202.085 41.0671 201.853C46.3224 195.873 52.3881 189.061 59.0696 182.62C65.388 176.532 72.2549 170.76 79.6455 166.495C89.8311 160.616 100.964 157.552 112.76 160.247C118.078 161.478 122.972 163.452 127.654 165.83C132.649 168.362 137.376 171.4 142.14 174.462C144.175 175.771 146.231 177.061 148.292 178.36C150.82 179.938 153.27 181.759 155.851 183.314C156.987 183.998 158.146 184.633 159.349 185.173C159.815 185.353 163.492 186.218 164.63 186.243C165.432 186.262 165.961 185.71 164.309 185.11C164.194 185.053 164.054 185.102 163.997 185.215C163.988 185.235 163.982 185.252 163.979 185.269Z" fill="#4B5C49"/>
<path fill-rule="evenodd" clip-rule="evenodd" d="M150.071 184.446C150.088 184.452 150.106 184.458 150.125 184.461C150.165 184.464 150.201 184.462 150.237 184.448C150.199 184.446 150.145 184.434 150.095 184.424C150.172 184.36 150.233 184.344 150.273 184.396C150.281 184.407 150.285 184.416 150.287 184.424C150.341 184.387 150.378 184.332 150.389 184.263C150.576 184.087 150.483 183.977 150.479 183.884C150.472 183.63 150.191 183.56 149.834 183.728C149.502 183.886 148.608 185.225 148.049 185.553L141.636 189.035C138.384 190.754 135.108 192.309 131.784 193.754C128.459 195.203 125.087 196.54 121.634 197.794C115.484 200.106 109.146 201.665 102.77 203.065C93.1069 205.186 83.3403 206.888 73.8648 209.593C69.8997 210.728 65.9884 212.042 62.1626 213.664C61.9568 213.746 61.8575 213.985 61.9427 214.191C62.0263 214.4 62.2637 214.497 62.4706 214.412C66.2949 212.887 70.1953 211.669 74.148 210.637C83.6637 208.155 93.4749 206.823 103.143 204.827C109.624 203.487 116.032 201.828 122.267 199.489C125.725 198.149 129.105 196.735 132.427 195.193C135.749 193.652 139.011 191.986 142.249 190.167C143.731 189.333 145.261 188.517 146.728 187.618C147.364 187.23 147.982 186.82 148.59 186.399C149.029 186.093 149.707 184.787 150.071 184.446ZM150.237 184.448C150.271 184.449 150.291 184.445 150.287 184.424C150.271 184.434 150.254 184.443 150.237 184.448ZM150.006 184.407C149.997 184.404 149.988 184.404 149.982 184.402C149.875 184.402 149.823 184.151 149.823 184.151C149.823 184.151 149.895 184.138 149.929 184.196C149.916 184.279 149.948 184.356 150.006 184.407Z" fill="#4B5C49"/>
<path fill-rule="evenodd" clip-rule="evenodd" d="M149.476 220.206C149.491 220.082 149.401 219.965 149.275 219.947C149.147 219.931 149.03 220.022 149.014 220.15C148.908 220.436 148.754 220.681 148.611 220.969C148.318 221.564 147.967 222.165 147.56 222.787C146.187 224.883 144.319 227.071 143.411 229.018C141.665 233.173 140.407 237.409 139.627 241.742C138.85 246.056 138.55 250.455 138.522 254.928C138.481 261.264 138.633 267.739 138.991 274.203C139.349 280.668 139.914 287.119 140.767 293.404C142.488 306.189 144.702 318.725 145.525 331.384C146.064 339.754 146.011 348.185 144.74 356.786C144.709 356.977 144.838 357.157 145.03 357.184C145.221 357.214 145.401 357.085 145.431 356.894C146.849 348.247 147.067 339.758 146.622 331.318C145.949 318.622 143.783 306.05 142.161 293.221C141.377 286.965 140.86 280.55 140.592 274.125C140.326 267.694 140.312 261.254 140.464 254.955C140.57 250.6 141.004 246.33 141.772 242.13C142.536 237.945 143.635 233.822 145.271 229.784C146.082 227.527 148.355 224.968 149.184 222.436C149.437 221.663 149.512 220.924 149.476 220.206Z" fill="#4B5C49"/>
<path fill-rule="evenodd" clip-rule="evenodd" d="M139.592 264.016C139.611 263.843 139.488 263.688 139.316 263.672C139.145 263.652 138.991 263.776 138.972 263.948C138.888 264.577 139.317 265.471 139.996 266.413C141.224 268.124 143.252 270.04 143.898 270.73C147.301 274.228 150.769 277.566 153.728 281.314C155.661 283.76 157.371 286.384 158.697 289.342C160.959 294.349 162.948 300.144 164.495 306.192C165.471 310.006 166.273 313.922 166.787 317.826C167.683 324.614 167.752 331.356 166.452 337.39C165.613 341.457 164.25 345.396 162.614 349.248C160.137 355.083 157.059 360.709 154.268 366.267C154.147 366.497 154.237 366.785 154.467 366.906C154.697 367.027 154.984 366.94 155.106 366.706C158.106 361.224 161.386 355.671 164.079 349.902C165.901 345.999 167.451 341.994 168.465 337.841C170.276 330.117 170.077 321.203 168.444 312.492C166.825 303.854 163.803 295.439 160.461 288.512C158.965 285.466 157.087 282.781 154.981 280.288C151.866 276.601 148.262 273.336 144.71 269.914C144.115 269.361 142.415 267.971 141.122 266.56C140.254 265.61 139.539 264.679 139.592 264.016Z" fill="#4B5C49"/>
<path fill-rule="evenodd" clip-rule="evenodd" d="M139.902 266.097C139.951 265.981 139.896 265.843 139.779 265.793C139.66 265.743 139.524 265.797 139.474 265.916C139.319 266.127 139.104 266.285 138.896 266.515C138.212 267.267 137.349 268.179 136.568 269.055C136.091 269.588 135.678 270.136 135.395 270.67C133.958 273.383 132.585 276.397 131.402 279.482C130.214 282.578 129.22 285.744 128.505 288.736C126.484 297.684 126.848 307.876 128.604 318.14C131.184 333.197 136.749 348.403 142.007 360.018C142.097 360.214 142.324 360.3 142.519 360.214C142.713 360.128 142.801 359.896 142.715 359.701C137.611 348.101 132.253 332.923 129.839 317.934C128.215 307.843 127.921 297.84 129.986 289.079C130.643 286.131 131.582 283.018 132.688 279.961C133.794 276.905 135.067 273.901 136.42 271.196C137.034 269.928 138.588 268.64 139.393 267.338C139.656 266.915 139.809 266.494 139.902 266.097Z" fill="#4B5C49"/>
<path fill-rule="evenodd" clip-rule="evenodd" d="M117.716 254.883C117.758 254.932 117.75 254.922 117.716 254.883ZM117.716 254.883C117.7 254.866 117.679 254.843 117.655 254.815C117.722 254.805 117.784 254.77 117.822 254.708C117.956 254.619 117.829 254.512 117.811 254.433C117.803 254.4 117.719 254.366 117.498 254.347C117.407 254.337 117.245 254.302 116.971 254.359C115.866 254.593 113.443 255.895 112.798 256.104C111.437 256.593 110.054 257.023 108.657 257.4C107.259 257.776 105.848 258.097 104.429 258.382L78.9781 263.637C62.4106 267.017 44.6394 270.625 29.7729 278.664C19.7636 284.076 11.0767 291.49 4.92783 302.115C4.79453 302.341 4.86856 302.631 5.09247 302.761C5.31549 302.895 5.60456 302.82 5.73787 302.594C11.9594 292.296 20.6237 285.217 30.5156 280.067C45.3531 272.342 62.9679 268.962 79.4066 265.822C82.8132 265.142 86.2182 264.442 89.6079 263.671C94.6833 262.514 99.73 261.237 104.79 260.029C106.23 259.679 107.661 259.292 109.077 258.85C110.496 258.409 111.898 257.921 113.275 257.369C113.623 257.228 114.505 256.822 115.385 256.34C116.144 255.924 116.94 255.521 117.356 255.183C117.549 255.028 117.609 254.772 117.665 254.83C117.687 254.853 117.703 254.871 117.716 254.883Z" fill="#4B5C49"/>
</svg>
